<svg width="736" height="1134" viewBox="0 0 736 1134" fill="none" xmlns="http://www.w3.org/2000/svg">
<g clip-path="url(#clip0_3229_502)">
<path d="M261.89 323.17H0V710.54H261.89V323.17Z" fill="url(#paint0_linear_3229_502)"/>
<path d="M385.23 327.77H265.74V834.54H385.23V327.77Z" fill="url(#paint1_linear_3229_502)"/>
<path d="M489.5 107.4H0V335.25H489.5V107.4Z" fill="#231F20"/>
<path d="M38.142 143.458C39.486 143.458 40.458 143.206 41.058 142.702C41.682 142.174 41.994 141.526 41.994 140.758V140.506C41.994 139.594 41.694 138.862 41.094 138.31C40.518 137.758 39.69 137.482 38.61 137.482C37.602 137.482 36.654 137.746 35.766 138.274C34.878 138.778 34.122 139.51 33.498 140.47L30.114 137.302C30.594 136.678 31.11 136.114 31.662 135.61C32.214 135.082 32.838 134.638 33.534 134.278C34.23 133.894 35.01 133.606 35.874 133.414C36.738 133.198 37.71 133.09 38.79 133.09C40.134 133.09 41.346 133.246 42.426 133.558C43.53 133.87 44.466 134.326 45.234 134.926C46.026 135.502 46.626 136.198 47.034 137.014C47.466 137.83 47.682 138.742 47.682 139.75C47.682 140.542 47.55 141.262 47.286 141.91C47.046 142.558 46.698 143.122 46.242 143.602C45.81 144.082 45.306 144.478 44.73 144.79C44.154 145.078 43.542 145.282 42.894 145.402V145.618C43.638 145.762 44.322 146.002 44.946 146.338C45.594 146.65 46.146 147.058 46.602 147.562C47.082 148.066 47.454 148.666 47.718 149.362C47.982 150.034 48.114 150.802 48.114 151.666C48.114 152.794 47.886 153.814 47.43 154.726C46.974 155.638 46.326 156.418 45.486 157.066C44.646 157.714 43.638 158.218 42.462 158.578C41.286 158.914 39.99 159.082 38.574 159.082C37.302 159.082 36.174 158.95 35.19 158.686C34.206 158.422 33.342 158.074 32.598 157.642C31.878 157.186 31.242 156.67 30.69 156.094C30.162 155.518 29.694 154.906 29.286 154.258L33.282 151.162C33.834 152.194 34.506 153.046 35.298 153.718C36.114 154.366 37.206 154.69 38.574 154.69C39.798 154.69 40.746 154.39 41.418 153.79C42.114 153.166 42.462 152.326 42.462 151.27V151.054C42.462 150.022 42.066 149.254 41.274 148.75C40.506 148.222 39.438 147.958 38.07 147.958H35.802V143.458H38.142ZM55.8759 152.566C56.9559 152.566 57.7479 152.842 58.2519 153.394C58.7799 153.922 59.0439 154.606 59.0439 155.446V156.166C59.0439 157.63 58.6839 159.07 57.9639 160.486C57.2679 161.902 56.3439 163.054 55.1919 163.942H51.5919C52.4319 163.15 53.1519 162.358 53.7519 161.566C54.3519 160.798 54.8079 159.934 55.1199 158.974C54.2799 158.83 53.6679 158.506 53.2839 158.002C52.8999 157.474 52.7079 156.862 52.7079 156.166V155.446C52.7079 154.606 52.9599 153.922 53.4639 153.394C53.9919 152.842 54.7959 152.566 55.8759 152.566ZM64.8244 158.65V154.294H71.5924V137.446H71.2684L66.1564 144.142L62.7004 141.442L68.7124 133.522H76.9924V154.294H82.3204V158.65H64.8244ZM92.4584 143.458C93.8024 143.458 94.7744 143.206 95.3744 142.702C95.9984 142.174 96.3104 141.526 96.3104 140.758V140.506C96.3104 139.594 96.0104 138.862 95.4104 138.31C94.8344 137.758 94.0064 137.482 92.9264 137.482C91.9184 137.482 90.9704 137.746 90.0824 138.274C89.1944 138.778 88.4384 139.51 87.8144 140.47L84.4304 137.302C84.9104 136.678 85.4264 136.114 85.9784 135.61C86.5304 135.082 87.1544 134.638 87.8504 134.278C88.5464 133.894 89.3264 133.606 90.1904 133.414C91.0544 133.198 92.0264 133.09 93.1064 133.09C94.4504 133.09 95.6624 133.246 96.7424 133.558C97.8464 133.87 98.7824 134.326 99.5504 134.926C100.342 135.502 100.942 136.198 101.35 137.014C101.782 137.83 101.998 138.742 101.998 139.75C101.998 140.542 101.866 141.262 101.602 141.91C101.362 142.558 101.014 143.122 100.558 143.602C100.126 144.082 99.6224 144.478 99.0464 144.79C98.4704 145.078 97.8584 145.282 97.2104 145.402V145.618C97.9544 145.762 98.6384 146.002 99.2624 146.338C99.9104 146.65 100.462 147.058 100.918 147.562C101.398 148.066 101.77 148.666 102.034 149.362C102.298 150.034 102.43 150.802 102.43 151.666C102.43 152.794 102.202 153.814 101.746 154.726C101.29 155.638 100.642 156.418 99.8024 157.066C98.9624 157.714 97.9544 158.218 96.7784 158.578C95.6024 158.914 94.3064 159.082 92.8904 159.082C91.6184 159.082 90.4904 158.95 89.5064 158.686C88.5224 158.422 87.6584 158.074 86.9144 157.642C86.1944 157.186 85.5584 156.67 85.0064 156.094C84.4784 155.518 84.0104 154.906 83.6024 154.258L87.5984 151.162C88.1504 152.194 88.8224 153.046 89.6144 153.718C90.4304 154.366 91.5224 154.69 92.8904 154.69C94.1144 154.69 95.0624 154.39 95.7344 153.79C96.4304 153.166 96.7784 152.326 96.7784 151.27V151.054C96.7784 150.022 96.3824 149.254 95.5904 148.75C94.8224 148.222 93.7544 147.958 92.3864 147.958H90.1184V143.458H92.4584ZM114.044 143.458C115.388 143.458 116.36 143.206 116.96 142.702C117.584 142.174 117.896 141.526 117.896 140.758V140.506C117.896 139.594 117.596 138.862 116.996 138.31C116.42 137.758 115.592 137.482 114.512 137.482C113.504 137.482 112.556 137.746 111.668 138.274C110.78 138.778 110.024 139.51 109.4 140.47L106.016 137.302C106.496 136.678 107.012 136.114 107.564 135.61C108.116 135.082 108.74 134.638 109.436 134.278C110.132 133.894 110.912 133.606 111.776 133.414C112.64 133.198 113.612 133.09 114.692 133.09C116.036 133.09 117.248 133.246 118.328 133.558C119.432 133.87 120.368 134.326 121.136 134.926C121.928 135.502 122.528 136.198 122.936 137.014C123.368 137.83 123.584 138.742 123.584 139.75C123.584 140.542 123.452 141.262 123.188 141.91C122.948 142.558 122.6 143.122 122.144 143.602C121.712 144.082 121.208 144.478 120.632 144.79C120.056 145.078 119.444 145.282 118.796 145.402V145.618C119.54 145.762 120.224 146.002 120.848 146.338C121.496 146.65 122.048 147.058 122.504 147.562C122.984 148.066 123.356 148.666 123.62 149.362C123.884 150.034 124.016 150.802 124.016 151.666C124.016 152.794 123.788 153.814 123.332 154.726C122.876 155.638 122.228 156.418 121.388 157.066C120.548 157.714 119.54 158.218 118.364 158.578C117.188 158.914 115.892 159.082 114.476 159.082C113.204 159.082 112.076 158.95 111.092 158.686C110.108 158.422 109.244 158.074 108.5 157.642C107.78 157.186 107.144 156.67 106.592 156.094C106.064 155.518 105.596 154.906 105.188 154.258L109.184 151.162C109.736 152.194 110.408 153.046 111.2 153.718C112.016 154.366 113.108 154.69 114.476 154.69C115.7 154.69 116.648 154.39 117.32 153.79C118.016 153.166 118.364 152.326 118.364 151.27V151.054C118.364 150.022 117.968 149.254 117.176 148.75C116.408 148.222 115.34 147.958 113.972 147.958H111.704V143.458H114.044Z" fill="white"/>
<path d="M488.95 319.08H389.64V1133.98H488.95V319.08Z" fill="url(#paint2_linear_3229_502)"/>
<path d="M38.077 186.14H29.679V183.811L33.334 180.683C33.6626 180.399 33.9403 180.144 34.167 179.918C34.3936 179.68 34.575 179.453 34.711 179.238C34.8583 179.011 34.9603 178.79 35.017 178.575C35.085 178.359 35.119 178.127 35.119 177.878V177.64C35.119 177.413 35.0736 177.215 34.983 177.045C34.8923 176.875 34.7733 176.733 34.626 176.62C34.4786 176.506 34.3086 176.421 34.116 176.365C33.9346 176.308 33.7476 176.28 33.555 176.28C33.2716 176.28 33.0223 176.325 32.807 176.416C32.603 176.506 32.4216 176.631 32.263 176.79C32.1156 176.937 31.991 177.113 31.889 177.317C31.787 177.509 31.7076 177.719 31.651 177.946L29.424 177.096C29.56 176.688 29.747 176.302 29.985 175.94C30.223 175.566 30.5176 175.243 30.869 174.971C31.2316 174.687 31.6566 174.466 32.144 174.308C32.6313 174.149 33.181 174.07 33.793 174.07C34.439 174.07 35.0113 174.16 35.51 174.342C36.0086 174.523 36.428 174.772 36.768 175.09C37.1193 175.407 37.3856 175.787 37.567 176.229C37.7483 176.659 37.839 177.13 37.839 177.64C37.839 178.15 37.754 178.614 37.584 179.034C37.414 179.453 37.1816 179.85 36.887 180.224C36.6036 180.586 36.2693 180.932 35.884 181.261C35.4986 181.589 35.0963 181.924 34.677 182.264L32.467 183.998H38.077V186.14ZM44.0033 186.344C42.4507 186.344 41.3003 185.805 40.5523 184.729C39.8043 183.652 39.4303 182.145 39.4303 180.207C39.4303 178.269 39.8043 176.761 40.5523 175.685C41.3003 174.608 42.4507 174.07 44.0033 174.07C45.556 174.07 46.7063 174.608 47.4543 175.685C48.2023 176.761 48.5763 178.269 48.5763 180.207C48.5763 182.145 48.2023 183.652 47.4543 184.729C46.7063 185.805 45.556 186.344 44.0033 186.344ZM44.0033 184.185C44.6833 184.185 45.1537 183.935 45.4143 183.437C45.675 182.938 45.8053 182.235 45.8053 181.329V179.085C45.8053 178.178 45.675 177.475 45.4143 176.977C45.1537 176.478 44.6833 176.229 44.0033 176.229C43.3233 176.229 42.853 176.478 42.5923 176.977C42.3317 177.475 42.2013 178.178 42.2013 179.085V181.329C42.2013 182.235 42.3317 182.938 42.5923 183.437C42.853 183.935 43.3233 184.185 44.0033 184.185ZM50.6947 186.14V184.083H53.8907V176.127H53.7377L51.3237 179.289L49.6917 178.014L52.5307 174.274H56.4407V184.083H58.9567V186.14H50.6947ZM64.39 186.344C63.6874 186.344 63.0584 186.259 62.503 186.089C61.959 185.907 61.5 185.664 61.126 185.358C60.752 185.052 60.463 184.689 60.259 184.27C60.0664 183.85 59.97 183.391 59.97 182.893C59.97 182.133 60.1797 181.516 60.599 181.04C61.0184 180.552 61.585 180.212 62.299 180.02V179.884C61.721 179.668 61.245 179.34 60.871 178.898C60.5084 178.456 60.327 177.889 60.327 177.198C60.327 176.744 60.412 176.325 60.582 175.94C60.7634 175.554 61.024 175.226 61.364 174.954C61.7154 174.67 62.1404 174.455 62.639 174.308C63.149 174.149 63.7327 174.07 64.39 174.07C65.0474 174.07 65.6254 174.149 66.124 174.308C66.634 174.455 67.059 174.67 67.399 174.954C67.7504 175.226 68.011 175.554 68.181 175.94C68.3624 176.325 68.453 176.744 68.453 177.198C68.453 177.889 68.266 178.456 67.892 178.898C67.5294 179.34 67.059 179.668 66.481 179.884V180.02C67.195 180.212 67.7617 180.552 68.181 181.04C68.6004 181.516 68.81 182.133 68.81 182.893C68.81 183.391 68.708 183.85 68.504 184.27C68.3114 184.689 68.028 185.052 67.654 185.358C67.28 185.664 66.8154 185.907 66.26 186.089C65.716 186.259 65.0927 186.344 64.39 186.344ZM64.39 184.389C64.9567 184.389 65.3874 184.258 65.682 183.998C65.988 183.726 66.141 183.352 66.141 182.876V182.536C66.141 182.06 65.988 181.691 65.682 181.431C65.3874 181.159 64.9567 181.023 64.39 181.023C63.8234 181.023 63.387 181.159 63.081 181.431C62.7864 181.691 62.639 182.06 62.639 182.536V182.876C62.639 183.352 62.7864 183.726 63.081 183.998C63.387 184.258 63.8234 184.389 64.39 184.389ZM64.39 179.153C64.934 179.153 65.3477 179.028 65.631 178.779C65.9144 178.518 66.056 178.167 66.056 177.725V177.453C66.056 177.011 65.9144 176.665 65.631 176.416C65.3477 176.155 64.934 176.025 64.39 176.025C63.846 176.025 63.4324 176.155 63.149 176.416C62.8657 176.665 62.724 177.011 62.724 177.453V177.725C62.724 178.167 62.8657 178.518 63.149 178.779C63.4324 179.028 63.846 179.153 64.39 179.153ZM74.81 174.274H80.573C81.559 174.274 82.324 174.551 82.868 175.107C83.4233 175.662 83.701 176.399 83.701 177.317C83.701 177.77 83.6386 178.155 83.514 178.473C83.4006 178.79 83.242 179.051 83.038 179.255C82.8453 179.459 82.613 179.612 82.341 179.714C82.0803 179.804 81.797 179.855 81.491 179.867V179.969C81.7743 179.969 82.069 180.02 82.375 180.122C82.6923 180.224 82.9813 180.388 83.242 180.615C83.5026 180.83 83.718 181.113 83.888 181.465C84.0693 181.816 84.16 182.247 84.16 182.757C84.16 183.221 84.0806 183.663 83.922 184.083C83.7746 184.491 83.565 184.848 83.293 185.154C83.021 185.46 82.698 185.703 82.324 185.885C81.95 186.055 81.542 186.14 81.1 186.14H74.81V174.274ZM77.394 183.964H80.369C80.709 183.964 80.9753 183.873 81.168 183.692C81.372 183.499 81.474 183.233 81.474 182.893V182.315C81.474 181.975 81.372 181.714 81.168 181.533C80.9753 181.34 80.709 181.244 80.369 181.244H77.394V183.964ZM77.394 179.136H79.961C80.301 179.136 80.5673 179.039 80.76 178.847C80.9526 178.654 81.049 178.388 81.049 178.048V177.538C81.049 177.198 80.9526 176.931 80.76 176.739C80.5673 176.546 80.301 176.45 79.961 176.45H77.394V179.136ZM90.9088 186.344C90.1268 186.344 89.4128 186.213 88.7668 185.953C88.1208 185.692 87.5712 185.307 87.1178 184.797C86.6645 184.275 86.3132 183.635 86.0638 182.876C85.8145 182.105 85.6898 181.215 85.6898 180.207C85.6898 179.198 85.8145 178.314 86.0638 177.555C86.3132 176.784 86.6645 176.144 87.1178 175.634C87.5712 175.112 88.1208 174.721 88.7668 174.461C89.4128 174.2 90.1268 174.07 90.9088 174.07C91.6908 174.07 92.4048 174.2 93.0508 174.461C93.6968 174.721 94.2465 175.112 94.6998 175.634C95.1532 176.144 95.5045 176.784 95.7538 177.555C96.0032 178.314 96.1278 179.198 96.1278 180.207C96.1278 181.215 96.0032 182.105 95.7538 182.876C95.5045 183.635 95.1532 184.275 94.6998 184.797C94.2465 185.307 93.6968 185.692 93.0508 185.953C92.4048 186.213 91.6908 186.344 90.9088 186.344ZM90.9088 184.049C91.6908 184.049 92.2972 183.794 92.7278 183.284C93.1698 182.774 93.3908 182.043 93.3908 181.091V179.323C93.3908 178.371 93.1698 177.64 92.7278 177.13C92.2972 176.62 91.6908 176.365 90.9088 176.365C90.1268 176.365 89.5148 176.62 89.0728 177.13C88.6422 177.64 88.4268 178.371 88.4268 179.323V181.091C88.4268 182.043 88.6422 182.774 89.0728 183.284C89.5148 183.794 90.1268 184.049 90.9088 184.049ZM103.045 186.344C102.263 186.344 101.549 186.213 100.903 185.953C100.257 185.692 99.7069 185.307 99.2536 184.797C98.8003 184.275 98.4489 183.635 98.1996 182.876C97.9503 182.105 97.8256 181.215 97.8256 180.207C97.8256 179.198 97.9503 178.314 98.1996 177.555C98.4489 176.784 98.8003 176.144 99.2536 175.634C99.7069 175.112 100.257 174.721 100.903 174.461C101.549 174.2 102.263 174.07 103.045 174.07C103.827 174.07 104.541 174.2 105.187 174.461C105.833 174.721 106.382 175.112 106.836 175.634C107.289 176.144 107.64 176.784 107.89 177.555C108.139 178.314 108.264 179.198 108.264 180.207C108.264 181.215 108.139 182.105 107.89 182.876C107.64 183.635 107.289 184.275 106.836 184.797C106.382 185.307 105.833 185.692 105.187 185.953C104.541 186.213 103.827 186.344 103.045 186.344ZM103.045 184.049C103.827 184.049 104.433 183.794 104.864 183.284C105.306 182.774 105.527 182.043 105.527 181.091V179.323C105.527 178.371 105.306 177.64 104.864 177.13C104.433 176.62 103.827 176.365 103.045 176.365C102.263 176.365 101.651 176.62 101.209 177.13C100.778 177.64 100.563 178.371 100.563 179.323V181.091C100.563 182.043 100.778 182.774 101.209 183.284C101.651 183.794 102.263 184.049 103.045 184.049ZM114.936 176.569V186.14H112.352V176.569H109.139V174.274H118.149V176.569H114.936ZM128.728 186.344C127.923 186.344 127.198 186.219 126.552 185.97C125.906 185.709 125.356 185.329 124.903 184.831C124.45 184.321 124.098 183.692 123.849 182.944C123.6 182.184 123.475 181.3 123.475 180.292C123.475 179.294 123.6 178.41 123.849 177.64C124.098 176.858 124.45 176.206 124.903 175.685C125.356 175.152 125.906 174.75 126.552 174.478C127.198 174.206 127.923 174.07 128.728 174.07C129.827 174.07 130.734 174.296 131.448 174.75C132.162 175.192 132.734 175.894 133.165 176.858L130.938 178.014C130.779 177.515 130.53 177.118 130.19 176.824C129.861 176.518 129.374 176.365 128.728 176.365C127.969 176.365 127.357 176.614 126.892 177.113C126.439 177.6 126.212 178.314 126.212 179.255V181.159C126.212 182.099 126.439 182.819 126.892 183.318C127.357 183.805 127.969 184.049 128.728 184.049C129.363 184.049 129.867 183.879 130.241 183.539C130.626 183.187 130.91 182.768 131.091 182.281L133.199 183.505C132.757 184.411 132.173 185.114 131.448 185.613C130.734 186.1 129.827 186.344 128.728 186.344ZM134.548 186.14V184.083H136.078V176.331H134.548V174.274H140.192V176.331H138.662V184.083H140.192V186.14H134.548ZM147.226 176.569V186.14H144.642V176.569H141.429V174.274H150.439V176.569H147.226ZM158.404 186.14L157.554 183.318H153.593L152.743 186.14H150.125L154.035 174.274H157.231L161.09 186.14H158.404ZM155.599 176.62H155.514L154.205 181.125H156.925L155.599 176.62ZM166.567 176.569V186.14H163.983V176.569H160.77V174.274H169.78V176.569H166.567ZM171.022 186.14V184.083H172.552V176.331H171.022V174.274H176.666V176.331H175.136V184.083H176.666V186.14H171.022ZM183.579 186.344C182.797 186.344 182.083 186.213 181.437 185.953C180.791 185.692 180.241 185.307 179.788 184.797C179.334 184.275 178.983 183.635 178.734 182.876C178.484 182.105 178.36 181.215 178.36 180.207C178.36 179.198 178.484 178.314 178.734 177.555C178.983 176.784 179.334 176.144 179.788 175.634C180.241 175.112 180.791 174.721 181.437 174.461C182.083 174.2 182.797 174.07 183.579 174.07C184.361 174.07 185.075 174.2 185.721 174.461C186.367 174.721 186.916 175.112 187.37 175.634C187.823 176.144 188.174 176.784 188.424 177.555C188.673 178.314 188.798 179.198 188.798 180.207C188.798 181.215 188.673 182.105 188.424 182.876C188.174 183.635 187.823 184.275 187.37 184.797C186.916 185.307 186.367 185.692 185.721 185.953C185.075 186.213 184.361 186.344 183.579 186.344ZM183.579 184.049C184.361 184.049 184.967 183.794 185.398 183.284C185.84 182.774 186.061 182.043 186.061 181.091V179.323C186.061 178.371 185.84 177.64 185.398 177.13C184.967 176.62 184.361 176.365 183.579 176.365C182.797 176.365 182.185 176.62 181.743 177.13C181.312 177.64 181.097 178.371 181.097 179.323V181.091C181.097 182.043 181.312 182.774 181.743 183.284C182.185 183.794 182.797 184.049 183.579 184.049ZM194.576 180.53L193.437 178.15H193.386V186.14H190.955V174.274H193.777L197.024 179.884L198.163 182.264H198.214V174.274H200.645V186.14H197.823L194.576 180.53ZM207.098 186.344C206.056 186.344 205.172 186.168 204.446 185.817C203.721 185.454 203.103 184.989 202.593 184.423L204.293 182.706C205.098 183.612 206.09 184.066 207.268 184.066C207.903 184.066 208.373 183.935 208.679 183.675C208.985 183.414 209.138 183.068 209.138 182.638C209.138 182.309 209.048 182.037 208.866 181.822C208.685 181.595 208.317 181.442 207.761 181.363L206.588 181.21C205.33 181.051 204.407 180.671 203.817 180.071C203.239 179.47 202.95 178.671 202.95 177.674C202.95 177.141 203.052 176.654 203.256 176.212C203.46 175.77 203.749 175.39 204.123 175.073C204.509 174.755 204.973 174.512 205.517 174.342C206.073 174.16 206.702 174.07 207.404 174.07C208.3 174.07 209.087 174.211 209.767 174.495C210.447 174.778 211.031 175.192 211.518 175.736L209.801 177.47C209.518 177.141 209.172 176.875 208.764 176.671C208.368 176.455 207.863 176.348 207.251 176.348C206.673 176.348 206.243 176.45 205.959 176.654C205.676 176.858 205.534 177.141 205.534 177.504C205.534 177.912 205.642 178.206 205.857 178.388C206.084 178.569 206.447 178.699 206.945 178.779L208.118 178.966C209.342 179.158 210.249 179.538 210.838 180.105C211.428 180.66 211.722 181.453 211.722 182.485C211.722 183.051 211.62 183.573 211.416 184.049C211.212 184.525 210.912 184.933 210.515 185.273C210.13 185.613 209.648 185.879 209.07 186.072C208.492 186.253 207.835 186.344 207.098 186.344Z" fill="white"/>
<path d="M43.4562 348.09H35.0862L34.6002 354.759H34.7892C35.0052 354.381 35.2302 354.048 35.4642 353.76C35.6982 353.454 35.9682 353.193 36.2742 352.977C36.5802 352.761 36.9312 352.599 37.3272 352.491C37.7232 352.365 38.1912 352.302 38.7312 352.302C39.5412 352.302 40.2882 352.437 40.9722 352.707C41.6742 352.977 42.2772 353.364 42.7812 353.868C43.3032 354.372 43.7082 354.993 43.9962 355.731C44.2842 356.451 44.4282 357.27 44.4282 358.188C44.4282 359.124 44.2752 359.988 43.9692 360.78C43.6812 361.572 43.2492 362.256 42.6732 362.832C42.0972 363.39 41.3862 363.831 40.5402 364.155C39.7122 364.461 38.7672 364.614 37.7052 364.614C36.8592 364.614 36.1122 364.515 35.4642 364.317C34.8162 364.137 34.2402 363.894 33.7362 363.588C33.2502 363.264 32.8182 362.904 32.4402 362.508C32.0802 362.094 31.7562 361.671 31.4682 361.239L33.6822 359.484C33.9162 359.862 34.1592 360.204 34.4112 360.51C34.6632 360.816 34.9512 361.086 35.2752 361.32C35.5992 361.554 35.9592 361.734 36.3552 361.86C36.7692 361.986 37.2372 362.049 37.7592 362.049C38.8752 362.049 39.7302 361.743 40.3242 361.131C40.9362 360.519 41.2422 359.673 41.2422 358.593V358.269C41.2422 357.189 40.9362 356.343 40.3242 355.731C39.7302 355.119 38.8752 354.813 37.7592 354.813C36.9492 354.813 36.3012 354.966 35.8152 355.272C35.3292 355.578 34.9152 355.92 34.5732 356.298L32.0622 355.947L32.7642 345.444H43.4562V348.09ZM55.6227 364.29V360.618H46.8747V357.999L54.5157 345.444H58.5117V358.215H61.0767V360.618H58.5117V364.29H55.6227ZM49.4667 358.215H55.6227V348.225H55.4337L49.4667 358.215ZM67.0061 364.29L80.0741 345.444H82.8011L69.7331 364.29H67.0061ZM68.2211 355.812C66.7631 355.812 65.6471 355.362 64.8731 354.462C64.0991 353.544 63.7121 352.212 63.7121 350.466C63.7121 348.72 64.0991 347.397 64.8731 346.497C65.6471 345.579 66.7631 345.12 68.2211 345.12C69.6791 345.12 70.7951 345.579 71.5691 346.497C72.3431 347.397 72.7301 348.72 72.7301 350.466C72.7301 352.212 72.3431 353.544 71.5691 354.462C70.7951 355.362 69.6791 355.812 68.2211 355.812ZM68.2211 354.003C69.4991 354.003 70.1381 353.076 70.1381 351.222V349.71C70.1381 347.856 69.4991 346.929 68.2211 346.929C66.9431 346.929 66.3041 347.856 66.3041 349.71V351.222C66.3041 353.076 66.9431 354.003 68.2211 354.003ZM81.5861 364.614C80.1281 364.614 79.0121 364.164 78.2381 363.264C77.4641 362.346 77.0771 361.014 77.0771 359.268C77.0771 357.522 77.4641 356.199 78.2381 355.299C79.0121 354.381 80.1281 353.922 81.5861 353.922C83.0441 353.922 84.1601 354.381 84.9341 355.299C85.7081 356.199 86.0951 357.522 86.0951 359.268C86.0951 361.014 85.7081 362.346 84.9341 363.264C84.1601 364.164 83.0441 364.614 81.5861 364.614ZM81.5861 362.805C82.8641 362.805 83.5031 361.878 83.5031 360.024V358.512C83.5031 356.658 82.8641 355.731 81.5861 355.731C80.3081 355.731 79.6691 356.658 79.6691 358.512V360.024C79.6691 361.878 80.3081 362.805 81.5861 362.805Z" fill="white"/>
<path d="M30.8188 395.29V383.424H38.6898V385.719H33.4028V388.15H37.9078V390.428H33.4028V395.29H30.8188ZM43.2111 383.424V390.7C43.2111 391.539 43.3754 392.168 43.7041 392.587C44.0328 392.995 44.5824 393.199 45.3531 393.199C46.1238 393.199 46.6734 392.995 47.0021 392.587C47.3308 392.168 47.4951 391.539 47.4951 390.7V383.424H50.0111V390.428C50.0111 391.301 49.9261 392.06 49.7561 392.706C49.5974 393.341 49.3311 393.868 48.9571 394.287C48.5831 394.695 48.1014 395.001 47.5121 395.205C46.9228 395.398 46.2031 395.494 45.3531 395.494C44.5031 395.494 43.7834 395.398 43.1941 395.205C42.6048 395.001 42.1231 394.695 41.7491 394.287C41.3751 393.868 41.1031 393.341 40.9331 392.706C40.7744 392.06 40.6951 391.301 40.6951 390.428V383.424H43.2111ZM52.5668 395.29V383.424H55.1508V392.995H59.6728V395.29H52.5668ZM61.5815 395.29V383.424H64.1655V392.995H68.6875V395.29H61.5815Z" fill="white"/>
<path d="M30.8188 417.29V405.424H36.4288C36.9841 405.424 37.4828 405.52 37.9248 405.713C38.3668 405.894 38.7408 406.149 39.0468 406.478C39.3641 406.807 39.6078 407.209 39.7778 407.685C39.9478 408.15 40.0328 408.66 40.0328 409.215C40.0328 409.782 39.9478 410.297 39.7778 410.762C39.6078 411.227 39.3641 411.623 39.0468 411.952C38.7408 412.281 38.3668 412.541 37.9248 412.734C37.4828 412.915 36.9841 413.006 36.4288 413.006H33.4028V417.29H30.8188ZM33.4028 410.762H36.1228C36.5081 410.762 36.8084 410.666 37.0238 410.473C37.2504 410.269 37.3638 409.974 37.3638 409.589V408.841C37.3638 408.456 37.2504 408.167 37.0238 407.974C36.8084 407.77 36.5081 407.668 36.1228 407.668H33.4028V410.762ZM48.0399 417.29L47.1899 414.468H43.2289L42.3789 417.29H39.7609L43.6709 405.424H46.8669L50.7259 417.29H48.0399ZM45.2349 407.77H45.1499L43.8409 412.275H46.5609L45.2349 407.77ZM54.0793 417.29V412.649L50.0163 405.424H52.9063L55.4563 410.15H55.4903L57.9383 405.424H60.7433L56.6803 412.632V417.29H54.0793ZM71.0863 409.504H71.0353L70.1683 411.238L67.8563 415.437L65.5953 411.255L64.6943 409.385H64.6433V417.29H62.2123V405.424H64.9493L67.8563 410.983H67.8903L70.7633 405.424H73.5173V417.29H71.0863V409.504ZM76.141 417.29V405.424H84.216V407.719H78.725V410.15H83.434V412.428H78.725V414.995H84.216V417.29H76.141ZM90.0882 411.68L88.9492 409.3H88.8982V417.29H86.4672V405.424H89.2892L92.5362 411.034L93.6752 413.414H93.7262V405.424H96.1572V417.29H93.3352L90.0882 411.68ZM103.716 407.719V417.29H101.132V407.719H97.919V405.424H106.929V407.719H103.716Z" fill="white"/>
<path d="M31.5362 451.636V436.37H33.6442V436.676H31.8762V451.33H33.6442V451.636H31.5362Z" fill="white"/>
<path d="M36.3163 449.29V447.692H39.6483V438.818H39.5123L36.7583 441.759L35.5853 440.705L38.6113 437.424H41.5353V447.692H44.4253V449.29H36.3163ZM47.4787 446.927C47.898 446.927 48.2097 447.035 48.4137 447.25C48.6177 447.465 48.7197 447.743 48.7197 448.083V448.355C48.7197 448.91 48.5667 449.488 48.2607 450.089C47.966 450.701 47.5637 451.217 47.0537 451.636H45.6767C46.0393 451.273 46.3397 450.922 46.5777 450.582C46.8157 450.242 46.997 449.862 47.1217 449.443C46.827 449.386 46.606 449.262 46.4587 449.069C46.3113 448.865 46.2377 448.627 46.2377 448.355V448.083C46.2377 447.743 46.3397 447.465 46.5437 447.25C46.7477 447.035 47.0593 446.927 47.4787 446.927ZM52.8513 449.29L57.1523 439.005H52.6643V441.198H51.0153V437.424H59.0563V439.09L54.8743 449.29H52.8513ZM65.2377 449.494C64.501 449.494 63.8607 449.358 63.3167 449.086C62.7727 448.803 62.325 448.4 61.9737 447.879C61.6224 447.358 61.3617 446.717 61.1917 445.958C61.0217 445.199 60.9367 444.332 60.9367 443.357C60.9367 442.394 61.0217 441.532 61.1917 440.773C61.3617 440.002 61.6224 439.356 61.9737 438.835C62.325 438.314 62.7727 437.917 63.3167 437.645C63.8607 437.362 64.501 437.22 65.2377 437.22C66.711 437.22 67.7934 437.758 68.4847 438.835C69.1874 439.912 69.5387 441.419 69.5387 443.357C69.5387 445.295 69.1874 446.802 68.4847 447.879C67.7934 448.956 66.711 449.494 65.2377 449.494ZM65.2377 447.862C65.6457 447.862 65.9914 447.783 66.2747 447.624C66.5694 447.454 66.8074 447.216 66.9887 446.91C67.17 446.604 67.3004 446.241 67.3797 445.822C67.459 445.391 67.4987 444.915 67.4987 444.394V442.32C67.4987 441.799 67.459 441.328 67.3797 440.909C67.3004 440.478 67.17 440.11 66.9887 439.804C66.8074 439.498 66.5694 439.266 66.2747 439.107C65.9914 438.937 65.6457 438.852 65.2377 438.852C64.8297 438.852 64.4784 438.937 64.1837 439.107C63.9004 439.266 63.668 439.498 63.4867 439.804C63.3054 440.11 63.175 440.478 63.0957 440.909C63.0164 441.328 62.9767 441.799 62.9767 442.32V444.394C62.9767 444.915 63.0164 445.391 63.0957 445.822C63.175 446.241 63.3054 446.604 63.4867 446.91C63.668 447.216 63.9004 447.454 64.1837 447.624C64.4784 447.783 64.8297 447.862 65.2377 447.862ZM74.7851 442.303C75.5217 442.303 76.0657 442.15 76.4171 441.844C76.7684 441.527 76.9441 441.124 76.9441 440.637V440.518C76.9441 439.974 76.7741 439.56 76.4341 439.277C76.0941 438.982 75.6351 438.835 75.0571 438.835C74.4904 438.835 74.0087 438.965 73.6121 439.226C73.2154 439.475 72.8811 439.827 72.6091 440.28L71.3341 439.175C71.5154 438.914 71.7194 438.665 71.9461 438.427C72.1727 438.189 72.4391 437.985 72.7451 437.815C73.0511 437.634 73.3967 437.492 73.7821 437.39C74.1674 437.277 74.6094 437.22 75.1081 437.22C75.6634 437.22 76.1791 437.288 76.6551 437.424C77.1311 437.56 77.5391 437.764 77.8791 438.036C78.2191 438.297 78.4854 438.62 78.6781 439.005C78.8707 439.379 78.9671 439.804 78.9671 440.28C78.9671 440.654 78.9047 440.994 78.7801 441.3C78.6667 441.606 78.5024 441.878 78.2871 442.116C78.0831 442.343 77.8394 442.53 77.5561 442.677C77.2841 442.824 76.9951 442.932 76.6891 443V443.085C77.0291 443.153 77.3464 443.266 77.6411 443.425C77.9471 443.572 78.2134 443.771 78.4401 444.02C78.6667 444.258 78.8424 444.547 78.9671 444.887C79.1031 445.216 79.1711 445.595 79.1711 446.026C79.1711 446.547 79.0691 447.023 78.8651 447.454C78.6611 447.873 78.3721 448.236 77.9981 448.542C77.6354 448.848 77.1934 449.086 76.6721 449.256C76.1507 449.415 75.5727 449.494 74.9381 449.494C74.3827 449.494 73.8954 449.432 73.4761 449.307C73.0567 449.194 72.6827 449.041 72.3541 448.848C72.0367 448.644 71.7534 448.417 71.5041 448.168C71.2661 447.907 71.0564 447.641 70.8751 447.369L72.2861 446.264C72.4334 446.502 72.5864 446.723 72.7451 446.927C72.9151 447.12 73.1021 447.29 73.3061 447.437C73.5214 447.573 73.7594 447.681 74.0201 447.76C74.2921 447.839 74.5981 447.879 74.9381 447.879C75.6634 447.879 76.2187 447.709 76.6041 447.369C76.9894 447.018 77.1821 446.536 77.1821 445.924V445.805C77.1821 445.193 76.9781 444.728 76.5701 444.411C76.1621 444.094 75.5841 443.935 74.8361 443.935H73.5781V442.303H74.7851Z" fill="white"/>
<path d="M83.8308 436.37V451.636H81.7228V451.33H83.4908V436.676H81.7228V436.37H83.8308Z" fill="white"/>
<path d="M298.607 364.29H285.809V361.374L291.83 356.001C292.784 355.137 293.513 354.318 294.017 353.544C294.539 352.752 294.8 351.924 294.8 351.06V350.709C294.8 349.791 294.521 349.071 293.963 348.549C293.423 348.027 292.685 347.766 291.749 347.766C291.227 347.766 290.768 347.847 290.372 348.009C289.994 348.153 289.661 348.36 289.373 348.63C289.085 348.9 288.842 349.215 288.644 349.575C288.464 349.935 288.32 350.322 288.212 350.736L285.539 349.71C285.737 349.116 286.007 348.549 286.349 348.009C286.691 347.451 287.123 346.956 287.645 346.524C288.167 346.092 288.779 345.75 289.481 345.498C290.201 345.246 291.038 345.12 291.992 345.12C292.946 345.12 293.801 345.264 294.557 345.552C295.313 345.822 295.943 346.209 296.447 346.713C296.969 347.199 297.365 347.784 297.635 348.468C297.905 349.152 298.04 349.899 298.04 350.709C298.04 351.465 297.923 352.167 297.689 352.815C297.455 353.463 297.131 354.075 296.717 354.651C296.303 355.227 295.817 355.776 295.259 356.298C294.719 356.82 294.143 357.351 293.531 357.891L289.103 361.698H298.607V364.29ZM313.905 348.09H305.535L305.049 354.759H305.238C305.454 354.381 305.679 354.048 305.913 353.76C306.147 353.454 306.417 353.193 306.723 352.977C307.029 352.761 307.38 352.599 307.776 352.491C308.172 352.365 308.64 352.302 309.18 352.302C309.99 352.302 310.737 352.437 311.421 352.707C312.123 352.977 312.726 353.364 313.23 353.868C313.752 354.372 314.157 354.993 314.445 355.731C314.733 356.451 314.877 357.27 314.877 358.188C314.877 359.124 314.724 359.988 314.418 360.78C314.13 361.572 313.698 362.256 313.122 362.832C312.546 363.39 311.835 363.831 310.989 364.155C310.161 364.461 309.216 364.614 308.154 364.614C307.308 364.614 306.561 364.515 305.913 364.317C305.265 364.137 304.689 363.894 304.185 363.588C303.699 363.264 303.267 362.904 302.889 362.508C302.529 362.094 302.205 361.671 301.917 361.239L304.131 359.484C304.365 359.862 304.608 360.204 304.86 360.51C305.112 360.816 305.4 361.086 305.724 361.32C306.048 361.554 306.408 361.734 306.804 361.86C307.218 361.986 307.686 362.049 308.208 362.049C309.324 362.049 310.179 361.743 310.773 361.131C311.385 360.519 311.691 359.673 311.691 358.593V358.269C311.691 357.189 311.385 356.343 310.773 355.731C310.179 355.119 309.324 354.813 308.208 354.813C307.398 354.813 306.75 354.966 306.264 355.272C305.778 355.578 305.364 355.92 305.022 356.298L302.511 355.947L303.213 345.444H313.905V348.09ZM321.266 364.29L334.334 345.444H337.061L323.993 364.29H321.266ZM322.481 355.812C321.023 355.812 319.907 355.362 319.133 354.462C318.359 353.544 317.972 352.212 317.972 350.466C317.972 348.72 318.359 347.397 319.133 346.497C319.907 345.579 321.023 345.12 322.481 345.12C323.939 345.12 325.055 345.579 325.829 346.497C326.603 347.397 326.99 348.72 326.99 350.466C326.99 352.212 326.603 353.544 325.829 354.462C325.055 355.362 323.939 355.812 322.481 355.812ZM322.481 354.003C323.759 354.003 324.398 353.076 324.398 351.222V349.71C324.398 347.856 323.759 346.929 322.481 346.929C321.203 346.929 320.564 347.856 320.564 349.71V351.222C320.564 353.076 321.203 354.003 322.481 354.003ZM335.846 364.614C334.388 364.614 333.272 364.164 332.498 363.264C331.724 362.346 331.337 361.014 331.337 359.268C331.337 357.522 331.724 356.199 332.498 355.299C333.272 354.381 334.388 353.922 335.846 353.922C337.304 353.922 338.42 354.381 339.194 355.299C339.968 356.199 340.355 357.522 340.355 359.268C340.355 361.014 339.968 362.346 339.194 363.264C338.42 364.164 337.304 364.614 335.846 364.614ZM335.846 362.805C337.124 362.805 337.763 361.878 337.763 360.024V358.512C337.763 356.658 337.124 355.731 335.846 355.731C334.568 355.731 333.929 356.658 333.929 358.512V360.024C333.929 361.878 334.568 362.805 335.846 362.805Z" fill="white"/>
<path d="M285.509 395.29V383.424H291.119C291.675 383.424 292.173 383.52 292.615 383.713C293.057 383.894 293.431 384.149 293.737 384.478C294.055 384.807 294.298 385.209 294.468 385.685C294.638 386.15 294.723 386.66 294.723 387.215C294.723 387.782 294.638 388.297 294.468 388.762C294.298 389.227 294.055 389.623 293.737 389.952C293.431 390.281 293.057 390.541 292.615 390.734C292.173 390.915 291.675 391.006 291.119 391.006H288.093V395.29H285.509ZM288.093 388.762H290.813C291.199 388.762 291.499 388.666 291.714 388.473C291.941 388.269 292.054 387.974 292.054 387.589V386.841C292.054 386.456 291.941 386.167 291.714 385.974C291.499 385.77 291.199 385.668 290.813 385.668H288.093V388.762ZM302.73 395.29L301.88 392.468H297.919L297.069 395.29H294.451L298.361 383.424H301.557L305.416 395.29H302.73ZM299.925 385.77H299.84L298.531 390.275H301.251L299.925 385.77ZM309.642 395.29H307.058V383.424H312.685C313.229 383.424 313.722 383.515 314.164 383.696C314.606 383.877 314.98 384.138 315.286 384.478C315.603 384.807 315.847 385.203 316.017 385.668C316.187 386.133 316.272 386.648 316.272 387.215C316.272 388.02 316.091 388.722 315.728 389.323C315.377 389.924 314.838 390.36 314.113 390.632L316.442 395.29H313.569L311.495 390.938H309.642V395.29ZM312.362 388.762C312.747 388.762 313.048 388.666 313.263 388.473C313.49 388.269 313.603 387.974 313.603 387.589V386.841C313.603 386.456 313.49 386.167 313.263 385.974C313.048 385.77 312.747 385.668 312.362 385.668H309.642V388.762H312.362ZM323.045 385.719V395.29H320.461V385.719H317.248V383.424H326.258V385.719H323.045ZM327.5 395.29V393.233H329.03V385.481H327.5V383.424H333.144V385.481H331.614V393.233H333.144V395.29H327.5ZM342.607 395.29L341.757 392.468H337.796L336.946 395.29H334.328L338.238 383.424H341.434L345.293 395.29H342.607ZM339.802 385.77H339.717L338.408 390.275H341.128L339.802 385.77ZM346.935 395.29V383.424H349.519V392.995H354.041V395.29H346.935Z" fill="white"/>
<path d="M285.509 417.29V405.424H291.119C291.675 405.424 292.173 405.52 292.615 405.713C293.057 405.894 293.431 406.149 293.737 406.478C294.055 406.807 294.298 407.209 294.468 407.685C294.638 408.15 294.723 408.66 294.723 409.215C294.723 409.782 294.638 410.297 294.468 410.762C294.298 411.227 294.055 411.623 293.737 411.952C293.431 412.281 293.057 412.541 292.615 412.734C292.173 412.915 291.675 413.006 291.119 413.006H288.093V417.29H285.509ZM288.093 410.762H290.813C291.199 410.762 291.499 410.666 291.714 410.473C291.941 410.269 292.054 409.974 292.054 409.589V408.841C292.054 408.456 291.941 408.167 291.714 407.974C291.499 407.77 291.199 407.668 290.813 407.668H288.093V410.762ZM302.73 417.29L301.88 414.468H297.919L297.069 417.29H294.451L298.361 405.424H301.557L305.416 417.29H302.73ZM299.925 407.77H299.84L298.531 412.275H301.251L299.925 407.77ZM308.77 417.29V412.649L304.707 405.424H307.597L310.147 410.15H310.181L312.629 405.424H315.434L311.371 412.632V417.29H308.77ZM325.777 409.504H325.726L324.859 411.238L322.547 415.437L320.286 411.255L319.385 409.385H319.334V417.29H316.903V405.424H319.64L322.547 410.983H322.581L325.454 405.424H328.208V417.29H325.777V409.504ZM330.831 417.29V405.424H338.906V407.719H333.415V410.15H338.124V412.428H333.415V414.995H338.906V417.29H330.831ZM344.779 411.68L343.64 409.3H343.589V417.29H341.158V405.424H343.98L347.227 411.034L348.366 413.414H348.417V405.424H350.848V417.29H348.026L344.779 411.68ZM358.406 407.719V417.29H355.822V407.719H352.609V405.424H361.619V407.719H358.406Z" fill="white"/>
<path d="M286.226 451.636V436.37H288.334V436.676H286.566V451.33H288.334V451.636H286.226Z" fill="white"/>
<path d="M292.417 449.29L296.718 439.005H292.23V441.198H290.581V437.424H298.622V439.09L294.44 449.29H292.417ZM302.61 449.29L306.911 439.005H302.423V441.198H300.774V437.424H308.815V439.09L304.633 449.29H302.61ZM312.803 449.29L317.104 439.005H312.616V441.198H310.967V437.424H319.008V439.09L314.826 449.29H312.803Z" fill="white"/>
<path d="M323.391 436.37V451.636H321.283V451.33H323.051V436.676H321.283V436.37H323.391Z" fill="white"/>
<path d="M416.257 799.92H403.459V797.004L409.48 791.631C410.434 790.767 411.163 789.948 411.667 789.174C412.189 788.382 412.45 787.554 412.45 786.69V786.339C412.45 785.421 412.171 784.701 411.613 784.179C411.073 783.657 410.335 783.396 409.399 783.396C408.877 783.396 408.418 783.477 408.022 783.639C407.644 783.783 407.311 783.99 407.023 784.26C406.735 784.53 406.492 784.845 406.294 785.205C406.114 785.565 405.97 785.952 405.862 786.366L403.189 785.34C403.387 784.746 403.657 784.179 403.999 783.639C404.341 783.081 404.773 782.586 405.295 782.154C405.817 781.722 406.429 781.38 407.131 781.128C407.851 780.876 408.688 780.75 409.642 780.75C410.596 780.75 411.451 780.894 412.207 781.182C412.963 781.452 413.593 781.839 414.097 782.343C414.619 782.829 415.015 783.414 415.285 784.098C415.555 784.782 415.69 785.529 415.69 786.339C415.69 787.095 415.573 787.797 415.339 788.445C415.105 789.093 414.781 789.705 414.367 790.281C413.953 790.857 413.467 791.406 412.909 791.928C412.369 792.45 411.793 792.981 411.181 793.521L406.753 797.328H416.257V799.92ZM420.216 799.92V797.382H425.508V783.288H425.292L420.918 787.959L419.055 786.285L423.861 781.074H428.505V797.382H433.095V799.92H420.216ZM438.916 799.92L451.984 781.074H454.711L441.643 799.92H438.916ZM440.131 791.442C438.673 791.442 437.557 790.992 436.783 790.092C436.009 789.174 435.622 787.842 435.622 786.096C435.622 784.35 436.009 783.027 436.783 782.127C437.557 781.209 438.673 780.75 440.131 780.75C441.589 780.75 442.705 781.209 443.479 782.127C444.253 783.027 444.64 784.35 444.64 786.096C444.64 787.842 444.253 789.174 443.479 790.092C442.705 790.992 441.589 791.442 440.131 791.442ZM440.131 789.633C441.409 789.633 442.048 788.706 442.048 786.852V785.34C442.048 783.486 441.409 782.559 440.131 782.559C438.853 782.559 438.214 783.486 438.214 785.34V786.852C438.214 788.706 438.853 789.633 440.131 789.633ZM453.496 800.244C452.038 800.244 450.922 799.794 450.148 798.894C449.374 797.976 448.987 796.644 448.987 794.898C448.987 793.152 449.374 791.829 450.148 790.929C450.922 790.011 452.038 789.552 453.496 789.552C454.954 789.552 456.07 790.011 456.844 790.929C457.618 791.829 458.005 793.152 458.005 794.898C458.005 796.644 457.618 797.976 456.844 798.894C456.07 799.794 454.954 800.244 453.496 800.244ZM453.496 798.435C454.774 798.435 455.413 797.508 455.413 795.654V794.142C455.413 792.288 454.774 791.361 453.496 791.361C452.218 791.361 451.579 792.288 451.579 794.142V795.654C451.579 797.508 452.218 798.435 453.496 798.435Z" fill="white"/>
<path d="M406.73 825.31L405.591 822.93H405.54V830.92H403.109V819.054H405.931L409.178 824.664L410.317 827.044H410.368V819.054H412.799V830.92H409.977L406.73 825.31ZM420.171 831.124C419.389 831.124 418.675 830.994 418.029 830.733C417.383 830.472 416.833 830.087 416.38 829.577C415.926 829.056 415.575 828.415 415.326 827.656C415.076 826.885 414.952 825.996 414.952 824.987C414.952 823.978 415.076 823.094 415.326 822.335C415.575 821.564 415.926 820.924 416.38 820.414C416.833 819.893 417.383 819.502 418.029 819.241C418.675 818.98 419.389 818.85 420.171 818.85C420.953 818.85 421.667 818.98 422.313 819.241C422.959 819.502 423.508 819.893 423.962 820.414C424.415 820.924 424.766 821.564 425.016 822.335C425.265 823.094 425.39 823.978 425.39 824.987C425.39 825.996 425.265 826.885 425.016 827.656C424.766 828.415 424.415 829.056 423.962 829.577C423.508 830.087 422.959 830.472 422.313 830.733C421.667 830.994 420.953 831.124 420.171 831.124ZM420.171 828.829C420.953 828.829 421.559 828.574 421.99 828.064C422.432 827.554 422.653 826.823 422.653 825.871V824.103C422.653 823.151 422.432 822.42 421.99 821.91C421.559 821.4 420.953 821.145 420.171 821.145C419.389 821.145 418.777 821.4 418.335 821.91C417.904 822.42 417.689 823.151 417.689 824.103V825.871C417.689 826.823 417.904 827.554 418.335 828.064C418.777 828.574 419.389 828.829 420.171 828.829Z" fill="white"/>
<path d="M403.159 852.92V841.054H408.769C409.324 841.054 409.823 841.15 410.265 841.343C410.707 841.524 411.081 841.779 411.387 842.108C411.704 842.437 411.948 842.839 412.118 843.315C412.288 843.78 412.373 844.29 412.373 844.845C412.373 845.412 412.288 845.927 412.118 846.392C411.948 846.857 411.704 847.253 411.387 847.582C411.081 847.911 410.707 848.171 410.265 848.364C409.823 848.545 409.324 848.636 408.769 848.636H405.743V852.92H403.159ZM405.743 846.392H408.463C408.848 846.392 409.148 846.296 409.364 846.103C409.59 845.899 409.704 845.604 409.704 845.219V844.471C409.704 844.086 409.59 843.797 409.364 843.604C409.148 843.4 408.848 843.298 408.463 843.298H405.743V846.392ZM420.38 852.92L419.53 850.098H415.569L414.719 852.92H412.101L416.011 841.054H419.207L423.066 852.92H420.38ZM417.575 843.4H417.49L416.181 847.905H418.901L417.575 843.4ZM426.419 852.92V848.279L422.356 841.054H425.246L427.796 845.78H427.83L430.278 841.054H433.083L429.02 848.262V852.92H426.419ZM443.426 845.134H443.375L442.508 846.868L440.196 851.067L437.935 846.885L437.034 845.015H436.983V852.92H434.552V841.054H437.289L440.196 846.613H440.23L443.103 841.054H445.857V852.92H443.426V845.134ZM448.481 852.92V841.054H456.556V843.349H451.065V845.78H455.774V848.058H451.065V850.625H456.556V852.92H448.481ZM462.428 847.31L461.289 844.93H461.238V852.92H458.807V841.054H461.629L464.876 846.664L466.015 849.044H466.066V841.054H468.497V852.92H465.675L462.428 847.31ZM476.056 843.349V852.92H473.472V843.349H470.259V841.054H479.269V843.349H476.056Z" fill="white"/>
<path d="M403.876 887.266V872H405.984V872.306H404.216V886.96H405.984V887.266H403.876Z" fill="white"/>
<path d="M412.294 885.124C411.637 885.124 411.047 885.016 410.526 884.801C410.016 884.586 409.58 884.28 409.217 883.883C408.866 883.475 408.594 882.988 408.401 882.421C408.208 881.854 408.112 881.214 408.112 880.5C408.112 879.639 408.242 878.828 408.503 878.069C408.764 877.31 409.098 876.613 409.506 875.978C409.914 875.343 410.367 874.782 410.866 874.295C411.376 873.796 411.875 873.383 412.362 873.054H414.912C414.243 873.541 413.643 874.012 413.11 874.465C412.577 874.918 412.113 875.383 411.716 875.859C411.319 876.335 410.985 876.839 410.713 877.372C410.452 877.905 410.248 878.488 410.101 879.123L410.22 879.157C410.345 878.919 410.486 878.698 410.645 878.494C410.815 878.279 411.008 878.092 411.223 877.933C411.45 877.774 411.705 877.65 411.988 877.559C412.271 877.468 412.6 877.423 412.974 877.423C413.473 877.423 413.932 877.508 414.351 877.678C414.782 877.848 415.15 878.097 415.456 878.426C415.773 878.743 416.017 879.129 416.187 879.582C416.368 880.035 416.459 880.54 416.459 881.095C416.459 881.696 416.357 882.245 416.153 882.744C415.96 883.231 415.683 883.651 415.32 884.002C414.957 884.353 414.515 884.631 413.994 884.835C413.484 885.028 412.917 885.124 412.294 885.124ZM412.294 883.56C412.985 883.56 413.524 883.379 413.909 883.016C414.294 882.642 414.487 882.098 414.487 881.384V881.146C414.487 880.432 414.294 879.894 413.909 879.531C413.524 879.157 412.985 878.97 412.294 878.97C411.603 878.97 411.064 879.157 410.679 879.531C410.294 879.894 410.101 880.432 410.101 881.146V881.384C410.101 882.098 410.294 882.642 410.679 883.016C411.064 883.379 411.603 883.56 412.294 883.56ZM425.99 874.72H420.72L420.414 878.919H420.533C420.669 878.681 420.81 878.471 420.958 878.29C421.105 878.097 421.275 877.933 421.468 877.797C421.66 877.661 421.881 877.559 422.131 877.491C422.38 877.412 422.675 877.372 423.015 877.372C423.525 877.372 423.995 877.457 424.426 877.627C424.868 877.797 425.247 878.041 425.565 878.358C425.893 878.675 426.148 879.066 426.33 879.531C426.511 879.984 426.602 880.5 426.602 881.078C426.602 881.667 426.505 882.211 426.313 882.71C426.131 883.209 425.859 883.639 425.497 884.002C425.134 884.353 424.686 884.631 424.154 884.835C423.632 885.028 423.037 885.124 422.369 885.124C421.836 885.124 421.366 885.062 420.958 884.937C420.55 884.824 420.187 884.671 419.87 884.478C419.564 884.274 419.292 884.047 419.054 883.798C418.827 883.537 418.623 883.271 418.442 882.999L419.836 881.894C419.983 882.132 420.136 882.347 420.295 882.54C420.453 882.733 420.635 882.903 420.839 883.05C421.043 883.197 421.269 883.311 421.519 883.39C421.779 883.469 422.074 883.509 422.403 883.509C423.105 883.509 423.644 883.316 424.018 882.931C424.403 882.546 424.596 882.013 424.596 881.333V881.129C424.596 880.449 424.403 879.916 424.018 879.531C423.644 879.146 423.105 878.953 422.403 878.953C421.893 878.953 421.485 879.049 421.179 879.242C420.873 879.435 420.612 879.65 420.397 879.888L418.816 879.667L419.258 873.054H425.99V874.72ZM432.001 877.933C432.738 877.933 433.282 877.78 433.633 877.474C433.984 877.157 434.16 876.754 434.16 876.267V876.148C434.16 875.604 433.99 875.19 433.65 874.907C433.31 874.612 432.851 874.465 432.273 874.465C431.706 874.465 431.225 874.595 430.828 874.856C430.431 875.105 430.097 875.457 429.825 875.91L428.55 874.805C428.731 874.544 428.935 874.295 429.162 874.057C429.389 873.819 429.655 873.615 429.961 873.445C430.267 873.264 430.613 873.122 430.998 873.02C431.383 872.907 431.825 872.85 432.324 872.85C432.879 872.85 433.395 872.918 433.871 873.054C434.347 873.19 434.755 873.394 435.095 873.666C435.435 873.927 435.701 874.25 435.894 874.635C436.087 875.009 436.183 875.434 436.183 875.91C436.183 876.284 436.121 876.624 435.996 876.93C435.883 877.236 435.718 877.508 435.503 877.746C435.299 877.973 435.055 878.16 434.772 878.307C434.5 878.454 434.211 878.562 433.905 878.63V878.715C434.245 878.783 434.562 878.896 434.857 879.055C435.163 879.202 435.429 879.401 435.656 879.65C435.883 879.888 436.058 880.177 436.183 880.517C436.319 880.846 436.387 881.225 436.387 881.656C436.387 882.177 436.285 882.653 436.081 883.084C435.877 883.503 435.588 883.866 435.214 884.172C434.851 884.478 434.409 884.716 433.888 884.886C433.367 885.045 432.789 885.124 432.154 885.124C431.599 885.124 431.111 885.062 430.692 884.937C430.273 884.824 429.899 884.671 429.57 884.478C429.253 884.274 428.969 884.047 428.72 883.798C428.482 883.537 428.272 883.271 428.091 882.999L429.502 881.894C429.649 882.132 429.802 882.353 429.961 882.557C430.131 882.75 430.318 882.92 430.522 883.067C430.737 883.203 430.975 883.311 431.236 883.39C431.508 883.469 431.814 883.509 432.154 883.509C432.879 883.509 433.435 883.339 433.82 882.999C434.205 882.648 434.398 882.166 434.398 881.554V881.435C434.398 880.823 434.194 880.358 433.786 880.041C433.378 879.724 432.8 879.565 432.052 879.565H430.794V877.933H432.001Z" fill="white"/>
<path d="M441.041 872V887.266H438.933V886.96H440.701V872.306H438.933V872H441.041Z" fill="white"/>
<path d="M103.52 599.93C102.75 600.68 101.55 600.5 100.83 599.7L94.7698 592.97H94.7198L88.5698 599.8C87.8198 600.63 86.5998 600.63 85.8498 599.8L79.6998 592.97H79.6498L73.4998 599.8C72.7498 600.63 71.5298 600.63 70.7798 599.8L64.6298 592.97H64.5798L58.4298 599.8C57.6798 600.63 56.4598 600.63 55.7098 599.8L49.5598 592.97H49.5098L43.3598 599.8C42.6098 600.63 41.3898 600.63 40.6398 599.8L34.4898 592.97H34.4398L28.3798 599.7C27.6598 600.5 26.4598 600.68 25.6898 599.93C25.2598 599.51 25.0498 598.93 25.0498 598.35V478.14C25.0498 477.56 25.2598 476.98 25.6898 476.56C26.4598 475.81 27.6598 475.99 28.3798 476.79L34.4398 483.52H34.4898L40.6398 476.69C41.3898 475.86 42.6098 475.86 43.3598 476.69L49.5098 483.52H49.5598L55.7098 476.69C56.4598 475.86 57.6798 475.86 58.4298 476.69L64.5798 483.52H64.6298L70.7798 476.69C71.5298 475.86 72.7498 475.86 73.4998 476.69L79.6498 483.52H79.6998L85.8498 476.69C86.5998 475.86 87.8198 475.86 88.5698 476.69L94.7198 483.52H94.7698L100.83 476.79C101.55 475.99 102.75 475.81 103.52 476.56C103.95 476.98 104.16 477.56 104.16 478.14V598.35C104.16 598.93 103.95 599.51 103.52 599.93Z" fill="#43512A"/>
<path d="M103.52 599.93C102.75 600.68 101.55 600.5 100.83 599.7L94.7698 592.97H94.7198L88.5698 599.8C87.8198 600.63 86.5998 600.63 85.8498 599.8L79.6998 592.97H79.6498L73.4998 599.8C72.7498 600.63 71.5298 600.63 70.7798 599.8L64.6298 592.97H64.5798L58.4298 599.8C57.6798 600.63 56.4598 600.63 55.7098 599.8L49.5598 592.97H49.5098L43.3598 599.8C42.6098 600.63 41.3898 600.63 40.6398 599.8L34.4898 592.97H34.4398L28.3798 599.7C27.6598 600.5 26.4598 600.68 25.6898 599.93C25.2598 599.51 25.0498 598.93 25.0498 598.35V478.14C25.0498 477.56 25.2598 476.98 25.6898 476.56C26.4598 475.81 27.6598 475.99 28.3798 476.79L34.4398 483.52H34.4898L40.6398 476.69C41.3898 475.86 42.6098 475.86 43.3598 476.69L49.5098 483.52H49.5598L55.7098 476.69C56.4598 475.86 57.6798 475.86 58.4298 476.69L64.5798 483.52H64.6298L70.7798 476.69C71.5298 475.86 72.7498 475.86 73.4998 476.69L79.6498 483.52H79.6998L85.8498 476.69C86.5998 475.86 87.8198 475.86 88.5698 476.69L94.7198 483.52H94.7698L100.83 476.79C101.55 475.99 102.75 475.81 103.52 476.56C103.95 476.98 104.16 477.56 104.16 478.14V598.35C104.16 598.93 103.95 599.51 103.52 599.93Z" stroke="white" stroke-miterlimit="10"/>
<path d="M42.0262 519.46L41.3782 517.144H38.5582L37.9102 519.46H36.6622L39.1702 511.084H40.7902L43.3102 519.46H42.0262ZM40.2982 513.46L40.0342 512.236H39.8782L39.6142 513.46L38.8702 516.1H41.0782L40.2982 513.46ZM45.6129 519.46L43.1529 511.084H44.4849L45.9729 516.352L46.3209 518.308H46.4769L46.8249 516.352L48.3009 511.084H49.6089L47.1609 519.46H45.6129ZM50.7287 519.46V511.084H55.5887V512.2H52.0007V514.648H55.2407V515.752H52.0007V518.344H55.5887V519.46H50.7287ZM58.4343 519.46H57.1623V511.084H60.4743C61.1943 511.084 61.7343 511.3 62.0943 511.732C62.4623 512.156 62.6463 512.768 62.6463 513.568C62.6463 514.216 62.5263 514.74 62.2863 515.14C62.0463 515.54 61.6863 515.808 61.2063 515.944L62.8023 519.46H61.3863L59.9343 516.04H58.4343V519.46ZM60.3663 514.972C60.6703 514.972 60.8983 514.896 61.0503 514.744C61.2103 514.584 61.2903 514.328 61.2903 513.976V513.196C61.2903 512.844 61.2103 512.592 61.0503 512.44C60.8983 512.28 60.6703 512.2 60.3663 512.2H58.4343V514.972H60.3663ZM68.9558 519.46L68.3078 517.144H65.4878L64.8398 519.46H63.5918L66.0998 511.084H67.7198L70.2398 519.46H68.9558ZM67.2278 513.46L66.9638 512.236H66.8078L66.5438 513.46L65.7998 516.1H68.0078L67.2278 513.46ZM76.0371 518.224H75.8931C75.8131 518.624 75.6091 518.956 75.2811 519.22C74.9531 519.476 74.4891 519.604 73.8891 519.604C73.4571 519.604 73.0571 519.524 72.6891 519.364C72.3291 519.204 72.0131 518.952 71.7411 518.608C71.4691 518.256 71.2571 517.808 71.1051 517.264C70.9531 516.712 70.8771 516.052 70.8771 515.284C70.8771 514.516 70.9491 513.86 71.0931 513.316C71.2451 512.764 71.4611 512.312 71.7411 511.96C72.0291 511.608 72.3731 511.352 72.7731 511.192C73.1731 511.024 73.6251 510.94 74.1291 510.94C74.8731 510.94 75.4771 511.1 75.9411 511.42C76.4051 511.74 76.7651 512.196 77.0211 512.788L75.9771 513.4C75.8331 512.992 75.6131 512.668 75.3171 512.428C75.0291 512.188 74.6371 512.068 74.1411 512.068C73.5411 512.068 73.0731 512.26 72.7371 512.644C72.4091 513.028 72.2451 513.564 72.2451 514.252V516.292C72.2451 516.98 72.4091 517.516 72.7371 517.9C73.0731 518.284 73.5411 518.476 74.1411 518.476C74.3891 518.476 74.6211 518.44 74.8371 518.368C75.0531 518.296 75.2411 518.192 75.4011 518.056C75.5691 517.92 75.6971 517.752 75.7851 517.552C75.8811 517.344 75.9291 517.112 75.9291 516.856V516.124H74.3811V515.032H77.1651V519.46H76.0371V518.224ZM78.8303 519.46V511.084H83.6903V512.2H80.1023V514.648H83.3423V515.752H80.1023V518.344H83.6903V519.46H78.8303Z" fill="white"/>
<path d="M39.7983 528.2V535.46H38.5263V528.2H36.3063V527.084H42.0183V528.2H39.7983ZM42.8529 535.46V534.44H43.8729V528.104H42.8529V527.084H46.1649V528.104H45.1449V534.44H46.1649V535.46H42.8529ZM50.5324 535.604C50.0444 535.604 49.6044 535.524 49.2124 535.364C48.8284 535.196 48.4964 534.936 48.2164 534.584C47.9444 534.232 47.7324 533.784 47.5804 533.24C47.4364 532.688 47.3644 532.032 47.3644 531.272C47.3644 530.512 47.4364 529.86 47.5804 529.316C47.7324 528.764 47.9444 528.312 48.2164 527.96C48.4964 527.608 48.8284 527.352 49.2124 527.192C49.6044 527.024 50.0444 526.94 50.5324 526.94C51.2444 526.94 51.8124 527.096 52.2364 527.408C52.6684 527.712 53.0124 528.172 53.2684 528.788L52.1884 529.388C52.0444 528.916 51.8404 528.576 51.5764 528.368C51.3204 528.16 50.9724 528.056 50.5324 528.056C49.9644 528.056 49.5204 528.252 49.2004 528.644C48.8884 529.036 48.7324 529.576 48.7324 530.264V532.28C48.7324 532.968 48.8884 533.508 49.2004 533.9C49.5204 534.292 49.9644 534.488 50.5324 534.488C50.9804 534.488 51.3404 534.376 51.6124 534.152C51.8924 533.928 52.1084 533.568 52.2604 533.072L53.3164 533.696C53.0524 534.312 52.7004 534.784 52.2604 535.112C51.8204 535.44 51.2444 535.604 50.5324 535.604ZM56.8953 531.5L55.8513 532.844V535.46H54.5793V527.084H55.8513V529.844L55.7793 531.404H55.9353L57.0033 529.844L58.9713 527.084H60.4353L57.7713 530.636L60.6273 535.46H59.1273L56.8953 531.5ZM61.7511 535.46V527.084H66.6111V528.2H63.0231V530.648H66.2631V531.752H63.0231V534.344H66.6111V535.46H61.7511ZM71.0287 528.2V535.46H69.7567V528.2H67.5367V527.084H73.2487V528.2H71.0287Z" fill="white"/>
<path d="M37.2541 543.084H40.0141C40.5101 543.084 40.9501 543.164 41.3341 543.324C41.7261 543.484 42.0541 543.736 42.3181 544.08C42.5901 544.416 42.7941 544.848 42.9301 545.376C43.0741 545.904 43.1461 546.536 43.1461 547.272C43.1461 548.008 43.0741 548.64 42.9301 549.168C42.7941 549.696 42.5901 550.132 42.3181 550.476C42.0541 550.812 41.7261 551.06 41.3341 551.22C40.9501 551.38 40.5101 551.46 40.0141 551.46H37.2541V543.084ZM40.0141 550.344C40.5661 550.344 40.9981 550.168 41.3101 549.816C41.6221 549.456 41.7781 548.932 41.7781 548.244V546.3C41.7781 545.612 41.6221 545.092 41.3101 544.74C40.9981 544.38 40.5661 544.2 40.0141 544.2H38.5261V550.344H40.0141ZM44.6603 551.46V543.084H49.5203V544.2H45.9323V546.648H49.1723V547.752H45.9323V550.344H49.5203V551.46H44.6603ZM51.0939 543.084H54.4899C55.1379 543.084 55.6299 543.268 55.9659 543.636C56.3019 544.004 56.4699 544.54 56.4699 545.244C56.4699 545.78 56.3539 546.2 56.1219 546.504C55.8899 546.808 55.5579 546.98 55.1259 547.02V547.164C55.3659 547.164 55.5819 547.212 55.7739 547.308C55.9739 547.396 56.1459 547.524 56.2899 547.692C56.4339 547.86 56.5459 548.06 56.6259 548.292C56.7059 548.524 56.7459 548.776 56.7459 549.048C56.7459 549.408 56.6979 549.736 56.6019 550.032C56.5139 550.328 56.3859 550.584 56.2179 550.8C56.0499 551.008 55.8459 551.172 55.6059 551.292C55.3739 551.404 55.1139 551.46 54.8259 551.46H51.0939V543.084ZM52.3659 550.344H54.4539C54.7579 550.344 54.9899 550.264 55.1499 550.104C55.3099 549.936 55.3899 549.672 55.3899 549.312V548.76C55.3899 548.4 55.3099 548.14 55.1499 547.98C54.9899 547.812 54.7579 547.728 54.4539 547.728H52.3659V550.344ZM52.3659 546.636H54.2499C54.5299 546.636 54.7459 546.564 54.8979 546.42C55.0499 546.268 55.1259 546.024 55.1259 545.688V545.148C55.1259 544.812 55.0499 544.572 54.8979 544.428C54.7459 544.276 54.5299 544.2 54.2499 544.2H52.3659V546.636ZM60.8754 544.2V551.46H59.6034V544.2H57.3834V543.084H63.0954V544.2H60.8754ZM66.6042 547.044V546.06H71.6922V547.044H66.6042ZM66.6042 549.516V548.532H71.6922V549.516H66.6042Z" fill="white"/>
<path d="M45.5404 568.518C45.5404 569.61 45.2704 570.468 44.7304 571.092C44.1904 571.704 43.3924 572.094 42.3364 572.262V573.936H40.3924V572.298C39.6724 572.238 39.0064 572.07 38.3944 571.794C37.7944 571.518 37.2664 571.098 36.8104 570.534L38.3584 569.148C38.6224 569.508 38.9524 569.79 39.3484 569.994C39.7564 570.186 40.1884 570.312 40.6444 570.372V566.916C39.4804 566.64 38.6044 566.238 38.0164 565.71C37.4404 565.182 37.1524 564.456 37.1524 563.532C37.1524 562.5 37.4224 561.702 37.9624 561.138C38.5144 560.562 39.3244 560.208 40.3924 560.076V558.42H42.3364V560.076C43.6204 560.22 44.6224 560.73 45.3424 561.606L43.8484 562.956C43.6204 562.68 43.3564 562.47 43.0564 562.326C42.7564 562.17 42.4324 562.062 42.0844 562.002V565.134C42.6964 565.29 43.2184 565.464 43.6504 565.656C44.0824 565.848 44.4364 566.076 44.7124 566.34C45.0004 566.604 45.2104 566.916 45.3424 567.276C45.4744 567.624 45.5404 568.038 45.5404 568.518ZM39.4744 563.388C39.4744 563.748 39.5704 564.042 39.7624 564.27C39.9664 564.486 40.2604 564.654 40.6444 564.774V562.002C40.2484 562.062 39.9544 562.2 39.7624 562.416C39.5704 562.632 39.4744 562.956 39.4744 563.388ZM43.2544 568.806C43.2544 568.026 42.8644 567.51 42.0844 567.258V570.318C42.8644 570.138 43.2544 569.634 43.2544 568.806ZM50.9252 572.676C49.4612 572.676 48.3692 572.25 47.6492 571.398C46.9412 570.546 46.5872 569.316 46.5872 567.708C46.5872 566.796 46.7072 565.944 46.9472 565.152C47.1992 564.348 47.5172 563.616 47.9012 562.956C48.2852 562.296 48.7172 561.708 49.1972 561.192C49.6892 560.676 50.1812 560.244 50.6732 559.896H54.2192C53.5112 560.424 52.8752 560.934 52.3112 561.426C51.7592 561.906 51.2732 562.398 50.8532 562.902C50.4452 563.394 50.1092 563.91 49.8452 564.45C49.5812 564.99 49.3952 565.572 49.2872 566.196H49.5752C49.7432 565.692 50.0192 565.266 50.4032 564.918C50.7872 564.57 51.3212 564.396 52.0052 564.396C53.0132 564.396 53.8052 564.738 54.3812 565.422C54.9692 566.094 55.2632 567.066 55.2632 568.338C55.2632 569.706 54.8912 570.774 54.1472 571.542C53.4152 572.298 52.3412 572.676 50.9252 572.676ZM50.9252 570.606C51.4772 570.606 51.8852 570.456 52.1492 570.156C52.4252 569.844 52.5632 569.4 52.5632 568.824V568.248C52.5632 567.672 52.4252 567.234 52.1492 566.934C51.8852 566.622 51.4772 566.466 50.9252 566.466C50.3732 566.466 49.9592 566.622 49.6832 566.934C49.4192 567.234 49.2872 567.672 49.2872 568.248V568.824C49.2872 569.4 49.4192 569.844 49.6832 570.156C49.9592 570.456 50.3732 570.606 50.9252 570.606ZM60.5739 572.676C59.8179 572.676 59.1699 572.556 58.6299 572.316C58.0899 572.064 57.6399 571.68 57.2799 571.164C56.9319 570.636 56.6739 569.964 56.5059 569.148C56.3379 568.32 56.2539 567.33 56.2539 566.178C56.2539 565.026 56.3379 564.042 56.5059 563.226C56.6739 562.398 56.9319 561.726 57.2799 561.21C57.6399 560.682 58.0899 560.298 58.6299 560.058C59.1699 559.806 59.8179 559.68 60.5739 559.68C61.3299 559.68 61.9779 559.806 62.5179 560.058C63.0579 560.298 63.5019 560.682 63.8499 561.21C64.2099 561.726 64.4739 562.398 64.6419 563.226C64.8099 564.042 64.8939 565.026 64.8939 566.178C64.8939 567.33 64.8099 568.32 64.6419 569.148C64.4739 569.964 64.2099 570.636 63.8499 571.164C63.5019 571.68 63.0579 572.064 62.5179 572.316C61.9779 572.556 61.3299 572.676 60.5739 572.676ZM60.5739 570.516C60.8739 570.516 61.1259 570.474 61.3299 570.39C61.5339 570.294 61.6959 570.15 61.8159 569.958C61.9359 569.754 62.0199 569.49 62.0679 569.166C62.1279 568.842 62.1579 568.44 62.1579 567.96V564.396C62.1579 563.448 62.0439 562.788 61.8159 562.416C61.5879 562.032 61.1739 561.84 60.5739 561.84C59.9739 561.84 59.5599 562.032 59.3319 562.416C59.1039 562.788 58.9899 563.448 58.9899 564.396V567.96C58.9899 568.44 59.0139 568.842 59.0619 569.166C59.1219 569.49 59.2119 569.754 59.3319 569.958C59.4519 570.15 59.6139 570.294 59.8179 570.39C60.0219 570.474 60.2739 570.516 60.5739 570.516ZM70.3666 572.676C68.9026 572.676 67.8106 572.25 67.0906 571.398C66.3826 570.546 66.0286 569.316 66.0286 567.708C66.0286 566.796 66.1486 565.944 66.3886 565.152C66.6406 564.348 66.9586 563.616 67.3426 562.956C67.7266 562.296 68.1586 561.708 68.6386 561.192C69.1306 560.676 69.6226 560.244 70.1146 559.896H73.6606C72.9526 560.424 72.3166 560.934 71.7526 561.426C71.2006 561.906 70.7146 562.398 70.2946 562.902C69.8866 563.394 69.5506 563.91 69.2866 564.45C69.0226 564.99 68.8366 565.572 68.7286 566.196H69.0166C69.1846 565.692 69.4606 565.266 69.8446 564.918C70.2286 564.57 70.7626 564.396 71.4466 564.396C72.4546 564.396 73.2466 564.738 73.8226 565.422C74.4106 566.094 74.7046 567.066 74.7046 568.338C74.7046 569.706 74.3326 570.774 73.5886 571.542C72.8566 572.298 71.7826 572.676 70.3666 572.676ZM70.3666 570.606C70.9186 570.606 71.3266 570.456 71.5906 570.156C71.8666 569.844 72.0046 569.4 72.0046 568.824V568.248C72.0046 567.672 71.8666 567.234 71.5906 566.934C71.3266 566.622 70.9186 566.466 70.3666 566.466C69.8146 566.466 69.4006 566.622 69.1246 566.934C68.8606 567.234 68.7286 567.672 68.7286 568.248V568.824C68.7286 569.4 68.8606 569.844 69.1246 570.156C69.4006 570.456 69.8146 570.606 70.3666 570.606Z" fill="white"/>
<path d="M363.41 599.93C362.64 600.68 361.44 600.5 360.72 599.7L354.66 592.97H354.61L348.46 599.8C347.71 600.63 346.49 600.63 345.74 599.8L339.59 592.97H339.54L333.39 599.8C332.64 600.63 331.42 600.63 330.67 599.8L324.52 592.97H324.47L318.32 599.8C317.57 600.63 316.35 600.63 315.6 599.8L309.45 592.97H309.4L303.25 599.8C302.5 600.63 301.28 600.63 300.53 599.8L294.38 592.97H294.33L288.27 599.7C287.55 600.5 286.35 600.68 285.58 599.93C285.15 599.51 284.94 598.93 284.94 598.35V478.14C284.94 477.56 285.15 476.98 285.58 476.56C286.35 475.81 287.55 475.99 288.27 476.79L294.33 483.52H294.38L300.53 476.69C301.28 475.86 302.5 475.86 303.25 476.69L309.4 483.52H309.45L315.6 476.69C316.35 475.86 317.57 475.86 318.32 476.69L324.47 483.52H324.52L330.67 476.69C331.42 475.86 332.64 475.86 333.39 476.69L339.54 483.52H339.59L345.74 476.69C346.49 475.86 347.71 475.86 348.46 476.69L354.61 483.52H354.66L360.72 476.79C361.44 475.99 362.64 475.81 363.41 476.56C363.84 476.98 364.05 477.56 364.05 478.14V598.35C364.05 598.93 363.84 599.51 363.41 599.93Z" fill="#603913"/>
<path d="M363.41 599.93C362.64 600.68 361.44 600.5 360.72 599.7L354.66 592.97H354.61L348.46 599.8C347.71 600.63 346.49 600.63 345.74 599.8L339.59 592.97H339.54L333.39 599.8C332.64 600.63 331.42 600.63 330.67 599.8L324.52 592.97H324.47L318.32 599.8C317.57 600.63 316.35 600.63 315.6 599.8L309.45 592.97H309.4L303.25 599.8C302.5 600.63 301.28 600.63 300.53 599.8L294.38 592.97H294.33L288.27 599.7C287.55 600.5 286.35 600.68 285.58 599.93C285.15 599.51 284.94 598.93 284.94 598.35V478.14C284.94 477.56 285.15 476.98 285.58 476.56C286.35 475.81 287.55 475.99 288.27 476.79L294.33 483.52H294.38L300.53 476.69C301.28 475.86 302.5 475.86 303.25 476.69L309.4 483.52H309.45L315.6 476.69C316.35 475.86 317.57 475.86 318.32 476.69L324.47 483.52H324.52L330.67 476.69C331.42 475.86 332.64 475.86 333.39 476.69L339.54 483.52H339.59L345.74 476.69C346.49 475.86 347.71 475.86 348.46 476.69L354.61 483.52H354.66L360.72 476.79C361.44 475.99 362.64 475.81 363.41 476.56C363.84 476.98 364.05 477.56 364.05 478.14V598.35C364.05 598.93 363.84 599.51 363.41 599.93Z" stroke="white" stroke-miterlimit="10"/>
<path d="M299.916 519.46L299.268 517.144H296.448L295.8 519.46H294.552L297.06 511.084H298.68L301.2 519.46H299.916ZM298.188 513.46L297.924 512.236H297.768L297.504 513.46L296.76 516.1H298.968L298.188 513.46ZM303.503 519.46L301.043 511.084H302.375L303.863 516.352L304.211 518.308H304.367L304.715 516.352L306.191 511.084H307.499L305.051 519.46H303.503ZM308.618 519.46V511.084H313.478V512.2H309.89V514.648H313.13V515.752H309.89V518.344H313.478V519.46H308.618ZM316.324 519.46H315.052V511.084H318.364C319.084 511.084 319.624 511.3 319.984 511.732C320.352 512.156 320.536 512.768 320.536 513.568C320.536 514.216 320.416 514.74 320.176 515.14C319.936 515.54 319.576 515.808 319.096 515.944L320.692 519.46H319.276L317.824 516.04H316.324V519.46ZM318.256 514.972C318.56 514.972 318.788 514.896 318.94 514.744C319.1 514.584 319.18 514.328 319.18 513.976V513.196C319.18 512.844 319.1 512.592 318.94 512.44C318.788 512.28 318.56 512.2 318.256 512.2H316.324V514.972H318.256ZM326.845 519.46L326.197 517.144H323.377L322.729 519.46H321.481L323.989 511.084H325.609L328.129 519.46H326.845ZM325.117 513.46L324.853 512.236H324.697L324.433 513.46L323.689 516.1H325.897L325.117 513.46ZM333.927 518.224H333.783C333.703 518.624 333.499 518.956 333.171 519.22C332.843 519.476 332.379 519.604 331.779 519.604C331.347 519.604 330.947 519.524 330.579 519.364C330.219 519.204 329.903 518.952 329.631 518.608C329.359 518.256 329.147 517.808 328.995 517.264C328.843 516.712 328.767 516.052 328.767 515.284C328.767 514.516 328.839 513.86 328.983 513.316C329.135 512.764 329.351 512.312 329.631 511.96C329.919 511.608 330.263 511.352 330.663 511.192C331.063 511.024 331.515 510.94 332.019 510.94C332.763 510.94 333.367 511.1 333.831 511.42C334.295 511.74 334.655 512.196 334.911 512.788L333.867 513.4C333.723 512.992 333.503 512.668 333.207 512.428C332.919 512.188 332.527 512.068 332.031 512.068C331.431 512.068 330.963 512.26 330.627 512.644C330.299 513.028 330.135 513.564 330.135 514.252V516.292C330.135 516.98 330.299 517.516 330.627 517.9C330.963 518.284 331.431 518.476 332.031 518.476C332.279 518.476 332.511 518.44 332.727 518.368C332.943 518.296 333.131 518.192 333.291 518.056C333.459 517.92 333.587 517.752 333.675 517.552C333.771 517.344 333.819 517.112 333.819 516.856V516.124H332.271V515.032H335.055V519.46H333.927V518.224ZM336.72 519.46V511.084H341.58V512.2H337.992V514.648H341.232V515.752H337.992V518.344H341.58V519.46H336.72Z" fill="white"/>
<path d="M297.678 528.2V535.46H296.406V528.2H294.186V527.084H299.898V528.2H297.678ZM300.733 535.46V534.44H301.753V528.104H300.733V527.084H304.045V528.104H303.025V534.44H304.045V535.46H300.733ZM308.412 535.604C307.924 535.604 307.484 535.524 307.092 535.364C306.708 535.196 306.376 534.936 306.096 534.584C305.824 534.232 305.612 533.784 305.46 533.24C305.316 532.688 305.244 532.032 305.244 531.272C305.244 530.512 305.316 529.86 305.46 529.316C305.612 528.764 305.824 528.312 306.096 527.96C306.376 527.608 306.708 527.352 307.092 527.192C307.484 527.024 307.924 526.94 308.412 526.94C309.124 526.94 309.692 527.096 310.116 527.408C310.548 527.712 310.892 528.172 311.148 528.788L310.068 529.388C309.924 528.916 309.72 528.576 309.456 528.368C309.2 528.16 308.852 528.056 308.412 528.056C307.844 528.056 307.4 528.252 307.08 528.644C306.768 529.036 306.612 529.576 306.612 530.264V532.28C306.612 532.968 306.768 533.508 307.08 533.9C307.4 534.292 307.844 534.488 308.412 534.488C308.86 534.488 309.22 534.376 309.492 534.152C309.772 533.928 309.988 533.568 310.14 533.072L311.196 533.696C310.932 534.312 310.58 534.784 310.14 535.112C309.7 535.44 309.124 535.604 308.412 535.604ZM314.775 531.5L313.731 532.844V535.46H312.459V527.084H313.731V529.844L313.659 531.404H313.815L314.883 529.844L316.851 527.084H318.315L315.651 530.636L318.507 535.46H317.007L314.775 531.5ZM319.631 535.46V527.084H324.491V528.2H320.903V530.648H324.143V531.752H320.903V534.344H324.491V535.46H319.631ZM328.909 528.2V535.46H327.637V528.2H325.417V527.084H331.129V528.2H328.909Z" fill="white"/>
<path d="M295.144 543.084H297.904C298.4 543.084 298.84 543.164 299.224 543.324C299.616 543.484 299.944 543.736 300.208 544.08C300.48 544.416 300.684 544.848 300.82 545.376C300.964 545.904 301.036 546.536 301.036 547.272C301.036 548.008 300.964 548.64 300.82 549.168C300.684 549.696 300.48 550.132 300.208 550.476C299.944 550.812 299.616 551.06 299.224 551.22C298.84 551.38 298.4 551.46 297.904 551.46H295.144V543.084ZM297.904 550.344C298.456 550.344 298.888 550.168 299.2 549.816C299.512 549.456 299.668 548.932 299.668 548.244V546.3C299.668 545.612 299.512 545.092 299.2 544.74C298.888 544.38 298.456 544.2 297.904 544.2H296.416V550.344H297.904ZM302.55 551.46V543.084H307.41V544.2H303.822V546.648H307.062V547.752H303.822V550.344H307.41V551.46H302.55ZM308.984 543.084H312.38C313.028 543.084 313.52 543.268 313.856 543.636C314.192 544.004 314.36 544.54 314.36 545.244C314.36 545.78 314.244 546.2 314.012 546.504C313.78 546.808 313.448 546.98 313.016 547.02V547.164C313.256 547.164 313.472 547.212 313.664 547.308C313.864 547.396 314.036 547.524 314.18 547.692C314.324 547.86 314.436 548.06 314.516 548.292C314.596 548.524 314.636 548.776 314.636 549.048C314.636 549.408 314.588 549.736 314.492 550.032C314.404 550.328 314.276 550.584 314.108 550.8C313.94 551.008 313.736 551.172 313.496 551.292C313.264 551.404 313.004 551.46 312.716 551.46H308.984V543.084ZM310.256 550.344H312.344C312.648 550.344 312.88 550.264 313.04 550.104C313.2 549.936 313.28 549.672 313.28 549.312V548.76C313.28 548.4 313.2 548.14 313.04 547.98C312.88 547.812 312.648 547.728 312.344 547.728H310.256V550.344ZM310.256 546.636H312.14C312.42 546.636 312.636 546.564 312.788 546.42C312.94 546.268 313.016 546.024 313.016 545.688V545.148C313.016 544.812 312.94 544.572 312.788 544.428C312.636 544.276 312.42 544.2 312.14 544.2H310.256V546.636ZM318.765 544.2V551.46H317.493V544.2H315.273V543.084H320.985V544.2H318.765ZM324.494 547.044V546.06H329.582V547.044H324.494ZM324.494 549.516V548.532H329.582V549.516H324.494Z" fill="white"/>
<path d="M303.43 569.518C303.43 570.61 303.16 571.468 302.62 572.092C302.08 572.704 301.282 573.094 300.226 573.262V574.936H298.282V573.298C297.562 573.238 296.896 573.07 296.284 572.794C295.684 572.518 295.156 572.098 294.7 571.534L296.248 570.148C296.512 570.508 296.842 570.79 297.238 570.994C297.646 571.186 298.078 571.312 298.534 571.372V567.916C297.37 567.64 296.494 567.238 295.906 566.71C295.33 566.182 295.042 565.456 295.042 564.532C295.042 563.5 295.312 562.702 295.852 562.138C296.404 561.562 297.214 561.208 298.282 561.076V559.42H300.226V561.076C301.51 561.22 302.512 561.73 303.232 562.606L301.738 563.956C301.51 563.68 301.246 563.47 300.946 563.326C300.646 563.17 300.322 563.062 299.974 563.002V566.134C300.586 566.29 301.108 566.464 301.54 566.656C301.972 566.848 302.326 567.076 302.602 567.34C302.89 567.604 303.1 567.916 303.232 568.276C303.364 568.624 303.43 569.038 303.43 569.518ZM297.364 564.388C297.364 564.748 297.46 565.042 297.652 565.27C297.856 565.486 298.15 565.654 298.534 565.774V563.002C298.138 563.062 297.844 563.2 297.652 563.416C297.46 563.632 297.364 563.956 297.364 564.388ZM301.144 569.806C301.144 569.026 300.754 568.51 299.974 568.258V571.318C300.754 571.138 301.144 570.634 301.144 569.806ZM312.379 563.146H307.303L307.033 567.214H307.321C307.453 566.626 307.717 566.158 308.113 565.81C308.521 565.462 309.049 565.288 309.697 565.288C310.741 565.288 311.569 565.606 312.181 566.242C312.793 566.878 313.099 567.88 313.099 569.248C313.099 570.664 312.733 571.756 312.001 572.524C311.269 573.292 310.165 573.676 308.689 573.676C308.125 573.676 307.627 573.61 307.195 573.478C306.763 573.358 306.379 573.19 306.043 572.974C305.707 572.758 305.419 572.506 305.179 572.218C304.939 571.93 304.735 571.624 304.567 571.3L306.421 569.86C306.661 570.388 306.967 570.814 307.339 571.138C307.711 571.45 308.161 571.606 308.689 571.606C309.829 571.606 310.399 570.97 310.399 569.698V569.122C310.399 568.51 310.249 568.066 309.949 567.79C309.649 567.502 309.247 567.358 308.743 567.358C308.311 567.358 307.957 567.46 307.681 567.664C307.405 567.868 307.201 568.072 307.069 568.276L304.891 567.988L305.323 560.896H312.379V563.146ZM317.852 565.954C318.14 565.954 318.392 565.912 318.608 565.828C318.824 565.744 318.998 565.636 319.13 565.504C319.262 565.372 319.358 565.228 319.418 565.072C319.49 564.904 319.526 564.742 319.526 564.586V564.01C319.526 563.662 319.4 563.368 319.148 563.128C318.896 562.876 318.536 562.75 318.068 562.75C317.588 562.75 317.162 562.876 316.79 563.128C316.418 563.38 316.076 563.752 315.764 564.244L314.18 562.786C314.636 562.09 315.206 561.568 315.89 561.22C316.574 560.86 317.348 560.68 318.212 560.68C319.436 560.68 320.396 560.95 321.092 561.49C321.8 562.03 322.154 562.858 322.154 563.974C322.154 564.394 322.094 564.766 321.974 565.09C321.866 565.414 321.716 565.696 321.524 565.936C321.344 566.164 321.122 566.35 320.858 566.494C320.606 566.638 320.336 566.734 320.048 566.782V567.07C320.384 567.13 320.696 567.226 320.984 567.358C321.272 567.478 321.518 567.646 321.722 567.862C321.938 568.066 322.1 568.33 322.208 568.654C322.328 568.966 322.388 569.338 322.388 569.77C322.388 570.382 322.286 570.928 322.082 571.408C321.89 571.888 321.602 572.296 321.218 572.632C320.846 572.968 320.39 573.226 319.85 573.406C319.322 573.586 318.722 573.676 318.05 573.676C317.486 573.676 316.976 573.61 316.52 573.478C316.076 573.346 315.68 573.172 315.332 572.956C314.996 572.728 314.702 572.47 314.45 572.182C314.21 571.894 314 571.588 313.82 571.264L315.692 569.824C315.932 570.352 316.232 570.784 316.592 571.12C316.964 571.444 317.444 571.606 318.032 571.606C318.572 571.606 318.986 571.462 319.274 571.174C319.574 570.886 319.724 570.514 319.724 570.058V569.482C319.724 569.062 319.556 568.714 319.22 568.438C318.884 568.162 318.41 568.024 317.798 568.024H316.808V565.954H317.852ZM328.184 573.676C327.428 573.676 326.78 573.556 326.24 573.316C325.7 573.064 325.25 572.68 324.89 572.164C324.542 571.636 324.284 570.964 324.116 570.148C323.948 569.32 323.864 568.33 323.864 567.178C323.864 566.026 323.948 565.042 324.116 564.226C324.284 563.398 324.542 562.726 324.89 562.21C325.25 561.682 325.7 561.298 326.24 561.058C326.78 560.806 327.428 560.68 328.184 560.68C328.94 560.68 329.588 560.806 330.128 561.058C330.668 561.298 331.112 561.682 331.46 562.21C331.82 562.726 332.084 563.398 332.252 564.226C332.42 565.042 332.504 566.026 332.504 567.178C332.504 568.33 332.42 569.32 332.252 570.148C332.084 570.964 331.82 571.636 331.46 572.164C331.112 572.68 330.668 573.064 330.128 573.316C329.588 573.556 328.94 573.676 328.184 573.676ZM328.184 571.516C328.484 571.516 328.736 571.474 328.94 571.39C329.144 571.294 329.306 571.15 329.426 570.958C329.546 570.754 329.63 570.49 329.678 570.166C329.738 569.842 329.768 569.44 329.768 568.96V565.396C329.768 564.448 329.654 563.788 329.426 563.416C329.198 563.032 328.784 562.84 328.184 562.84C327.584 562.84 327.17 563.032 326.942 563.416C326.714 563.788 326.6 564.448 326.6 565.396V568.96C326.6 569.44 326.624 569.842 326.672 570.166C326.732 570.49 326.822 570.754 326.942 570.958C327.062 571.15 327.224 571.294 327.428 571.39C327.632 571.474 327.884 571.516 328.184 571.516Z" fill="white"/>
<path d="M478.06 1034.06C477.29 1034.81 476.09 1034.63 475.37 1033.83L469.31 1027.1H469.26L463.11 1033.93C462.36 1034.76 461.14 1034.76 460.39 1033.93L454.24 1027.1H454.19L448.04 1033.93C447.29 1034.76 446.07 1034.76 445.32 1033.93L439.17 1027.1H439.12L432.97 1033.93C432.22 1034.76 431 1034.76 430.25 1033.93L424.1 1027.1H424.05L417.9 1033.93C417.15 1034.76 415.93 1034.76 415.18 1033.93L409.03 1027.1H408.98L402.92 1033.83C402.2 1034.63 401 1034.81 400.23 1034.06C399.8 1033.64 399.59 1033.06 399.59 1032.48V912.27C399.59 911.69 399.8 911.11 400.23 910.69C401 909.94 402.2 910.12 402.92 910.92L408.98 917.65H409.03L415.18 910.82C415.93 909.99 417.15 909.99 417.9 910.82L424.05 917.65H424.1L430.25 910.82C431 909.99 432.22 909.99 432.97 910.82L439.12 917.65H439.17L445.32 910.82C446.07 909.99 447.29 909.99 448.04 910.82L454.19 917.65H454.24L460.39 910.82C461.14 909.99 462.36 909.99 463.11 910.82L469.26 917.65H469.31L475.37 910.92C476.09 910.12 477.29 909.94 478.06 910.69C478.49 911.11 478.7 911.69 478.7 912.27V1032.48C478.7 1033.06 478.49 1033.64 478.06 1034.06Z" fill="#EC1E2E"/>
<path d="M478.06 1034.06C477.29 1034.81 476.09 1034.63 475.37 1033.83L469.31 1027.1H469.26L463.11 1033.93C462.36 1034.76 461.14 1034.76 460.39 1033.93L454.24 1027.1H454.19L448.04 1033.93C447.29 1034.76 446.07 1034.76 445.32 1033.93L439.17 1027.1H439.12L432.97 1033.93C432.22 1034.76 431 1034.76 430.25 1033.93L424.1 1027.1H424.05L417.9 1033.93C417.15 1034.76 415.93 1034.76 415.18 1033.93L409.03 1027.1H408.98L402.92 1033.83C402.2 1034.63 401 1034.81 400.23 1034.06C399.8 1033.64 399.59 1033.06 399.59 1032.48V912.27C399.59 911.69 399.8 911.11 400.23 910.69C401 909.94 402.2 910.12 402.92 910.92L408.98 917.65H409.03L415.18 910.82C415.93 909.99 417.15 909.99 417.9 910.82L424.05 917.65H424.1L430.25 910.82C431 909.99 432.22 909.99 432.97 910.82L439.12 917.65H439.17L445.32 910.82C446.07 909.99 447.29 909.99 448.04 910.82L454.19 917.65H454.24L460.39 910.82C461.14 909.99 462.36 909.99 463.11 910.82L469.26 917.65H469.31L475.37 910.92C476.09 910.12 477.29 909.94 478.06 910.69C478.49 911.11 478.7 911.69 478.7 912.27V1032.48C478.7 1033.06 478.49 1033.64 478.06 1034.06Z" stroke="white" stroke-miterlimit="10"/>
<path d="M414.566 953.58L413.918 951.264H411.098L410.45 953.58H409.202L411.71 945.204H413.33L415.85 953.58H414.566ZM412.838 947.58L412.574 946.356H412.418L412.154 947.58L411.41 950.22H413.618L412.838 947.58ZM418.153 953.58L415.693 945.204H417.025L418.513 950.472L418.861 952.428H419.017L419.365 950.472L420.841 945.204H422.149L419.701 953.58H418.153ZM423.269 953.58V945.204H428.129V946.32H424.541V948.768H427.781V949.872H424.541V952.464H428.129V953.58H423.269ZM430.974 953.58H429.702V945.204H433.014C433.734 945.204 434.274 945.42 434.634 945.852C435.002 946.276 435.186 946.888 435.186 947.688C435.186 948.336 435.066 948.86 434.826 949.26C434.586 949.66 434.226 949.928 433.746 950.064L435.342 953.58H433.926L432.474 950.16H430.974V953.58ZM432.906 949.092C433.21 949.092 433.438 949.016 433.59 948.864C433.75 948.704 433.83 948.448 433.83 948.096V947.316C433.83 946.964 433.75 946.712 433.59 946.56C433.438 946.4 433.21 946.32 432.906 946.32H430.974V949.092H432.906ZM441.496 953.58L440.848 951.264H438.028L437.38 953.58H436.132L438.64 945.204H440.26L442.78 953.58H441.496ZM439.768 947.58L439.504 946.356H439.348L439.084 947.58L438.34 950.22H440.548L439.768 947.58ZM448.577 952.344H448.433C448.353 952.744 448.149 953.076 447.821 953.34C447.493 953.596 447.029 953.724 446.429 953.724C445.997 953.724 445.597 953.644 445.229 953.484C444.869 953.324 444.553 953.072 444.281 952.728C444.009 952.376 443.797 951.928 443.645 951.384C443.493 950.832 443.417 950.172 443.417 949.404C443.417 948.636 443.489 947.98 443.633 947.436C443.785 946.884 444.001 946.432 444.281 946.08C444.569 945.728 444.913 945.472 445.313 945.312C445.713 945.144 446.165 945.06 446.669 945.06C447.413 945.06 448.017 945.22 448.481 945.54C448.945 945.86 449.305 946.316 449.561 946.908L448.517 947.52C448.373 947.112 448.153 946.788 447.857 946.548C447.569 946.308 447.177 946.188 446.681 946.188C446.081 946.188 445.613 946.38 445.277 946.764C444.949 947.148 444.785 947.684 444.785 948.372V950.412C444.785 951.1 444.949 951.636 445.277 952.02C445.613 952.404 446.081 952.596 446.681 952.596C446.929 952.596 447.161 952.56 447.377 952.488C447.593 952.416 447.781 952.312 447.941 952.176C448.109 952.04 448.237 951.872 448.325 951.672C448.421 951.464 448.469 951.232 448.469 950.976V950.244H446.921V949.152H449.705V953.58H448.577V952.344ZM451.37 953.58V945.204H456.23V946.32H452.642V948.768H455.882V949.872H452.642V952.464H456.23V953.58H451.37Z" fill="white"/>
<path d="M412.338 962.32V969.58H411.066V962.32H408.846V961.204H414.558V962.32H412.338ZM415.393 969.58V968.56H416.413V962.224H415.393V961.204H418.705V962.224H417.685V968.56H418.705V969.58H415.393ZM423.072 969.724C422.584 969.724 422.144 969.644 421.752 969.484C421.368 969.316 421.036 969.056 420.756 968.704C420.484 968.352 420.272 967.904 420.12 967.36C419.976 966.808 419.904 966.152 419.904 965.392C419.904 964.632 419.976 963.98 420.12 963.436C420.272 962.884 420.484 962.432 420.756 962.08C421.036 961.728 421.368 961.472 421.752 961.312C422.144 961.144 422.584 961.06 423.072 961.06C423.784 961.06 424.352 961.216 424.776 961.528C425.208 961.832 425.552 962.292 425.808 962.908L424.728 963.508C424.584 963.036 424.38 962.696 424.116 962.488C423.86 962.28 423.512 962.176 423.072 962.176C422.504 962.176 422.06 962.372 421.74 962.764C421.428 963.156 421.272 963.696 421.272 964.384V966.4C421.272 967.088 421.428 967.628 421.74 968.02C422.06 968.412 422.504 968.608 423.072 968.608C423.52 968.608 423.88 968.496 424.152 968.272C424.432 968.048 424.648 967.688 424.8 967.192L425.856 967.816C425.592 968.432 425.24 968.904 424.8 969.232C424.36 969.56 423.784 969.724 423.072 969.724ZM429.435 965.62L428.391 966.964V969.58H427.119V961.204H428.391V963.964L428.319 965.524H428.475L429.543 963.964L431.511 961.204H432.975L430.311 964.756L433.167 969.58H431.667L429.435 965.62ZM434.291 969.58V961.204H439.151V962.32H435.563V964.768H438.803V965.872H435.563V968.464H439.151V969.58H434.291ZM443.569 962.32V969.58H442.297V962.32H440.077V961.204H445.789V962.32H443.569Z" fill="white"/>
<path d="M409.794 977.204H412.554C413.05 977.204 413.49 977.284 413.874 977.444C414.266 977.604 414.594 977.856 414.858 978.2C415.13 978.536 415.334 978.968 415.47 979.496C415.614 980.024 415.686 980.656 415.686 981.392C415.686 982.128 415.614 982.76 415.47 983.288C415.334 983.816 415.13 984.252 414.858 984.596C414.594 984.932 414.266 985.18 413.874 985.34C413.49 985.5 413.05 985.58 412.554 985.58H409.794V977.204ZM412.554 984.464C413.106 984.464 413.538 984.288 413.85 983.936C414.162 983.576 414.318 983.052 414.318 982.364V980.42C414.318 979.732 414.162 979.212 413.85 978.86C413.538 978.5 413.106 978.32 412.554 978.32H411.066V984.464H412.554ZM417.2 985.58V977.204H422.06V978.32H418.472V980.768H421.712V981.872H418.472V984.464H422.06V985.58H417.2ZM423.634 977.204H427.03C427.678 977.204 428.17 977.388 428.506 977.756C428.842 978.124 429.01 978.66 429.01 979.364C429.01 979.9 428.894 980.32 428.662 980.624C428.43 980.928 428.098 981.1 427.666 981.14V981.284C427.906 981.284 428.122 981.332 428.314 981.428C428.514 981.516 428.686 981.644 428.83 981.812C428.974 981.98 429.086 982.18 429.166 982.412C429.246 982.644 429.286 982.896 429.286 983.168C429.286 983.528 429.238 983.856 429.142 984.152C429.054 984.448 428.926 984.704 428.758 984.92C428.59 985.128 428.386 985.292 428.146 985.412C427.914 985.524 427.654 985.58 427.366 985.58H423.634V977.204ZM424.906 984.464H426.994C427.298 984.464 427.53 984.384 427.69 984.224C427.85 984.056 427.93 983.792 427.93 983.432V982.88C427.93 982.52 427.85 982.26 427.69 982.1C427.53 981.932 427.298 981.848 426.994 981.848H424.906V984.464ZM424.906 980.756H426.79C427.07 980.756 427.286 980.684 427.438 980.54C427.59 980.388 427.666 980.144 427.666 979.808V979.268C427.666 978.932 427.59 978.692 427.438 978.548C427.286 978.396 427.07 978.32 426.79 978.32H424.906V980.756ZM433.415 978.32V985.58H432.143V978.32H429.923V977.204H435.635V978.32H433.415ZM439.144 981.164V980.18H444.232V981.164H439.144ZM439.144 983.636V982.652H444.232V983.636H439.144Z" fill="white"/>
<path d="M418.08 1002.64C418.08 1003.73 417.81 1004.59 417.27 1005.21C416.73 1005.82 415.932 1006.21 414.876 1006.38V1008.06H412.932V1006.42C412.212 1006.36 411.546 1006.19 410.934 1005.91C410.334 1005.64 409.806 1005.22 409.35 1004.65L410.898 1003.27C411.162 1003.63 411.492 1003.91 411.888 1004.11C412.296 1004.31 412.728 1004.43 413.184 1004.49V1001.04C412.02 1000.76 411.144 1000.36 410.556 999.83C409.98 999.302 409.692 998.576 409.692 997.652C409.692 996.62 409.962 995.822 410.502 995.258C411.054 994.682 411.864 994.328 412.932 994.196V992.54H414.876V994.196C416.16 994.34 417.162 994.85 417.882 995.726L416.388 997.076C416.16 996.8 415.896 996.59 415.596 996.446C415.296 996.29 414.972 996.182 414.624 996.122V999.254C415.236 999.41 415.758 999.584 416.19 999.776C416.622 999.968 416.976 1000.2 417.252 1000.46C417.54 1000.72 417.75 1001.04 417.882 1001.4C418.014 1001.74 418.08 1002.16 418.08 1002.64ZM412.014 997.508C412.014 997.868 412.11 998.162 412.302 998.39C412.506 998.606 412.8 998.774 413.184 998.894V996.122C412.788 996.182 412.494 996.32 412.302 996.536C412.11 996.752 412.014 997.076 412.014 997.508ZM415.794 1002.93C415.794 1002.15 415.404 1001.63 414.624 1001.38V1004.44C415.404 1004.26 415.794 1003.75 415.794 1002.93ZM423.393 1006.8C421.977 1006.8 420.915 1006.47 420.207 1005.82C419.499 1005.16 419.145 1004.27 419.145 1003.14C419.145 1002.31 419.343 1001.65 419.739 1001.16C420.147 1000.66 420.687 1000.33 421.359 1000.19V999.902C420.807 999.734 420.357 999.416 420.009 998.948C419.661 998.468 419.487 997.85 419.487 997.094C419.487 996.05 419.799 995.24 420.423 994.664C421.059 994.088 422.049 993.8 423.393 993.8C424.737 993.8 425.721 994.088 426.345 994.664C426.981 995.24 427.299 996.05 427.299 997.094C427.299 997.85 427.125 998.468 426.777 998.948C426.429 999.416 425.979 999.734 425.427 999.902V1000.19C426.099 1000.33 426.633 1000.66 427.029 1001.16C427.437 1001.65 427.641 1002.31 427.641 1003.14C427.641 1004.27 427.287 1005.16 426.579 1005.82C425.871 1006.47 424.809 1006.8 423.393 1006.8ZM423.393 1004.83C423.921 1004.83 424.317 1004.7 424.581 1004.42C424.845 1004.14 424.977 1003.75 424.977 1003.25V1002.67C424.977 1002.17 424.845 1001.78 424.581 1001.5C424.317 1001.23 423.921 1001.09 423.393 1001.09C422.865 1001.09 422.469 1001.23 422.205 1001.5C421.941 1001.78 421.809 1002.17 421.809 1002.67V1003.25C421.809 1003.75 421.941 1004.14 422.205 1004.42C422.469 1004.7 422.865 1004.83 423.393 1004.83ZM423.393 999.2C423.897 999.2 424.275 999.062 424.527 998.786C424.791 998.51 424.923 998.156 424.923 997.724V997.238C424.923 996.806 424.791 996.452 424.527 996.176C424.275 995.9 423.897 995.762 423.393 995.762C422.889 995.762 422.505 995.9 422.241 996.176C421.989 996.452 421.863 996.806 421.863 997.238V997.724C421.863 998.156 421.989 998.51 422.241 998.786C422.505 999.062 422.889 999.2 423.393 999.2ZM436.75 996.266H431.674L431.404 1000.33H431.692C431.824 999.746 432.088 999.278 432.484 998.93C432.892 998.582 433.42 998.408 434.068 998.408C435.112 998.408 435.94 998.726 436.552 999.362C437.164 999.998 437.47 1001 437.47 1002.37C437.47 1003.78 437.104 1004.88 436.372 1005.64C435.64 1006.41 434.536 1006.8 433.06 1006.8C432.496 1006.8 431.998 1006.73 431.566 1006.6C431.134 1006.48 430.75 1006.31 430.414 1006.09C430.078 1005.88 429.79 1005.63 429.55 1005.34C429.31 1005.05 429.106 1004.74 428.938 1004.42L430.792 1002.98C431.032 1003.51 431.338 1003.93 431.71 1004.26C432.082 1004.57 432.532 1004.73 433.06 1004.73C434.2 1004.73 434.77 1004.09 434.77 1002.82V1002.24C434.77 1001.63 434.62 1001.19 434.32 1000.91C434.02 1000.62 433.618 1000.48 433.114 1000.48C432.682 1000.48 432.328 1000.58 432.052 1000.78C431.776 1000.99 431.572 1001.19 431.44 1001.4L429.262 1001.11L429.694 994.016H436.75V996.266ZM446.471 996.266H441.395L441.125 1000.33H441.413C441.545 999.746 441.809 999.278 442.205 998.93C442.613 998.582 443.141 998.408 443.789 998.408C444.833 998.408 445.661 998.726 446.273 999.362C446.885 999.998 447.191 1001 447.191 1002.37C447.191 1003.78 446.825 1004.88 446.093 1005.64C445.361 1006.41 444.257 1006.8 442.781 1006.8C442.217 1006.8 441.719 1006.73 441.287 1006.6C440.855 1006.48 440.471 1006.31 440.135 1006.09C439.799 1005.88 439.511 1005.63 439.271 1005.34C439.031 1005.05 438.827 1004.74 438.659 1004.42L440.513 1002.98C440.753 1003.51 441.059 1003.93 441.431 1004.26C441.803 1004.57 442.253 1004.73 442.781 1004.73C443.921 1004.73 444.491 1004.09 444.491 1002.82V1002.24C444.491 1001.63 444.341 1001.19 444.041 1000.91C443.741 1000.62 443.339 1000.48 442.835 1000.48C442.403 1000.48 442.049 1000.58 441.773 1000.78C441.497 1000.99 441.293 1001.19 441.161 1001.4L438.983 1001.11L439.415 994.016H446.471V996.266Z" fill="white"/>
</g>
<defs>
<linearGradient id="paint0_linear_3229_502" x1="131.991" y1="706.656" x2="131.991" y2="349.216" gradientUnits="userSpaceOnUse">
<stop stop-color="white"/>
<stop offset="0.03" stop-color="white"/>
<stop offset="0.07" stop-color="#F1F2EF"/>
<stop offset="0.33" stop-color="#949C86"/>
<stop offset="0.51" stop-color="#596643"/>
<stop offset="0.6" stop-color="#43512A"/>
<stop offset="0.7" stop-color="#384126"/>
<stop offset="0.89" stop-color="#282821"/>
<stop offset="1" stop-color="#231F20"/>
</linearGradient>
<linearGradient id="paint1_linear_3229_502" x1="320.358" y1="803.229" x2="320.358" y2="331.129" gradientUnits="userSpaceOnUse">
<stop stop-color="white"/>
<stop offset="0.43" stop-color="#7D5E3F"/>
<stop offset="0.53" stop-color="#603913"/>
<stop offset="0.71" stop-color="#472E18"/>
<stop offset="1" stop-color="#231F20"/>
</linearGradient>
<linearGradient id="paint2_linear_3229_502" x1="438.53" y1="1119.58" x2="438.53" y2="371.095" gradientUnits="userSpaceOnUse">
<stop stop-color="white"/>
<stop offset="0.35" stop-color="#ED1C24"/>
<stop offset="0.42" stop-color="#E11C23"/>
<stop offset="0.54" stop-color="#C31C23"/>
<stop offset="0.69" stop-color="#931D22"/>
<stop offset="0.88" stop-color="#511E20"/>
<stop offset="1" stop-color="#231F20"/>
</linearGradient>
<clipPath id="clip0_3229_502">
<rect width="735.1" height="1133.97" fill="white"/>
</clipPath>
</defs>
</svg>
