<svg width="132" height="89" viewBox="0 0 132 89" fill="none" xmlns="http://www.w3.org/2000/svg">
<g clip-path="url(#clip0_3198_365)">
<path d="M26.0599 42.9497C27.9899 48.1797 26.2299 53.1497 22.1199 54.0697C18.0199 54.9897 13.1299 51.4897 11.1999 46.2697C9.26994 41.0397 11.0299 36.0697 15.1399 35.1497C19.2499 34.2297 24.1299 37.7297 26.0599 42.9497Z" fill="#332F30" stroke="#2F2B2C" stroke-width="1.87" stroke-linecap="round" stroke-linejoin="round"/>
<path d="M77.6 72.2105C79.53 77.4405 77.77 82.4105 73.66 83.3305C69.56 84.2505 64.67 80.7505 62.74 75.5305C60.81 70.3005 62.57 65.3305 66.68 64.4105C70.79 63.4905 75.67 66.9905 77.6 72.2105Z" fill="#332F30" stroke="#2F2B2C" stroke-width="1.87" stroke-linecap="round" stroke-linejoin="round"/>
<path d="M53.9697 43.3895L92.2997 20.5195L107.34 39.8895L68.3997 62.1395L53.9697 43.3895Z" fill="white"/>
<path d="M107.82 40.2197L63.2598 65.1997L93.6498 88.6397L129.75 65.8997C129.75 65.8997 130.55 55.3397 130.81 52.7597C131.07 50.1797 107.82 40.2197 107.82 40.2197Z" fill="#EFBAAF"/>
<path d="M130.33 54.4902L92.9902 77.1602V82.7002L130.43 60.2302L130.33 54.4902Z" fill="white" stroke="#231F20" stroke-width="1.87" stroke-linecap="round" stroke-linejoin="bevel"/>
<path d="M21.21 22.12L57.01 1L91.52 20.32L55.72 41.95L21.21 22.12Z" fill="#EFBAAF"/>
<path d="M40.0403 2.08984L47.8203 6.04984L10.8203 30.4998L2.03027 23.3998L40.0403 2.08984Z" fill="#EFBAAF"/>
<path d="M15.2903 30.6902L20.0703 22.1202L47.8203 6.05016L43.0303 2.90016C41.1803 1.83016 38.9003 1.83016 37.0503 2.90016L2.03027 23.4002" stroke="#231F20" stroke-width="1.87" stroke-linecap="round" stroke-linejoin="round"/>
<path d="M106.94 39.7803L69.3799 61.5203" stroke="#231F20" stroke-width="1.87" stroke-linecap="round" stroke-linejoin="round"/>
<path d="M26.9802 50.1802L62.7602 70.8302L78.7602 80.0602L92.5502 87.7502C93.2902 88.1802 94.2202 87.6402 94.2202 86.7902V80.0503C94.2202 77.3403 92.7702 74.8302 90.4202 73.4702L69.2702 61.5602C69.2702 61.5602 69.1802 61.4902 69.1502 61.4502L56.1402 43.8502C55.3602 42.8002 54.3802 41.9202 53.2502 41.2702L22.5202 23.5302L20.3502 22.2802C20.1902 22.1902 19.9902 22.2202 19.8602 22.3502L14.0002 28.3702C13.8702 28.5002 13.6702 28.5302 13.5102 28.4402L5.0902 23.2202C3.2502 22.1602 0.950195 23.4902 0.950195 25.6102V33.2402C0.950195 34.1702 1.4502 35.0402 2.2602 35.5102L10.8802 40.8902L27.0002 50.2002L26.9802 50.1802Z" fill="#332F30" stroke="#2F2B2C" stroke-width="1.87" stroke-linecap="round" stroke-linejoin="round"/>
<path d="M92.3303 20.6101L54.9503 42.2501L22.5203 23.5301L20.0703 22.1101L48.8703 5.44012L55.8203 1.42012C56.9403 0.770117 58.3303 0.770117 59.4503 1.42012L75.0803 10.4401L90.8503 19.5501C91.9503 20.1801 92.9103 21.0301 93.6703 22.0401L106.95 39.5401L127.27 50.1501C129.5 51.4401 130.88 53.8201 130.88 56.4001V63.9701C130.88 64.7701 130.45 65.5101 129.76 65.9001L93.4403 87.8501" stroke="#231F20" stroke-width="1.87" stroke-linecap="round" stroke-linejoin="round"/>
<path d="M100.83 72.46V77.71" stroke="#231F20" stroke-width="1.87" stroke-miterlimit="10"/>
<path d="M124.71 57.7695V63.7295" stroke="#231F20" stroke-width="1.87" stroke-miterlimit="10"/>
</g>
<defs>
<clipPath id="clip0_3198_365">
<rect width="131.81" height="88.84" fill="white"/>
</clipPath>
</defs>
</svg>
