<svg width="321" height="315" viewBox="0 0 321 315" fill="none" xmlns="http://www.w3.org/2000/svg">
<path d="M80.3101 167.88C71.0701 176.36 65.9701 182.63 65.9701 182.63C65.9701 182.63 73.5201 185.51 85.7601 188.23C79.0301 198.81 75.7201 206.19 75.7201 206.19C75.7201 206.19 83.7601 207.01 96.2901 206.48C92.5301 218.45 91.2401 226.42 91.2401 226.42C91.2401 226.42 99.2201 225.14 111.18 221.37C110.64 233.9 111.47 241.94 111.47 241.94C111.47 241.94 118.84 238.63 129.43 231.9C132.15 244.14 135.03 251.69 135.03 251.69C135.03 251.69 141.3 246.59 149.78 237.35C155.58 248.47 160.31 255.02 160.31 255.02C160.31 255.02 165.04 248.47 170.84 237.35C179.32 246.59 185.59 251.69 185.59 251.69C185.59 251.69 188.47 244.14 191.19 231.9C201.77 238.63 209.15 241.94 209.15 241.94C209.15 241.94 209.97 233.9 209.44 221.37C221.41 225.13 229.38 226.42 229.38 226.42C229.38 226.42 228.1 218.44 224.33 206.48C236.86 207.02 244.9 206.19 244.9 206.19C244.9 206.19 241.59 198.82 234.86 188.23C247.1 185.51 254.65 182.63 254.65 182.63C254.65 182.63 249.55 176.36 240.31 167.88C251.43 162.08 257.98 157.35 257.98 157.35C257.98 157.35 251.43 152.62 240.31 146.82C249.55 138.34 254.65 132.07 254.65 132.07C254.65 132.07 247.1 129.19 234.86 126.47C241.59 115.89 244.9 108.51 244.9 108.51C244.9 108.51 236.86 107.69 224.33 108.22C228.09 96.2497 229.38 88.2797 229.38 88.2797C229.38 88.2797 221.4 89.5597 209.44 93.3297C209.98 80.7997 209.15 72.7597 209.15 72.7597C209.15 72.7597 201.78 76.0697 191.19 82.7997C188.46 70.5597 185.59 63.0097 185.59 63.0097C185.59 63.0097 179.32 68.1097 170.84 77.3497C165.04 66.2297 160.31 59.6797 160.31 59.6797C160.31 59.6797 155.58 66.2297 149.78 77.3497C141.3 68.1097 135.03 63.0097 135.03 63.0097C135.03 63.0097 132.15 70.5597 129.43 82.7997C118.85 76.0697 111.47 72.7597 111.47 72.7597C111.47 72.7597 110.65 80.7997 111.18 93.3297C99.2101 89.5697 91.2401 88.2797 91.2401 88.2797C91.2401 88.2797 92.5201 96.2597 96.2901 108.22C83.7601 107.68 75.7201 108.51 75.7201 108.51C75.7201 108.51 79.0301 115.88 85.7601 126.47C73.5201 129.19 65.9701 132.07 65.9701 132.07C65.9701 132.07 71.0701 138.34 80.3101 146.82C69.1901 152.62 62.6401 157.35 62.6401 157.35C62.6401 157.35 69.1901 162.08 80.3101 167.88Z" fill="#F9ED32"/>
</svg>
