<svg width="76" height="111" viewBox="0 0 76 111" fill="none" xmlns="http://www.w3.org/2000/svg">
<path d="M75.2391 0.670441C74.9291 0.340441 74.4592 0.410416 74.1692 0.770416L71.6992 3.85043L69.1891 0.720428C68.8891 0.350428 68.4091 0.350428 68.1091 0.720428L65.5992 3.85043L63.0891 0.720428C62.7891 0.350428 62.3092 0.350428 62.0092 0.720428L59.4991 3.85043L57.0791 0.830414L57.0191 0.720428C56.8691 0.530428 56.6691 0.440439 56.4691 0.450439C56.2691 0.450439 56.0692 0.530428 55.9192 0.720428L53.4291 3.83041L50.9391 0.720428C50.7891 0.530428 50.5892 0.440439 50.3892 0.450439C50.1892 0.450439 49.9891 0.530428 49.8391 0.720428L47.3492 3.83041L44.8591 0.720428C44.7091 0.530428 44.5091 0.440439 44.3091 0.450439C44.1091 0.450439 43.9092 0.530428 43.7592 0.720428L43.6992 0.830414L41.2791 3.85043L38.7691 0.720428C38.4691 0.350428 37.9891 0.350428 37.6891 0.720428L35.1791 3.85043L32.6692 0.720428C32.5192 0.530428 32.3191 0.44043 32.1191 0.44043C31.9191 0.44043 31.7192 0.530428 31.5692 0.720428L29.0791 3.84042L26.5891 0.720428C26.4391 0.530428 26.2392 0.44043 26.0392 0.44043C25.8392 0.44043 25.6391 0.530428 25.4891 0.720428L22.9792 3.85043L20.4691 0.720428C20.1691 0.350428 19.6892 0.350428 19.3892 0.720428L16.8792 3.85043L14.3691 0.720428C14.0691 0.350428 13.5892 0.350428 13.2892 0.720428L10.7791 3.85043L8.26913 0.720428C7.96913 0.350428 7.48915 0.350428 7.18915 0.720428L4.67914 3.85043L2.20914 0.770416C1.91914 0.410416 1.44916 0.340441 1.13916 0.670441C0.95916 0.860441 0.869141 1.13042 0.869141 1.40042V109.13C0.869141 109.39 0.95915 109.66 1.12915 109.85C1.43915 110.19 1.92915 110.11 2.21915 109.75L4.66916 106.69H4.68915L7.16916 109.79C7.46916 110.17 7.95913 110.17 8.26913 109.79L10.7491 106.69H10.7691L13.2491 109.79C13.5491 110.17 14.0392 110.17 14.3492 109.79L16.8291 106.69H16.8492L19.3291 109.79C19.6291 110.17 20.1191 110.17 20.4291 109.79L22.9091 106.69H22.9291L25.4192 109.81C25.5692 110 25.7691 110.09 25.9691 110.09C26.1691 110.09 26.3691 110 26.5191 109.81L28.9991 106.71H29.0191L31.4991 109.81C31.6491 110 31.8491 110.09 32.0491 110.09C32.2491 110.09 32.4492 110 32.5992 109.81L35.0891 106.69H35.1091L37.5891 109.79C37.8891 110.17 38.3791 110.17 38.6891 109.79L41.1692 106.69H41.1891L43.5992 109.7L43.6591 109.81C43.8091 110 44.0091 110.09 44.2091 110.09C44.4091 110.09 44.6092 110.01 44.7592 109.81L47.2391 106.71H47.2592L49.7391 109.81C49.8891 110 50.0892 110.09 50.2892 110.09C50.4892 110.09 50.6891 110.01 50.8391 109.81L53.3192 106.71H53.3391L55.8192 109.81C55.9692 110 56.1691 110.09 56.3691 110.09C56.5691 110.09 56.7692 110.01 56.9192 109.81L56.9792 109.7L59.3892 106.69H59.4091L61.8892 109.79C62.1892 110.17 62.6791 110.17 62.9891 109.79L65.4691 106.69H65.4891L67.9691 109.79C68.2691 110.17 68.7592 110.17 69.0692 109.79L71.5491 106.69H71.5692L74.0191 109.75C74.3091 110.12 74.7991 110.19 75.1091 109.85C75.2791 109.66 75.3691 109.4 75.3691 109.13V1.40042C75.3691 1.13042 75.2792 0.860441 75.0992 0.670441H75.2391Z" fill="white" stroke="#231F20" stroke-width="0.5" stroke-miterlimit="10"/>
<path d="M56.0505 19.6001H54.3405L54.9706 17.4801L55.1505 16.7801H55.2306L55.4106 17.4801L56.0605 19.6001H56.0505ZM57.3506 21.8001L55.6006 16.2201H54.8005L53.0605 21.8001H53.7006L54.2006 20.1301H56.2105L56.7105 21.8001H57.3705H57.3506ZM52.5106 21.8001V21.2401H51.2306V16.2201H50.5305L48.9506 17.2601L49.2206 17.7001L50.6006 16.8001V21.2401H49.2105V21.8001H52.5205H52.5106ZM47.8405 16.2201H45.1205L44.9406 19.2801L45.4806 19.3501C45.6706 19.0901 45.9006 18.8801 46.3806 18.8801C47.0806 18.8801 47.4005 19.2701 47.4005 20.0101V20.2001C47.4005 20.9401 47.0706 21.3301 46.3806 21.3301C45.8606 21.3301 45.5105 21.0701 45.2505 20.5901L44.7705 20.9501C45.0505 21.4801 45.6306 21.8901 46.3806 21.8901C47.4506 21.8901 48.0805 21.2401 48.0805 20.0501C48.0805 18.8601 47.4806 18.3201 46.6006 18.3201C46.0406 18.3201 45.7106 18.6001 45.5706 18.9801H45.4905L45.6306 16.7701H47.8405V16.2101V16.2201ZM41.2606 18.6001V19.1601H41.8506C42.5406 19.1601 42.9106 19.5001 42.9106 20.1801V20.3101C42.9106 21.0001 42.5406 21.3301 41.8506 21.3301C41.2406 21.3301 40.9506 21.0401 40.7006 20.6101L40.2206 20.9701C40.5306 21.4401 41.0005 21.9001 41.8705 21.9001C42.9605 21.9001 43.5805 21.2701 43.5805 20.2801C43.5805 19.4101 43.0906 18.9701 42.4806 18.9001V18.8201C43.0306 18.7101 43.4806 18.2801 43.4806 17.5201C43.4806 16.5501 42.8705 16.1201 41.9605 16.1201C41.1505 16.1201 40.6905 16.5601 40.4305 17.0201L40.8906 17.3801C41.1006 16.9401 41.4006 16.6901 41.9106 16.6901C42.4506 16.6901 42.8005 16.9401 42.8005 17.5601V17.6801C42.8005 18.2401 42.4606 18.5901 41.7906 18.5901H41.2505L41.2606 18.6001ZM38.9305 21.9001C39.2405 21.9001 39.4005 21.7601 39.4005 21.4901V21.3601C39.4005 21.1001 39.2405 20.9501 38.9305 20.9501C38.6205 20.9501 38.4605 21.0901 38.4605 21.3601V21.4901C38.4605 21.7501 38.6205 21.9001 38.9305 21.9001ZM37.4706 21.2401H34.8405L36.2306 19.7801C37.0606 18.9101 37.2906 18.4501 37.2906 17.7201C37.2906 16.6801 36.8006 16.1301 35.7606 16.1301C34.9006 16.1301 34.3406 16.6501 34.1306 17.3301L34.6906 17.5501C34.8306 17.0101 35.1805 16.6901 35.7505 16.6901C36.3205 16.6901 36.6205 17.0101 36.6205 17.6901V17.9001C36.6205 18.3601 36.3906 18.8301 35.8506 19.3801L34.1505 21.1401V21.8001H37.4706V21.2401ZM31.2405 21.8001L33.1105 16.7801V16.2201H29.7906V17.8101H30.3605V16.7701H32.4605L30.5605 21.8001H31.2405ZM28.3105 21.9001C28.6205 21.9001 28.7805 21.7601 28.7805 21.4901V21.3601C28.7805 21.1001 28.6205 20.9501 28.3105 20.9501C28.0005 20.9501 27.8405 21.0901 27.8405 21.3601V21.4901C27.8405 21.7501 28.0005 21.9001 28.3105 21.9001ZM26.9406 21.8001V21.2401H25.6606V16.2201H24.9605L23.3806 17.2601L23.6505 17.7001L25.0305 16.8001V21.2401H23.6406V21.8001H26.9506H26.9406ZM22.6205 21.8001V21.2401H21.3405V16.2201H20.6406L19.0605 17.2601L19.3305 17.7001L20.7105 16.8001V21.2401H19.3206V21.8001H22.6306H22.6205Z" fill="#231F20"/>
<path d="M60.7097 44.8702V39.7502H61.9498C62.8598 39.7502 63.4198 40.3602 63.4198 41.5002V43.1202C63.4198 44.2602 62.8598 44.8702 61.9498 44.8702H60.7097ZM59.6497 45.8002H61.9498C63.5998 45.8002 64.5598 44.7702 64.5598 42.3102C64.5598 39.8502 63.5998 38.8202 61.9498 38.8202H59.6497V45.8002ZM58.3398 45.8002V44.8702H55.3498V42.7102H58.0497V41.7902H55.3498V39.7502H58.3398V38.8202H54.2898V45.8002H58.3398ZM53.2997 39.7602V38.8302H48.5398V39.7602H50.3898V45.8102H51.4498V39.7602H53.2997ZM45.7898 45.9202C46.9798 45.9202 47.6697 45.3502 48.1097 44.3302L47.2298 43.8102C46.9798 44.6302 46.5298 44.9902 45.7898 44.9902C44.8498 44.9902 44.2898 44.2902 44.2898 43.1502V41.4702C44.2898 40.3302 44.8498 39.6302 45.7898 39.6302C46.5198 39.6302 46.9298 39.9602 47.1698 40.7402L48.0698 40.2402C47.6398 39.2102 46.9798 38.7002 45.7898 38.7002C44.1698 38.7002 43.1497 39.7702 43.1497 42.3102C43.1497 44.8502 44.1698 45.9202 45.7898 45.9202ZM42.1497 45.8002V44.9502H41.2997V39.6702H42.1497V38.8202H39.3898V39.6702H40.2397V44.9502H39.3898V45.8002H42.1497ZM34.7997 42.0602V39.7502H36.4098C36.9098 39.7502 37.1797 40.0002 37.1797 40.5802V41.2302C37.1797 41.8102 36.9098 42.0602 36.4098 42.0602H34.7997ZM34.7997 42.9502H36.0497L37.2598 45.8002H38.4398L37.1097 42.8702C37.8997 42.6502 38.3098 41.9702 38.3098 40.8902C38.3098 39.5602 37.6898 38.8202 36.4998 38.8202H33.7397V45.8002H34.7997V42.9502ZM32.7498 39.7602V38.8302H27.9897V39.7602H29.8398V45.8102H30.8997V39.7602H32.7498ZM25.1797 45.9202C26.6397 45.9202 27.4897 45.1702 27.4897 43.7802C27.4897 42.6202 26.9698 42.0802 25.6398 41.7802L25.0698 41.6502C24.3998 41.4902 24.1097 41.2202 24.1097 40.6402C24.1097 39.9302 24.4898 39.6302 25.2498 39.6302C25.9198 39.6302 26.3398 39.8802 26.6998 40.3902L27.4297 39.7502C26.9297 39.0302 26.2597 38.7002 25.2697 38.7002C23.8797 38.7002 23.0497 39.3802 23.0497 40.6702C23.0497 41.7802 23.6298 42.3702 24.8798 42.6502L25.4498 42.7702C26.1598 42.9402 26.4297 43.2402 26.4297 43.8502C26.4297 44.6102 25.9998 44.9902 25.1898 44.9902C24.5098 44.9902 23.9798 44.6702 23.5698 44.1002L22.8398 44.7702C23.3798 45.5102 24.1497 45.9202 25.1797 45.9202ZM21.9798 45.8002V44.8702H18.9897V42.7102H21.6898V41.7902H18.9897V39.7502H21.9798V38.8202H17.9297V45.8002H21.9798ZM13.0698 42.0602V39.7502H14.6797C15.1797 39.7502 15.4498 40.0002 15.4498 40.5802V41.2302C15.4498 41.8102 15.1797 42.0602 14.6797 42.0602H13.0698ZM13.0698 42.9502H14.3198L15.5298 45.8002H16.7097L15.3798 42.8702C16.1698 42.6502 16.5797 41.9702 16.5797 40.8902C16.5797 39.5602 15.9597 38.8202 14.7697 38.8202H12.0098V45.8002H13.0698V42.9502Z" fill="#231F20"/>
<path d="M56.3892 57.8002H57.3291V54.1102H55.0092V55.0202H56.2991V55.6302C56.2991 56.4902 55.6391 56.9802 54.8091 56.9802C53.8191 56.9802 53.2292 56.3002 53.2292 55.1602V53.4602C53.2292 52.3202 53.8191 51.6402 54.8091 51.6402C55.6291 51.6402 56.0991 52.0702 56.3391 52.7502L57.2091 52.2402C56.7791 51.2602 56.0291 50.7002 54.7991 50.7002C53.1191 50.7002 52.0891 51.7702 52.0891 54.3202C52.0891 56.8702 53.1692 57.9202 54.5992 57.9202C55.5892 57.9202 56.1391 57.4302 56.2691 56.7702H56.3892V57.8002ZM49.5992 57.8002H50.8291V50.8202H49.8091V54.9902L49.8892 56.3102H49.7592L49.2191 55.0102L47.1392 50.8202H45.9192V57.8002H46.9391V53.6302L46.8591 52.3102H46.9891L47.5191 53.6102L49.5992 57.8002ZM44.6392 57.8002V56.9502H43.7892V51.6702H44.6392V50.8202H41.8792V51.6702H42.7292V56.9502H41.8792V57.8002H44.6392ZM39.9591 57.8002H41.2091L38.8291 53.7802L41.0491 50.8202H39.8291L38.1891 53.1202L37.2991 54.4202H37.1692L37.2292 53.1202V50.8202H36.1692V57.8002H37.2292V55.6202L38.0992 54.5002L39.9591 57.8002ZM31.3091 54.0602V51.7502H32.9192C33.4192 51.7502 33.6891 52.0002 33.6891 52.5802V53.2302C33.6891 53.8102 33.4192 54.0602 32.9192 54.0602H31.3091ZM31.3091 54.9502H32.5591L33.7691 57.8002H34.9492L33.6191 54.8702C34.4091 54.6502 34.8192 53.9702 34.8192 52.8902C34.8192 51.5602 34.1992 50.8202 33.0092 50.8202H30.2491V57.8002H31.3091V54.9502ZM27.4091 55.0002H25.5692L26.1891 52.8002L26.4091 51.7802H26.5392L26.7592 52.8002L27.4091 55.0002ZM29.2691 57.8002L27.1692 50.8202H25.8192L23.7292 57.8002H24.7691L25.3091 55.8702H27.6591L28.1992 57.8002H29.2691ZM20.1791 51.7702H21.7892C22.2892 51.7702 22.5591 52.0202 22.5591 52.5902V53.2302C22.5591 53.8002 22.2892 54.0502 21.7892 54.0502H20.1791V51.7702ZM20.1791 57.8002V54.9802H21.8792C23.0692 54.9802 23.6891 54.2402 23.6891 52.9002C23.6891 51.5602 23.0692 50.8202 21.8792 50.8202H19.1191V57.8002H20.1791Z" fill="#231F20"/>
<path d="M49.3095 69.8002V68.8702H46.3195V66.7102H49.0195V65.7902H46.3195V63.7502H49.3095V62.8202H45.2596V69.8002H49.3095ZM42.4895 69.8002H43.7195V62.8202H42.6996V66.9902L42.7795 68.3102H42.6495L42.1095 67.0102L40.0295 62.8202H38.8095V69.8002H39.8295V65.6302L39.7495 64.3102H39.8795L40.4095 65.6102L42.4895 69.8002ZM34.8395 68.9802C33.8395 68.9802 33.2695 68.2902 33.2695 67.1502V65.4702C33.2695 64.3302 33.8395 63.6402 34.8395 63.6402C35.8395 63.6402 36.4095 64.3302 36.4095 65.4702V67.1502C36.4095 68.2902 35.8395 68.9802 34.8395 68.9802ZM34.8395 69.9202C36.5195 69.9202 37.5495 68.8502 37.5495 66.3102C37.5495 63.7702 36.5195 62.7002 34.8395 62.7002C33.1595 62.7002 32.1295 63.7702 32.1295 66.3102C32.1295 68.8502 33.1595 69.9202 34.8395 69.9202ZM31.4295 68.8702H27.9695L31.3195 63.7702V62.8202H26.9295V63.7502H30.1195L26.7695 68.8502V69.8002H31.4295V68.8702Z" fill="#231F20"/>
<path d="M44.3892 87.9601V89.5701H45.1592C46.0992 89.5701 46.6592 90.0501 46.6592 90.7001V91.1501C46.6592 91.8501 46.1692 92.3501 45.3392 92.3501C44.4292 92.3501 43.8792 91.7801 43.5192 90.9601L42.0592 92.0801C42.6092 93.0701 43.5892 93.9601 45.3492 93.9601C47.4392 93.9601 48.7292 92.8101 48.7292 90.9201C48.7292 89.5601 47.9692 89.0001 46.9092 88.8201V88.6001C47.8092 88.4301 48.5492 87.7301 48.5492 86.4101C48.5492 84.6701 47.3892 83.8501 45.4792 83.8501C44.1492 83.8501 43.0392 84.4101 42.3392 85.4901L43.5692 86.6201C44.0492 85.8601 44.6192 85.4601 45.3592 85.4601C46.0992 85.4601 46.4892 85.8901 46.4892 86.4401V86.8901C46.4892 87.3801 46.0992 87.9501 45.1892 87.9501H44.3792L44.3892 87.9601ZM40.9492 84.0201H35.4592L35.1192 89.5401L36.8192 89.7601C37.0292 89.4401 37.4492 89.0501 38.1192 89.0501C38.8992 89.0501 39.4092 89.4701 39.4092 90.4201V90.8701C39.4092 91.8801 38.9592 92.3501 38.0792 92.3501C37.2692 92.3501 36.6892 91.8001 36.3092 90.9901L34.8692 92.1101C35.3892 93.1001 36.3392 93.9601 38.0792 93.9601C40.3592 93.9601 41.5092 92.7101 41.5092 90.5101C41.5092 88.3101 40.4892 87.4301 38.8592 87.4301C37.8492 87.4301 37.2192 88.0201 37.0092 88.9301H36.7892L36.9992 85.7601H40.9492V84.0101V84.0201ZM32.2092 90.9601C32.2092 91.6201 31.8892 92.0001 31.2992 92.1401V89.7601C31.8992 89.9601 32.2092 90.3501 32.2092 90.9601ZM29.2692 86.7401C29.2692 86.0701 29.5592 85.7601 30.1792 85.6601V87.8201C29.5792 87.6401 29.2692 87.3001 29.2692 86.7401ZM33.9892 90.7301C33.9892 89.2501 33.1892 88.5701 31.2992 88.1001V85.6601C31.8492 85.7401 32.3192 85.9701 32.6692 86.4001L33.8292 85.3501C33.2492 84.6501 32.4892 84.2701 31.4892 84.1601V82.8701H29.9792V84.1601C28.3292 84.3601 27.4592 85.2501 27.4592 86.8501C27.4592 88.2901 28.3692 89.0501 30.1792 89.4801V92.1701C29.4692 92.0901 28.8092 91.7801 28.3992 91.2201L27.1992 92.3001C27.8992 93.1701 28.8692 93.5701 29.9892 93.6701V94.9401H31.4992V93.6401C33.1192 93.3901 33.9892 92.4201 33.9892 90.7301Z" fill="#231F20"/>
<path d="M11.3203 30.4805H65.1403" stroke="#231F20" stroke-width="0.5" stroke-miterlimit="10" stroke-linecap="round"/>
</svg>
