<svg width="100" height="204" viewBox="0 0 100 204" fill="none" xmlns="http://www.w3.org/2000/svg">
<path d="M100 96H0V204H100V96Z" fill="#231F20"/>
<path d="M40.32 154.992C40.32 156.933 39.84 158.459 38.88 159.568C37.92 160.656 36.5013 161.349 34.624 161.648V164.624H31.168V161.712C29.888 161.605 28.704 161.307 27.616 160.816C26.5493 160.325 25.6107 159.579 24.8 158.576L27.552 156.112C28.0213 156.752 28.608 157.253 29.312 157.616C30.0373 157.957 30.8053 158.181 31.616 158.288V152.144C29.5467 151.653 27.9893 150.939 26.944 150C25.92 149.061 25.408 147.771 25.408 146.128C25.408 144.293 25.888 142.875 26.848 141.872C27.8293 140.848 29.2693 140.219 31.168 139.984V137.04H34.624V139.984C36.9067 140.24 38.688 141.147 39.968 142.704L37.312 145.104C36.9067 144.613 36.4373 144.24 35.904 143.984C35.3707 143.707 34.7947 143.515 34.176 143.408V148.976C35.264 149.253 36.192 149.563 36.96 149.904C37.728 150.245 38.3573 150.651 38.848 151.12C39.36 151.589 39.7333 152.144 39.968 152.784C40.2027 153.403 40.32 154.139 40.32 154.992ZM29.536 145.872C29.536 146.512 29.7067 147.035 30.048 147.44C30.4107 147.824 30.9333 148.123 31.616 148.336V143.408C30.912 143.515 30.3893 143.76 30.048 144.144C29.7067 144.528 29.536 145.104 29.536 145.872ZM36.256 155.504C36.256 154.117 35.5627 153.2 34.176 152.752V158.192C35.5627 157.872 36.256 156.976 36.256 155.504ZM56.229 143.664H47.205L46.725 150.896H47.237C47.4717 149.851 47.941 149.019 48.645 148.4C49.3703 147.781 50.309 147.472 51.461 147.472C53.317 147.472 54.789 148.037 55.877 149.168C56.965 150.299 57.509 152.08 57.509 154.512C57.509 157.029 56.8583 158.971 55.557 160.336C54.2557 161.701 52.293 162.384 49.669 162.384C48.6663 162.384 47.781 162.267 47.013 162.032C46.245 161.819 45.5623 161.52 44.965 161.136C44.3677 160.752 43.8557 160.304 43.429 159.792C43.0023 159.28 42.6397 158.736 42.341 158.16L45.637 155.6C46.0637 156.539 46.6077 157.296 47.269 157.872C47.9303 158.427 48.7303 158.704 49.669 158.704C51.6957 158.704 52.709 157.573 52.709 155.312V154.288C52.709 153.2 52.4423 152.411 51.909 151.92C51.3757 151.408 50.661 151.152 49.765 151.152C48.997 151.152 48.3677 151.333 47.877 151.696C47.3863 152.059 47.0237 152.421 46.789 152.784L42.917 152.272L43.685 139.664H56.229V143.664ZM67.0463 162.384C65.7023 162.384 64.5503 162.171 63.5903 161.744C62.6303 161.296 61.8303 160.613 61.1903 159.696C60.5716 158.757 60.1129 157.563 59.8143 156.112C59.5156 154.64 59.3663 152.88 59.3663 150.832C59.3663 148.784 59.5156 147.035 59.8143 145.584C60.1129 144.112 60.5716 142.917 61.1903 142C61.8303 141.061 62.6303 140.379 63.5903 139.952C64.5503 139.504 65.7023 139.28 67.0463 139.28C68.3903 139.28 69.5423 139.504 70.5023 139.952C71.4623 140.379 72.2516 141.061 72.8703 142C73.5103 142.917 73.9796 144.112 74.2783 145.584C74.5769 147.035 74.7263 148.784 74.7263 150.832C74.7263 152.88 74.5769 154.64 74.2783 156.112C73.9796 157.563 73.5103 158.757 72.8703 159.696C72.2516 160.613 71.4623 161.296 70.5023 161.744C69.5423 162.171 68.3903 162.384 67.0463 162.384ZM67.0463 158.544C67.5796 158.544 68.0276 158.469 68.3903 158.32C68.7529 158.149 69.0409 157.893 69.2543 157.552C69.4676 157.189 69.6169 156.72 69.7023 156.144C69.8089 155.568 69.8623 154.853 69.8623 154V147.664C69.8623 145.979 69.6596 144.805 69.2543 144.144C68.8489 143.461 68.1129 143.12 67.0463 143.12C65.9796 143.12 65.2436 143.461 64.8383 144.144C64.4329 144.805 64.2303 145.979 64.2303 147.664V154C64.2303 154.853 64.2729 155.568 64.3583 156.144C64.4649 156.72 64.6249 157.189 64.8383 157.552C65.0516 157.893 65.3396 158.149 65.7023 158.32C66.0649 158.469 66.5129 158.544 67.0463 158.544Z" fill="white"/>
<path d="M100 42H0V96H100V42Z" fill="#ED1C24"/>
<path d="M29.04 76.84V72.928H25.32V70.312H29.04V66.4H31.92V70.312H35.64V72.928H31.92V76.84H29.04ZM49.2009 73.744C49.2009 75.2 48.8409 76.344 48.1209 77.176C47.4009 77.992 46.3369 78.512 44.9289 78.736V80.968H42.3369V78.784C41.3769 78.704 40.4889 78.48 39.6729 78.112C38.8729 77.744 38.1689 77.184 37.5609 76.432L39.6249 74.584C39.9769 75.064 40.4169 75.44 40.9449 75.712C41.4889 75.968 42.0649 76.136 42.6729 76.216V71.608C41.1209 71.24 39.9529 70.704 39.1689 70C38.4009 69.296 38.0169 68.328 38.0169 67.096C38.0169 65.72 38.3769 64.656 39.0969 63.904C39.8329 63.136 40.9129 62.664 42.3369 62.488V60.28H44.9289V62.488C46.6409 62.68 47.9769 63.36 48.9369 64.528L46.9449 66.328C46.6409 65.96 46.2889 65.68 45.8889 65.488C45.4889 65.28 45.0569 65.136 44.5929 65.056V69.232C45.4089 69.44 46.1049 69.672 46.6809 69.928C47.2569 70.184 47.7289 70.488 48.0969 70.84C48.4809 71.192 48.7609 71.608 48.9369 72.088C49.1129 72.552 49.2009 73.104 49.2009 73.744ZM41.1129 66.904C41.1129 67.384 41.2409 67.776 41.4969 68.08C41.7689 68.368 42.1609 68.592 42.6729 68.752V65.056C42.1449 65.136 41.7529 65.32 41.4969 65.608C41.2409 65.896 41.1129 66.328 41.1129 66.904ZM46.1529 74.128C46.1529 73.088 45.6329 72.4 44.5929 72.064V76.144C45.6329 75.904 46.1529 75.232 46.1529 74.128ZM61.7567 79H51.0047V75.88L55.5887 71.392C56.4207 70.576 57.0047 69.88 57.3407 69.304C57.6927 68.712 57.8687 68.088 57.8687 67.432V66.664C57.8687 66.12 57.6927 65.68 57.3407 65.344C57.0047 65.008 56.5327 64.84 55.9247 64.84C55.5727 64.84 55.2607 64.912 54.9887 65.056C54.7327 65.184 54.5087 65.36 54.3167 65.584C54.1407 65.808 53.9887 66.072 53.8607 66.376C53.7487 66.664 53.6607 66.976 53.5967 67.312L50.6207 66.184C50.7807 65.608 50.9967 65.064 51.2687 64.552C51.5567 64.04 51.9167 63.592 52.3487 63.208C52.7967 62.824 53.3327 62.52 53.9567 62.296C54.5967 62.072 55.3567 61.96 56.2367 61.96C57.1967 61.96 58.0047 62.072 58.6607 62.296C59.3327 62.52 59.8767 62.84 60.2927 63.256C60.7087 63.656 61.0047 64.16 61.1807 64.768C61.3727 65.36 61.4687 66.024 61.4687 66.76C61.4687 67.336 61.4127 67.864 61.3007 68.344C61.1887 68.824 60.9967 69.304 60.7247 69.784C60.4527 70.248 60.0847 70.744 59.6207 71.272C59.1567 71.8 58.5727 72.4 57.8687 73.072L54.6767 76.12H61.7567V79ZM74.0936 65.248H67.3256L66.9656 70.672H67.3496C67.5256 69.888 67.8776 69.264 68.4056 68.8C68.9496 68.336 69.6536 68.104 70.5176 68.104C71.9096 68.104 73.0136 68.528 73.8296 69.376C74.6456 70.224 75.0536 71.56 75.0536 73.384C75.0536 75.272 74.5656 76.728 73.5896 77.752C72.6136 78.776 71.1416 79.288 69.1736 79.288C68.4216 79.288 67.7576 79.2 67.1816 79.024C66.6056 78.864 66.0936 78.64 65.6456 78.352C65.1976 78.064 64.8136 77.728 64.4936 77.344C64.1736 76.96 63.9016 76.552 63.6776 76.12L66.1496 74.2C66.4696 74.904 66.8776 75.472 67.3736 75.904C67.8696 76.32 68.4696 76.528 69.1736 76.528C70.6936 76.528 71.4536 75.68 71.4536 73.984V73.216C71.4536 72.4 71.2536 71.808 70.8536 71.44C70.4536 71.056 69.9176 70.864 69.2456 70.864C68.6696 70.864 68.1976 71 67.8296 71.272C67.4616 71.544 67.1896 71.816 67.0136 72.088L64.1096 71.704L64.6856 62.248H74.0936V65.248Z" fill="white"/>
<path d="M100 2H0V21.44H100V2Z" fill="#F26522"/>
<path d="M100 21H0V43.35H100V21Z" fill="#7E0A14"/>
<path d="M35.36 37.56V34.952H32.88V33.208H35.36V30.6H37.28V33.208H39.76V34.952H37.28V37.56H35.36ZM48.8006 35.496C48.8006 36.4667 48.5606 37.2293 48.0806 37.784C47.6006 38.328 46.8913 38.6747 45.9526 38.824V40.312H44.2246V38.856C43.5846 38.8027 42.9926 38.6533 42.4486 38.408C41.9153 38.1627 41.446 37.7893 41.0406 37.288L42.4166 36.056C42.6513 36.376 42.9446 36.6267 43.2966 36.808C43.6593 36.9787 44.0433 37.0907 44.4486 37.144V34.072C43.414 33.8267 42.6353 33.4693 42.1126 33C41.6006 32.5307 41.3446 31.8853 41.3446 31.064C41.3446 30.1467 41.5846 29.4373 42.0646 28.936C42.5553 28.424 43.2753 28.1093 44.2246 27.992V26.52H45.9526V27.992C47.094 28.12 47.9846 28.5733 48.6246 29.352L47.2966 30.552C47.094 30.3067 46.8593 30.12 46.5926 29.992C46.326 29.8533 46.038 29.7573 45.7286 29.704V32.488C46.2726 32.6267 46.7366 32.7813 47.1206 32.952C47.5046 33.1227 47.8193 33.3253 48.0646 33.56C48.3206 33.7947 48.5073 34.072 48.6246 34.392C48.742 34.7013 48.8006 35.0693 48.8006 35.496ZM43.4086 30.936C43.4086 31.256 43.494 31.5173 43.6646 31.72C43.846 31.912 44.1073 32.0613 44.4486 32.168V29.704C44.0966 29.7573 43.8353 29.88 43.6646 30.072C43.494 30.264 43.4086 30.552 43.4086 30.936ZM46.7686 35.752C46.7686 35.0587 46.422 34.6 45.7286 34.376V37.096C46.422 36.936 46.7686 36.488 46.7686 35.752ZM50.4511 39V37.08H52.9311V29.464H52.7871L51.2351 31.672L49.7151 30.648L51.6991 27.832H55.1711V37.08H57.3311V39H50.4511ZM59.0918 39V37.08H61.5718V29.464H61.4278L59.8758 31.672L58.3558 30.648L60.3398 27.832H63.8118V37.08H65.9718V39H59.0918Z" fill="white"/>
<path d="M40.36 15.56V12.952H37.88V11.208H40.36V8.6H42.28V11.208H44.76V12.952H42.28V15.56H40.36ZM53.8006 13.496C53.8006 14.4667 53.5606 15.2293 53.0806 15.784C52.6006 16.328 51.8913 16.6747 50.9526 16.824V18.312H49.2246V16.856C48.5846 16.8027 47.9926 16.6533 47.4486 16.408C46.9153 16.1627 46.446 15.7893 46.0406 15.288L47.4166 14.056C47.6513 14.376 47.9446 14.6267 48.2966 14.808C48.6593 14.9787 49.0433 15.0907 49.4486 15.144V12.072C48.414 11.8267 47.6353 11.4693 47.1126 11C46.6006 10.5307 46.3446 9.88533 46.3446 9.064C46.3446 8.14667 46.5846 7.43733 47.0646 6.936C47.5553 6.424 48.2753 6.10933 49.2246 5.992V4.52H50.9526V5.992C52.094 6.12 52.9846 6.57333 53.6246 7.352L52.2966 8.552C52.094 8.30667 51.8593 8.12 51.5926 7.992C51.326 7.85333 51.038 7.75733 50.7286 7.704V10.488C51.2726 10.6267 51.7366 10.7813 52.1206 10.952C52.5046 11.1227 52.8193 11.3253 53.0646 11.56C53.3206 11.7947 53.5073 12.072 53.6246 12.392C53.742 12.7013 53.8006 13.0693 53.8006 13.496ZM48.4086 8.936C48.4086 9.256 48.494 9.51733 48.6646 9.72C48.846 9.912 49.1073 10.0613 49.4486 10.168V7.704C49.0966 7.75733 48.8353 7.88 48.6646 8.072C48.494 8.264 48.4086 8.552 48.4086 8.936ZM51.7686 13.752C51.7686 13.0587 51.422 12.6 50.7286 12.376V15.096C51.422 14.936 51.7686 14.488 51.7686 13.752ZM62.3151 10.056C62.3151 10.8667 62.2031 11.6293 61.9791 12.344C61.7658 13.048 61.4885 13.6933 61.1471 14.28C60.8058 14.8667 60.4165 15.3893 59.9791 15.848C59.5418 16.3067 59.1098 16.6907 58.6831 17H55.5311C56.1605 16.5307 56.7205 16.0827 57.2111 15.656C57.7125 15.2187 58.1445 14.7813 58.5071 14.344C58.8805 13.896 59.1845 13.432 59.4191 12.952C59.6538 12.472 59.8191 11.9547 59.9151 11.4H59.6591C59.5098 11.848 59.2645 12.2267 58.9231 12.536C58.5818 12.8453 58.1071 13 57.4991 13C56.6031 13 55.8938 12.7013 55.3711 12.104C54.8591 11.496 54.6031 10.6267 54.6031 9.496C54.6031 8.28 54.9285 7.336 55.5791 6.664C56.2405 5.98133 57.2005 5.64 58.4591 5.64C59.7605 5.64 60.7258 6.01867 61.3551 6.776C61.9951 7.53333 62.3151 8.62667 62.3151 10.056ZM58.4591 11.16C58.9498 11.16 59.3125 11.0267 59.5471 10.76C59.7925 10.4827 59.9151 10.088 59.9151 9.576V9.064C59.9151 8.552 59.7925 8.16267 59.5471 7.896C59.3125 7.61867 58.9498 7.48 58.4591 7.48C57.9685 7.48 57.6005 7.61867 57.3551 7.896C57.1205 8.16267 57.0031 8.552 57.0031 9.064V9.576C57.0031 10.088 57.1205 10.4827 57.3551 10.76C57.6005 11.0267 57.9685 11.16 58.4591 11.16Z" fill="white"/>
</svg>
