<svg width="76" height="111" viewBox="0 0 76 111" fill="none" xmlns="http://www.w3.org/2000/svg">
<path d="M75.0193 0.38C74.7193 0.16 74.3193 0.26 74.0693 0.57L71.5993 3.66L69.0893 0.53C68.7893 0.16 68.3093 0.16 68.0093 0.53L65.4993 3.66L62.9893 0.53C62.6893 0.16 62.2093 0.16 61.9093 0.53L59.3993 3.66L56.9793 0.64L56.9193 0.53C56.7693 0.34 56.5693 0.25 56.3693 0.26C56.1693 0.26 55.9693 0.34 55.8193 0.53L53.3293 3.64L50.8393 0.53C50.6893 0.34 50.4893 0.25 50.2893 0.26C50.0893 0.26 49.8893 0.34 49.7393 0.53L47.2493 3.64L44.7593 0.53C44.6093 0.34 44.4093 0.25 44.2093 0.26C44.0093 0.26 43.8093 0.34 43.6593 0.53L43.5993 0.64L41.1793 3.66L38.6693 0.53C38.3693 0.16 37.8893 0.16 37.5893 0.53L35.0793 3.66L32.5693 0.53C32.4193 0.34 32.2193 0.25 32.0193 0.25C31.8193 0.25 31.6193 0.34 31.4693 0.53L28.9793 3.65L26.4893 0.53C26.3393 0.34 26.1393 0.25 25.9393 0.25C25.7393 0.25 25.5393 0.34 25.3893 0.53L22.8793 3.66L20.3693 0.53C20.0693 0.16 19.5893 0.16 19.2893 0.53L16.7793 3.66L14.2693 0.53C13.9693 0.16 13.4893 0.16 13.1893 0.53L10.6793 3.66L8.16931 0.53C7.86931 0.16 7.38929 0.16 7.08929 0.53L4.57928 3.66L2.10928 0.57C1.85928 0.26 1.4693 0.15 1.1593 0.38C0.899302 0.57 0.779297 0.89 0.779297 1.21V109C0.779297 109.27 0.869286 109.54 1.04929 109.73C1.35929 110.06 1.82929 109.99 2.11929 109.63L4.58929 106.55L7.0993 109.68C7.3993 110.05 7.87929 110.05 8.17929 109.68L10.6893 106.55L13.1993 109.68C13.4993 110.05 13.9793 110.05 14.2793 109.68L16.7893 106.55L19.2993 109.68C19.5993 110.05 20.0793 110.05 20.3793 109.68L22.8893 106.55L25.3993 109.68C25.5493 109.87 25.7493 109.96 25.9493 109.96C26.1493 109.96 26.3493 109.87 26.4993 109.68L28.9893 106.56L31.4793 109.68C31.6293 109.87 31.8293 109.96 32.0293 109.96C32.2293 109.96 32.4293 109.87 32.5793 109.68L35.0893 106.55L37.5993 109.68C37.8993 110.05 38.3793 110.05 38.6793 109.68L41.1893 106.55L43.6093 109.57L43.6693 109.68C43.8193 109.87 44.0193 109.96 44.2193 109.95C44.4193 109.95 44.6193 109.87 44.7693 109.68L47.2593 106.57L49.7493 109.68C49.8993 109.87 50.0993 109.96 50.2993 109.95C50.4993 109.95 50.6993 109.87 50.8493 109.68L53.3393 106.57L55.8293 109.68C55.9793 109.87 56.1793 109.96 56.3793 109.95C56.5793 109.95 56.7793 109.87 56.9293 109.68L56.9893 109.57L59.4093 106.55L61.9193 109.68C62.2193 110.05 62.6993 110.05 62.9993 109.68L65.5093 106.55L68.0193 109.68C68.3193 110.05 68.7993 110.05 69.0993 109.68L71.6093 106.55L74.0793 109.63C74.3693 109.99 74.8393 110.06 75.1493 109.73C75.3293 109.54 75.4193 109.27 75.4193 109V1.2C75.4193 0.88 75.2893 0.56 75.0393 0.37L75.0193 0.38Z" fill="white" stroke="#231F20" stroke-width="0.5" stroke-miterlimit="10"/>
<path d="M49.5208 21.6999C50.6108 21.6999 51.2808 21.1299 51.2808 20.0799C51.2808 19.1599 50.8908 18.7299 49.8508 18.4699L49.4308 18.3699C48.7808 18.2099 48.5008 17.9599 48.5008 17.4299C48.5008 16.7599 48.8708 16.4799 49.5508 16.4799C50.1508 16.4799 50.4908 16.7099 50.7708 17.1599L51.2408 16.8199C50.8508 16.1999 50.3408 15.9199 49.5708 15.9199C48.5508 15.9199 47.8808 16.4299 47.8808 17.4199C47.8808 18.2799 48.3408 18.7199 49.3108 18.9599L49.7308 19.0599C50.4208 19.2299 50.6608 19.4899 50.6608 20.0699C50.6608 20.7699 50.2708 21.1299 49.5208 21.1299C48.9408 21.1299 48.5308 20.8399 48.1908 20.3499L47.7308 20.7299C48.1208 21.3199 48.7208 21.6799 49.5208 21.6799V21.6999ZM45.7708 21.5999V19.3899L47.5008 16.0199H46.7908L45.5008 18.6699H45.4208L44.1308 16.0199H43.4008L45.1308 19.3899V21.5999H45.7708ZM42.3108 19.3999H40.6008L41.2308 17.2799L41.4108 16.5799H41.4908L41.6708 17.2799L42.3208 19.3999H42.3108ZM43.6008 21.5999L41.8508 16.0199H41.0508L39.3108 21.5999H39.9508L40.4508 19.9299H42.4608L42.9608 21.5999H43.6208H43.6008ZM35.8108 21.0399V16.5799H36.9208C37.7208 16.5799 38.2608 17.1599 38.2608 18.1899V19.4399C38.2608 20.4699 37.7208 21.0499 36.9208 21.0499H35.8108V21.0399ZM35.1708 21.5999H36.9208C38.2108 21.5999 38.9408 20.7499 38.9408 18.8099C38.9408 16.8699 38.2008 16.0199 36.9208 16.0199H35.1708V21.5999ZM32.0908 16.0199H29.3708L29.1908 19.0799L29.7308 19.1499C29.9208 18.8899 30.1508 18.6799 30.6308 18.6799C31.3308 18.6799 31.6508 19.0699 31.6508 19.8099V19.9999C31.6508 20.7399 31.3208 21.1299 30.6308 21.1299C30.1108 21.1299 29.7608 20.8699 29.5008 20.3899L29.0208 20.7499C29.3008 21.2799 29.8808 21.6899 30.6308 21.6899C31.7008 21.6899 32.3308 21.0399 32.3308 19.8499C32.3308 18.6599 31.7308 18.1199 30.8508 18.1199C30.2908 18.1199 29.9608 18.3999 29.8208 18.7799H29.7408L29.8808 16.5699H32.0908V16.0099V16.0199ZM28.1108 21.5999V21.0399H26.8308V16.0199H26.1308L24.5508 17.0599L24.8208 17.4999L26.2008 16.5999V21.0399H24.8108V21.5999H28.1208H28.1108Z" fill="#231F20"/>
<path d="M53.5796 33.5999V33.0399H51.1296V31.0599H53.4196V30.4999H51.1296V28.5799H53.5796V28.0199H50.4896V33.5999H53.5796ZM45.5696 28.0199V31.5099C45.5696 32.9999 46.0396 33.6999 47.3796 33.6999C48.7196 33.6999 49.1896 32.9999 49.1896 31.5099V28.0199H48.5496V31.6299C48.5496 32.6299 48.2496 33.1299 47.3696 33.1299C46.4896 33.1299 46.1896 32.6299 46.1896 31.6299V28.0199H45.5496H45.5696ZM41.3896 33.0399V28.5799H42.4996C43.2996 28.5799 43.8396 29.1599 43.8396 30.1899V31.4399C43.8396 32.4699 43.2996 33.0499 42.4996 33.0499H41.3896V33.0399ZM40.7496 33.5999H42.4996C43.7896 33.5999 44.5196 32.7499 44.5196 30.8099C44.5196 28.8699 43.7796 28.0199 42.4996 28.0199H40.7496V33.5999ZM36.7696 30.6599V28.5799H38.1696C38.6396 28.5799 38.8796 28.8299 38.8796 29.3499V29.8899C38.8796 30.4099 38.6396 30.6599 38.1696 30.6599H36.7696ZM36.7696 31.1999H37.9396L38.9896 33.5999H39.7096L38.5796 31.1599C39.2396 31.0199 39.5696 30.5099 39.5696 29.6099C39.5696 28.5399 39.0996 28.0199 38.1896 28.0199H36.1296V33.5999H36.7696V31.1999ZM35.0096 33.5999V33.0399H32.5596V31.0599H34.8496V30.4999H32.5596V28.5799H35.0096V28.0199H31.9196V33.5999H35.0096ZM29.4496 33.5999L31.0996 28.0199H30.4396L29.3796 31.6299L29.0996 33.0499H29.0196L28.7396 31.6299L27.6796 28.0199H27.0096L28.6496 33.5999H29.4496ZM24.4896 33.1299C23.5696 33.1299 23.0396 32.4699 23.0396 31.4299V30.1799C23.0396 29.1499 23.5696 28.4799 24.4896 28.4799C25.4096 28.4799 25.9396 29.1399 25.9396 30.1799V31.4299C25.9396 32.4599 25.4096 33.1299 24.4896 33.1299ZM24.4896 33.6999C25.8396 33.6999 26.6196 32.7999 26.6196 30.8099C26.6196 28.8199 25.8396 27.9199 24.4896 27.9199C23.1396 27.9199 22.3496 28.8199 22.3496 30.8099C22.3496 32.7999 23.1296 33.6999 24.4896 33.6999Z" fill="#231F20"/>
<path d="M50.2892 57.6001V54.9001L52.4391 50.6201H51.2691L49.8391 53.7401H49.7091L48.2592 50.6201H47.0692L49.2292 54.9001V57.6001H50.2892ZM45.4192 54.8101H43.5791L44.1992 52.6101L44.4192 51.5901H44.5491L44.7691 52.6101L45.4192 54.8101ZM47.2791 57.6001L45.1791 50.6201H43.8291L41.7391 57.6001H42.7791L43.3192 55.6701H45.6692L46.2091 57.6001H47.2791ZM37.4192 56.6701V51.5501H38.6591C39.5691 51.5501 40.1292 52.1601 40.1292 53.3001V54.9201C40.1292 56.0601 39.5691 56.6701 38.6591 56.6701H37.4192ZM36.3591 57.6001H38.6591C40.3091 57.6001 41.2691 56.5701 41.2691 54.1101C41.2691 51.6501 40.3091 50.6201 38.6591 50.6201H36.3591V57.6001ZM35.0491 55.0901V54.0401H32.5291V55.0901H35.0491ZM31.1791 50.6301H27.5591L27.3291 54.5101L28.2292 54.6301C28.5092 54.2501 28.8391 54.0701 29.2791 54.0701C30.0391 54.0701 30.4091 54.4701 30.4091 55.3101V55.5701C30.4091 56.4101 30.0391 56.8101 29.2791 56.8101C28.6591 56.8101 28.2192 56.4801 27.9192 55.8901L27.1392 56.4901C27.5392 57.2701 28.3291 57.7301 29.2691 57.7301C30.7291 57.7301 31.5291 56.8901 31.5291 55.3601C31.5291 53.8301 30.7891 53.1801 29.6591 53.1801C28.9491 53.1801 28.5191 53.5601 28.3591 54.1201H28.2292L28.3991 51.5401H31.1791V50.6301ZM26.1591 57.6001V56.6901H24.6591V50.6201H23.5392L21.6191 51.8601L22.0591 52.6001L23.6191 51.5901V56.6901H21.9492V57.6001H26.1591Z" fill="#231F20"/>
<path d="M56.7894 69.6001V68.6701H53.7994V66.5101H56.4994V65.5901H53.7994V63.5501H56.7894V62.6201H52.7394V69.6001H56.7894ZM51.4294 69.6001V68.6701H48.4394V66.5101H51.1394V65.5901H48.4394V63.5501H51.4294V62.6201H47.3794V69.6001H51.4294ZM43.2994 69.6001V66.5101H45.8594V65.5901H43.2994V63.5501H46.1894V62.6201H42.2394V69.6001H43.2994ZM38.7994 69.6001V68.6701H35.8094V66.5101H38.5094V65.5901H35.8094V63.5501H38.7994V62.6201H34.7494V69.6001H38.7994ZM33.7594 63.5601V62.6301H28.9994V63.5601H30.8494V69.6101H31.9094V63.5601H33.7594ZM27.2994 66.8101H25.4594L26.0794 64.6101L26.2994 63.5901H26.4294L26.6494 64.6101L27.2994 66.8101ZM29.1594 69.6001L27.0594 62.6201H25.7094L23.6194 69.6001H24.6594L25.1994 67.6701H27.5494L28.0894 69.6001H29.1594ZM22.9594 69.6001V68.6701H20.4194V62.6201H19.3594V69.6001H22.9594Z" fill="#231F20"/>
<path d="M48.3098 83.8297H42.8198L42.4798 89.3497L44.1698 89.5697C44.3798 89.2497 44.7998 88.8597 45.4698 88.8597C46.2498 88.8597 46.7598 89.2797 46.7598 90.2297V90.6797C46.7598 91.6897 46.3097 92.1597 45.4297 92.1597C44.6197 92.1597 44.0398 91.6097 43.6598 90.7997L42.2198 91.9197C42.7398 92.9097 43.6897 93.7697 45.4297 93.7697C47.7097 93.7697 48.8597 92.5197 48.8597 90.3197C48.8597 88.1197 47.8397 87.2397 46.2097 87.2397C45.1997 87.2397 44.5697 87.8297 44.3597 88.7397H44.1398L44.3498 85.5697H48.2997V83.8197L48.3098 83.8297ZM41.1198 91.9197H36.9897L38.8498 90.1397C40.4898 88.5697 40.9498 87.7997 40.9498 86.4597C40.9498 84.7197 40.1197 83.6597 37.8997 83.6597C35.8597 83.6597 34.9998 84.7797 34.6198 86.1297L36.3597 86.7897C36.5097 86.0197 36.8898 85.3497 37.7198 85.3497C38.4198 85.3497 38.8498 85.7797 38.8498 86.4097V86.8597C38.8498 87.6297 38.4997 88.2197 37.5197 89.1697L34.8398 91.7897V93.6097H41.1198V91.9297V91.9197ZM32.0197 90.7597C32.0197 91.4197 31.6997 91.7997 31.1097 91.9397V89.5597C31.7097 89.7597 32.0197 90.1497 32.0197 90.7597ZM29.0797 86.5397C29.0797 85.8697 29.3697 85.5597 29.9897 85.4597V87.6197C29.3897 87.4397 29.0797 87.0997 29.0797 86.5397ZM33.7997 90.5397C33.7997 89.0597 32.9997 88.3797 31.1097 87.9097V85.4697C31.6597 85.5497 32.1298 85.7797 32.4798 86.2097L33.6398 85.1597C33.0698 84.4597 32.2997 84.0797 31.2997 83.9697V82.6797H29.7898V83.9697C28.1398 84.1697 27.2697 85.0597 27.2697 86.6597C27.2697 88.0997 28.1797 88.8597 29.9897 89.2897V91.9797C29.2797 91.8997 28.6197 91.5897 28.2097 91.0297L27.0098 92.1097C27.7098 92.9797 28.6797 93.3797 29.7997 93.4797V94.7497H31.3098V93.4497C32.9298 93.1997 33.7997 92.2297 33.7997 90.5397Z" fill="#231F20"/>
<path d="M11.1699 42.0303H64.9799" stroke="#231F20" stroke-width="0.5" stroke-miterlimit="10" stroke-linecap="round"/>
</svg>
