<svg width="76" height="101" viewBox="0 0 76 101" fill="none" xmlns="http://www.w3.org/2000/svg">
<path d="M74.4295 0.570435C74.1295 0.350435 73.7295 0.450437 73.4795 0.760437L71.0095 3.85043L68.4995 0.720428C68.1995 0.350428 67.7194 0.350428 67.4194 0.720428L64.9095 3.85043L62.3995 0.720428C62.0995 0.350428 61.6195 0.350428 61.3195 0.720428L58.8095 3.85043L56.3895 0.830414L56.3295 0.720428C56.1795 0.530428 55.9795 0.440439 55.7795 0.450439C55.5795 0.450439 55.3795 0.530428 55.2295 0.720428L52.7395 3.83041L50.2495 0.720428C50.0995 0.530428 49.8995 0.440439 49.6995 0.450439C49.4995 0.450439 49.2995 0.530428 49.1495 0.720428L46.6595 3.83041L44.1695 0.720428C44.0195 0.530428 43.8195 0.440439 43.6195 0.450439C43.4195 0.450439 43.2195 0.530428 43.0695 0.720428L43.0095 0.830414L40.5895 3.85043L38.0795 0.720428C37.7795 0.350428 37.2995 0.350428 36.9995 0.720428L34.4895 3.85043L31.9795 0.720428C31.8295 0.530428 31.6295 0.44043 31.4295 0.44043C31.2295 0.44043 31.0295 0.530428 30.8795 0.720428L28.3895 3.84042L25.8995 0.720428C25.7495 0.530428 25.5495 0.44043 25.3495 0.44043C25.1495 0.44043 24.9495 0.530428 24.7995 0.720428L22.2895 3.85043L19.7795 0.720428C19.4795 0.350428 18.9995 0.350428 18.6995 0.720428L16.1895 3.85043L13.6795 0.720428C13.3795 0.350428 12.8995 0.350428 12.5995 0.720428L10.0895 3.85043L7.57945 0.720428C7.27945 0.350428 6.79945 0.350428 6.49945 0.720428L3.98945 3.85043L1.51945 0.760437C1.26945 0.450437 0.879453 0.340435 0.569453 0.570435C0.309453 0.760435 0.189453 1.08042 0.189453 1.40042V99.1904C0.189453 99.4604 0.279453 99.7304 0.459453 99.9204C0.769453 100.25 1.23945 100.18 1.52945 99.8204L3.99945 96.7404L6.50945 99.8704C6.80945 100.24 7.28945 100.24 7.58945 99.8704L10.0995 96.7404L12.6095 99.8704C12.9095 100.24 13.3895 100.24 13.6895 99.8704L16.1995 96.7404L18.7095 99.8704C19.0095 100.24 19.4895 100.24 19.7895 99.8704L22.2995 96.7404L24.8095 99.8704C24.9595 100.06 25.1595 100.15 25.3595 100.15C25.5595 100.15 25.7595 100.06 25.9095 99.8704L28.3995 96.7504L30.8895 99.8704C31.0395 100.06 31.2395 100.15 31.4395 100.15C31.6395 100.15 31.8395 100.06 31.9895 99.8704L34.4995 96.7404L37.0095 99.8704C37.3095 100.24 37.7895 100.24 38.0895 99.8704L40.5995 96.7404L43.0195 99.7604L43.0795 99.8704C43.2295 100.06 43.4295 100.15 43.6295 100.15C43.8295 100.15 44.0295 100.07 44.1795 99.8704L46.6695 96.7604L49.1595 99.8704C49.3095 100.06 49.5095 100.15 49.7095 100.15C49.9095 100.15 50.1095 100.07 50.2595 99.8704L52.7495 96.7604L55.2395 99.8704C55.3895 100.06 55.5895 100.15 55.7895 100.15C55.9895 100.15 56.1895 100.07 56.3395 99.8704L56.3995 99.7604L58.8195 96.7404L61.3295 99.8704C61.6295 100.24 62.1095 100.24 62.4095 99.8704L64.9194 96.7404L67.4295 99.8704C67.7295 100.24 68.2095 100.24 68.5095 99.8704L71.0194 96.7404L73.4894 99.8204C73.7794 100.18 74.2494 100.25 74.5594 99.9204C74.7394 99.7304 74.8295 99.4604 74.8295 99.1904V1.40042C74.8295 1.08042 74.6994 0.760435 74.4494 0.570435H74.4295Z" fill="white" stroke="#231F20" stroke-width="0.5" stroke-miterlimit="10"/>
<path d="M10.6191 30.4805H64.4391" stroke="#231F20" stroke-width="0.5" stroke-miterlimit="10" stroke-linecap="round"/>
<path d="M53.6895 21.3501C52.9195 21.3501 52.6195 20.7701 52.6195 19.7801V18.2401C52.6195 17.2601 52.9195 16.6701 53.6895 16.6701C54.4595 16.6701 54.7595 17.2501 54.7595 18.2401V19.7801C54.7595 20.7601 54.4595 21.3501 53.6895 21.3501ZM53.6895 21.9001C54.8995 21.9001 55.4295 21.0801 55.4295 19.0101C55.4295 16.9401 54.8895 16.1201 53.6895 16.1201C52.4895 16.1201 51.9495 16.9401 51.9495 19.0101C51.9495 21.0801 52.4895 21.9001 53.6895 21.9001ZM49.3595 21.3501C48.5895 21.3501 48.2895 20.7701 48.2895 19.7801V18.2401C48.2895 17.2601 48.5895 16.6701 49.3595 16.6701C50.1295 16.6701 50.4295 17.2501 50.4295 18.2401V19.7801C50.4295 20.7601 50.1295 21.3501 49.3595 21.3501ZM49.3595 21.9001C50.5695 21.9001 51.0995 21.0801 51.0995 19.0101C51.0995 16.9401 50.5595 16.1201 49.3595 16.1201C48.1595 16.1201 47.6195 16.9401 47.6195 19.0101C47.6195 21.0801 48.1595 21.9001 49.3595 21.9001ZM46.7295 21.2401H44.0995L45.4895 19.7801C46.3195 18.9101 46.5495 18.4501 46.5495 17.7201C46.5495 16.6801 46.0595 16.1301 45.0195 16.1301C44.1595 16.1301 43.5995 16.6501 43.3895 17.3301L43.9495 17.5501C44.0895 17.0101 44.4395 16.6901 45.0095 16.6901C45.5795 16.6901 45.8795 17.0101 45.8795 17.6901V17.9001C45.8795 18.3601 45.6495 18.8301 45.1095 19.3801L43.4195 21.1401V21.8001H46.7395V21.2401H46.7295ZM41.8895 21.9001C42.1995 21.9001 42.3595 21.7601 42.3595 21.4901V21.3601C42.3595 21.1001 42.1995 20.9501 41.8895 20.9501C41.5795 20.9501 41.4195 21.0901 41.4195 21.3601V21.4901C41.4195 21.7501 41.5795 21.9001 41.8895 21.9001ZM40.4295 21.2401H37.7995L39.1895 19.7801C40.0195 18.9101 40.2495 18.4501 40.2495 17.7201C40.2495 16.6801 39.7595 16.1301 38.7195 16.1301C37.8595 16.1301 37.2995 16.6501 37.0895 17.3301L37.6495 17.5501C37.7895 17.0101 38.1395 16.6901 38.7095 16.6901C39.2795 16.6901 39.5795 17.0101 39.5795 17.6901V17.9001C39.5795 18.3601 39.3495 18.8301 38.8095 19.3801L37.1195 21.1401V21.8001H40.4395V21.2401H40.4295ZM34.1995 21.8001L36.0695 16.7801V16.2201H32.7495V17.8101H33.3195V16.7701H35.4195L33.5195 21.8001H34.1995ZM31.2695 21.9001C31.5795 21.9001 31.7395 21.7601 31.7395 21.4901V21.3601C31.7395 21.1001 31.5795 20.9501 31.2695 20.9501C30.9595 20.9501 30.7995 21.0901 30.7995 21.3601V21.4901C30.7995 21.7501 30.9595 21.9001 31.2695 21.9001ZM29.8995 21.8001V21.2401H28.6195V16.2201H27.9195L26.3395 17.2601L26.6095 17.7001L27.9895 16.8001V21.2401H26.5995V21.8001H29.9095H29.8995ZM25.5795 21.8001V21.2401H24.2995V16.2201H23.5995L22.0195 17.2601L22.2895 17.7001L23.6695 16.8001V21.2401H22.2795V21.8001H25.5895H25.5795Z" fill="#231F20"/>
<path d="M49.1906 45.8003V44.8703H46.6506V38.8203H45.5906V45.8003H49.1906ZM44.2806 45.8003V44.8703H41.2906V42.7103H43.9906V41.7903H41.2906V39.7503H44.2806V38.8203H40.2306V45.8003H44.2806ZM33.9906 38.8303V43.1803C33.9906 45.0803 34.6106 45.9303 36.3706 45.9303C38.1306 45.9303 38.7506 45.0803 38.7506 43.1803V38.8303H37.6906V43.3503C37.6906 44.4603 37.3506 44.9903 36.3706 44.9903C35.3906 44.9903 35.0506 44.4603 35.0506 43.3503V38.8303H33.9906ZM29.9506 45.8003V42.7103H32.5106V41.7903H29.9506V39.7503H32.8406V38.8203H28.8906V45.8003H29.9506Z" fill="#231F20"/>
<path d="M46.8608 57.9202C48.3208 57.9202 49.1708 57.1702 49.1708 55.7802C49.1708 54.6202 48.6508 54.0802 47.3208 53.7802L46.7508 53.6502C46.0808 53.4902 45.7908 53.2202 45.7908 52.6402C45.7908 51.9302 46.1708 51.6302 46.9308 51.6302C47.6008 51.6302 48.0208 51.8802 48.3808 52.3902L49.1108 51.7502C48.6108 51.0302 47.9408 50.7002 46.9508 50.7002C45.5608 50.7002 44.7308 51.3802 44.7308 52.6702C44.7308 53.7802 45.3108 54.3702 46.5608 54.6502L47.1308 54.7702C47.8408 54.9402 48.1108 55.2402 48.1108 55.8502C48.1108 56.6102 47.6808 56.9902 46.8708 56.9902C46.1908 56.9902 45.6608 56.6702 45.2508 56.1002L44.5208 56.7702C45.0608 57.5102 45.8308 57.9202 46.8608 57.9202ZM41.5308 57.9202C42.9908 57.9202 43.8408 57.1702 43.8408 55.7802C43.8408 54.6202 43.3208 54.0802 41.9908 53.7802L41.4208 53.6502C40.7508 53.4902 40.4608 53.2202 40.4608 52.6402C40.4608 51.9302 40.8408 51.6302 41.6008 51.6302C42.2708 51.6302 42.6908 51.8802 43.0508 52.3902L43.7808 51.7502C43.2808 51.0302 42.6108 50.7002 41.6208 50.7002C40.2308 50.7002 39.4008 51.3802 39.4008 52.6702C39.4008 53.7802 39.9808 54.3702 41.2308 54.6502L41.8008 54.7702C42.5108 54.9402 42.7808 55.2402 42.7808 55.8502C42.7808 56.6102 42.3508 56.9902 41.5408 56.9902C40.8608 56.9902 40.3308 56.6702 39.9208 56.1002L39.1908 56.7702C39.7308 57.5102 40.5008 57.9202 41.5308 57.9202ZM35.6408 56.9802C34.6408 56.9802 34.0708 56.2902 34.0708 55.1502V53.4702C34.0708 52.3302 34.6408 51.6402 35.6408 51.6402C36.6408 51.6402 37.2108 52.3302 37.2108 53.4702V55.1502C37.2108 56.2902 36.6408 56.9802 35.6408 56.9802ZM35.6408 57.9202C37.3208 57.9202 38.3508 56.8502 38.3508 54.3102C38.3508 51.7702 37.3208 50.7002 35.6408 50.7002C33.9608 50.7002 32.9308 51.7702 32.9308 54.3102C32.9308 56.8502 33.9608 57.9202 35.6408 57.9202ZM32.4008 57.8002V56.8702H29.8608V50.8202H28.8008V57.8002H32.4008Z" fill="#231F20"/>
<path d="M46.6998 81.8001L49.4898 73.7501V72.0301H43.2098V75.3901H44.8898V73.6401H47.5398L44.5998 81.8101H46.6998V81.8001ZM38.9398 74.0301H39.1598V78.3901H36.8498L38.9398 74.0301ZM41.0598 81.8001V79.9501H42.1798V78.3801H41.0598V72.0201H38.5098L35.3398 78.2401V79.9501H39.1598V81.8001H41.0498H41.0598ZM32.8498 78.9601C32.8498 79.6201 32.5298 80.0001 31.9398 80.1401V77.7601C32.5398 77.9601 32.8498 78.3501 32.8498 78.9601ZM29.9098 74.7401C29.9098 74.0701 30.1998 73.7601 30.8198 73.6601V75.8201C30.2198 75.6401 29.9098 75.3001 29.9098 74.7401ZM34.6298 78.7301C34.6298 77.2501 33.8298 76.5701 31.9398 76.1001V73.6601C32.4898 73.7401 32.9598 73.9701 33.3098 74.4001L34.4698 73.3501C33.8998 72.6501 33.1298 72.2701 32.1298 72.1601V70.8701H30.6198V72.1601C28.9698 72.3601 28.0998 73.2501 28.0998 74.8501C28.0998 76.2901 29.0098 77.0501 30.8198 77.4801V80.1701C30.1098 80.0901 29.4498 79.7801 29.0398 79.2201L27.8398 80.3001C28.5398 81.1701 29.5098 81.5701 30.6298 81.6701V82.9401H32.1398V81.6401C33.7598 81.3901 34.6298 80.4201 34.6298 78.7301Z" fill="#231F20"/>
</svg>
