<svg width="76" height="102" viewBox="0 0 76 102" fill="none" xmlns="http://www.w3.org/2000/svg">
<path d="M75.2302 1.21008C74.9302 0.990083 74.5302 1.09007 74.2802 1.40007L71.8102 4.49008L69.3002 1.36008C69.0002 0.990077 68.5202 0.990077 68.2202 1.36008L65.7102 4.49008L63.2002 1.36008C62.9002 0.990077 62.4202 0.990077 62.1202 1.36008L59.6102 4.49008L57.1902 1.47008L57.1302 1.36008C56.9802 1.17008 56.7802 1.08007 56.5802 1.09007C56.3802 1.09007 56.1802 1.17008 56.0302 1.36008L53.5402 4.47008L51.0502 1.36008C50.9002 1.17008 50.7002 1.08007 50.5002 1.09007C50.3002 1.09007 50.1002 1.17008 49.9502 1.36008L47.4602 4.47008L44.9702 1.36008C44.8202 1.17008 44.6202 1.08007 44.4202 1.09007C44.2202 1.09007 44.0202 1.17008 43.8702 1.36008L43.8102 1.47008L41.3902 4.49008L38.8802 1.36008C38.5802 0.990077 38.1002 0.990077 37.8002 1.36008L35.2902 4.49008L32.7802 1.36008C32.6302 1.17008 32.4302 1.08008 32.2302 1.08008C32.0302 1.08008 31.8302 1.17008 31.6802 1.36008L29.1902 4.48007L26.7002 1.36008C26.5502 1.17008 26.3502 1.08008 26.1502 1.08008C25.9502 1.08008 25.7502 1.17008 25.6002 1.36008L23.0902 4.49008L20.5802 1.36008C20.2802 0.990077 19.8002 0.990077 19.5002 1.36008L16.9902 4.49008L14.4802 1.36008C14.1802 0.990077 13.7002 0.990077 13.4002 1.36008L10.8902 4.49008L8.38023 1.36008C8.08023 0.990077 7.60023 0.990077 7.30023 1.36008L4.79022 4.49008L2.32024 1.40007C2.07024 1.09007 1.68022 0.980083 1.37022 1.21008C1.11022 1.40008 0.990234 1.72007 0.990234 2.04007V99.8301C0.990234 100.1 1.08022 100.37 1.26022 100.56C1.57022 100.89 2.04023 100.82 2.33023 100.46L4.80023 97.3801L7.31023 100.51C7.61023 100.88 8.09023 100.88 8.39023 100.51L10.9002 97.3801L13.4102 100.51C13.7102 100.88 14.1902 100.88 14.4902 100.51L17.0002 97.3801L19.5102 100.51C19.8102 100.88 20.2902 100.88 20.5902 100.51L23.1002 97.3801L25.6102 100.51C25.7602 100.7 25.9602 100.79 26.1602 100.79C26.3602 100.79 26.5602 100.7 26.7102 100.51L29.2002 97.3901L31.6902 100.51C31.8402 100.7 32.0402 100.79 32.2402 100.79C32.4402 100.79 32.6402 100.7 32.7902 100.51L35.3002 97.3801L37.8102 100.51C38.1102 100.88 38.5902 100.88 38.8902 100.51L41.4002 97.3801L43.8202 100.4L43.8802 100.51C44.0302 100.7 44.2302 100.79 44.4302 100.78C44.6302 100.78 44.8302 100.7 44.9802 100.51L47.4702 97.4001L49.9602 100.51C50.1102 100.7 50.3102 100.79 50.5102 100.78C50.7102 100.78 50.9102 100.7 51.0602 100.51L53.5502 97.4001L56.0402 100.51C56.1902 100.7 56.3902 100.79 56.5902 100.78C56.7902 100.78 56.9902 100.7 57.1402 100.51L57.2002 100.4L59.6202 97.3801L62.1302 100.51C62.4302 100.88 62.9102 100.88 63.2102 100.51L65.7202 97.3801L68.2302 100.51C68.5302 100.88 69.0102 100.88 69.3102 100.51L71.8202 97.3801L74.2902 100.46C74.5802 100.82 75.0502 100.89 75.3602 100.56C75.5402 100.37 75.6302 100.1 75.6302 99.8301V2.04007C75.6302 1.72007 75.5002 1.40008 75.2502 1.21008H75.2302Z" fill="white" stroke="#231F20" stroke-width="0.5" stroke-miterlimit="10"/>
<path d="M11.4199 31.1104H65.2399" stroke="#231F20" stroke-width="0.5" stroke-miterlimit="10" stroke-linecap="round"/>
<path d="M54.4803 21.9798C53.7103 21.9798 53.4103 21.3998 53.4103 20.4098V18.8698C53.4103 17.8898 53.7103 17.2998 54.4803 17.2998C55.2503 17.2998 55.5503 17.8798 55.5503 18.8698V20.4098C55.5503 21.3898 55.2503 21.9798 54.4803 21.9798ZM54.4803 22.5398C55.6903 22.5398 56.2203 21.7198 56.2203 19.6498C56.2203 17.5798 55.6803 16.7598 54.4803 16.7598C53.2803 16.7598 52.7403 17.5798 52.7403 19.6498C52.7403 21.7198 53.2803 22.5398 54.4803 22.5398ZM50.1603 21.9798C49.5003 21.9798 49.1303 21.5998 49.1303 20.8398V20.6798C49.1303 19.9098 49.5003 19.5398 50.1603 19.5398C50.8203 19.5398 51.1903 19.9198 51.1903 20.6798V20.8398C51.1903 21.6098 50.8203 21.9798 50.1603 21.9798ZM50.1603 22.5398C51.2703 22.5398 51.8603 21.8498 51.8603 20.6998C51.8603 19.5498 51.2803 18.9698 50.3803 18.9698C49.7503 18.9698 49.3603 19.3098 49.2003 19.7598H49.1203C49.4003 18.4298 50.0003 17.7298 51.0903 16.8598H50.2703C49.4503 17.4398 48.4603 18.7398 48.4603 20.4198C48.4603 21.7998 49.0503 22.5398 50.1603 22.5398ZM47.6303 22.4398V21.8798H46.3503V16.8598H45.6503L44.0703 17.8998L44.3403 18.3398L45.7203 17.4398V21.8798H44.3303V22.4398H47.6403H47.6303ZM42.6903 22.5398C43.0003 22.5398 43.1603 22.3998 43.1603 22.1298V21.9998C43.1603 21.7398 43.0003 21.5898 42.6903 21.5898C42.3803 21.5898 42.2203 21.7298 42.2203 21.9998V22.1298C42.2203 22.3898 42.3803 22.5398 42.6903 22.5398ZM41.2203 21.8798H38.5903L39.9803 20.4198C40.8103 19.5498 41.0403 19.0898 41.0403 18.3598C41.0403 17.3198 40.5503 16.7698 39.5103 16.7698C38.6503 16.7698 38.0903 17.2898 37.8803 17.9698L38.4403 18.1898C38.5803 17.6498 38.9303 17.3298 39.5003 17.3298C40.0703 17.3298 40.3703 17.6498 40.3703 18.3298V18.5398C40.3703 18.9998 40.1403 19.4698 39.6003 20.0198L37.9103 21.7798V22.4398H41.2303V21.8798H41.2203ZM34.9903 22.4398L36.8603 17.4198V16.8598H33.5403V18.4498H34.1103V17.4098H36.2103L34.3103 22.4398H34.9903ZM32.0703 22.5398C32.3803 22.5398 32.5403 22.3998 32.5403 22.1298V21.9998C32.5403 21.7398 32.3803 21.5898 32.0703 21.5898C31.7603 21.5898 31.6003 21.7298 31.6003 21.9998V22.1298C31.6003 22.3898 31.7603 22.5398 32.0703 22.5398ZM30.7003 22.4398V21.8798H29.4203V16.8598H28.7203L27.1403 17.8998L27.4103 18.3398L28.7903 17.4398V21.8798H27.4003V22.4398H30.7103H30.7003ZM26.3803 22.4398V21.8798H25.1003V16.8598H24.4003L22.8203 17.8998L23.0903 18.3398L24.4703 17.4398V21.8798H23.0803V22.4398H26.3903H26.3803Z" fill="#231F20"/>
<path d="M49.1495 46.44V45.5099H46.1595V43.35H48.8595V42.4299H46.1595V40.39H49.1495V39.46H45.0995V46.44H49.1495ZM40.2495 42.7V40.39H41.8595C42.3595 40.39 42.6295 40.64 42.6295 41.22V41.8699C42.6295 42.4499 42.3595 42.7 41.8595 42.7H40.2495ZM40.2495 43.59H41.4995L42.7095 46.44H43.8895L42.5595 43.5099C43.3495 43.2899 43.7595 42.61 43.7595 41.53C43.7595 40.2 43.1395 39.46 41.9495 39.46H39.1895V46.44H40.2495V43.59ZM37.9095 46.44V45.59H37.0595V40.31H37.9095V39.46H35.1495V40.31H35.9995V45.59H35.1495V46.44H37.9095ZM31.3295 46.44V43.35H33.8895V42.4299H31.3295V40.39H34.2195V39.46H30.2695V46.44H31.3295Z" fill="#231F20"/>
<path d="M60.1998 52.39V51.46H55.4398V52.39H57.2898V58.44H58.3498V52.39H60.1998ZM53.2098 58.44H54.4398V51.46H53.4198V55.63L53.4998 56.95H53.3698L52.8298 55.6499L50.7498 51.46H49.5298V58.44H50.5498V54.27L50.4698 52.95H50.5998L51.1298 54.25L53.2098 58.44ZM46.6898 55.64H44.8498L45.4698 53.44L45.6898 52.42H45.8198L46.0398 53.44L46.6898 55.64ZM48.5498 58.44L46.4498 51.46H45.0998L43.0098 58.44H44.0498L44.5898 56.5099H46.9398L47.4798 58.44H48.5498ZM38.7098 54.7V52.39H40.3198C40.8198 52.39 41.0898 52.64 41.0898 53.22V53.8699C41.0898 54.4499 40.8198 54.7 40.3198 54.7H38.7098ZM38.7098 55.59H39.9598L41.1698 58.44H42.3498L41.0198 55.5099C41.8098 55.2899 42.2198 54.61 42.2198 53.53C42.2198 52.2 41.5998 51.46 40.4098 51.46H37.6498V58.44H38.7098V55.59ZM32.5398 57.5099V52.39H33.7798C34.6898 52.39 35.2498 53 35.2498 54.14V55.7599C35.2498 56.8999 34.6898 57.5099 33.7798 57.5099H32.5398ZM31.4798 58.44H33.7798C35.4298 58.44 36.3898 57.41 36.3898 54.95C36.3898 52.49 35.4298 51.46 33.7798 51.46H31.4798V58.44ZM28.4798 58.44V55.74L30.6298 51.46H29.4598L28.0298 54.58H27.8998L26.4498 51.46H25.2598L27.4198 55.74V58.44H28.4798ZM23.3498 58.44H24.4098V51.46H23.3498V54.4299H20.5698V51.46H19.5098V58.44H20.5698V55.35H23.3498V58.44Z" fill="#231F20"/>
<path d="M47.5006 82.4398L50.2906 74.3898V72.6698H44.0106V76.0298H45.6906V74.2798H48.3406L45.4006 82.4498H47.5006V82.4398ZM39.7406 74.6698H39.9606V79.0298H37.6506L39.7406 74.6698ZM41.8606 82.4398V80.5898H42.9806V79.0198H41.8606V72.6598H39.3106L36.1406 78.8798V80.5898H39.9606V82.4398H41.8506H41.8606ZM33.6506 79.5998C33.6506 80.2598 33.3306 80.6398 32.7406 80.7798V78.3998C33.3406 78.5998 33.6506 78.9898 33.6506 79.5998ZM30.7106 75.3798C30.7106 74.7098 31.0006 74.3998 31.6206 74.2998V76.4598C31.0206 76.2798 30.7106 75.9398 30.7106 75.3798ZM35.4306 79.3698C35.4306 77.8898 34.6306 77.2098 32.7406 76.7398V74.2998C33.2906 74.3798 33.7606 74.6098 34.1106 75.0398L35.2706 73.9898C34.7006 73.2898 33.9306 72.9098 32.9306 72.7998V71.5098H31.4206V72.7998C29.7706 72.9998 28.9006 73.8898 28.9006 75.4898C28.9006 76.9298 29.8106 77.6898 31.6206 78.1198V80.8098C30.9106 80.7298 30.2506 80.4198 29.8406 79.8598L28.6406 80.9398C29.3406 81.8098 30.3106 82.2098 31.4306 82.3098V83.5798H32.9406V82.2798C34.5606 82.0298 35.4306 81.0598 35.4306 79.3698Z" fill="#231F20"/>
</svg>
