<svg width="100" height="162" viewBox="0 0 100 162" fill="none" xmlns="http://www.w3.org/2000/svg">
<path d="M100 53.75H0V161.75H100V53.75Z" fill="#231F20"/>
<path d="M100 0H0V54H100V0Z" fill="#ED1C24"/>
<path d="M40.32 115.812C40.32 117.754 39.84 119.279 38.88 120.388C37.92 121.476 36.5013 122.17 34.624 122.468V125.444H31.168V122.532C29.888 122.426 28.704 122.127 27.616 121.636C26.5493 121.146 25.6107 120.399 24.8 119.396L27.552 116.932C28.0213 117.572 28.608 118.074 29.312 118.436C30.0373 118.778 30.8053 119.002 31.616 119.108V112.964C29.5467 112.474 27.9893 111.759 26.944 110.82C25.92 109.882 25.408 108.591 25.408 106.948C25.408 105.114 25.888 103.695 26.848 102.692C27.8293 101.668 29.2693 101.039 31.168 100.804V97.8603H34.624V100.804C36.9067 101.06 38.688 101.967 39.968 103.524L37.312 105.924C36.9067 105.434 36.4373 105.06 35.904 104.804C35.3707 104.527 34.7947 104.335 34.176 104.228V109.796C35.264 110.074 36.192 110.383 36.96 110.724C37.728 111.066 38.3573 111.471 38.848 111.94C39.36 112.41 39.7333 112.964 39.968 113.604C40.2027 114.223 40.32 114.959 40.32 115.812ZM29.536 106.692C29.536 107.332 29.7067 107.855 30.048 108.26C30.4107 108.644 30.9333 108.943 31.616 109.156V104.228C30.912 104.335 30.3893 104.58 30.048 104.964C29.7067 105.348 29.536 105.924 29.536 106.692ZM36.256 116.324C36.256 114.938 35.5627 114.02 34.176 113.572V119.012C35.5627 118.692 36.256 117.796 36.256 116.324ZM56.229 104.484H47.205L46.725 111.716H47.237C47.4717 110.671 47.941 109.839 48.645 109.22C49.3703 108.602 50.309 108.292 51.461 108.292C53.317 108.292 54.789 108.858 55.877 109.988C56.965 111.119 57.509 112.9 57.509 115.332C57.509 117.85 56.8583 119.791 55.557 121.156C54.2557 122.522 52.293 123.204 49.669 123.204C48.6663 123.204 47.781 123.087 47.013 122.852C46.245 122.639 45.5623 122.34 44.965 121.956C44.3677 121.572 43.8557 121.124 43.429 120.612C43.0023 120.1 42.6397 119.556 42.341 118.98L45.637 116.42C46.0637 117.359 46.6077 118.116 47.269 118.692C47.9303 119.247 48.7303 119.524 49.669 119.524C51.6957 119.524 52.709 118.394 52.709 116.132V115.108C52.709 114.02 52.4423 113.231 51.909 112.74C51.3757 112.228 50.661 111.972 49.765 111.972C48.997 111.972 48.3677 112.154 47.877 112.516C47.3863 112.879 47.0237 113.242 46.789 113.604L42.917 113.092L43.685 100.484H56.229V104.484ZM67.0463 123.204C65.7023 123.204 64.5503 122.991 63.5903 122.564C62.6303 122.116 61.8303 121.434 61.1903 120.516C60.5716 119.578 60.1129 118.383 59.8143 116.932C59.5156 115.46 59.3663 113.7 59.3663 111.652C59.3663 109.604 59.5156 107.855 59.8143 106.404C60.1129 104.932 60.5716 103.738 61.1903 102.82C61.8303 101.882 62.6303 101.199 63.5903 100.772C64.5503 100.324 65.7023 100.1 67.0463 100.1C68.3903 100.1 69.5423 100.324 70.5023 100.772C71.4623 101.199 72.2516 101.882 72.8703 102.82C73.5103 103.738 73.9796 104.932 74.2783 106.404C74.5769 107.855 74.7263 109.604 74.7263 111.652C74.7263 113.7 74.5769 115.46 74.2783 116.932C73.9796 118.383 73.5103 119.578 72.8703 120.516C72.2516 121.434 71.4623 122.116 70.5023 122.564C69.5423 122.991 68.3903 123.204 67.0463 123.204ZM67.0463 119.364C67.5796 119.364 68.0276 119.29 68.3903 119.14C68.7529 118.97 69.0409 118.714 69.2543 118.372C69.4676 118.01 69.6169 117.54 69.7023 116.964C69.8089 116.388 69.8623 115.674 69.8623 114.82V108.484C69.8623 106.799 69.6596 105.626 69.2543 104.964C68.8489 104.282 68.1129 103.94 67.0463 103.94C65.9796 103.94 65.2436 104.282 64.8383 104.964C64.4329 105.626 64.2303 106.799 64.2303 108.484V114.82C64.2303 115.674 64.2729 116.388 64.3583 116.964C64.4649 117.54 64.6249 118.01 64.8383 118.372C65.0516 118.714 65.3396 118.97 65.7023 119.14C66.0649 119.29 66.5129 119.364 67.0463 119.364Z" fill="white"/>
<path d="M29.04 35.6496V31.7376H25.32V29.1216H29.04V25.2096H31.92V29.1216H35.64V31.7376H31.92V35.6496H29.04ZM49.2009 32.5536C49.2009 34.0096 48.8409 35.1536 48.1209 35.9856C47.4009 36.8016 46.3369 37.3216 44.9289 37.5456V39.7776H42.3369V37.5936C41.3769 37.5136 40.4889 37.2896 39.6729 36.9216C38.8729 36.5536 38.1689 35.9936 37.5609 35.2416L39.6249 33.3936C39.9769 33.8736 40.4169 34.2496 40.9449 34.5216C41.4889 34.7776 42.0649 34.9456 42.6729 35.0256V30.4176C41.1209 30.0496 39.9529 29.5136 39.1689 28.8096C38.4009 28.1056 38.0169 27.1376 38.0169 25.9056C38.0169 24.5296 38.3769 23.4656 39.0969 22.7136C39.8329 21.9456 40.9129 21.4736 42.3369 21.2976V19.0896H44.9289V21.2976C46.6409 21.4896 47.9769 22.1696 48.9369 23.3376L46.9449 25.1376C46.6409 24.7696 46.2889 24.4896 45.8889 24.2976C45.4889 24.0896 45.0569 23.9456 44.5929 23.8656V28.0416C45.4089 28.2496 46.1049 28.4816 46.6809 28.7376C47.2569 28.9936 47.7289 29.2976 48.0969 29.6496C48.4809 30.0016 48.7609 30.4176 48.9369 30.8976C49.1129 31.3616 49.2009 31.9136 49.2009 32.5536ZM41.1129 25.7136C41.1129 26.1936 41.2409 26.5856 41.4969 26.8896C41.7689 27.1776 42.1609 27.4016 42.6729 27.5616V23.8656C42.1449 23.9456 41.7529 24.1296 41.4969 24.4176C41.2409 24.7056 41.1129 25.1376 41.1129 25.7136ZM46.1529 32.9376C46.1529 31.8976 45.6329 31.2096 44.5929 30.8736V34.9536C45.6329 34.7136 46.1529 34.0416 46.1529 32.9376ZM61.7567 37.8096H51.0047V34.6896L55.5887 30.2016C56.4207 29.3856 57.0047 28.6896 57.3407 28.1136C57.6927 27.5216 57.8687 26.8976 57.8687 26.2416V25.4736C57.8687 24.9296 57.6927 24.4896 57.3407 24.1536C57.0047 23.8176 56.5327 23.6496 55.9247 23.6496C55.5727 23.6496 55.2607 23.7216 54.9887 23.8656C54.7327 23.9936 54.5087 24.1696 54.3167 24.3936C54.1407 24.6176 53.9887 24.8816 53.8607 25.1856C53.7487 25.4736 53.6607 25.7856 53.5967 26.1216L50.6207 24.9936C50.7807 24.4176 50.9967 23.8736 51.2687 23.3616C51.5567 22.8496 51.9167 22.4016 52.3487 22.0176C52.7967 21.6336 53.3327 21.3296 53.9567 21.1056C54.5967 20.8816 55.3567 20.7696 56.2367 20.7696C57.1967 20.7696 58.0047 20.8816 58.6607 21.1056C59.3327 21.3296 59.8767 21.6496 60.2927 22.0656C60.7087 22.4656 61.0047 22.9696 61.1807 23.5776C61.3727 24.1696 61.4687 24.8336 61.4687 25.5696C61.4687 26.1456 61.4127 26.6736 61.3007 27.1536C61.1887 27.6336 60.9967 28.1136 60.7247 28.5936C60.4527 29.0576 60.0847 29.5536 59.6207 30.0816C59.1567 30.6096 58.5727 31.2096 57.8687 31.8816L54.6767 34.9296H61.7567V37.8096ZM74.0936 24.0576H67.3256L66.9656 29.4816H67.3496C67.5256 28.6976 67.8776 28.0736 68.4056 27.6096C68.9496 27.1456 69.6536 26.9136 70.5176 26.9136C71.9096 26.9136 73.0136 27.3376 73.8296 28.1856C74.6456 29.0336 75.0536 30.3696 75.0536 32.1936C75.0536 34.0816 74.5656 35.5376 73.5896 36.5616C72.6136 37.5856 71.1416 38.0976 69.1736 38.0976C68.4216 38.0976 67.7576 38.0096 67.1816 37.8336C66.6056 37.6736 66.0936 37.4496 65.6456 37.1616C65.1976 36.8736 64.8136 36.5376 64.4936 36.1536C64.1736 35.7696 63.9016 35.3616 63.6776 34.9296L66.1496 33.0096C66.4696 33.7136 66.8776 34.2816 67.3736 34.7136C67.8696 35.1296 68.4696 35.3376 69.1736 35.3376C70.6936 35.3376 71.4536 34.4896 71.4536 32.7936V32.0256C71.4536 31.2096 71.2536 30.6176 70.8536 30.2496C70.4536 29.8656 69.9176 29.6736 69.2456 29.6736C68.6696 29.6736 68.1976 29.8096 67.8296 30.0816C67.4616 30.3536 67.1896 30.6256 67.0136 30.8976L64.1096 30.5136L64.6856 21.0576H74.0936V24.0576Z" fill="white"/>
</svg>
