<svg width="77" height="89" viewBox="0 0 77 89" fill="none" xmlns="http://www.w3.org/2000/svg">
<path d="M75.4403 0.670441C75.1303 0.340441 74.6603 0.410416 74.3703 0.770416L71.9003 3.85043L69.3903 0.720428C69.0903 0.350428 68.6103 0.350428 68.3103 0.720428L65.8003 3.85043L63.2903 0.720428C62.9903 0.350428 62.5103 0.350428 62.2103 0.720428L59.7003 3.85043L57.2803 0.830414L57.2203 0.720428C57.0703 0.530428 56.8703 0.440439 56.6703 0.450439C56.4703 0.450439 56.2703 0.530428 56.1203 0.720428L53.6303 3.83041L51.1403 0.720428C50.9903 0.530428 50.7903 0.440439 50.5903 0.450439C50.3903 0.450439 50.1903 0.530428 50.0403 0.720428L47.5503 3.83041L45.0603 0.720428C44.9103 0.530428 44.7103 0.440439 44.5103 0.450439C44.3103 0.450439 44.1103 0.530428 43.9603 0.720428L43.9003 0.830414L41.4803 3.85043L38.9703 0.720428C38.6703 0.350428 38.1903 0.350428 37.8903 0.720428L35.3803 3.85043L32.8703 0.720428C32.7203 0.530428 32.5203 0.44043 32.3203 0.44043C32.1203 0.44043 31.9203 0.530428 31.7703 0.720428L29.2803 3.84042L26.7903 0.720428C26.6403 0.530428 26.4403 0.44043 26.2403 0.44043C26.0403 0.44043 25.8403 0.530428 25.6903 0.720428L23.1803 3.85043L20.6703 0.720428C20.3703 0.350428 19.8903 0.350428 19.5903 0.720428L17.0803 3.85043L14.5703 0.720428C14.2703 0.350428 13.7903 0.350428 13.4903 0.720428L10.9803 3.85043L8.47031 0.720428C8.17031 0.350428 7.69031 0.350428 7.39031 0.720428L4.88031 3.85043L2.41032 0.770416C2.12032 0.410416 1.65031 0.340441 1.34031 0.670441C1.16031 0.860441 1.07031 1.13042 1.07031 1.40042V87.6304C1.07031 87.8904 1.16031 88.1604 1.33031 88.3504C1.64031 88.6904 2.13031 88.6104 2.42031 88.2504L4.87032 85.1904H4.89031L7.37032 88.2904C7.67032 88.6704 8.16031 88.6704 8.47031 88.2904L10.9503 85.1904H10.9703L13.4503 88.2904C13.7503 88.6704 14.2403 88.6704 14.5503 88.2904L17.0303 85.1904H17.0503L19.5303 88.2904C19.8303 88.6704 20.3203 88.6704 20.6303 88.2904L23.1103 85.1904H23.1303L25.6203 88.3104C25.7703 88.5004 25.9703 88.5904 26.1703 88.5904C26.3703 88.5904 26.5703 88.5004 26.7203 88.3104L29.2003 85.2104H29.2203L31.7003 88.3104C31.8503 88.5004 32.0503 88.5904 32.2503 88.5904C32.4503 88.5904 32.6503 88.5004 32.8003 88.3104L35.2903 85.1904H35.3103L37.7903 88.2904C38.0903 88.6704 38.5803 88.6704 38.8903 88.2904L41.3703 85.1904H41.3903L43.8003 88.2004L43.8603 88.3104C44.0103 88.5004 44.2103 88.5904 44.4103 88.5904C44.6103 88.5904 44.8103 88.5104 44.9603 88.3104L47.4403 85.2104H47.4603L49.9403 88.3104C50.0903 88.5004 50.2903 88.5904 50.4903 88.5904C50.6903 88.5904 50.8903 88.5104 51.0403 88.3104L53.5203 85.2104H53.5403L56.0203 88.3104C56.1703 88.5004 56.3703 88.5904 56.5703 88.5904C56.7703 88.5904 56.9703 88.5104 57.1203 88.3104L57.1803 88.2004L59.5903 85.1904H59.6103L62.0903 88.2904C62.3903 88.6704 62.8803 88.6704 63.1903 88.2904L65.6703 85.1904H65.6903L68.1703 88.2904C68.4703 88.6704 68.9603 88.6704 69.2703 88.2904L71.7503 85.1904H71.7703L74.2203 88.2504C74.5103 88.6204 75.0003 88.6904 75.3103 88.3504C75.4803 88.1604 75.5703 87.9004 75.5703 87.6304V1.40042C75.5703 1.13042 75.4803 0.860441 75.3003 0.670441H75.4403Z" fill="white" stroke="#231F20" stroke-width="0.5" stroke-miterlimit="10"/>
<path d="M53.2401 21.3501C52.4701 21.3501 52.1701 20.7701 52.1701 19.7801V18.2401C52.1701 17.2601 52.4701 16.6701 53.2401 16.6701C54.0101 16.6701 54.3101 17.2501 54.3101 18.2401V19.7801C54.3101 20.7601 54.0101 21.3501 53.2401 21.3501ZM53.2401 21.9001C54.4501 21.9001 54.9801 21.0801 54.9801 19.0101C54.9801 16.9401 54.4401 16.1201 53.2401 16.1201C52.0401 16.1201 51.5001 16.9401 51.5001 19.0101C51.5001 21.0801 52.0401 21.9001 53.2401 21.9001ZM48.9201 21.3401C48.2601 21.3401 47.8901 20.9601 47.8901 20.2001V20.0401C47.8901 19.2701 48.2601 18.9001 48.9201 18.9001C49.5801 18.9001 49.9501 19.2801 49.9501 20.0401V20.2001C49.9501 20.9701 49.5801 21.3401 48.9201 21.3401ZM48.9201 21.9001C50.0301 21.9001 50.6201 21.2101 50.6201 20.0601C50.6201 18.9101 50.0401 18.3301 49.1401 18.3301C48.5101 18.3301 48.1201 18.6701 47.9601 19.1201H47.8801C48.1601 17.7901 48.7601 17.0901 49.8501 16.2201H49.0301C48.2101 16.8001 47.2201 18.1001 47.2201 19.7801C47.2201 21.1601 47.8101 21.9001 48.9201 21.9001ZM43.7801 18.6001V19.1601H44.3701C45.0601 19.1601 45.4301 19.5001 45.4301 20.1801V20.3101C45.4301 21.0001 45.0601 21.3301 44.3701 21.3301C43.7601 21.3301 43.4701 21.0401 43.2201 20.6101L42.7401 20.9701C43.0501 21.4401 43.5201 21.9001 44.3901 21.9001C45.4801 21.9001 46.1001 21.2701 46.1001 20.2801C46.1001 19.4101 45.6101 18.9701 45.0001 18.9001V18.8201C45.5501 18.7101 46.0001 18.2801 46.0001 17.5201C46.0001 16.5501 45.3901 16.1201 44.4801 16.1201C43.6701 16.1201 43.2101 16.5601 42.9501 17.0201L43.4101 17.3801C43.6201 16.9401 43.9201 16.6901 44.4301 16.6901C44.9701 16.6901 45.3201 16.9401 45.3201 17.5601V17.6801C45.3201 18.2401 44.9801 18.5901 44.3101 18.5901H43.7701L43.7801 18.6001ZM41.4501 21.9001C41.7601 21.9001 41.9201 21.7601 41.9201 21.4901V21.3601C41.9201 21.1001 41.7601 20.9501 41.4501 20.9501C41.1401 20.9501 40.9801 21.0901 40.9801 21.3601V21.4901C40.9801 21.7501 41.1401 21.9001 41.4501 21.9001ZM39.9901 21.2401H37.3601L38.7501 19.7801C39.5801 18.9101 39.8101 18.4501 39.8101 17.7201C39.8101 16.6801 39.3201 16.1301 38.2801 16.1301C37.4201 16.1301 36.8601 16.6501 36.6501 17.3301L37.2101 17.5501C37.3501 17.0101 37.7001 16.6901 38.2701 16.6901C38.8401 16.6901 39.1401 17.0101 39.1401 17.6901V17.9001C39.1401 18.3601 38.9101 18.8301 38.3701 19.3801L36.6701 21.1401V21.8001H39.9901V21.2401ZM33.7501 21.8001L35.6201 16.7801V16.2201H32.3001V17.8101H32.8701V16.7701H34.9701L33.0701 21.8001H33.7501ZM30.8301 21.9001C31.1401 21.9001 31.3001 21.7601 31.3001 21.4901V21.3601C31.3001 21.1001 31.1401 20.9501 30.8301 20.9501C30.5201 20.9501 30.3601 21.0901 30.3601 21.3601V21.4901C30.3601 21.7501 30.5201 21.9001 30.8301 21.9001ZM29.4601 21.8001V21.2401H28.1801V16.2201H27.4801L25.9001 17.2601L26.1701 17.7001L27.5501 16.8001V21.2401H26.1601V21.8001H29.4701H29.4601ZM25.1401 21.8001V21.2401H23.8601V16.2201H23.1601L21.5801 17.2601L21.8501 17.7001L23.2301 16.8001V21.2401H21.8401V21.8001H25.1501H25.1401Z" fill="#231F20"/>
<path d="M59.7109 45.8002H60.9609L58.5809 41.7802L60.8009 38.8202H59.5809L57.9409 41.1202L57.0509 42.4202H56.9209L56.9809 41.1202V38.8202H55.9209V45.8002H56.9809V43.6202L57.8509 42.5002L59.7109 45.8002ZM54.8709 45.8002V44.8702H52.3309V38.8202H51.2709V45.8002H54.8709ZM48.4309 43.0002H46.5909L47.2109 40.8002L47.4309 39.7802H47.5609L47.7809 40.8002L48.4309 43.0002ZM50.2909 45.8002L48.1909 38.8202H46.8409L44.7509 45.8002H45.7909L46.3309 43.8702H48.6809L49.2209 45.8002H50.2909ZM39.3009 45.8002L40.2409 41.5002L40.4609 39.8902H40.5809L40.8009 41.5002L41.7009 45.8002H42.9709L44.5009 38.8202H43.4609L42.6409 43.0502L42.4209 44.6702H42.2909L42.0709 43.0702L41.1809 38.8202H39.8909L39.0109 43.0702L38.7909 44.6702H38.6609L38.4409 43.0502L37.6209 38.8202H36.5409L38.0209 45.8002H39.3009ZM35.7809 45.8002V44.8702H32.7909V42.7102H35.4909V41.7902H32.7909V39.7502H35.7809V38.8202H31.7309V45.8002H35.7809ZM26.6209 44.8702V39.7502H27.8609C28.7709 39.7502 29.3309 40.3602 29.3309 41.5002V43.1202C29.3309 44.2602 28.7709 44.8702 27.8609 44.8702H26.6209ZM25.5609 45.8002H27.8609C29.5109 45.8002 30.4709 44.7702 30.4709 42.3102C30.4709 39.8502 29.5109 38.8202 27.8609 38.8202H25.5609V45.8002ZM24.2809 45.8002V44.9502H23.4309V39.6702H24.2809V38.8202H21.5209V39.6702H22.3709V44.9502H21.5209V45.8002H24.2809ZM18.3009 45.9202C19.7609 45.9202 20.6109 45.1702 20.6109 43.7802C20.6109 42.6202 20.0909 42.0802 18.7609 41.7802L18.1909 41.6502C17.5209 41.4902 17.2309 41.2202 17.2309 40.6402C17.2309 39.9302 17.6109 39.6302 18.3709 39.6302C19.0409 39.6302 19.4609 39.8802 19.8209 40.3902L20.5509 39.7502C20.0509 39.0302 19.3809 38.7002 18.3909 38.7002C17.0009 38.7002 16.1709 39.3802 16.1709 40.6702C16.1709 41.7802 16.7509 42.3702 18.0009 42.6502L18.5709 42.7702C19.2809 42.9402 19.5509 43.2402 19.5509 43.8502C19.5509 44.6102 19.1209 44.9902 18.3109 44.9902C17.6309 44.9902 17.1009 44.6702 16.6909 44.1002L15.9609 44.7702C16.5009 45.5102 17.2709 45.9202 18.3009 45.9202Z" fill="#231F20"/>
<path d="M46.2604 69.8001L49.0504 61.7501V60.0301H42.7704V63.3901H44.4504V61.6401H47.1004L44.1604 69.8101H46.2604V69.8001ZM38.5004 62.0301H38.7204V66.3901H36.4104L38.5004 62.0301ZM40.6204 69.8001V67.9501H41.7404V66.3801H40.6204V60.0201H38.0704L34.9004 66.2401V67.9501H38.7204V69.8001H40.6104H40.6204ZM32.4104 66.9601C32.4104 67.6201 32.0904 68.0001 31.5004 68.1401V65.7601C32.1004 65.9601 32.4104 66.3501 32.4104 66.9601ZM29.4704 62.7401C29.4704 62.0701 29.7604 61.7601 30.3804 61.6601V63.8201C29.7804 63.6401 29.4704 63.3001 29.4704 62.7401ZM34.1904 66.7301C34.1904 65.2501 33.3904 64.5701 31.5004 64.1001V61.6601C32.0504 61.7401 32.5204 61.9701 32.8704 62.4001L34.0304 61.3501C33.4504 60.6501 32.6904 60.2701 31.6904 60.1601V58.8701H30.1804V60.1601C28.5304 60.3601 27.6604 61.2501 27.6604 62.8501C27.6604 64.2901 28.5704 65.0501 30.3804 65.4801V68.1701C29.6704 68.0901 29.0104 67.7801 28.6004 67.2201L27.4004 68.3001C28.1004 69.1701 29.0704 69.5701 30.1904 69.6701V70.9401H31.7004V69.6401C33.3204 69.3901 34.1904 68.4201 34.1904 66.7301Z" fill="#231F20"/>
<path d="M11.5195 30.4805H65.3395" stroke="#231F20" stroke-width="0.5" stroke-miterlimit="10" stroke-linecap="round"/>
</svg>
