<svg width="76" height="126" viewBox="0 0 76 126" fill="none" xmlns="http://www.w3.org/2000/svg">
<path d="M75.4903 1.36984C75.1903 0.999843 74.7103 0.999843 74.4103 1.36984L71.9003 4.49985L69.3903 1.36984C69.0903 0.999843 68.6103 0.999843 68.3103 1.36984L65.8003 4.49985L63.2903 1.36984C62.9903 0.999843 62.5103 0.999843 62.2103 1.36984L59.7003 4.49985L57.2803 1.47984L57.2203 1.36984C57.0703 1.17984 56.8703 1.08985 56.6703 1.09985C56.4703 1.09985 56.2703 1.17984 56.1203 1.36984L53.6303 4.47984L51.1403 1.36984C50.9903 1.17984 50.7903 1.08985 50.5903 1.09985C50.3903 1.09985 50.1903 1.17984 50.0403 1.36984L47.5503 4.47984L45.0603 1.36984C44.9103 1.17984 44.7103 1.08985 44.5103 1.09985C44.3103 1.09985 44.1103 1.17984 43.9603 1.36984L43.9003 1.47984L41.4803 4.49985L38.9703 1.36984C38.6703 0.999843 38.1903 0.999843 37.8903 1.36984L35.3803 4.49985L32.8703 1.36984C32.7203 1.17984 32.5203 1.08984 32.3203 1.08984C32.1203 1.08984 31.9203 1.17984 31.7703 1.36984L29.2803 4.48985L26.7903 1.36984C26.6403 1.17984 26.4403 1.08984 26.2403 1.08984C26.0403 1.08984 25.8403 1.17984 25.6903 1.36984L23.1803 4.49985L20.6703 1.36984C20.3703 0.999843 19.8903 0.999843 19.5903 1.36984L17.0803 4.49985L14.5703 1.36984C14.2703 0.999843 13.7903 0.999843 13.4903 1.36984L10.9803 4.49985L8.47031 1.36984C8.17031 0.999843 7.69031 0.999843 7.39031 1.36984L4.88031 4.49985L2.37032 1.36984C2.07032 0.999843 1.59031 0.999843 1.29031 1.36984C1.14031 1.55984 1.07031 1.79984 1.07031 2.03984V123.83C1.07031 124.07 1.14031 124.32 1.29031 124.5C1.59031 124.87 2.07032 124.87 2.37032 124.5L4.88031 121.37L7.39031 124.5C7.69031 124.87 8.17031 124.87 8.47031 124.5L10.9803 121.37L13.4903 124.5C13.7903 124.87 14.2703 124.87 14.5703 124.5L17.0803 121.37L19.5903 124.5C19.8903 124.87 20.3703 124.87 20.6703 124.5L23.1803 121.37L25.6903 124.5C25.8403 124.69 26.0403 124.78 26.2403 124.78C26.4403 124.78 26.6403 124.69 26.7903 124.5L29.2803 121.38L31.7703 124.5C31.9203 124.69 32.1203 124.78 32.3203 124.78C32.5203 124.78 32.7203 124.69 32.8703 124.5L35.3803 121.37L37.8903 124.5C38.1903 124.87 38.6703 124.87 38.9703 124.5L41.4803 121.37L43.9003 124.39L43.9603 124.5C44.1103 124.69 44.3103 124.78 44.5103 124.77C44.7103 124.77 44.9103 124.69 45.0603 124.5L47.5503 121.39L50.0403 124.5C50.1903 124.69 50.3903 124.78 50.5903 124.77C50.7903 124.77 50.9903 124.69 51.1403 124.5L53.6303 121.39L56.1203 124.5C56.2703 124.69 56.4703 124.78 56.6703 124.77C56.8703 124.77 57.0703 124.69 57.2203 124.5L57.2803 124.39L59.7003 121.37L62.2103 124.5C62.5103 124.87 62.9903 124.87 63.2903 124.5L65.8003 121.37L68.3103 124.5C68.6103 124.87 69.0903 124.87 69.3903 124.5L71.9003 121.37L74.4103 124.5C74.7103 124.87 75.1903 124.87 75.4903 124.5C75.6403 124.31 75.7103 124.07 75.7103 123.83V2.03984C75.7103 1.79984 75.6403 1.54984 75.4903 1.36984Z" fill="white" stroke="#231F20" stroke-width="0.5" stroke-miterlimit="10"/>
<path d="M53.2401 23.0903C52.4701 23.0903 52.1701 22.5104 52.1701 21.5204V19.9803C52.1701 19.0003 52.4701 18.4104 53.2401 18.4104C54.0101 18.4104 54.3101 18.9903 54.3101 19.9803V21.5204C54.3101 22.5004 54.0101 23.0903 53.2401 23.0903ZM53.2401 23.6404C54.4501 23.6404 54.9801 22.8204 54.9801 20.7504C54.9801 18.6804 54.4401 17.8604 53.2401 17.8604C52.0401 17.8604 51.5001 18.6804 51.5001 20.7504C51.5001 22.8204 52.0401 23.6404 53.2401 23.6404ZM50.7101 23.5403V22.9803H49.4301V17.9604H48.7301L47.1501 19.0004L47.4201 19.4404L48.8001 18.5403V22.9803H47.4101V23.5403H50.7201H50.7101ZM46.3901 23.5403V22.9803H45.1101V17.9604H44.4101L42.8301 19.0004L43.1001 19.4404L44.4801 18.5403V22.9803H43.0901V23.5403H46.4001H46.3901ZM41.4501 23.6404C41.7601 23.6404 41.9201 23.5003 41.9201 23.2303V23.1004C41.9201 22.8404 41.7601 22.6904 41.4501 22.6904C41.1401 22.6904 40.9801 22.8304 40.9801 23.1004V23.2303C40.9801 23.4903 41.1401 23.6404 41.4501 23.6404ZM39.9901 22.9803H37.3601L38.7501 21.5204C39.5801 20.6504 39.8101 20.1904 39.8101 19.4604C39.8101 18.4204 39.3201 17.8703 38.2801 17.8703C37.4201 17.8703 36.8601 18.3904 36.6501 19.0704L37.2101 19.2903C37.3501 18.7503 37.7001 18.4303 38.2701 18.4303C38.8401 18.4303 39.1401 18.7503 39.1401 19.4303V19.6404C39.1401 20.1004 38.9101 20.5703 38.3701 21.1203L36.6801 22.8804V23.5403H40.0001V22.9803H39.9901ZM33.7601 23.5403L35.6301 18.5204V17.9604H32.3101V19.5504H32.8801V18.5103H34.9801L33.0801 23.5403H33.7601ZM30.8301 23.6404C31.1401 23.6404 31.3001 23.5003 31.3001 23.2303V23.1004C31.3001 22.8404 31.1401 22.6904 30.8301 22.6904C30.5201 22.6904 30.3601 22.8304 30.3601 23.1004V23.2303C30.3601 23.4903 30.5201 23.6404 30.8301 23.6404ZM29.4601 23.5403V22.9803H28.1801V17.9604H27.4801L25.9001 19.0004L26.1701 19.4404L27.5501 18.5403V22.9803H26.1601V23.5403H29.4701H29.4601ZM25.1401 23.5403V22.9803H23.8601V17.9604H23.1601L21.5801 19.0004L21.8501 19.4404L23.2301 18.5403V22.9803H21.8401V23.5403H25.1501H25.1401Z" fill="#231F20"/>
<path d="M59.1808 47.5396V44.8396L61.3308 40.5596H60.1608L58.7308 43.6796H58.6008L57.1508 40.5596H55.9608L58.1208 44.8396V47.5396H59.1808ZM54.3108 44.7496H52.4708L53.0908 42.5496L53.3108 41.5296H53.4408L53.6608 42.5496L54.3108 44.7496ZM56.1708 47.5396L54.0708 40.5596H52.7208L50.6308 47.5396H51.6708L52.2108 45.6096H54.5608L55.1008 47.5396H56.1708ZM45.1808 47.5396L46.1208 43.2396L46.3408 41.6296H46.4608L46.6808 43.2396L47.5808 47.5396H48.8508L50.3808 40.5596H49.3408L48.5208 44.7896L48.3008 46.4096H48.1708L47.9508 44.8096L47.0608 40.5596H45.7708L44.8908 44.8096L44.6708 46.4096H44.5408L44.3208 44.7896L43.5008 40.5596H42.4208L43.9008 47.5396H45.1808ZM41.6608 47.5396V46.6096H38.6708V44.4496H41.3708V43.5296H38.6708V41.4896H41.6608V40.5596H37.6108V47.5396H41.6608ZM34.6408 47.5396L36.6808 40.5596H35.5908L34.3608 44.9496L34.0708 46.5796H33.9408L33.6508 44.9496L32.4108 40.5596H31.3008L33.3508 47.5396H34.6408ZM30.6308 47.5396V46.6896H29.7808V41.4096H30.6308V40.5596H27.8708V41.4096H28.7208V46.6896H27.8708V47.5396H30.6308ZM23.2808 43.8096V41.4996H24.8908C25.3908 41.4996 25.6608 41.7496 25.6608 42.3296V42.9796C25.6608 43.5596 25.3908 43.8096 24.8908 43.8096H23.2808ZM23.2808 44.6996H24.5308L25.7408 47.5496H26.9208L25.5908 44.6196C26.3808 44.3996 26.7908 43.7196 26.7908 42.6396C26.7908 41.3096 26.1708 40.5696 24.9808 40.5696H22.2208V47.5496H23.2808V44.6996ZM17.1108 46.6096V41.4896H18.3508C19.2608 41.4896 19.8208 42.0996 19.8208 43.2396V44.8596C19.8208 45.9996 19.2608 46.6096 18.3508 46.6096H17.1108ZM16.0508 47.5396H18.3508C20.0008 47.5396 20.9608 46.5096 20.9608 44.0496C20.9608 41.5896 20.0008 40.5596 18.3508 40.5596H16.0508V47.5396Z" fill="#231F20"/>
<path d="M39.3709 55.8104V53.5004H40.9809C41.4809 53.5004 41.7509 53.7504 41.7509 54.3304V54.9804C41.7509 55.5604 41.4809 55.8104 40.9809 55.8104H39.3709ZM39.3709 56.7004H40.6209L41.8309 59.5504H43.0109L41.6809 56.6204C42.4709 56.4004 42.8809 55.7204 42.8809 54.6404C42.8809 53.3104 42.2609 52.5704 41.0709 52.5704H38.3109V59.5504H39.3709V56.7004ZM34.3409 58.7204C33.3409 58.7204 32.7709 58.0304 32.7709 56.8904V55.2104C32.7709 54.0704 33.3409 53.3804 34.3409 53.3804C35.3409 53.3804 35.9109 54.0704 35.9109 55.2104V56.8904C35.9109 58.0304 35.3409 58.7204 34.3409 58.7204ZM34.3409 59.6604C36.0209 59.6604 37.0509 58.5904 37.0509 56.0504C37.0509 53.5104 36.0209 52.4404 34.3409 52.4404C32.6609 52.4404 31.6309 53.5104 31.6309 56.0504C31.6309 58.5904 32.6609 59.6604 34.3409 59.6604Z" fill="#231F20"/>
<path d="M48.1105 71.5396V68.8396L50.2605 64.5596H49.0905L47.6605 67.6796H47.5305L46.0805 64.5596H44.8905L47.0505 68.8396V71.5396H48.1105ZM44.3505 71.5396V70.6096H41.3605V68.4496H44.0605V67.5296H41.3605V65.4896H44.3505V64.5596H40.3005V71.5396H44.3505ZM39.2505 71.5396V70.6096H36.7105V64.5596H35.6505V71.5396H39.2505ZM34.6005 71.5396V70.6096H32.0605V64.5596H31.0005V71.5396H34.6005ZM28.1605 68.7496H26.3205L26.9405 66.5496L27.1605 65.5296H27.2905L27.5105 66.5496L28.1605 68.7496ZM30.0205 71.5396L27.9205 64.5596H26.5705L24.4805 71.5396H25.5205L26.0605 69.6096H28.4105L28.9505 71.5396H30.0205Z" fill="#231F20"/>
<path d="M61.0304 83.5404V82.6104H58.0404V80.4504H60.7404V79.5304H58.0404V77.4904H61.0304V76.5604H56.9804V83.5404H61.0304ZM53.6104 83.6604C54.8004 83.6604 55.4904 83.0904 55.9304 82.0704L55.0504 81.5504C54.8004 82.3704 54.3504 82.7304 53.6104 82.7304C52.6704 82.7304 52.1104 82.0304 52.1104 80.8904V79.2104C52.1104 78.0704 52.6704 77.3704 53.6104 77.3704C54.3404 77.3704 54.7504 77.7004 54.9904 78.4804L55.8904 77.9804C55.4604 76.9504 54.8004 76.4404 53.6104 76.4404C51.9904 76.4404 50.9704 77.5104 50.9704 80.0504C50.9704 82.5904 51.9904 83.6604 53.6104 83.6604ZM48.4804 83.5404H49.7104V76.5604H48.6904V80.7304L48.7704 82.0504H48.6404L48.1004 80.7504L46.0204 76.5604H44.8004V83.5404H45.8204V79.3704L45.7404 78.0504H45.8704L46.4004 79.3504L48.4804 83.5404ZM41.9704 80.7504H40.1304L40.7504 78.5504L40.9704 77.5304H41.1004L41.3204 78.5504L41.9704 80.7504ZM43.8204 83.5404L41.7204 76.5604H40.3704L38.2804 83.5404H39.3204L39.8604 81.6104H42.2104L42.7504 83.5404H43.8204ZM33.9904 79.8104V77.5004H35.6004C36.1004 77.5004 36.3704 77.7504 36.3704 78.3304V78.9804C36.3704 79.5604 36.1004 79.8104 35.6004 79.8104H33.9904ZM33.9904 80.7004H35.2404L36.4504 83.5504H37.6304L36.3004 80.6204C37.0904 80.4004 37.5004 79.7204 37.5004 78.6404C37.5004 77.3104 36.8804 76.5704 35.6904 76.5704H32.9304V83.5504H33.9904V80.7004ZM31.9304 77.5004V76.5704H27.1704V77.5004H29.0204V83.5504H30.0804V77.5004H31.9304ZM24.9404 83.5404H26.1704V76.5604H25.1504V80.7304L25.2304 82.0504H25.1004L24.5604 80.7504L22.4804 76.5604H21.2604V83.5404H22.2804V79.3704L22.2004 78.0504H22.3304L22.8604 79.3504L24.9404 83.5404ZM19.9504 83.5404V82.6104H16.9604V80.4504H19.6604V79.5304H16.9604V77.4904H19.9504V76.5604H15.9004V83.5404H19.9504Z" fill="#231F20"/>
<path d="M46.2604 107.54L49.0504 99.4901V97.7701H42.7704V101.13H44.4504V99.3801H47.1004L44.1604 107.55H46.2604V107.54ZM38.5004 99.7701H38.7204V104.13H36.4104L38.5004 99.7701ZM40.6204 107.54V105.69H41.7404V104.12H40.6204V97.7601H38.0704L34.9004 103.98V105.69H38.7204V107.54H40.6104H40.6204ZM32.4104 104.7C32.4104 105.36 32.0904 105.74 31.5004 105.88V103.5C32.1004 103.7 32.4104 104.09 32.4104 104.7ZM29.4704 100.48C29.4704 99.8101 29.7604 99.5001 30.3804 99.4001V101.56C29.7804 101.38 29.4704 101.04 29.4704 100.48ZM34.1904 104.48C34.1904 103 33.3904 102.32 31.5004 101.85V99.4101C32.0504 99.4901 32.5204 99.7201 32.8704 100.15L34.0304 99.1001C33.4604 98.4001 32.6904 98.0201 31.6904 97.9101V96.6201H30.1804V97.9101C28.5304 98.1101 27.6604 99.0001 27.6604 100.6C27.6604 102.04 28.5704 102.8 30.3804 103.23V105.92C29.6704 105.84 29.0104 105.53 28.6004 104.97L27.4004 106.05C28.1004 106.92 29.0704 107.32 30.1904 107.42V108.69H31.7004V107.39C33.3204 107.14 34.1904 106.17 34.1904 104.48Z" fill="#231F20"/>
<path d="M11.5195 31.5H65.3395" stroke="#231F20" stroke-width="0.5" stroke-miterlimit="10" stroke-linecap="round"/>
</svg>
