<svg width="76" height="90" viewBox="0 0 76 90" fill="none" xmlns="http://www.w3.org/2000/svg">
<path d="M75.1396 1.31007C74.8296 0.980074 74.3595 1.05008 74.0695 1.41008L71.5995 4.49008L69.0895 1.36008C68.7895 0.990077 68.3096 0.990077 68.0096 1.36008L65.4995 4.49008L62.9895 1.36008C62.6895 0.990077 62.2095 0.990077 61.9095 1.36008L59.3995 4.49008L56.9796 1.47008L56.9196 1.36008C56.7696 1.17008 56.5695 1.08007 56.3695 1.09007C56.1695 1.09007 55.9695 1.17008 55.8195 1.36008L53.3295 4.47008L50.8395 1.36008C50.6895 1.17008 50.4896 1.08007 50.2896 1.09007C50.0896 1.09007 49.8895 1.17008 49.7395 1.36008L47.2495 4.47008L44.7596 1.36008C44.6096 1.17008 44.4095 1.08007 44.2095 1.09007C44.0095 1.09007 43.8095 1.17008 43.6595 1.36008L43.5995 1.47008L41.1795 4.49008L38.6696 1.36008C38.3696 0.990077 37.8895 0.990077 37.5895 1.36008L35.0795 4.49008L32.5695 1.36008C32.4195 1.17008 32.2195 1.08008 32.0195 1.08008C31.8195 1.08008 31.6195 1.17008 31.4695 1.36008L28.9796 4.48007L26.4895 1.36008C26.3395 1.17008 26.1395 1.08008 25.9395 1.08008C25.7395 1.08008 25.5396 1.17008 25.3896 1.36008L22.8795 4.49008L20.3695 1.36008C20.0695 0.990077 19.5896 0.990077 19.2896 1.36008L16.7795 4.49008L14.2695 1.36008C13.9695 0.990077 13.4895 0.990077 13.1895 1.36008L10.6795 4.49008L8.16956 1.36008C7.86956 0.990077 7.38954 0.990077 7.08954 1.36008L4.57953 4.49008L2.10953 1.41008C1.81953 1.05008 1.34955 0.980074 1.03955 1.31007C0.859551 1.50007 0.769531 1.77007 0.769531 2.04007V88.2701C0.769531 88.5301 0.859541 88.8001 1.02954 88.9901C1.33954 89.3301 1.82954 89.2501 2.11954 88.8901L4.56955 85.8301H4.58954L7.06955 88.9301C7.36955 89.3101 7.85956 89.3101 8.16956 88.9301L10.6495 85.8301H10.6696L13.1495 88.9301C13.4495 89.3101 13.9395 89.3101 14.2495 88.9301L16.7296 85.8301H16.7495L19.2296 88.9301C19.5296 89.3101 20.0195 89.3101 20.3295 88.9301L22.8095 85.8301H22.8295L25.3195 88.9501C25.4695 89.1401 25.6695 89.2301 25.8695 89.2301C26.0695 89.2301 26.2696 89.1401 26.4196 88.9501L28.8995 85.8501H28.9196L31.3995 88.9501C31.5495 89.1401 31.7496 89.2301 31.9496 89.2301C32.1496 89.2301 32.3495 89.1401 32.4995 88.9501L34.9895 85.8301H35.0096L37.4895 88.9301C37.7895 89.3101 38.2795 89.3101 38.5895 88.9301L41.0695 85.8301H41.0895L43.4995 88.8401L43.5595 88.9501C43.7095 89.1401 43.9095 89.2301 44.1095 89.2201C44.3095 89.2201 44.5095 89.1401 44.6595 88.9501L47.1396 85.8501H47.1595L49.6396 88.9501C49.7896 89.1401 49.9895 89.2301 50.1895 89.2201C50.3895 89.2201 50.5895 89.1401 50.7395 88.9501L53.2195 85.8501H53.2395L55.7195 88.9501C55.8695 89.1401 56.0695 89.2301 56.2695 89.2201C56.4695 89.2201 56.6695 89.1401 56.8195 88.9501L56.8795 88.8401L59.2896 85.8301H59.3095L61.7896 88.9301C62.0896 89.3101 62.5796 89.3101 62.8896 88.9301L65.3695 85.8301H65.3896L67.8695 88.9301C68.1695 89.3101 68.6595 89.3101 68.9695 88.9301L71.4496 85.8301H71.4695L73.9196 88.8901C74.2096 89.2601 74.6996 89.3301 75.0096 88.9901C75.1796 88.8001 75.2695 88.5401 75.2695 88.2701V2.04007C75.2695 1.77007 75.1795 1.50007 74.9995 1.31007H75.1396Z" fill="white" stroke="#231F20" stroke-width="0.5" stroke-miterlimit="10"/>
<path d="M52.9395 21.9798C52.1695 21.9798 51.8695 21.3998 51.8695 20.4098V18.8698C51.8695 17.8898 52.1695 17.2998 52.9395 17.2998C53.7095 17.2998 54.0096 17.8798 54.0096 18.8698V20.4098C54.0096 21.3898 53.7095 21.9798 52.9395 21.9798ZM52.9395 22.5398C54.1495 22.5398 54.6795 21.7198 54.6795 19.6498C54.6795 17.5798 54.1395 16.7598 52.9395 16.7598C51.7395 16.7598 51.1996 17.5798 51.1996 19.6498C51.1996 21.7198 51.7395 22.5398 52.9395 22.5398ZM48.6195 21.9798C47.9595 21.9798 47.5895 21.5998 47.5895 20.8398V20.6798C47.5895 19.9098 47.9595 19.5398 48.6195 19.5398C49.2795 19.5398 49.6495 19.9198 49.6495 20.6798V20.8398C49.6495 21.6098 49.2795 21.9798 48.6195 21.9798ZM48.6195 22.5398C49.7295 22.5398 50.3195 21.8498 50.3195 20.6998C50.3195 19.5498 49.7395 18.9698 48.8395 18.9698C48.2095 18.9698 47.8195 19.3098 47.6595 19.7598H47.5795C47.8595 18.4298 48.4595 17.7298 49.5495 16.8598H48.7296C47.9096 17.4398 46.9196 18.7398 46.9196 20.4198C46.9196 21.7998 47.5095 22.5398 48.6195 22.5398ZM45.9895 21.8798H43.3595L44.7495 20.4198C45.5795 19.5498 45.8095 19.0898 45.8095 18.3598C45.8095 17.3198 45.3195 16.7698 44.2795 16.7698C43.4195 16.7698 42.8595 17.2898 42.6495 17.9698L43.2095 18.1898C43.3495 17.6498 43.6995 17.3298 44.2695 17.3298C44.8395 17.3298 45.1396 17.6498 45.1396 18.3298V18.5398C45.1396 18.9998 44.9095 19.4698 44.3695 20.0198L42.6696 21.7798V22.4398H45.9895V21.8798ZM41.1495 22.5398C41.4595 22.5398 41.6195 22.3998 41.6195 22.1298V21.9998C41.6195 21.7398 41.4595 21.5898 41.1495 21.5898C40.8395 21.5898 40.6795 21.7298 40.6795 21.9998V22.1298C40.6795 22.3898 40.8395 22.5398 41.1495 22.5398ZM39.6795 21.8798H37.0495L38.4395 20.4198C39.2695 19.5498 39.4995 19.0898 39.4995 18.3598C39.4995 17.3198 39.0095 16.7698 37.9695 16.7698C37.1095 16.7698 36.5495 17.2898 36.3395 17.9698L36.8995 18.1898C37.0395 17.6498 37.3895 17.3298 37.9595 17.3298C38.5295 17.3298 38.8295 17.6498 38.8295 18.3298V18.5398C38.8295 18.9998 38.5995 19.4698 38.0595 20.0198L36.3595 21.7798V22.4398H39.6795V21.8798ZM33.4496 22.4398L35.3195 17.4198V16.8598H31.9995V18.4498H32.5695V17.4098H34.6696L32.7695 22.4398H33.4496ZM30.5195 22.5398C30.8295 22.5398 30.9895 22.3998 30.9895 22.1298V21.9998C30.9895 21.7398 30.8295 21.5898 30.5195 21.5898C30.2095 21.5898 30.0495 21.7298 30.0495 21.9998V22.1298C30.0495 22.3898 30.2095 22.5398 30.5195 22.5398ZM29.1495 22.4398V21.8798H27.8695V16.8598H27.1696L25.5895 17.8998L25.8595 18.3398L27.2395 17.4398V21.8798H25.8495V22.4398H29.1595H29.1495ZM24.8295 22.4398V21.8798H23.5495V16.8598H22.8495L21.2695 17.8998L21.5396 18.3398L22.9196 17.4398V21.8798H21.5295V22.4398H24.8395H24.8295Z" fill="#231F20"/>
<path d="M59.8507 46.4398V45.5098H56.8607V43.3499H59.5607V42.4298H56.8607V40.3898H59.8507V39.4599H55.8007V46.4398H59.8507ZM53.2407 46.4398H54.2607V39.4599H53.0207L51.9007 41.8998L51.4107 43.2798H51.3207L50.8307 41.8998L49.7007 39.4599H48.4507V46.4398H49.4707V42.1398L49.4007 40.9698H49.5207L50.0007 42.1198L51.3507 44.9599L52.7107 42.1198L53.1907 40.9498H53.3107L53.2407 42.1398V46.4398ZM47.1707 46.4398V45.5898H46.3207V40.3098H47.1707V39.4599H44.4107V40.3098H45.2607V45.5898H44.4107V46.4398H47.1707ZM43.7007 40.3898V39.4599H38.9407V40.3898H40.7907V46.4398H41.8507V40.3898H43.7007ZM34.8107 42.6998V40.3898H36.4207C36.9207 40.3898 37.1907 40.6398 37.1907 41.2198V41.8698C37.1907 42.4498 36.9207 42.6998 36.4207 42.6998H34.8107ZM34.8107 43.5898H36.0607L37.2707 46.4398H38.4507L37.1207 43.5098C37.9107 43.2898 38.3207 42.6098 38.3207 41.5298C38.3207 40.1998 37.7007 39.4599 36.5107 39.4599H33.7507V46.4398H34.8107V43.5898ZM32.4407 46.4398V45.5098H29.4507V43.3499H32.1507V42.4298H29.4507V40.3898H32.4407V39.4599H28.3907V46.4398H32.4407ZM25.4207 46.4398L27.4607 39.4599H26.3707L25.1407 43.8499L24.8507 45.4798H24.7207L24.4307 43.8499L23.1907 39.4599H22.0807L24.1307 46.4398H25.4207ZM18.9307 45.6198C17.9307 45.6198 17.3607 44.9298 17.3607 43.7898V42.1098C17.3607 40.9698 17.9307 40.2798 18.9307 40.2798C19.9307 40.2798 20.5007 40.9698 20.5007 42.1098V43.7898C20.5007 44.9298 19.9307 45.6198 18.9307 45.6198ZM18.9307 46.5598C20.6107 46.5598 21.6407 45.4898 21.6407 42.9498C21.6407 40.4098 20.6107 39.3398 18.9307 39.3398C17.2507 39.3398 16.2207 40.4098 16.2207 42.9498C16.2207 45.4898 17.2507 46.5598 18.9307 46.5598Z" fill="#231F20"/>
<path d="M45.7596 62.6698H45.9796V67.0298H43.6696L45.7596 62.6698ZM47.8696 70.4398V68.5898H48.9896V67.0198H47.8696V60.6598H45.3196L42.1496 66.8798V68.5898H45.9696V70.4398H47.8596H47.8696ZM38.1996 62.6698H38.4196V67.0298H36.1096L38.1996 62.6698ZM40.3096 70.4398V68.5898H41.4296V67.0198H40.3096V60.6598H37.7596L34.5896 66.8798V68.5898H38.4096V70.4398H40.2996H40.3096ZM32.1096 67.5998C32.1096 68.2598 31.7896 68.6398 31.1996 68.7798V66.3998C31.7996 66.5998 32.1096 66.9898 32.1096 67.5998ZM29.1696 63.3798C29.1696 62.7098 29.4596 62.3998 30.0796 62.2998V64.4598C29.4796 64.2798 29.1696 63.9398 29.1696 63.3798ZM33.8896 67.3698C33.8896 65.8898 33.0896 65.2098 31.1996 64.7398V62.2998C31.7496 62.3798 32.2196 62.6098 32.5696 63.0398L33.7296 61.9898C33.1496 61.2898 32.3896 60.9098 31.3896 60.7998V59.5098H29.8796V60.7998C28.2296 60.9998 27.3596 61.8898 27.3596 63.4898C27.3596 64.9298 28.2696 65.6898 30.0796 66.1198V68.8098C29.3696 68.7298 28.7096 68.4198 28.2996 67.8598L27.0996 68.9398C27.7996 69.8098 28.7696 70.2098 29.8896 70.3098V71.5798H31.3996V70.2798C33.0196 70.0298 33.8896 69.0598 33.8896 67.3698Z" fill="#231F20"/>
<path d="M11.2207 31.1104H65.0307" stroke="#231F20" stroke-width="0.5" stroke-miterlimit="10" stroke-linecap="round"/>
</svg>
