<svg width="76" height="101" viewBox="0 0 76 101" fill="none" xmlns="http://www.w3.org/2000/svg">
<path d="M75.2302 0.38C74.9302 0.16 74.5302 0.26 74.2802 0.57L71.8102 3.66L69.3002 0.53C69.0002 0.16 68.5202 0.16 68.2202 0.53L65.7102 3.66L63.2002 0.53C62.9002 0.16 62.4202 0.16 62.1202 0.53L59.6102 3.66L57.1902 0.64L57.1302 0.53C56.9802 0.34 56.7802 0.25 56.5802 0.26C56.3802 0.26 56.1802 0.34 56.0302 0.53L53.5402 3.64L51.0502 0.53C50.9002 0.34 50.7002 0.25 50.5002 0.26C50.3002 0.26 50.1002 0.34 49.9502 0.53L47.4602 3.64L44.9702 0.53C44.8202 0.34 44.6202 0.25 44.4202 0.26C44.2202 0.26 44.0202 0.34 43.8702 0.53L43.8102 0.64L41.3902 3.66L38.8802 0.53C38.5802 0.16 38.1002 0.16 37.8002 0.53L35.2902 3.66L32.7802 0.53C32.6302 0.34 32.4302 0.25 32.2302 0.25C32.0302 0.25 31.8302 0.34 31.6802 0.53L29.1902 3.65L26.7002 0.53C26.5502 0.34 26.3502 0.25 26.1502 0.25C25.9502 0.25 25.7502 0.34 25.6002 0.53L23.0902 3.66L20.5802 0.53C20.2802 0.16 19.8002 0.16 19.5002 0.53L16.9902 3.66L14.4802 0.53C14.1802 0.16 13.7002 0.16 13.4002 0.53L10.8902 3.66L8.38023 0.53C8.08023 0.16 7.60023 0.16 7.30023 0.53L4.79022 3.66L2.32024 0.57C2.07024 0.26 1.68022 0.15 1.37022 0.38C1.11022 0.57 0.990234 0.89 0.990234 1.21V99C0.990234 99.27 1.08022 99.54 1.26022 99.73C1.57022 100.06 2.04023 99.99 2.33023 99.63L4.80023 96.55L7.31023 99.68C7.61023 100.05 8.09023 100.05 8.39023 99.68L10.9002 96.55L13.4102 99.68C13.7102 100.05 14.1902 100.05 14.4902 99.68L17.0002 96.55L19.5102 99.68C19.8102 100.05 20.2902 100.05 20.5902 99.68L23.1002 96.55L25.6102 99.68C25.7602 99.87 25.9602 99.96 26.1602 99.96C26.3602 99.96 26.5602 99.87 26.7102 99.68L29.2002 96.56L31.6902 99.68C31.8402 99.87 32.0402 99.96 32.2402 99.96C32.4402 99.96 32.6402 99.87 32.7902 99.68L35.3002 96.55L37.8102 99.68C38.1102 100.05 38.5902 100.05 38.8902 99.68L41.4002 96.55L43.8202 99.57L43.8802 99.68C44.0302 99.87 44.2302 99.96 44.4302 99.95C44.6302 99.95 44.8302 99.87 44.9802 99.68L47.4702 96.57L49.9602 99.68C50.1102 99.87 50.3102 99.96 50.5102 99.95C50.7102 99.95 50.9102 99.87 51.0602 99.68L53.5502 96.57L56.0402 99.68C56.1902 99.87 56.3902 99.96 56.5902 99.95C56.7902 99.95 56.9902 99.87 57.1402 99.68L57.2002 99.57L59.6202 96.55L62.1302 99.68C62.4302 100.05 62.9102 100.05 63.2102 99.68L65.7202 96.55L68.2302 99.68C68.5302 100.05 69.0102 100.05 69.3102 99.68L71.8202 96.55L74.2902 99.63C74.5802 99.99 75.0502 100.06 75.3602 99.73C75.5402 99.54 75.6302 99.27 75.6302 99V1.2C75.6302 0.88 75.5002 0.56 75.2502 0.37L75.2302 0.38Z" fill="white" stroke="#231F20" stroke-width="0.5" stroke-miterlimit="10"/>
<path d="M11.4199 30.2803H65.2399" stroke="#231F20" stroke-width="0.5" stroke-miterlimit="10" stroke-linecap="round"/>
<path d="M54.4803 21.1499C53.7103 21.1499 53.4103 20.5699 53.4103 19.5799V18.0399C53.4103 17.0599 53.7103 16.4699 54.4803 16.4699C55.2503 16.4699 55.5503 17.0499 55.5503 18.0399V19.5799C55.5503 20.5599 55.2503 21.1499 54.4803 21.1499ZM54.4803 21.6999C55.6903 21.6999 56.2203 20.8799 56.2203 18.8099C56.2203 16.7399 55.6803 15.9199 54.4803 15.9199C53.2803 15.9199 52.7403 16.7399 52.7403 18.8099C52.7403 20.8799 53.2803 21.6999 54.4803 21.6999ZM50.6003 16.5299H50.6803V19.9699H48.8603L50.6003 16.5299ZM51.2903 21.5999V20.4999H52.0103V19.9599H51.2903V16.0099H50.3503L48.2703 19.9299V20.4999H50.6803V21.5999H51.2903ZM46.2803 16.5299H46.3603V19.9699H44.5403L46.2803 16.5299ZM46.9703 21.5999V20.4999H47.6903V19.9599H46.9703V16.0099H46.0303L43.9503 19.9299V20.4999H46.3603V21.5999H46.9703ZM42.6903 21.6999C43.0003 21.6999 43.1603 21.5599 43.1603 21.2899V21.1599C43.1603 20.8999 43.0003 20.7499 42.6903 20.7499C42.3803 20.7499 42.2203 20.8899 42.2203 21.1599V21.2899C42.2203 21.5499 42.3803 21.6999 42.6903 21.6999ZM41.2203 21.0399H38.5903L39.9803 19.5799C40.8103 18.7099 41.0403 18.2499 41.0403 17.5199C41.0403 16.4799 40.5503 15.9299 39.5103 15.9299C38.6503 15.9299 38.0903 16.4499 37.8803 17.1299L38.4403 17.3499C38.5803 16.8099 38.9303 16.4899 39.5003 16.4899C40.0703 16.4899 40.3703 16.8099 40.3703 17.4899V17.6999C40.3703 18.1599 40.1403 18.6299 39.6003 19.1799L37.9103 20.9399V21.5999H41.2303V21.0399H41.2203ZM34.9903 21.5999L36.8603 16.5799V16.0199H33.5403V17.6099H34.1103V16.5699H36.2103L34.3103 21.5999H34.9903ZM32.0703 21.6999C32.3803 21.6999 32.5403 21.5599 32.5403 21.2899V21.1599C32.5403 20.8999 32.3803 20.7499 32.0703 20.7499C31.7603 20.7499 31.6003 20.8899 31.6003 21.1599V21.2899C31.6003 21.5499 31.7603 21.6999 32.0703 21.6999ZM30.7003 21.5999V21.0399H29.4203V16.0199H28.7203L27.1403 17.0599L27.4103 17.4999L28.7903 16.5999V21.0399H27.4003V21.5999H30.7103H30.7003ZM26.3803 21.5999V21.0399H25.1003V16.0199H24.4003L22.8203 17.0599L23.0903 17.4999L24.4703 16.5999V21.0399H23.0803V21.5999H26.3903H26.3803Z" fill="#231F20"/>
<path d="M47.0998 41.87V39.56H48.7098C49.2098 39.56 49.4798 39.81 49.4798 40.39V41.04C49.4798 41.62 49.2098 41.87 48.7098 41.87H47.0998ZM47.0998 42.76H48.3498L49.5598 45.61H50.7398L49.4098 42.68C50.1998 42.46 50.6098 41.78 50.6098 40.7C50.6098 39.37 49.9898 38.63 48.7998 38.63H46.0398V45.61H47.0998V42.76ZM44.7298 45.6V44.67H41.7398V42.51H44.4398V41.59H41.7398V39.55H44.7298V38.62H40.6798V45.6H44.7298ZM37.7098 45.6L39.7498 38.62H38.6598L37.4298 43.01L37.1398 44.64H37.0098L36.7198 43.01L35.4798 38.62H34.3698L36.4198 45.6H37.7098ZM31.2198 44.78C30.2198 44.78 29.6498 44.09 29.6498 42.95V41.27C29.6498 40.13 30.2198 39.44 31.2198 39.44C32.2198 39.44 32.7898 40.13 32.7898 41.27V42.95C32.7898 44.09 32.2198 44.78 31.2198 44.78ZM31.2198 45.72C32.8998 45.72 33.9298 44.65 33.9298 42.11C33.9298 39.57 32.8998 38.5 31.2198 38.5C29.5398 38.5 28.5098 39.57 28.5098 42.11C28.5098 44.65 29.5398 45.72 31.2198 45.72Z" fill="#231F20"/>
<path d="M58.4605 57.72C59.9205 57.72 60.7705 56.97 60.7705 55.58C60.7705 54.42 60.2505 53.88 58.9205 53.58L58.3505 53.45C57.6805 53.29 57.3905 53.02 57.3905 52.44C57.3905 51.73 57.7705 51.43 58.5305 51.43C59.2005 51.43 59.6205 51.68 59.9805 52.19L60.7105 51.55C60.2105 50.83 59.5405 50.5 58.5505 50.5C57.1605 50.5 56.3305 51.18 56.3305 52.47C56.3305 53.58 56.9105 54.17 58.1605 54.45L58.7305 54.57C59.4405 54.74 59.7105 55.04 59.7105 55.65C59.7105 56.41 59.2805 56.79 58.4705 56.79C57.7905 56.79 57.2605 56.47 56.8505 55.9L56.1205 56.57C56.6605 57.31 57.4305 57.72 58.4605 57.72ZM51.7105 53.87V51.56H53.3205C53.8205 51.56 54.0905 51.81 54.0905 52.39V53.04C54.0905 53.62 53.8205 53.87 53.3205 53.87H51.7105ZM51.7105 54.76H52.9605L54.1705 57.61H55.3505L54.0205 54.68C54.8105 54.46 55.2205 53.78 55.2205 52.7C55.2205 51.37 54.6005 50.63 53.4105 50.63H50.6505V57.61H51.7105V54.76ZM44.4005 50.63V54.98C44.4005 56.88 45.0205 57.73 46.7805 57.73C48.5405 57.73 49.1605 56.88 49.1605 54.98V50.63H48.1005V55.15C48.1005 56.26 47.7605 56.79 46.7805 56.79C45.8005 56.79 45.4605 56.26 45.4605 55.15V50.63H44.4005ZM40.4905 56.78C39.4905 56.78 38.9205 56.09 38.9205 54.95V53.27C38.9205 52.13 39.4905 51.44 40.4905 51.44C41.4905 51.44 42.0605 52.13 42.0605 53.27V54.95C42.0605 56.09 41.4905 56.78 40.4905 56.78ZM40.4905 57.72C42.1705 57.72 43.2005 56.65 43.2005 54.11C43.2005 51.57 42.1705 50.5 40.4905 50.5C38.8105 50.5 37.7805 51.57 37.7805 54.11C37.7805 56.65 38.8105 57.72 40.4905 57.72ZM35.4605 57.6H36.5205V50.62H35.4605V53.59H32.6805V50.62H31.6205V57.6H32.6805V54.51H35.4605V57.6ZM28.2105 56.69H25.0705L26.6305 55.1C27.7205 53.98 28.0305 53.43 28.0305 52.49C28.0305 51.22 27.4305 50.5 26.0005 50.5C24.9105 50.5 24.1405 51.07 23.8405 52.11L24.7705 52.47C24.9205 51.79 25.3305 51.42 25.9405 51.42C26.5505 51.42 26.9105 51.78 26.9105 52.46V52.75C26.9105 53.31 26.6305 53.82 25.9505 54.51L23.9205 56.57V57.6H28.2105V56.69ZM20.5805 57.6L22.7805 51.55V50.62H18.4805V52.79H19.4005V51.53H21.7205L19.4605 57.6H20.5805Z" fill="#231F20"/>
<path d="M47.3006 73.8297H47.5206V78.1897H45.2106L47.3006 73.8297ZM49.4206 81.5997V79.7497H50.5406V78.1797H49.4206V71.8197H46.8706L43.7006 78.0397V79.7497H47.5206V81.5997H49.4106H49.4206ZM39.7406 73.8297H39.9606V78.1897H37.6506L39.7406 73.8297ZM41.8606 81.5997V79.7497H42.9806V78.1797H41.8606V71.8197H39.3106L36.1406 78.0397V79.7497H39.9606V81.5997H41.8506H41.8606ZM33.6506 78.7597C33.6506 79.4197 33.3306 79.7997 32.7406 79.9397V77.5597C33.3406 77.7597 33.6506 78.1497 33.6506 78.7597ZM30.7106 74.5397C30.7106 73.8697 31.0006 73.5597 31.6206 73.4597V75.6197C31.0206 75.4397 30.7106 75.0997 30.7106 74.5397ZM35.4306 78.5397C35.4306 77.0597 34.6306 76.3797 32.7406 75.9097V73.4697C33.2906 73.5497 33.7606 73.7797 34.1106 74.2097L35.2706 73.1597C34.7006 72.4597 33.9306 72.0797 32.9306 71.9697V70.6797H31.4206V71.9697C29.7706 72.1697 28.9006 73.0597 28.9006 74.6597C28.9006 76.0997 29.8106 76.8597 31.6206 77.2897V79.9797C30.9106 79.8997 30.2506 79.5897 29.8406 79.0297L28.6406 80.1097C29.3406 80.9797 30.3106 81.3797 31.4306 81.4797V82.7497H32.9406V81.4497C34.5606 81.1997 35.4306 80.2297 35.4306 78.5397Z" fill="#231F20"/>
</svg>
