<svg width="76" height="111" viewBox="0 0 76 111" fill="none" xmlns="http://www.w3.org/2000/svg">
<path d="M74.8895 1.31007C74.5795 0.980074 74.1095 1.05008 73.8195 1.41008L71.3495 4.49008L68.8395 1.36008C68.5395 0.990077 68.0595 0.990077 67.7595 1.36008L65.2495 4.49008L62.7395 1.36008C62.4395 0.990077 61.9595 0.990077 61.6595 1.36008L59.1495 4.49008L56.7295 1.47008L56.6695 1.36008C56.5195 1.17008 56.3195 1.08007 56.1195 1.09007C55.9195 1.09007 55.7195 1.17008 55.5695 1.36008L53.0795 4.47008L50.5895 1.36008C50.4395 1.17008 50.2395 1.08007 50.0395 1.09007C49.8395 1.09007 49.6395 1.17008 49.4895 1.36008L46.9995 4.47008L44.5095 1.36008C44.3595 1.17008 44.1595 1.08007 43.9595 1.09007C43.7595 1.09007 43.5595 1.17008 43.4095 1.36008L43.3495 1.47008L40.9295 4.49008L38.4195 1.36008C38.1195 0.990077 37.6395 0.990077 37.3395 1.36008L34.8295 4.49008L32.3195 1.36008C32.1695 1.17008 31.9695 1.08008 31.7695 1.08008C31.5695 1.08008 31.3695 1.17008 31.2195 1.36008L28.7295 4.48007L26.2395 1.36008C26.0895 1.17008 25.8895 1.08008 25.6895 1.08008C25.4895 1.08008 25.2895 1.17008 25.1395 1.36008L22.6295 4.49008L20.1195 1.36008C19.8195 0.990077 19.3395 0.990077 19.0395 1.36008L16.5295 4.49008L14.0195 1.36008C13.7195 0.990077 13.2395 0.990077 12.9395 1.36008L10.4295 4.49008L7.91949 1.36008C7.61949 0.990077 7.13954 0.990077 6.83954 1.36008L4.32953 4.49008L1.8595 1.41008C1.5695 1.05008 1.09949 0.980074 0.78949 1.31007C0.60949 1.50007 0.519531 1.77007 0.519531 2.04007V109.77C0.519531 110.03 0.609541 110.3 0.779541 110.49C1.08954 110.83 1.57951 110.75 1.86951 110.39L4.31952 107.33H4.33954L6.81952 110.43C7.11952 110.81 7.60949 110.81 7.91949 110.43L10.3995 107.33H10.4195L12.8995 110.43C13.1995 110.81 13.6895 110.81 13.9995 110.43L16.4795 107.33H16.4995L18.9795 110.43C19.2795 110.81 19.7695 110.81 20.0795 110.43L22.5595 107.33H22.5795L25.0695 110.45C25.2195 110.64 25.4195 110.73 25.6195 110.73C25.8195 110.73 26.0195 110.64 26.1695 110.45L28.6495 107.35H28.6695L31.1495 110.45C31.2995 110.64 31.4995 110.73 31.6995 110.73C31.8995 110.73 32.0995 110.64 32.2495 110.45L34.7395 107.33H34.7595L37.2395 110.43C37.5395 110.81 38.0295 110.81 38.3395 110.43L40.8195 107.33H40.8395L43.2495 110.34L43.3095 110.45C43.4595 110.64 43.6595 110.73 43.8595 110.72C44.0595 110.72 44.2595 110.64 44.4095 110.45L46.8895 107.35H46.9095L49.3895 110.45C49.5395 110.64 49.7395 110.73 49.9395 110.72C50.1395 110.72 50.3395 110.64 50.4895 110.45L52.9695 107.35H52.9895L55.4695 110.45C55.6195 110.64 55.8195 110.73 56.0195 110.72C56.2195 110.72 56.4195 110.64 56.5695 110.45L56.6295 110.34L59.0395 107.33H59.0595L61.5395 110.43C61.8395 110.81 62.3295 110.81 62.6395 110.43L65.1195 107.33H65.1395L67.6195 110.43C67.9195 110.81 68.4095 110.81 68.7195 110.43L71.1995 107.33H71.2195L73.6695 110.39C73.9595 110.76 74.4495 110.83 74.7595 110.49C74.9295 110.3 75.0195 110.04 75.0195 109.77V2.04007C75.0195 1.77007 74.9295 1.50007 74.7495 1.31007H74.8895Z" fill="white" stroke="#231F20" stroke-width="0.5" stroke-miterlimit="10"/>
<path d="M54.1295 16.8598H51.4095L51.2295 19.9198L51.7695 19.9898C51.9595 19.7298 52.1895 19.5198 52.6695 19.5198C53.3695 19.5198 53.6895 19.9098 53.6895 20.6498V20.8398C53.6895 21.5798 53.3595 21.9698 52.6695 21.9698C52.1495 21.9698 51.7995 21.7098 51.5395 21.2298L51.0595 21.5898C51.3395 22.1198 51.9195 22.5298 52.6695 22.5298C53.7395 22.5298 54.3695 21.8798 54.3695 20.6898C54.3695 19.4998 53.7695 18.9598 52.8895 18.9598C52.3295 18.9598 51.9995 19.2398 51.8595 19.6198H51.7795L51.9195 17.4098H54.1295V16.8498V16.8598ZM48.1395 22.4398L50.0095 17.4198V16.8598H46.6895V18.4498H47.2595V17.4098H49.3595L47.4595 22.4398H48.1395ZM44.0495 21.9798C43.2795 21.9798 42.9795 21.3998 42.9795 20.4098V18.8698C42.9795 17.8898 43.2795 17.2998 44.0495 17.2998C44.8195 17.2998 45.1195 17.8798 45.1195 18.8698V20.4098C45.1195 21.3898 44.8195 21.9798 44.0495 21.9798ZM44.0495 22.5398C45.2595 22.5398 45.7895 21.7198 45.7895 19.6498C45.7895 17.5798 45.2495 16.7598 44.0495 16.7598C42.8495 16.7598 42.3095 17.5798 42.3095 19.6498C42.3095 21.7198 42.8495 22.5398 44.0495 22.5398ZM40.8995 22.5398C41.2095 22.5398 41.3695 22.3998 41.3695 22.1298V21.9998C41.3695 21.7398 41.2095 21.5898 40.8995 21.5898C40.5895 21.5898 40.4295 21.7298 40.4295 21.9998V22.1298C40.4295 22.3898 40.5895 22.5398 40.8995 22.5398ZM39.4295 21.8798H36.7995L38.1895 20.4198C39.0195 19.5498 39.2495 19.0898 39.2495 18.3598C39.2495 17.3198 38.7595 16.7698 37.7195 16.7698C36.8595 16.7698 36.2995 17.2898 36.0895 17.9698L36.6495 18.1898C36.7895 17.6498 37.1395 17.3298 37.7095 17.3298C38.2795 17.3298 38.5795 17.6498 38.5795 18.3298V18.5398C38.5795 18.9998 38.3495 19.4698 37.8095 20.0198L36.1095 21.7798V22.4398H39.4295V21.8798ZM33.1995 22.4398L35.0695 17.4198V16.8598H31.7495V18.4498H32.3195V17.4098H34.4195L32.5195 22.4398H33.1995ZM30.2695 22.5398C30.5795 22.5398 30.7395 22.3998 30.7395 22.1298V21.9998C30.7395 21.7398 30.5795 21.5898 30.2695 21.5898C29.9595 21.5898 29.7995 21.7298 29.7995 21.9998V22.1298C29.7995 22.3898 29.9595 22.5398 30.2695 22.5398ZM28.8995 22.4398V21.8798H27.6195V16.8598H26.9195L25.3395 17.8998L25.6095 18.3398L26.9895 17.4398V21.8798H25.5995V22.4398H28.9095H28.8995ZM24.5795 22.4398V21.8798H23.2995V16.8598H22.5995L21.0195 17.8998L21.2895 18.3398L22.6695 17.4398V21.8798H21.2795V22.4398H24.5895H24.5795Z" fill="#231F20"/>
<path d="M62.0998 46.5499C62.5598 46.5499 62.7898 46.3298 62.7898 45.9498V45.7498C62.7898 45.3698 62.5598 45.1498 62.0998 45.1498C61.6398 45.1498 61.4098 45.3698 61.4098 45.7498V45.9498C61.4098 46.3298 61.6398 46.5499 62.0998 46.5499ZM56.7098 42.6998V40.3898H58.3198C58.8198 40.3898 59.0898 40.6398 59.0898 41.2198V41.8698C59.0898 42.4498 58.8198 42.6998 58.3198 42.6998H56.7098ZM56.7098 43.5898H57.9598L59.1698 46.4398H60.3498L59.0198 43.5098C59.8098 43.2898 60.2198 42.6098 60.2198 41.5298C60.2198 40.1998 59.5998 39.4599 58.4098 39.4599H55.6498V46.4398H56.7098V43.5898ZM51.6798 45.6198C50.6798 45.6198 50.1098 44.9298 50.1098 43.7898V42.1098C50.1098 40.9698 50.6798 40.2798 51.6798 40.2798C52.6798 40.2798 53.2498 40.9698 53.2498 42.1098V43.7898C53.2498 44.9298 52.6798 45.6198 51.6798 45.6198ZM51.6798 46.5598C53.3598 46.5598 54.3898 45.4898 54.3898 42.9498C54.3898 40.4098 53.3598 39.3398 51.6798 39.3398C49.9998 39.3398 48.9698 40.4098 48.9698 42.9498C48.9698 45.4898 49.9998 46.5598 51.6798 46.5598ZM46.6498 46.4398H47.7098V39.4599H46.6498V42.4298H43.8698V39.4599H42.8098V46.4398H43.8698V43.3499H46.6498V46.4398ZM41.8198 40.3898V39.4599H37.0598V40.3898H38.9098V46.4398H39.9698V40.3898H41.8198ZM31.3498 39.4599V43.8098C31.3498 45.7098 31.9698 46.5598 33.7298 46.5598C35.4898 46.5598 36.1098 45.7098 36.1098 43.8098V39.4599H35.0498V43.9798C35.0498 45.0898 34.7098 45.6198 33.7298 45.6198C32.7498 45.6198 32.4098 45.0898 32.4098 43.9798V39.4599H31.3498ZM28.6598 43.6398H26.8198L27.4398 41.4398L27.6598 40.4198H27.7898L28.0098 41.4398L28.6598 43.6398ZM30.5198 46.4398L28.4198 39.4599H27.0698L24.9798 46.4398H26.0198L26.5598 44.5098H28.9098L29.4498 46.4398H30.5198ZM22.7698 46.4398H23.9998V39.4599H22.9798V43.6299L23.0598 44.9498H22.9298L22.3898 43.6498L20.3098 39.4599H19.0898V46.4398H20.1098V42.2699L20.0298 40.9498H20.1598L20.6898 42.2498L22.7698 46.4398ZM12.8398 39.4599V43.8098C12.8398 45.7098 13.4598 46.5598 15.2198 46.5598C16.9798 46.5598 17.5998 45.7098 17.5998 43.8098V39.4599H16.5398V43.9798C16.5398 45.0898 16.1998 45.6198 15.2198 45.6198C14.2398 45.6198 13.8998 45.0898 13.8998 43.9798V39.4599H12.8398Z" fill="#231F20"/>
<path d="M45.6995 58.4398V57.5098H42.7095V55.3499H45.4095V54.4298H42.7095V52.3898H45.6995V51.4599H41.6495V58.4398H45.6995ZM38.1595 58.5598C39.6195 58.5598 40.4695 57.8098 40.4695 56.4198C40.4695 55.2598 39.9495 54.7198 38.6195 54.4198L38.0495 54.2898C37.3795 54.1298 37.0895 53.8598 37.0895 53.2798C37.0895 52.5698 37.4695 52.2699 38.2295 52.2699C38.8995 52.2699 39.3195 52.5198 39.6795 53.0298L40.4095 52.3898C39.9095 51.6698 39.2395 51.3398 38.2495 51.3398C36.8595 51.3398 36.0295 52.0198 36.0295 53.3098C36.0295 54.4198 36.6095 55.0098 37.8595 55.2898L38.4295 55.4099C39.1395 55.5799 39.4095 55.8799 39.4095 56.4899C39.4095 57.2499 38.9795 57.6299 38.1695 57.6299C37.4895 57.6299 36.9595 57.3099 36.5495 56.7399L35.8195 57.4099C36.3595 58.1499 37.1295 58.5598 38.1595 58.5598ZM30.0195 51.4599V55.8098C30.0195 57.7098 30.6395 58.5598 32.3995 58.5598C34.1595 58.5598 34.7795 57.7098 34.7795 55.8098V51.4599H33.7195V55.9798C33.7195 57.0898 33.3795 57.6198 32.3995 57.6198C31.4195 57.6198 31.0795 57.0898 31.0795 55.9798V51.4599H30.0195Z" fill="#231F20"/>
<path d="M55.1594 69.5098V64.3898H56.3994C57.3094 64.3898 57.8694 64.9998 57.8694 66.1398V67.7598C57.8694 68.8998 57.3094 69.5098 56.3994 69.5098H55.1594ZM54.0994 70.4398H56.3994C58.0494 70.4398 59.0094 69.4098 59.0094 66.9498C59.0094 64.4898 58.0494 63.4599 56.3994 63.4599H54.0994V70.4398ZM52.7894 70.4398V69.5098H49.7994V67.3499H52.4994V66.4298H49.7994V64.3898H52.7894V63.4599H48.7394V70.4398H52.7894ZM47.6894 70.4398V69.5098H45.1494V63.4599H44.0894V70.4398H47.6894ZM39.1994 64.3898H40.7694C41.2294 64.3898 41.4994 64.6298 41.4994 65.1798V65.6299C41.4994 66.1799 41.2294 66.4198 40.7694 66.4198H39.1994V64.3898ZM39.1994 67.3298H40.9394C41.4394 67.3298 41.7194 67.5898 41.7194 68.1898V68.6498C41.7194 69.2498 41.4394 69.5098 40.9394 69.5098H39.1994V67.3298ZM38.1394 70.4398H41.2494C42.2194 70.4398 42.8494 69.6298 42.8494 68.4298C42.8494 67.5098 42.2894 66.8598 41.4994 66.8598V66.7399C42.2194 66.6799 42.6194 66.1498 42.6194 65.2598C42.6194 64.0998 42.0494 63.4599 40.9694 63.4599H38.1394V70.4398ZM35.2994 67.6398H33.4594L34.0794 65.4398L34.2994 64.4198H34.4294L34.6494 65.4398L35.2994 67.6398ZM37.1594 70.4398L35.0594 63.4599H33.7094L31.6194 70.4398H32.6594L33.1994 68.5098H35.5494L36.0894 70.4398H37.1594ZM28.6894 70.5598C30.1494 70.5598 30.9994 69.8098 30.9994 68.4198C30.9994 67.2598 30.4794 66.7198 29.1494 66.4198L28.5794 66.2898C27.9094 66.1298 27.6194 65.8598 27.6194 65.2798C27.6194 64.5698 27.9994 64.2699 28.7594 64.2699C29.4294 64.2699 29.8494 64.5198 30.2094 65.0298L30.9394 64.3898C30.4394 63.6698 29.7694 63.3398 28.7794 63.3398C27.3894 63.3398 26.5594 64.0198 26.5594 65.3098C26.5594 66.4198 27.1394 67.0098 28.3894 67.2898L28.9594 67.4099C29.6694 67.5799 29.9394 67.8799 29.9394 68.4899C29.9394 69.2499 29.5094 69.6299 28.6994 69.6299C28.0194 69.6299 27.4894 69.3099 27.0794 68.7399L26.3494 69.4099C26.8894 70.1499 27.6594 70.5598 28.6894 70.5598ZM25.5194 70.4398V69.5898H24.6694V64.3098H25.5194V63.4599H22.7594V64.3098H23.6094V69.5898H22.7594V70.4398H25.5194ZM17.9194 69.5098V64.3898H19.1594C20.0694 64.3898 20.6294 64.9998 20.6294 66.1398V67.7598C20.6294 68.8998 20.0694 69.5098 19.1594 69.5098H17.9194ZM16.8594 70.4398H19.1594C20.8094 70.4398 21.7694 69.4098 21.7694 66.9498C21.7694 64.4898 20.8094 63.4599 19.1594 63.4599H16.8594V70.4398Z" fill="#231F20"/>
<path d="M49.1103 92.9298C48.1703 92.9298 47.8803 92.4298 47.8803 90.9398V88.1698C47.8803 86.6898 48.1703 86.1798 49.1103 86.1798C50.0503 86.1798 50.3403 86.6798 50.3403 88.1698V90.9398C50.3403 92.4198 50.0503 92.9298 49.1103 92.9298ZM49.1103 94.6098C51.4503 94.6098 52.4703 93.1398 52.4703 89.5498C52.4703 85.9598 51.4503 84.4898 49.1103 84.4898C46.7703 84.4898 45.7503 85.9598 45.7503 89.5498C45.7503 93.1398 46.7703 94.6098 49.1103 94.6098ZM44.3803 84.6598H38.8903L38.5503 90.1798L40.2503 90.3998C40.4603 90.0798 40.8803 89.6898 41.5503 89.6898C42.3303 89.6898 42.8403 90.1098 42.8403 91.0598V91.5098C42.8403 92.5198 42.3903 92.9898 41.5103 92.9898C40.7003 92.9898 40.1203 92.4398 39.7403 91.6298L38.3003 92.7498C38.8203 93.7398 39.7703 94.5998 41.5103 94.5998C43.7903 94.5998 44.9403 93.3498 44.9403 91.1498C44.9403 88.9498 43.9203 88.0698 42.2903 88.0698C41.2803 88.0698 40.6503 88.6598 40.4403 89.5698H40.2203L40.4303 86.3998H44.3803V84.6498V84.6598ZM37.1803 92.7598H33.0503L34.9103 90.9798C36.5503 89.4098 37.0103 88.6398 37.0103 87.2998C37.0103 85.5598 36.1803 84.4998 33.9603 84.4998C31.9203 84.4998 31.0603 85.6198 30.6803 86.9698L32.4203 87.6298C32.5703 86.8598 32.9503 86.1898 33.7803 86.1898C34.4803 86.1898 34.9103 86.6198 34.9103 87.2498V87.6998C34.9103 88.4698 34.5603 89.0598 33.5803 90.0098L30.9003 92.6298V94.4498H37.1803V92.7698V92.7598ZM28.0803 91.5998C28.0803 92.2598 27.7603 92.6398 27.1703 92.7798V90.3998C27.7703 90.5998 28.0803 90.9898 28.0803 91.5998ZM25.1403 87.3798C25.1403 86.7098 25.4303 86.3998 26.0503 86.2998V88.4598C25.4503 88.2798 25.1403 87.9398 25.1403 87.3798ZM29.8603 91.3698C29.8603 89.8898 29.0603 89.2098 27.1703 88.7398V86.2998C27.7203 86.3798 28.1903 86.6098 28.5403 87.0398L29.7003 85.9898C29.1203 85.2898 28.3603 84.9098 27.3603 84.7998V83.5098H25.8503V84.7998C24.2003 84.9998 23.3303 85.8898 23.3303 87.4898C23.3303 88.9298 24.2403 89.6898 26.0503 90.1198V92.8098C25.3403 92.7298 24.6803 92.4198 24.2703 91.8598L23.0703 92.9398C23.7703 93.8098 24.7403 94.2098 25.8603 94.3098V95.5798H27.3703V94.2798C28.9903 94.0298 29.8603 93.0598 29.8603 91.3698Z" fill="#231F20"/>
<path d="M10.9707 31.1104H64.7808" stroke="#231F20" stroke-width="0.5" stroke-miterlimit="10" stroke-linecap="round"/>
</svg>
