<svg width="76" height="111" viewBox="0 0 76 111" fill="none" xmlns="http://www.w3.org/2000/svg">
<path d="M75.1396 0.670441C74.8296 0.340441 74.3595 0.410416 74.0695 0.770416L71.5995 3.85043L69.0895 0.720428C68.7895 0.350428 68.3096 0.350428 68.0096 0.720428L65.4995 3.85043L62.9895 0.720428C62.6895 0.350428 62.2095 0.350428 61.9095 0.720428L59.3995 3.85043L56.9796 0.830414L56.9196 0.720428C56.7696 0.530428 56.5695 0.440439 56.3695 0.450439C56.1695 0.450439 55.9695 0.530428 55.8195 0.720428L53.3295 3.83041L50.8395 0.720428C50.6895 0.530428 50.4896 0.440439 50.2896 0.450439C50.0896 0.450439 49.8895 0.530428 49.7395 0.720428L47.2495 3.83041L44.7596 0.720428C44.6096 0.530428 44.4095 0.440439 44.2095 0.450439C44.0095 0.450439 43.8095 0.530428 43.6595 0.720428L43.5995 0.830414L41.1795 3.85043L38.6696 0.720428C38.3696 0.350428 37.8895 0.350428 37.5895 0.720428L35.0795 3.85043L32.5695 0.720428C32.4195 0.530428 32.2195 0.44043 32.0195 0.44043C31.8195 0.44043 31.6195 0.530428 31.4695 0.720428L28.9796 3.84042L26.4895 0.720428C26.3395 0.530428 26.1395 0.44043 25.9395 0.44043C25.7395 0.44043 25.5396 0.530428 25.3896 0.720428L22.8795 3.85043L20.3695 0.720428C20.0695 0.350428 19.5896 0.350428 19.2896 0.720428L16.7795 3.85043L14.2695 0.720428C13.9695 0.350428 13.4895 0.350428 13.1895 0.720428L10.6795 3.85043L8.16956 0.720428C7.86956 0.350428 7.38954 0.350428 7.08954 0.720428L4.57953 3.85043L2.10953 0.770416C1.81953 0.410416 1.34955 0.340441 1.03955 0.670441C0.859551 0.860441 0.769531 1.13042 0.769531 1.40042V109.13C0.769531 109.39 0.859541 109.66 1.02954 109.85C1.33954 110.19 1.82954 110.11 2.11954 109.75L4.56955 106.69H4.58954L7.06955 109.79C7.36955 110.17 7.85956 110.17 8.16956 109.79L10.6495 106.69H10.6696L13.1495 109.79C13.4495 110.17 13.9395 110.17 14.2495 109.79L16.7296 106.69H16.7495L19.2296 109.79C19.5296 110.17 20.0195 110.17 20.3295 109.79L22.8095 106.69H22.8295L25.3195 109.81C25.4695 110 25.6695 110.09 25.8695 110.09C26.0695 110.09 26.2696 110 26.4196 109.81L28.8995 106.71H28.9196L31.3995 109.81C31.5495 110 31.7496 110.09 31.9496 110.09C32.1496 110.09 32.3495 110 32.4995 109.81L34.9895 106.69H35.0096L37.4895 109.79C37.7895 110.17 38.2795 110.17 38.5895 109.79L41.0695 106.69H41.0895L43.4995 109.7L43.5595 109.81C43.7095 110 43.9095 110.09 44.1095 110.09C44.3095 110.09 44.5095 110.01 44.6595 109.81L47.1396 106.71H47.1595L49.6396 109.81C49.7896 110 49.9895 110.09 50.1895 110.09C50.3895 110.09 50.5895 110.01 50.7395 109.81L53.2195 106.71H53.2395L55.7195 109.81C55.8695 110 56.0695 110.09 56.2695 110.09C56.4695 110.09 56.6695 110.01 56.8195 109.81L56.8795 109.7L59.2896 106.69H59.3095L61.7896 109.79C62.0896 110.17 62.5796 110.17 62.8896 109.79L65.3695 106.69H65.3896L67.8695 109.79C68.1695 110.17 68.6595 110.17 68.9695 109.79L71.4496 106.69H71.4695L73.9196 109.75C74.2096 110.12 74.6996 110.19 75.0096 109.85C75.1796 109.66 75.2695 109.4 75.2695 109.13V1.40042C75.2695 1.13042 75.1795 0.860441 74.9995 0.670441H75.1396Z" fill="white" stroke="#231F20" stroke-width="0.5" stroke-miterlimit="10"/>
<path d="M52.1095 18.6001V19.1601H52.6996C53.3896 19.1601 53.7596 19.5001 53.7596 20.1801V20.3101C53.7596 21.0001 53.3896 21.3301 52.6996 21.3301C52.0896 21.3301 51.7995 21.0401 51.5495 20.6101L51.0695 20.9701C51.3795 21.4401 51.8495 21.9001 52.7195 21.9001C53.8095 21.9001 54.4295 21.2701 54.4295 20.2801C54.4295 19.4101 53.9395 18.9701 53.3295 18.9001V18.8201C53.8795 18.7101 54.3295 18.2801 54.3295 17.5201C54.3295 16.5501 53.7195 16.1201 52.8095 16.1201C51.9995 16.1201 51.5395 16.5601 51.2795 17.0201L51.7395 17.3801C51.9495 16.9401 52.2496 16.6901 52.7596 16.6901C53.2996 16.6901 53.6495 16.9401 53.6495 17.5601V17.6801C53.6495 18.2401 53.3096 18.5901 52.6396 18.5901H52.0995L52.1095 18.6001ZM50.0595 16.2201H47.3395L47.1595 19.2801L47.6996 19.3501C47.8896 19.0901 48.1195 18.8801 48.5995 18.8801C49.2995 18.8801 49.6195 19.2701 49.6195 20.0101V20.2001C49.6195 20.9401 49.2895 21.3301 48.5995 21.3301C48.0795 21.3301 47.7295 21.0701 47.4695 20.5901L46.9895 20.9501C47.2695 21.4801 47.8495 21.8901 48.5995 21.8901C49.6695 21.8901 50.2995 21.2401 50.2995 20.0501C50.2995 18.8601 49.6995 18.3201 48.8195 18.3201C48.2595 18.3201 47.9296 18.6001 47.7896 18.9801H47.7095L47.8495 16.7701H50.0595V16.2101V16.2201ZM43.4695 18.6001V19.1601H44.0595C44.7495 19.1601 45.1195 19.5001 45.1195 20.1801V20.3101C45.1195 21.0001 44.7495 21.3301 44.0595 21.3301C43.4495 21.3301 43.1595 21.0401 42.9095 20.6101L42.4295 20.9701C42.7395 21.4401 43.2095 21.9001 44.0795 21.9001C45.1695 21.9001 45.7896 21.2701 45.7896 20.2801C45.7896 19.4101 45.2995 18.9701 44.6895 18.9001V18.8201C45.2395 18.7101 45.6895 18.2801 45.6895 17.5201C45.6895 16.5501 45.0796 16.1201 44.1696 16.1201C43.3596 16.1201 42.8996 16.5601 42.6396 17.0201L43.0995 17.3801C43.3095 16.9401 43.6095 16.6901 44.1195 16.6901C44.6595 16.6901 45.0096 16.9401 45.0096 17.5601V17.6801C45.0096 18.2401 44.6695 18.5901 43.9995 18.5901H43.4595L43.4695 18.6001ZM41.1495 21.9001C41.4595 21.9001 41.6195 21.7601 41.6195 21.4901V21.3601C41.6195 21.1001 41.4595 20.9501 41.1495 20.9501C40.8395 20.9501 40.6795 21.0901 40.6795 21.3601V21.4901C40.6795 21.7501 40.8395 21.9001 41.1495 21.9001ZM39.6795 21.2401H37.0495L38.4395 19.7801C39.2695 18.9101 39.4995 18.4501 39.4995 17.7201C39.4995 16.6801 39.0095 16.1301 37.9695 16.1301C37.1095 16.1301 36.5495 16.6501 36.3395 17.3301L36.8995 17.5501C37.0395 17.0101 37.3895 16.6901 37.9595 16.6901C38.5295 16.6901 38.8295 17.0101 38.8295 17.6901V17.9001C38.8295 18.3601 38.5995 18.8301 38.0595 19.3801L36.3595 21.1401V21.8001H39.6795V21.2401ZM33.4496 21.8001L35.3195 16.7801V16.2201H31.9995V17.8101H32.5695V16.7701H34.6696L32.7695 21.8001H33.4496ZM30.5195 21.9001C30.8295 21.9001 30.9895 21.7601 30.9895 21.4901V21.3601C30.9895 21.1001 30.8295 20.9501 30.5195 20.9501C30.2095 20.9501 30.0495 21.0901 30.0495 21.3601V21.4901C30.0495 21.7501 30.2095 21.9001 30.5195 21.9001ZM29.1495 21.8001V21.2401H27.8695V16.2201H27.1696L25.5895 17.2601L25.8595 17.7001L27.2395 16.8001V21.2401H25.8495V21.8001H29.1595H29.1495ZM24.8295 21.8001V21.2401H23.5495V16.2201H22.8495L21.2695 17.2601L21.5396 17.7001L22.9196 16.8001V21.2401H21.5295V21.8001H24.8395H24.8295Z" fill="#231F20"/>
<path d="M55.3004 45.8002V44.8702H52.7604V38.8202H51.7004V45.8002H55.3004ZM47.7304 44.9802C46.7304 44.9802 46.1604 44.2902 46.1604 43.1502V41.4702C46.1604 40.3302 46.7304 39.6402 47.7304 39.6402C48.7304 39.6402 49.3004 40.3302 49.3004 41.4702V43.1502C49.3004 44.2902 48.7304 44.9802 47.7304 44.9802ZM47.7304 45.9202C49.4104 45.9202 50.4404 44.8502 50.4404 42.3102C50.4404 39.7702 49.4104 38.7002 47.7304 38.7002C46.0504 38.7002 45.0204 39.7702 45.0204 42.3102C45.0204 44.8502 46.0504 45.9202 47.7304 45.9202ZM41.3304 44.9802C40.3304 44.9802 39.7604 44.2902 39.7604 43.1502V41.4702C39.7604 40.3302 40.3304 39.6402 41.3304 39.6402C42.3304 39.6402 42.9004 40.3302 42.9004 41.4702V43.1502C42.9004 44.2902 42.3304 44.9802 41.3304 44.9802ZM41.3304 45.9202C43.0104 45.9202 44.0404 44.8502 44.0404 42.3102C44.0404 39.7702 43.0104 38.7002 41.3304 38.7002C39.6504 38.7002 38.6204 39.7702 38.6204 42.3102C38.6204 44.8502 39.6504 45.9202 41.3304 45.9202ZM36.3004 45.8002H37.3604V38.8202H36.3004V41.7902H33.5204V38.8202H32.4604V45.8002H33.5204V42.7102H36.3004V45.8002ZM29.0904 45.9202C30.2804 45.9202 30.9704 45.3502 31.4104 44.3302L30.5304 43.8102C30.2804 44.6302 29.8304 44.9902 29.0904 44.9902C28.1504 44.9902 27.5904 44.2902 27.5904 43.1502V41.4702C27.5904 40.3302 28.1504 39.6302 29.0904 39.6302C29.8204 39.6302 30.2304 39.9602 30.4704 40.7402L31.3704 40.2402C30.9404 39.2102 30.2804 38.7002 29.0904 38.7002C27.4704 38.7002 26.4504 39.7702 26.4504 42.3102C26.4504 44.8502 27.4704 45.9202 29.0904 45.9202ZM23.2404 45.9202C24.7004 45.9202 25.5504 45.1702 25.5504 43.7802C25.5504 42.6202 25.0304 42.0802 23.7004 41.7802L23.1304 41.6502C22.4604 41.4902 22.1704 41.2202 22.1704 40.6402C22.1704 39.9302 22.5504 39.6302 23.3104 39.6302C23.9804 39.6302 24.4004 39.8802 24.7604 40.3902L25.4904 39.7502C24.9904 39.0302 24.3204 38.7002 23.3304 38.7002C21.9404 38.7002 21.1104 39.3802 21.1104 40.6702C21.1104 41.7802 21.6904 42.3702 22.9404 42.6502L23.5104 42.7702C24.2204 42.9402 24.4904 43.2402 24.4904 43.8502C24.4904 44.6102 24.0604 44.9902 23.2504 44.9902C22.5704 44.9902 22.0404 44.6702 21.6304 44.1002L20.9004 44.7702C21.4404 45.5102 22.2104 45.9202 23.2404 45.9202Z" fill="#231F20"/>
<path d="M45.0909 56.8702V51.7502H46.3309C47.2409 51.7502 47.8009 52.3602 47.8009 53.5002V55.1202C47.8009 56.2602 47.2409 56.8702 46.3309 56.8702H45.0909ZM44.0309 57.8002H46.3309C47.9809 57.8002 48.9409 56.7702 48.9409 54.3102C48.9409 51.8502 47.9809 50.8202 46.3309 50.8202H44.0309V57.8002ZM41.1909 55.0002H39.351L39.9709 52.8002L40.1909 51.7802H40.321L40.541 52.8002L41.1909 55.0002ZM43.0509 57.8002L40.951 50.8202H39.601L37.511 57.8002H38.5509L39.0909 55.8702H41.4409L41.981 57.8002H43.0509ZM34.3009 56.9802C33.3009 56.9802 32.731 56.2902 32.731 55.1502V53.4702C32.731 52.3302 33.3009 51.6402 34.3009 51.6402C35.3009 51.6402 35.8709 52.3302 35.8709 53.4702V55.1502C35.8709 56.2902 35.3009 56.9802 34.3009 56.9802ZM34.3009 57.9202C35.9809 57.9202 37.011 56.8502 37.011 54.3102C37.011 51.7702 35.9809 50.7002 34.3009 50.7002C32.6209 50.7002 31.5909 51.7702 31.5909 54.3102C31.5909 56.8502 32.6209 57.9202 34.3009 57.9202ZM31.0609 57.8002V56.8702H28.5209V50.8202H27.4609V57.8002H31.0609Z" fill="#231F20"/>
<path d="M49.2099 69.8002V68.8702H46.2199V66.7102H48.9199V65.7902H46.2199V63.7502H49.2099V62.8202H45.1599V69.8002H49.2099ZM42.3899 69.8002H43.6199V62.8202H42.5999V66.9902L42.6799 68.3102H42.5499L42.0099 67.0102L39.9299 62.8202H38.7099V69.8002H39.7299V65.6302L39.6499 64.3102H39.7799L40.3099 65.6102L42.3899 69.8002ZM34.7399 68.9802C33.7399 68.9802 33.1699 68.2902 33.1699 67.1502V65.4702C33.1699 64.3302 33.7399 63.6402 34.7399 63.6402C35.7399 63.6402 36.3099 64.3302 36.3099 65.4702V67.1502C36.3099 68.2902 35.7399 68.9802 34.7399 68.9802ZM34.7399 69.9202C36.4199 69.9202 37.4499 68.8502 37.4499 66.3102C37.4499 63.7702 36.4199 62.7002 34.7399 62.7002C33.0599 62.7002 32.0299 63.7702 32.0299 66.3102C32.0299 68.8502 33.0599 69.9202 34.7399 69.9202ZM31.3299 68.8702H27.8699L31.2199 63.7702V62.8202H26.8299V63.7502H30.0199L26.6699 68.8502V69.8002H31.3299V68.8702Z" fill="#231F20"/>
<path d="M45.9496 93.8001L48.7396 85.7501V84.0301H42.4596V87.3901H44.1396V85.6401H46.7896L43.8496 93.8101H45.9496V93.8001ZM38.1996 86.0301H38.4196V90.3901H36.1096L38.1996 86.0301ZM40.3096 93.8001V91.9501H41.4296V90.3801H40.3096V84.0201H37.7596L34.5896 90.2401V91.9501H38.4096V93.8001H40.2996H40.3096ZM32.1096 90.9601C32.1096 91.6201 31.7896 92.0001 31.1996 92.1401V89.7601C31.7996 89.9601 32.1096 90.3501 32.1096 90.9601ZM29.1696 86.7401C29.1696 86.0701 29.4596 85.7601 30.0796 85.6601V87.8201C29.4796 87.6401 29.1696 87.3001 29.1696 86.7401ZM33.8896 90.7301C33.8896 89.2501 33.0896 88.5701 31.1996 88.1001V85.6601C31.7496 85.7401 32.2196 85.9701 32.5696 86.4001L33.7296 85.3501C33.1496 84.6501 32.3896 84.2701 31.3896 84.1601V82.8701H29.8796V84.1601C28.2296 84.3601 27.3596 85.2501 27.3596 86.8501C27.3596 88.2901 28.2696 89.0501 30.0796 89.4801V92.1701C29.3696 92.0901 28.7096 91.7801 28.2996 91.2201L27.0996 92.3001C27.7996 93.1701 28.7696 93.5701 29.8896 93.6701V94.9401H31.3996V93.6401C33.0196 93.3901 33.8896 92.4201 33.8896 90.7301Z" fill="#231F20"/>
<path d="M11.2207 30.4805H65.0307" stroke="#231F20" stroke-width="0.5" stroke-miterlimit="10" stroke-linecap="round"/>
</svg>
