<svg width="76" height="101" viewBox="0 0 76 101" fill="none" xmlns="http://www.w3.org/2000/svg">
<path d="M75.4903 0.53C75.1903 0.16 74.7103 0.16 74.4103 0.53L71.9003 3.66L69.3903 0.53C69.0903 0.16 68.6103 0.16 68.3103 0.53L65.8003 3.66L63.2903 0.53C62.9903 0.16 62.5103 0.16 62.2103 0.53L59.7003 3.66L57.2803 0.64L57.2203 0.53C57.0703 0.34 56.8703 0.25 56.6703 0.26C56.4703 0.26 56.2703 0.34 56.1203 0.53L53.6303 3.64L51.1403 0.53C50.9903 0.34 50.7903 0.25 50.5903 0.26C50.3903 0.26 50.1903 0.34 50.0403 0.53L47.5503 3.64L45.0603 0.53C44.9103 0.34 44.7103 0.25 44.5103 0.26C44.3103 0.26 44.1103 0.34 43.9603 0.53L43.9003 0.64L41.4803 3.66L38.9703 0.53C38.6703 0.16 38.1903 0.16 37.8903 0.53L35.3803 3.66L32.8703 0.53C32.7203 0.34 32.5203 0.25 32.3203 0.25C32.1203 0.25 31.9203 0.34 31.7703 0.53L29.2803 3.65L26.7903 0.53C26.6403 0.34 26.4403 0.25 26.2403 0.25C26.0403 0.25 25.8403 0.34 25.6903 0.53L23.1803 3.66L20.6703 0.53C20.3703 0.16 19.8903 0.16 19.5903 0.53L17.0803 3.66L14.5703 0.53C14.2703 0.16 13.7903 0.16 13.4903 0.53L10.9803 3.66L8.47031 0.53C8.17031 0.16 7.69031 0.16 7.39031 0.53L4.88031 3.66L2.37032 0.53C2.07032 0.16 1.59031 0.16 1.29031 0.53C1.14031 0.72 1.07031 0.96 1.07031 1.2V99.31C1.07031 99.55 1.14031 99.8 1.29031 99.98C1.59031 100.35 2.07032 100.35 2.37032 99.98L4.88031 96.85L7.39031 99.98C7.69031 100.35 8.17031 100.35 8.47031 99.98L10.9803 96.85L13.4903 99.98C13.7903 100.35 14.2703 100.35 14.5703 99.98L17.0803 96.85L19.5903 99.98C19.8903 100.35 20.3703 100.35 20.6703 99.98L23.1803 96.85L25.6903 99.98C25.8403 100.17 26.0403 100.26 26.2403 100.26C26.4403 100.26 26.6403 100.17 26.7903 99.98L29.2803 96.86L31.7703 99.98C31.9203 100.17 32.1203 100.26 32.3203 100.26C32.5203 100.26 32.7203 100.17 32.8703 99.98L35.3803 96.85L37.8903 99.98C38.1903 100.35 38.6703 100.35 38.9703 99.98L41.4803 96.85L43.9003 99.87L43.9603 99.98C44.1103 100.17 44.3103 100.26 44.5103 100.25C44.7103 100.25 44.9103 100.17 45.0603 99.98L47.5503 96.87L50.0403 99.98C50.1903 100.17 50.3903 100.26 50.5903 100.25C50.7903 100.25 50.9903 100.17 51.1403 99.98L53.6303 96.87L56.1203 99.98C56.2703 100.17 56.4703 100.26 56.6703 100.25C56.8703 100.25 57.0703 100.17 57.2203 99.98L57.2803 99.87L59.7003 96.85L62.2103 99.98C62.5103 100.35 62.9903 100.35 63.2903 99.98L65.8003 96.85L68.3103 99.98C68.6103 100.35 69.0903 100.35 69.3903 99.98L71.9003 96.85L74.4103 99.98C74.7103 100.35 75.1903 100.35 75.4903 99.98C75.6403 99.79 75.7103 99.55 75.7103 99.31V1.2C75.7103 0.96 75.6403 0.71 75.4903 0.53Z" fill="white" stroke="#231F20" stroke-width="0.5" stroke-miterlimit="10"/>
<path d="M61.4305 22.0495C61.7405 22.0495 61.9005 21.9095 61.9005 21.6395V21.5095C61.9005 21.2495 61.7405 21.0995 61.4305 21.0995C61.1205 21.0995 60.9605 21.2395 60.9605 21.5095V21.6395C60.9605 21.8995 61.1205 22.0495 61.4305 22.0495ZM58.4505 22.0495C59.3605 22.0495 59.9305 21.6195 60.2505 20.8195L59.7405 20.4995C59.5405 21.1395 59.1705 21.4795 58.4505 21.4795C57.6005 21.4795 57.1205 20.8195 57.1205 19.7795V18.5295C57.1205 17.4995 57.6105 16.8295 58.4505 16.8295C59.1505 16.8295 59.5005 17.1595 59.7005 17.7595L60.2105 17.4495C59.8905 16.6595 59.3605 16.2695 58.4505 16.2695C57.1905 16.2695 56.4305 17.1695 56.4305 19.1595C56.4305 21.1495 57.1905 22.0495 58.4505 22.0495ZM54.5705 21.9495H55.3505V16.3695H54.7305V19.9895L54.7905 21.1395H54.7105L54.2205 19.9895L52.3705 16.3695H51.5905V21.9495H52.2105V18.3295L52.1505 17.1795H52.2305L52.7205 18.3295L54.5705 21.9495ZM50.4905 21.9495V21.4195H49.7905V16.8895H50.4905V16.3595H48.4405V16.8895H49.1405V21.4195H48.4405V21.9495H50.4905ZM45.3305 21.1095C45.0205 21.1095 44.8605 21.2495 44.8605 21.5195V21.6495C44.8605 21.8695 44.9605 21.9895 45.1705 22.0395C45.0905 22.4195 44.9105 22.6795 44.6205 23.0195H45.1205C45.5405 22.6295 45.8105 22.0695 45.8105 21.6495V21.5195C45.8105 21.2595 45.6505 21.1095 45.3405 21.1095H45.3305ZM43.3205 21.9495H44.0705L42.1105 18.7595L43.9505 16.3695H43.2105L41.8205 18.2295L41.0005 19.3795H40.9205L40.9705 18.2295V16.3695H40.3305V21.9495H40.9705V20.0995L41.7005 19.1895L43.3205 21.9595V21.9495ZM37.6205 22.0495C38.5305 22.0495 39.1005 21.6195 39.4205 20.8195L38.9105 20.4995C38.7105 21.1395 38.3405 21.4795 37.6205 21.4795C36.7705 21.4795 36.2905 20.8195 36.2905 19.7795V18.5295C36.2905 17.4995 36.7805 16.8295 37.6205 16.8295C38.3205 16.8295 38.6705 17.1595 38.8705 17.7595L39.3805 17.4495C39.0605 16.6595 38.5305 16.2695 37.6205 16.2695C36.3605 16.2695 35.6005 17.1695 35.6005 19.1595C35.6005 21.1495 36.3605 22.0495 37.6205 22.0495ZM32.6305 21.4795C31.7105 21.4795 31.1805 20.8195 31.1805 19.7795V18.5295C31.1805 17.4995 31.7105 16.8295 32.6305 16.8295C33.5505 16.8295 34.0805 17.4895 34.0805 18.5295V19.7795C34.0805 20.8095 33.5505 21.4795 32.6305 21.4795ZM32.6305 22.0495C33.9805 22.0495 34.7605 21.1495 34.7605 19.1595C34.7605 17.1695 33.9805 16.2695 32.6305 16.2695C31.2805 16.2695 30.5005 17.1695 30.5005 19.1595C30.5005 21.1495 31.2805 22.0495 32.6305 22.0495ZM30.1105 21.9495V21.3895H27.9905V16.3695H27.3505V21.9495H30.1105ZM24.8705 21.9495V19.7395L26.6005 16.3695H25.8905L24.6005 19.0195H24.5205L23.2305 16.3695H22.5005L24.2305 19.7395V21.9495H24.8705ZM21.4105 19.7495H19.7005L20.3305 17.6295L20.5105 16.9295H20.5905L20.7705 17.6295L21.4205 19.7495H21.4105ZM22.7105 21.9495L20.9605 16.3695H20.1605L18.4205 21.9495H19.0605L19.5605 20.2795H21.5705L22.0705 21.9495H22.7305H22.7105ZM15.6205 16.9295H17.0205C17.4905 16.9295 17.7305 17.1795 17.7305 17.6995V18.2295C17.7305 18.7495 17.4905 18.9995 17.0205 18.9995H15.6205V16.9395V16.9295ZM15.6205 21.9495V19.5495H17.0405C17.9505 19.5495 18.4205 19.0295 18.4205 17.9595C18.4205 16.8895 17.9505 16.3695 17.0405 16.3695H14.9805V21.9495H15.6205Z" fill="#231F20"/>
<path d="M56.9497 45.9496H57.8897V42.2596H55.5697V43.1696H56.8597V43.7796C56.8597 44.6396 56.1997 45.1296 55.3697 45.1296C54.3797 45.1296 53.7897 44.4496 53.7897 43.3096V41.6096C53.7897 40.4696 54.3797 39.7896 55.3697 39.7896C56.1897 39.7896 56.6597 40.2196 56.8997 40.8996L57.7697 40.3896C57.3397 39.4096 56.5897 38.8496 55.3597 38.8496C53.6797 38.8496 52.6497 39.9196 52.6497 42.4696C52.6497 45.0196 53.7297 46.0696 55.1597 46.0696C56.1497 46.0696 56.6997 45.5796 56.8297 44.9196H56.9497V45.9496ZM50.1597 45.9496H51.3897V38.9696H50.3697V43.1396L50.4497 44.4596H50.3197L49.7797 43.1596L47.6997 38.9696H46.4797V45.9496H47.4997V41.7796L47.4197 40.4596H47.5497L48.0797 41.7596L50.1597 45.9496ZM45.1997 45.9496V45.0996H44.3497V39.8196H45.1997V38.9696H42.4397V39.8196H43.2897V45.0996H42.4397V45.9496H45.1997ZM41.7297 39.9096V38.9796H36.9697V39.9096H38.8197V45.9596H39.8797V39.9096H41.7297ZM33.7097 45.1296C32.7097 45.1296 32.1397 44.4396 32.1397 43.2996V41.6196C32.1397 40.4796 32.7097 39.7896 33.7097 39.7896C34.7097 39.7896 35.2797 40.4796 35.2797 41.6196V43.2996C35.2797 44.4396 34.7097 45.1296 33.7097 45.1296ZM33.7097 46.0696C35.3897 46.0696 36.4197 44.9996 36.4197 42.4596C36.4197 39.9196 35.3897 38.8496 33.7097 38.8496C32.0297 38.8496 30.9997 39.9196 30.9997 42.4596C30.9997 44.9996 32.0297 46.0696 33.7097 46.0696ZM27.3097 45.1296C26.3097 45.1296 25.7397 44.4396 25.7397 43.2996V41.6196C25.7397 40.4796 26.3097 39.7896 27.3097 39.7896C28.3097 39.7896 28.8797 40.4796 28.8797 41.6196V43.2996C28.8797 44.4396 28.3097 45.1296 27.3097 45.1296ZM27.3097 46.0696C28.9897 46.0696 30.0197 44.9996 30.0197 42.4596C30.0197 39.9196 28.9897 38.8496 27.3097 38.8496C25.6297 38.8496 24.5997 39.9196 24.5997 42.4596C24.5997 44.9996 25.6297 46.0696 27.3097 46.0696ZM19.9897 39.9096H21.5597C22.0197 39.9096 22.2897 40.1496 22.2897 40.6996V41.1496C22.2897 41.6996 22.0197 41.9396 21.5597 41.9396H19.9897V39.9096ZM19.9897 42.8396H21.7297C22.2297 42.8396 22.5097 43.0996 22.5097 43.6996V44.1596C22.5097 44.7596 22.2297 45.0196 21.7297 45.0196H19.9897V42.8396ZM18.9297 45.9496H22.0397C23.0097 45.9496 23.6397 45.1396 23.6397 43.9396C23.6397 43.0196 23.0797 42.3696 22.2897 42.3696V42.2496C23.0097 42.1896 23.4097 41.6596 23.4097 40.7696C23.4097 39.6096 22.8397 38.9696 21.7597 38.9696H18.9297V45.9496Z" fill="#231F20"/>
<path d="M45.7297 57.9497V57.0197H42.7397V54.8597H45.4397V53.9397H42.7397V51.8997H45.7297V50.9697H41.6797V57.9497H45.7297ZM40.3697 57.9497V57.0197H37.3797V54.8597H40.0797V53.9397H37.3797V51.8997H40.3697V50.9697H36.3197V57.9497H40.3697ZM32.2397 57.9497V54.8597H34.7997V53.9397H32.2397V51.8997H35.1297V50.9697H31.1797V57.9497H32.2397Z" fill="#231F20"/>
<path d="M52.4696 72.1803H46.9796L46.6396 77.7003L48.3396 77.9203C48.5496 77.6003 48.9696 77.2103 49.6396 77.2103C50.4196 77.2103 50.9296 77.6303 50.9296 78.5803V79.0303C50.9296 80.0403 50.4796 80.5103 49.5996 80.5103C48.7896 80.5103 48.2096 79.9603 47.8296 79.1503L46.3896 80.2703C46.9096 81.2603 47.8596 82.1203 49.5996 82.1203C51.8796 82.1203 53.0296 80.8703 53.0296 78.6703C53.0296 76.4703 52.0096 75.5903 50.3796 75.5903C49.3696 75.5903 48.7396 76.1803 48.5296 77.0903H48.3096L48.5196 73.9203H52.4696V72.1703V72.1803ZM42.2596 74.1803H42.4796V78.5403H40.1696L42.2596 74.1803ZM44.3796 81.9503V80.1003H45.4996V78.5303H44.3796V72.1703H41.8296L38.6596 78.3903V80.1003H42.4796V81.9503H44.3696H44.3796ZM37.7896 81.9503V80.2703H35.8996V72.1703H33.8296L31.2696 73.8103L32.0796 75.1803L33.9396 73.9903V80.2703H31.7696V81.9503H37.7896ZM28.6196 79.1103C28.6196 79.7703 28.2996 80.1503 27.7096 80.2903V77.9103C28.3096 78.1103 28.6196 78.5003 28.6196 79.1103ZM25.6696 74.8903C25.6696 74.2203 25.9596 73.9103 26.5796 73.8103V75.9703C25.9796 75.7903 25.6696 75.4503 25.6696 74.8903ZM30.3896 78.8903C30.3896 77.4103 29.5896 76.7303 27.6996 76.2603V73.8203C28.2496 73.9003 28.7196 74.1303 29.0696 74.5603L30.2296 73.5103C29.6596 72.8103 28.8896 72.4303 27.8896 72.3203V71.0303H26.3796V72.3203C24.7296 72.5203 23.8596 73.4103 23.8596 75.0103C23.8596 76.4503 24.7696 77.2103 26.5796 77.6403V80.3303C25.8696 80.2503 25.2096 79.9403 24.7996 79.3803L23.5996 80.4603C24.2996 81.3303 25.2696 81.7303 26.3896 81.8303V83.1003H27.8996V81.8003C29.5196 81.5503 30.3896 80.5803 30.3896 78.8903Z" fill="#231F20"/>
<path d="M11.5195 30.2803H65.3395" stroke="#231F20" stroke-width="0.5" stroke-miterlimit="10" stroke-linecap="round"/>
</svg>
