<svg width="76" height="101" viewBox="0 0 76 101" fill="none" xmlns="http://www.w3.org/2000/svg">
<path d="M74.9197 0.570435C74.6197 0.350435 74.2197 0.450437 73.9697 0.760437L71.4997 3.85043L68.9897 0.720428C68.6897 0.350428 68.2097 0.350428 67.9097 0.720428L65.3997 3.85043L62.8897 0.720428C62.5897 0.350428 62.1097 0.350428 61.8097 0.720428L59.2997 3.85043L56.8797 0.830414L56.8197 0.720428C56.6697 0.530428 56.4697 0.440439 56.2697 0.450439C56.0697 0.450439 55.8697 0.530428 55.7197 0.720428L53.2297 3.83041L50.7397 0.720428C50.5897 0.530428 50.3897 0.440439 50.1897 0.450439C49.9897 0.450439 49.7897 0.530428 49.6397 0.720428L47.1497 3.83041L44.6597 0.720428C44.5097 0.530428 44.3097 0.440439 44.1097 0.450439C43.9097 0.450439 43.7097 0.530428 43.5597 0.720428L43.4997 0.830414L41.0797 3.85043L38.5697 0.720428C38.2697 0.350428 37.7897 0.350428 37.4897 0.720428L34.9797 3.85043L32.4697 0.720428C32.3197 0.530428 32.1197 0.44043 31.9197 0.44043C31.7197 0.44043 31.5197 0.530428 31.3697 0.720428L28.8797 3.84042L26.3897 0.720428C26.2397 0.530428 26.0397 0.44043 25.8397 0.44043C25.6397 0.44043 25.4397 0.530428 25.2897 0.720428L22.7797 3.85043L20.2697 0.720428C19.9697 0.350428 19.4897 0.350428 19.1897 0.720428L16.6797 3.85043L14.1697 0.720428C13.8697 0.350428 13.3897 0.350428 13.0897 0.720428L10.5797 3.85043L8.0697 0.720428C7.7697 0.350428 7.28969 0.350428 6.98969 0.720428L4.47971 3.85043L2.0097 0.760437C1.7597 0.450437 1.36969 0.340435 1.05969 0.570435C0.799692 0.760435 0.679688 1.08042 0.679688 1.40042V99.1904C0.679688 99.4604 0.769707 99.7304 0.949707 99.9204C1.25971 100.25 1.72968 100.18 2.01968 99.8204L4.48969 96.7404L6.99969 99.8704C7.29969 100.24 7.77968 100.24 8.07968 99.8704L10.5897 96.7404L13.0997 99.8704C13.3997 100.24 13.8797 100.24 14.1797 99.8704L16.6897 96.7404L19.1997 99.8704C19.4997 100.24 19.9797 100.24 20.2797 99.8704L22.7897 96.7404L25.2997 99.8704C25.4497 100.06 25.6497 100.15 25.8497 100.15C26.0497 100.15 26.2497 100.06 26.3997 99.8704L28.8897 96.7504L31.3797 99.8704C31.5297 100.06 31.7297 100.15 31.9297 100.15C32.1297 100.15 32.3297 100.06 32.4797 99.8704L34.9897 96.7404L37.4997 99.8704C37.7997 100.24 38.2797 100.24 38.5797 99.8704L41.0897 96.7404L43.5097 99.7604L43.5697 99.8704C43.7197 100.06 43.9197 100.15 44.1197 100.15C44.3197 100.15 44.5197 100.07 44.6697 99.8704L47.1597 96.7604L49.6497 99.8704C49.7997 100.06 49.9997 100.15 50.1997 100.15C50.3997 100.15 50.5997 100.07 50.7497 99.8704L53.2397 96.7604L55.7297 99.8704C55.8797 100.06 56.0797 100.15 56.2797 100.15C56.4797 100.15 56.6797 100.07 56.8297 99.8704L56.8897 99.7604L59.3097 96.7404L61.8197 99.8704C62.1197 100.24 62.5997 100.24 62.8997 99.8704L65.4097 96.7404L67.9197 99.8704C68.2197 100.24 68.6997 100.24 68.9997 99.8704L71.5097 96.7404L73.9797 99.8204C74.2697 100.18 74.7397 100.25 75.0497 99.9204C75.2297 99.7304 75.3197 99.4604 75.3197 99.1904V1.40042C75.3197 1.08042 75.1897 0.760435 74.9397 0.570435H74.9197Z" fill="white" stroke="#231F20" stroke-width="0.5" stroke-miterlimit="10"/>
<path d="M11.1191 30.4805H64.9291" stroke="#231F20" stroke-width="0.5" stroke-miterlimit="10" stroke-linecap="round"/>
<path d="M54.1797 21.3501C53.4097 21.3501 53.1097 20.7701 53.1097 19.7801V18.2401C53.1097 17.2601 53.4097 16.6701 54.1797 16.6701C54.9497 16.6701 55.2498 17.2501 55.2498 18.2401V19.7801C55.2498 20.7601 54.9497 21.3501 54.1797 21.3501ZM54.1797 21.9001C55.3897 21.9001 55.9197 21.0801 55.9197 19.0101C55.9197 16.9401 55.3797 16.1201 54.1797 16.1201C52.9797 16.1201 52.4398 16.9401 52.4398 19.0101C52.4398 21.0801 52.9797 21.9001 54.1797 21.9001ZM49.8597 21.3501C49.0897 21.3501 48.7898 20.7701 48.7898 19.7801V18.2401C48.7898 17.2601 49.0897 16.6701 49.8597 16.6701C50.6297 16.6701 50.9297 17.2501 50.9297 18.2401V19.7801C50.9297 20.7601 50.6297 21.3501 49.8597 21.3501ZM49.8597 21.9001C51.0697 21.9001 51.5998 21.0801 51.5998 19.0101C51.5998 16.9401 51.0597 16.1201 49.8597 16.1201C48.6597 16.1201 48.1198 16.9401 48.1198 19.0101C48.1198 21.0801 48.6597 21.9001 49.8597 21.9001ZM47.3198 21.8001V21.2401H46.0398V16.2201H45.3398L43.7598 17.2601L44.0298 17.7001L45.4098 16.8001V21.2401H44.0197V21.8001H47.3297H47.3198ZM42.3898 21.9001C42.6998 21.9001 42.8597 21.7601 42.8597 21.4901V21.3601C42.8597 21.1001 42.6998 20.9501 42.3898 20.9501C42.0798 20.9501 41.9198 21.0901 41.9198 21.3601V21.4901C41.9198 21.7501 42.0798 21.9001 42.3898 21.9001ZM40.9198 21.2401H38.2898L39.6797 19.7801C40.5097 18.9101 40.7397 18.4501 40.7397 17.7201C40.7397 16.6801 40.2497 16.1301 39.2097 16.1301C38.3497 16.1301 37.7897 16.6501 37.5797 17.3301L38.1398 17.5501C38.2798 17.0101 38.6298 16.6901 39.1998 16.6901C39.7698 16.6901 40.0698 17.0101 40.0698 17.6901V17.9001C40.0698 18.3601 39.8397 18.8301 39.2997 19.3801L37.6097 21.1401V21.8001H40.9297V21.2401H40.9198ZM34.6898 21.8001L36.5598 16.7801V16.2201H33.2397V17.8101H33.8098V16.7701H35.9098L34.0098 21.8001H34.6898ZM31.7598 21.9001C32.0698 21.9001 32.2298 21.7601 32.2298 21.4901V21.3601C32.2298 21.1001 32.0698 20.9501 31.7598 20.9501C31.4498 20.9501 31.2898 21.0901 31.2898 21.3601V21.4901C31.2898 21.7501 31.4498 21.9001 31.7598 21.9001ZM30.3898 21.8001V21.2401H29.1097V16.2201H28.4098L26.8297 17.2601L27.0998 17.7001L28.4798 16.8001V21.2401H27.0898V21.8001H30.3997H30.3898ZM26.0698 21.8001V21.2401H24.7898V16.2201H24.0898L22.5098 17.2601L22.7798 17.7001L24.1598 16.8001V21.2401H22.7697V21.8001H26.0797H26.0698Z" fill="#231F20"/>
<path d="M56.0994 45.8002V44.8702H53.1094V42.7102H55.8094V41.7902H53.1094V39.7502H56.0994V38.8202H52.0494V45.8002H56.0994ZM50.9995 45.8002V44.8702H48.4594V38.8202H47.3994V45.8002H50.9995ZM42.5095 39.7502H44.0794C44.5394 39.7502 44.8094 39.9902 44.8094 40.5402V40.9902C44.8094 41.5402 44.5394 41.7802 44.0794 41.7802H42.5095V39.7502ZM42.5095 42.6902H44.2495C44.7495 42.6902 45.0294 42.9502 45.0294 43.5502V44.0102C45.0294 44.6102 44.7495 44.8702 44.2495 44.8702H42.5095V42.6902ZM41.4495 45.8002H44.5594C45.5294 45.8002 46.1595 44.9902 46.1595 43.7902C46.1595 42.8702 45.5994 42.2202 44.8094 42.2202V42.1002C45.5294 42.0402 45.9294 41.5102 45.9294 40.6202C45.9294 39.4602 45.3594 38.8202 44.2794 38.8202H41.4495V45.8002ZM35.1995 38.8302V43.1802C35.1995 45.0802 35.8194 45.9302 37.5794 45.9302C39.3394 45.9302 39.9594 45.0802 39.9594 43.1802V38.8302H38.8994V43.3502C38.8994 44.4602 38.5594 44.9902 37.5794 44.9902C36.5994 44.9902 36.2595 44.4602 36.2595 43.3502V38.8302H35.1995ZM31.2895 44.9802C30.2895 44.9802 29.7195 44.2902 29.7195 43.1502V41.4702C29.7195 40.3302 30.2895 39.6402 31.2895 39.6402C32.2895 39.6402 32.8594 40.3302 32.8594 41.4702V43.1502C32.8594 44.2902 32.2895 44.9802 31.2895 44.9802ZM31.2895 45.9202C32.9695 45.9202 33.9995 44.8502 33.9995 42.3102C33.9995 39.7702 32.9695 38.7002 31.2895 38.7002C29.6095 38.7002 28.5794 39.7702 28.5794 42.3102C28.5794 44.8502 29.6095 45.9202 31.2895 45.9202ZM23.7495 44.8702V39.7502H24.9894C25.8994 39.7502 26.4594 40.3602 26.4594 41.5002V43.1202C26.4594 44.2602 25.8994 44.8702 24.9894 44.8702H23.7495ZM22.6895 45.8002H24.9894C26.6394 45.8002 27.5995 44.7702 27.5995 42.3102C27.5995 39.8502 26.6394 38.8202 24.9894 38.8202H22.6895V45.8002Z" fill="#231F20"/>
<path d="M52.2293 56.8703V51.7503H53.4693C54.3793 51.7503 54.9393 52.3603 54.9393 53.5003V55.1203C54.9393 56.2603 54.3793 56.8703 53.4693 56.8703H52.2293ZM51.1693 57.8003H53.4693C55.1193 57.8003 56.0793 56.7703 56.0793 54.3103C56.0793 51.8503 55.1193 50.8203 53.4693 50.8203H51.1693V57.8003ZM49.8593 57.8003V56.8703H46.8693V54.7103H49.5693V53.7903H46.8693V51.7503H49.8593V50.8203H45.8093V57.8003H49.8593ZM43.6193 57.8003H44.8693L42.4893 53.7803L44.7093 50.8203H43.4893L41.8493 53.1203L40.9593 54.4203H40.8293L40.8893 53.1203V50.8203H39.8293V57.8003H40.8893V55.6203L41.7593 54.5003L43.6193 57.8003ZM34.9693 54.0603V51.7503H36.5793C37.0793 51.7503 37.3493 52.0003 37.3493 52.5803V53.2303C37.3493 53.8103 37.0793 54.0603 36.5793 54.0603H34.9693ZM34.9693 54.9503H36.2193L37.4293 57.8003H38.6093L37.2793 54.8703C38.0693 54.6503 38.4793 53.9703 38.4793 52.8903C38.4793 51.5603 37.8593 50.8203 36.6693 50.8203H33.9093V57.8003H34.9693V54.9503ZM31.0693 55.0003H29.2293L29.8493 52.8003L30.0693 51.7803H30.1993L30.4193 52.8003L31.0693 55.0003ZM32.9293 57.8003L30.8293 50.8203H29.4793L27.3893 57.8003H28.4293L28.9693 55.8703H31.3193L31.8593 57.8003H32.9293ZM23.8393 51.7603H25.4493C25.9493 51.7603 26.2193 52.0103 26.2193 52.5803V53.2203C26.2193 53.7903 25.9493 54.0403 25.4493 54.0403H23.8393V51.7603ZM23.8393 57.8003V54.9803H25.5393C26.7293 54.9803 27.3493 54.2403 27.3493 52.9003C27.3493 51.5603 26.7293 50.8203 25.5393 50.8203H22.7793V57.8003H23.8393Z" fill="#231F20"/>
<path d="M47.1898 81.8001L49.9799 73.7501V72.0301H43.6999V75.3901H45.3799V73.6401H48.0298L45.0898 81.8101H47.1898V81.8001ZM39.4398 74.0301H39.6599V78.3901H37.3499L39.4398 74.0301ZM41.5498 81.8001V79.9501H42.6699V78.3801H41.5498V72.0201H38.9998L35.8298 78.2401V79.9501H39.6498V81.8001H41.5399H41.5498ZM33.3499 78.9601C33.3499 79.6201 33.0298 80.0001 32.4398 80.1401V77.7601C33.0398 77.9601 33.3499 78.3501 33.3499 78.9601ZM30.4099 74.7401C30.4099 74.0701 30.6999 73.7601 31.3199 73.6601V75.8201C30.7199 75.6401 30.4099 75.3001 30.4099 74.7401ZM35.1299 78.7301C35.1299 77.2501 34.3298 76.5701 32.4398 76.1001V73.6601C32.9898 73.7401 33.4598 73.9701 33.8098 74.4001L34.9698 73.3501C34.3998 72.6501 33.6299 72.2701 32.6299 72.1601V70.8701H31.1198V72.1601C29.4698 72.3601 28.5999 73.2501 28.5999 74.8501C28.5999 76.2901 29.5099 77.0501 31.3199 77.4801V80.1701C30.6099 80.0901 29.9499 79.7801 29.5399 79.2201L28.3398 80.3001C29.0398 81.1701 30.0099 81.5701 31.1299 81.6701V82.9401H32.6399V81.6401C34.2599 81.3901 35.1299 80.4201 35.1299 78.7301Z" fill="#231F20"/>
</svg>
