<svg width="76" height="111" viewBox="0 0 76 111" fill="none" xmlns="http://www.w3.org/2000/svg">
<path d="M75.2391 1.31007C74.9291 0.980074 74.4592 1.05008 74.1692 1.41008L71.6992 4.49008L69.1891 1.36008C68.8891 0.990077 68.4091 0.990077 68.1091 1.36008L65.5992 4.49008L63.0891 1.36008C62.7891 0.990077 62.3092 0.990077 62.0092 1.36008L59.4991 4.49008L57.0791 1.47008L57.0191 1.36008C56.8691 1.17008 56.6691 1.08007 56.4691 1.09007C56.2691 1.09007 56.0692 1.17008 55.9192 1.36008L53.4291 4.47008L50.9391 1.36008C50.7891 1.17008 50.5892 1.08007 50.3892 1.09007C50.1892 1.09007 49.9891 1.17008 49.8391 1.36008L47.3492 4.47008L44.8591 1.36008C44.7091 1.17008 44.5091 1.08007 44.3091 1.09007C44.1091 1.09007 43.9092 1.17008 43.7592 1.36008L43.6992 1.47008L41.2791 4.49008L38.7691 1.36008C38.4691 0.990077 37.9891 0.990077 37.6891 1.36008L35.1791 4.49008L32.6692 1.36008C32.5192 1.17008 32.3191 1.08008 32.1191 1.08008C31.9191 1.08008 31.7192 1.17008 31.5692 1.36008L29.0791 4.48007L26.5891 1.36008C26.4391 1.17008 26.2392 1.08008 26.0392 1.08008C25.8392 1.08008 25.6391 1.17008 25.4891 1.36008L22.9792 4.49008L20.4691 1.36008C20.1691 0.990077 19.6892 0.990077 19.3892 1.36008L16.8792 4.49008L14.3691 1.36008C14.0691 0.990077 13.5892 0.990077 13.2892 1.36008L10.7791 4.49008L8.26913 1.36008C7.96913 0.990077 7.48915 0.990077 7.18915 1.36008L4.67914 4.49008L2.20914 1.41008C1.91914 1.05008 1.44916 0.980074 1.13916 1.31007C0.95916 1.50007 0.869141 1.77007 0.869141 2.04007V109.77C0.869141 110.03 0.95915 110.3 1.12915 110.49C1.43915 110.83 1.92915 110.75 2.21915 110.39L4.66916 107.33H4.68915L7.16916 110.43C7.46916 110.81 7.95913 110.81 8.26913 110.43L10.7491 107.33H10.7691L13.2491 110.43C13.5491 110.81 14.0392 110.81 14.3492 110.43L16.8291 107.33H16.8492L19.3291 110.43C19.6291 110.81 20.1191 110.81 20.4291 110.43L22.9091 107.33H22.9291L25.4192 110.45C25.5692 110.64 25.7691 110.73 25.9691 110.73C26.1691 110.73 26.3691 110.64 26.5191 110.45L28.9991 107.35H29.0191L31.4991 110.45C31.6491 110.64 31.8491 110.73 32.0491 110.73C32.2491 110.73 32.4492 110.64 32.5992 110.45L35.0891 107.33H35.1091L37.5891 110.43C37.8891 110.81 38.3791 110.81 38.6891 110.43L41.1692 107.33H41.1891L43.5992 110.34L43.6591 110.45C43.8091 110.64 44.0091 110.73 44.2091 110.72C44.4091 110.72 44.6092 110.64 44.7592 110.45L47.2391 107.35H47.2592L49.7391 110.45C49.8891 110.64 50.0892 110.73 50.2892 110.72C50.4892 110.72 50.6891 110.64 50.8391 110.45L53.3192 107.35H53.3391L55.8192 110.45C55.9692 110.64 56.1691 110.73 56.3691 110.72C56.5691 110.72 56.7692 110.64 56.9192 110.45L56.9792 110.34L59.3892 107.33H59.4091L61.8892 110.43C62.1892 110.81 62.6791 110.81 62.9891 110.43L65.4691 107.33H65.4891L67.9691 110.43C68.2691 110.81 68.7592 110.81 69.0692 110.43L71.5491 107.33H71.5692L74.0191 110.39C74.3091 110.76 74.7991 110.83 75.1091 110.49C75.2791 110.3 75.3691 110.04 75.3691 109.77V2.04007C75.3691 1.77007 75.2792 1.50007 75.0992 1.31007H75.2391Z" fill="white" stroke="#231F20" stroke-width="0.5" stroke-miterlimit="10"/>
<path d="M54.4792 16.8598H51.7592L51.5791 19.9198L52.1191 19.9898C52.3091 19.7298 52.5391 19.5198 53.0191 19.5198C53.7191 19.5198 54.0392 19.9098 54.0392 20.6498V20.8398C54.0392 21.5798 53.7091 21.9698 53.0191 21.9698C52.4991 21.9698 52.1492 21.7098 51.8892 21.2298L51.4091 21.5898C51.6891 22.1198 52.2691 22.5298 53.0191 22.5298C54.0891 22.5298 54.7191 21.8798 54.7191 20.6898C54.7191 19.4998 54.1191 18.9598 53.2391 18.9598C52.6791 18.9598 52.3491 19.2398 52.2091 19.6198H52.1292L52.2691 17.4098H54.4792V16.8498V16.8598ZM48.4991 22.4398L50.3691 17.4198V16.8598H47.0491V18.4498H47.6191V17.4098H49.7191L47.8192 22.4398H48.4991ZM44.3991 21.9798C43.6291 21.9798 43.3291 21.3998 43.3291 20.4098V18.8698C43.3291 17.8898 43.6291 17.2998 44.3991 17.2998C45.1691 17.2998 45.4691 17.8798 45.4691 18.8698V20.4098C45.4691 21.3898 45.1691 21.9798 44.3991 21.9798ZM44.3991 22.5398C45.6091 22.5398 46.1392 21.7198 46.1392 19.6498C46.1392 17.5798 45.5991 16.7598 44.3991 16.7598C43.1991 16.7598 42.6591 17.5798 42.6591 19.6498C42.6591 21.7198 43.1991 22.5398 44.3991 22.5398ZM41.2491 22.5398C41.5591 22.5398 41.7191 22.3998 41.7191 22.1298V21.9998C41.7191 21.7398 41.5591 21.5898 41.2491 21.5898C40.9391 21.5898 40.7791 21.7298 40.7791 21.9998V22.1298C40.7791 22.3898 40.9391 22.5398 41.2491 22.5398ZM39.7791 21.8798H37.1491L38.5392 20.4198C39.3692 19.5498 39.5992 19.0898 39.5992 18.3598C39.5992 17.3198 39.1092 16.7698 38.0692 16.7698C37.2092 16.7698 36.6491 17.2898 36.4391 17.9698L36.9991 18.1898C37.1391 17.6498 37.4891 17.3298 38.0591 17.3298C38.6291 17.3298 38.9291 17.6498 38.9291 18.3298V18.5398C38.9291 18.9998 38.6991 19.4698 38.1591 20.0198L36.4591 21.7798V22.4398H39.7791V21.8798ZM33.5491 22.4398L35.4192 17.4198V16.8598H32.0992V18.4498H32.6692V17.4098H34.7691L32.8691 22.4398H33.5491ZM30.6191 22.5398C30.9291 22.5398 31.0891 22.3998 31.0891 22.1298V21.9998C31.0891 21.7398 30.9291 21.5898 30.6191 21.5898C30.3091 21.5898 30.1491 21.7298 30.1491 21.9998V22.1298C30.1491 22.3898 30.3091 22.5398 30.6191 22.5398ZM29.2592 22.4398V21.8798H27.9792V16.8598H27.2791L25.6992 17.8998L25.9691 18.3398L27.3492 17.4398V21.8798H25.9591V22.4398H29.2691H29.2592ZM24.9291 22.4398V21.8798H23.6491V16.8598H22.9492L21.3691 17.8998L21.6392 18.3398L23.0191 17.4398V21.8798H21.6292V22.4398H24.9391H24.9291Z" fill="#231F20"/>
<path d="M60.7097 45.5098V40.3898H61.9498C62.8598 40.3898 63.4198 40.9998 63.4198 42.1398V43.7598C63.4198 44.8998 62.8598 45.5098 61.9498 45.5098H60.7097ZM59.6497 46.4398H61.9498C63.5998 46.4398 64.5598 45.4098 64.5598 42.9498C64.5598 40.4898 63.5998 39.4599 61.9498 39.4599H59.6497V46.4398ZM58.3398 46.4398V45.5098H55.3498V43.3499H58.0497V42.4298H55.3498V40.3898H58.3398V39.4599H54.2898V46.4398H58.3398ZM53.2997 40.3898V39.4599H48.5398V40.3898H50.3898V46.4398H51.4498V40.3898H53.2997ZM45.7898 46.5598C46.9798 46.5598 47.6697 45.9898 48.1097 44.9698L47.2298 44.4498C46.9798 45.2698 46.5298 45.6299 45.7898 45.6299C44.8498 45.6299 44.2898 44.9298 44.2898 43.7898V42.1098C44.2898 40.9698 44.8498 40.2699 45.7898 40.2699C46.5198 40.2699 46.9298 40.5999 47.1698 41.3799L48.0698 40.8799C47.6398 39.8499 46.9798 39.3398 45.7898 39.3398C44.1698 39.3398 43.1497 40.4098 43.1497 42.9498C43.1497 45.4898 44.1698 46.5598 45.7898 46.5598ZM42.1497 46.4398V45.5898H41.2997V40.3098H42.1497V39.4599H39.3898V40.3098H40.2397V45.5898H39.3898V46.4398H42.1497ZM34.7997 42.6998V40.3898H36.4098C36.9098 40.3898 37.1797 40.6398 37.1797 41.2198V41.8698C37.1797 42.4498 36.9098 42.6998 36.4098 42.6998H34.7997ZM34.7997 43.5898H36.0497L37.2598 46.4398H38.4398L37.1097 43.5098C37.8997 43.2898 38.3098 42.6098 38.3098 41.5298C38.3098 40.1998 37.6898 39.4599 36.4998 39.4599H33.7397V46.4398H34.7997V43.5898ZM32.7498 40.3898V39.4599H27.9897V40.3898H29.8398V46.4398H30.8997V40.3898H32.7498ZM25.1797 46.5598C26.6397 46.5598 27.4897 45.8098 27.4897 44.4198C27.4897 43.2598 26.9698 42.7198 25.6398 42.4198L25.0698 42.2898C24.3998 42.1298 24.1097 41.8598 24.1097 41.2798C24.1097 40.5698 24.4898 40.2699 25.2498 40.2699C25.9198 40.2699 26.3398 40.5198 26.6998 41.0298L27.4297 40.3898C26.9297 39.6698 26.2597 39.3398 25.2697 39.3398C23.8797 39.3398 23.0497 40.0198 23.0497 41.3098C23.0497 42.4198 23.6298 43.0098 24.8798 43.2898L25.4498 43.4099C26.1598 43.5799 26.4297 43.8799 26.4297 44.4899C26.4297 45.2499 25.9998 45.6299 25.1898 45.6299C24.5098 45.6299 23.9798 45.3099 23.5698 44.7399L22.8398 45.4099C23.3798 46.1499 24.1497 46.5598 25.1797 46.5598ZM21.9798 46.4398V45.5098H18.9897V43.3499H21.6898V42.4298H18.9897V40.3898H21.9798V39.4599H17.9297V46.4398H21.9798ZM13.0698 42.6998V40.3898H14.6797C15.1797 40.3898 15.4498 40.6398 15.4498 41.2198V41.8698C15.4498 42.4498 15.1797 42.6998 14.6797 42.6998H13.0698ZM13.0698 43.5898H14.3198L15.5298 46.4398H16.7097L15.3798 43.5098C16.1698 43.2898 16.5797 42.6098 16.5797 41.5298C16.5797 40.1998 15.9597 39.4599 14.7697 39.4599H12.0098V46.4398H13.0698V43.5898Z" fill="#231F20"/>
<path d="M66.8904 58.4398V57.5098H64.3504V51.4599H63.2904V58.4398H66.8904ZM60.4604 55.6398H58.6204L59.2404 53.4398L59.4604 52.4198H59.5904L59.8104 53.4398L60.4604 55.6398ZM62.3104 58.4398L60.2104 51.4599H58.8604L56.7704 58.4398H57.8104L58.3504 56.5098H60.7004L61.2404 58.4398H62.3104ZM56.0504 58.4398V57.5898H55.2004V52.3098H56.0504V51.4599H53.2904V52.3098H54.1404V57.5898H53.2904V58.4398H56.0504ZM50.2004 58.5598C51.3904 58.5598 52.0804 57.9898 52.5204 56.9698L51.6404 56.4498C51.3904 57.2698 50.9404 57.6299 50.2004 57.6299C49.2604 57.6299 48.7004 56.9298 48.7004 55.7898V54.1098C48.7004 52.9698 49.2604 52.2699 50.2004 52.2699C50.9304 52.2699 51.3404 52.5999 51.5804 53.3799L52.4804 52.8799C52.0504 51.8499 51.3904 51.3398 50.2004 51.3398C48.5804 51.3398 47.5604 52.4098 47.5604 54.9498C47.5604 57.4898 48.5804 58.5598 50.2004 58.5598ZM43.0704 54.6998V52.3898H44.6804C45.1804 52.3898 45.4504 52.6398 45.4504 53.2198V53.8698C45.4504 54.4498 45.1804 54.6998 44.6804 54.6998H43.0704ZM43.0704 55.5898H44.3204L45.5304 58.4398H46.7104L45.3804 55.5098C46.1704 55.2898 46.5804 54.6098 46.5804 53.5298C46.5804 52.1998 45.9604 51.4599 44.7704 51.4599H42.0104V58.4398H43.0704V55.5898ZM40.6904 58.4398V57.5098H37.7004V55.3499H40.4004V54.4298H37.7004V52.3898H40.6904V51.4599H36.6404V58.4398H40.6904ZM34.0804 58.4398H35.1004V51.4599H33.8604L32.7404 53.8998L32.2504 55.2798H32.1604L31.6704 53.8998L30.5404 51.4599H29.2904V58.4398H30.3104V54.1398L30.2404 52.9698H30.3604L30.8404 54.1198L32.1904 56.9599L33.5504 54.1198L34.0304 52.9498H34.1504L34.0804 54.1398V58.4398ZM26.7304 58.4398H27.7504V51.4599H26.5104L25.3904 53.8998L24.9004 55.2798H24.8104L24.3204 53.8998L23.1904 51.4599H21.9404V58.4398H22.9604V54.1398L22.8904 52.9698H23.0104L23.4904 54.1198L24.8404 56.9599L26.2004 54.1198L26.6804 52.9498H26.8004L26.7304 54.1398V58.4398ZM17.9804 57.6198C16.9804 57.6198 16.4104 56.9298 16.4104 55.7898V54.1098C16.4104 52.9698 16.9804 52.2798 17.9804 52.2798C18.9804 52.2798 19.5504 52.9698 19.5504 54.1098V55.7898C19.5504 56.9298 18.9804 57.6198 17.9804 57.6198ZM17.9804 58.5598C19.6604 58.5598 20.6904 57.4898 20.6904 54.9498C20.6904 52.4098 19.6604 51.3398 17.9804 51.3398C16.3004 51.3398 15.2704 52.4098 15.2704 54.9498C15.2704 57.4898 16.3004 58.5598 17.9804 58.5598ZM12.2904 58.5598C13.4804 58.5598 14.1704 57.9898 14.6104 56.9698L13.7304 56.4498C13.4804 57.2698 13.0304 57.6299 12.2904 57.6299C11.3504 57.6299 10.7904 56.9298 10.7904 55.7898V54.1098C10.7904 52.9698 11.3504 52.2699 12.2904 52.2699C13.0204 52.2699 13.4304 52.5999 13.6704 53.3799L14.5704 52.8799C14.1404 51.8499 13.4804 51.3398 12.2904 51.3398C10.6704 51.3398 9.65039 52.4098 9.65039 54.9498C9.65039 57.4898 10.6704 58.5598 12.2904 58.5598Z" fill="#231F20"/>
<path d="M61.7591 70.4398V69.5098H58.769V67.3499H61.4691V66.4298H58.769V64.3898H61.7591V63.4599H57.709V70.4398H61.7591ZM54.9391 70.4398H56.1691V63.4599H55.149V67.6299L55.2291 68.9498H55.0991L54.5591 67.6498L52.4791 63.4599H51.2591V70.4398H52.2791V66.2699L52.1991 64.9498H52.329L52.859 66.2498L54.9391 70.4398ZM47.2891 69.6198C46.2891 69.6198 45.7191 68.9298 45.7191 67.7898V66.1098C45.7191 64.9698 46.2891 64.2798 47.2891 64.2798C48.2891 64.2798 48.859 64.9698 48.859 66.1098V67.7898C48.859 68.9298 48.2891 69.6198 47.2891 69.6198ZM47.2891 70.5598C48.9691 70.5598 49.9991 69.4898 49.9991 66.9498C49.9991 64.4098 48.9691 63.3398 47.2891 63.3398C45.6091 63.3398 44.579 64.4098 44.579 66.9498C44.579 69.4898 45.6091 70.5598 47.2891 70.5598ZM43.8791 69.5098H40.4191L43.769 64.4099V63.4599H39.3791V64.3898H42.5691L39.2191 69.4899V70.4398H43.8791V69.5098ZM32.4191 69.5098V64.3898H33.6591C34.5691 64.3898 35.1291 64.9998 35.1291 66.1398V67.7598C35.1291 68.8998 34.5691 69.5098 33.6591 69.5098H32.4191ZM31.359 70.4398H33.6591C35.3091 70.4398 36.269 69.4098 36.269 66.9498C36.269 64.4898 35.3091 63.4599 33.6591 63.4599H31.359V70.4398ZM28.519 67.6398H26.679L27.299 65.4398L27.519 64.4198H27.649L27.869 65.4398L28.519 67.6398ZM30.3791 70.4398L28.2791 63.4599H26.929L24.8391 70.4398H25.8791L26.4191 68.5098H28.769L29.3091 70.4398H30.3791ZM21.6291 69.6198C20.6291 69.6198 20.0591 68.9298 20.0591 67.7898V66.1098C20.0591 64.9698 20.6291 64.2798 21.6291 64.2798C22.6291 64.2798 23.1991 64.9698 23.1991 66.1098V67.7898C23.1991 68.9298 22.6291 69.6198 21.6291 69.6198ZM21.6291 70.5598C23.3091 70.5598 24.3391 69.4898 24.3391 66.9498C24.3391 64.4098 23.3091 63.3398 21.6291 63.3398C19.9491 63.3398 18.9191 64.4098 18.9191 66.9498C18.9191 69.4898 19.9491 70.5598 21.6291 70.5598ZM18.3891 70.4398V69.5098H15.8491V63.4599H14.7891V70.4398H18.3891Z" fill="#231F20"/>
<path d="M44.3892 88.5998V90.2098H45.1592C46.0992 90.2098 46.6592 90.6898 46.6592 91.3398V91.7898C46.6592 92.4898 46.1692 92.9898 45.3392 92.9898C44.4292 92.9898 43.8792 92.4198 43.5192 91.5998L42.0592 92.7198C42.6092 93.7098 43.5892 94.5998 45.3492 94.5998C47.4392 94.5998 48.7292 93.4498 48.7292 91.5598C48.7292 90.1998 47.9692 89.6398 46.9092 89.4598V89.2398C47.8092 89.0698 48.5492 88.3698 48.5492 87.0498C48.5492 85.3098 47.3892 84.4898 45.4792 84.4898C44.1492 84.4898 43.0392 85.0498 42.3392 86.1298L43.5692 87.2598C44.0492 86.4998 44.6192 86.0998 45.3592 86.0998C46.0992 86.0998 46.4892 86.5298 46.4892 87.0798V87.5298C46.4892 88.0198 46.0992 88.5898 45.1892 88.5898H44.3792L44.3892 88.5998ZM40.9492 84.6598H35.4592L35.1192 90.1798L36.8192 90.3998C37.0292 90.0798 37.4492 89.6898 38.1192 89.6898C38.8992 89.6898 39.4092 90.1098 39.4092 91.0598V91.5098C39.4092 92.5198 38.9592 92.9898 38.0792 92.9898C37.2692 92.9898 36.6892 92.4398 36.3092 91.6298L34.8692 92.7498C35.3892 93.7398 36.3392 94.5998 38.0792 94.5998C40.3592 94.5998 41.5092 93.3498 41.5092 91.1498C41.5092 88.9498 40.4892 88.0698 38.8592 88.0698C37.8492 88.0698 37.2192 88.6598 37.0092 89.5698H36.7892L36.9992 86.3998H40.9492V84.6498V84.6598ZM32.2092 91.5998C32.2092 92.2598 31.8892 92.6398 31.2992 92.7798V90.3998C31.8992 90.5998 32.2092 90.9898 32.2092 91.5998ZM29.2692 87.3798C29.2692 86.7098 29.5592 86.3998 30.1792 86.2998V88.4598C29.5792 88.2798 29.2692 87.9398 29.2692 87.3798ZM33.9892 91.3698C33.9892 89.8898 33.1892 89.2098 31.2992 88.7398V86.2998C31.8492 86.3798 32.3192 86.6098 32.6692 87.0398L33.8292 85.9898C33.2492 85.2898 32.4892 84.9098 31.4892 84.7998V83.5098H29.9792V84.7998C28.3292 84.9998 27.4592 85.8898 27.4592 87.4898C27.4592 88.9298 28.3692 89.6898 30.1792 90.1198V92.8098C29.4692 92.7298 28.8092 92.4198 28.3992 91.8598L27.1992 92.9398C27.8992 93.8098 28.8692 94.2098 29.9892 94.3098V95.5798H31.4992V94.2798C33.1192 94.0298 33.9892 93.0598 33.9892 91.3698Z" fill="#231F20"/>
<path d="M11.3203 31.1104H65.1403" stroke="#231F20" stroke-width="0.5" stroke-miterlimit="10" stroke-linecap="round"/>
</svg>
