<svg width="76" height="111" viewBox="0 0 76 111" fill="none" xmlns="http://www.w3.org/2000/svg">
<path d="M75.2391 0.48C74.9291 0.15 74.4592 0.22 74.1692 0.58L71.6992 3.66L69.1891 0.53C68.8891 0.16 68.4091 0.16 68.1091 0.53L65.5992 3.66L63.0891 0.53C62.7891 0.16 62.3092 0.16 62.0092 0.53L59.4991 3.66L57.0791 0.64L57.0191 0.53C56.8691 0.34 56.6691 0.25 56.4691 0.26C56.2691 0.26 56.0692 0.34 55.9192 0.53L53.4291 3.64L50.9391 0.53C50.7891 0.34 50.5892 0.25 50.3892 0.26C50.1892 0.26 49.9891 0.34 49.8391 0.53L47.3492 3.64L44.8591 0.53C44.7091 0.34 44.5091 0.25 44.3091 0.26C44.1091 0.26 43.9092 0.34 43.7592 0.53L43.6992 0.64L41.2791 3.66L38.7691 0.53C38.4691 0.16 37.9891 0.16 37.6891 0.53L35.1791 3.66L32.6692 0.53C32.5192 0.34 32.3191 0.25 32.1191 0.25C31.9191 0.25 31.7192 0.34 31.5692 0.53L29.0791 3.65L26.5891 0.53C26.4391 0.34 26.2392 0.25 26.0392 0.25C25.8392 0.25 25.6391 0.34 25.4891 0.53L22.9792 3.66L20.4691 0.53C20.1691 0.16 19.6892 0.16 19.3892 0.53L16.8792 3.66L14.3691 0.53C14.0691 0.16 13.5892 0.16 13.2892 0.53L10.7791 3.66L8.26913 0.53C7.96913 0.16 7.48915 0.16 7.18915 0.53L4.67914 3.66L2.20914 0.58C1.91914 0.22 1.44916 0.15 1.13916 0.48C0.95916 0.67 0.869141 0.94 0.869141 1.21V108.94C0.869141 109.2 0.95915 109.47 1.12915 109.66C1.43915 110 1.92915 109.92 2.21915 109.56L4.66916 106.5H4.68915L7.16916 109.6C7.46916 109.98 7.95913 109.98 8.26913 109.6L10.7491 106.5H10.7691L13.2491 109.6C13.5491 109.98 14.0392 109.98 14.3492 109.6L16.8291 106.5H16.8492L19.3291 109.6C19.6291 109.98 20.1191 109.98 20.4291 109.6L22.9091 106.5H22.9291L25.4192 109.62C25.5692 109.81 25.7691 109.9 25.9691 109.9C26.1691 109.9 26.3691 109.81 26.5191 109.62L28.9991 106.52H29.0191L31.4991 109.62C31.6491 109.81 31.8491 109.9 32.0491 109.9C32.2491 109.9 32.4492 109.81 32.5992 109.62L35.0891 106.5H35.1091L37.5891 109.6C37.8891 109.98 38.3791 109.98 38.6891 109.6L41.1692 106.5H41.1891L43.5992 109.51L43.6591 109.62C43.8091 109.81 44.0091 109.9 44.2091 109.89C44.4091 109.89 44.6092 109.81 44.7592 109.62L47.2391 106.52H47.2592L49.7391 109.62C49.8891 109.81 50.0892 109.9 50.2892 109.89C50.4892 109.89 50.6891 109.81 50.8391 109.62L53.3192 106.52H53.3391L55.8192 109.62C55.9692 109.81 56.1691 109.9 56.3691 109.89C56.5691 109.89 56.7692 109.81 56.9192 109.62L56.9792 109.51L59.3892 106.5H59.4091L61.8892 109.6C62.1892 109.98 62.6791 109.98 62.9891 109.6L65.4691 106.5H65.4891L67.9691 109.6C68.2691 109.98 68.7592 109.98 69.0692 109.6L71.5491 106.5H71.5692L74.0191 109.56C74.3091 109.93 74.7991 110 75.1091 109.66C75.2791 109.47 75.3691 109.21 75.3691 108.94V1.2C75.3691 0.93 75.2792 0.66 75.0992 0.47L75.2391 0.48Z" fill="white" stroke="#231F20" stroke-width="0.5" stroke-miterlimit="10"/>
<path d="M54.4792 16.0197H51.7592L51.5791 19.0797L52.1191 19.1497C52.3091 18.8897 52.5391 18.6797 53.0191 18.6797C53.7191 18.6797 54.0392 19.0697 54.0392 19.8097V19.9997C54.0392 20.7397 53.7091 21.1297 53.0191 21.1297C52.4991 21.1297 52.1492 20.8697 51.8892 20.3897L51.4091 20.7497C51.6891 21.2797 52.2691 21.6897 53.0191 21.6897C54.0891 21.6897 54.7191 21.0397 54.7191 19.8497C54.7191 18.6597 54.1191 18.1197 53.2391 18.1197C52.6791 18.1197 52.3491 18.3997 52.2091 18.7797H52.1292L52.2691 16.5697H54.4792V16.0097V16.0197ZM49.1591 16.5297H49.2391V19.9697H47.4192L49.1591 16.5297ZM49.8492 21.5997V20.4997H50.5692V19.9597H49.8492V16.0097H48.9091L46.8291 19.9297V20.4997H49.2391V21.5997H49.8492ZM46.1791 21.5997V21.0397H44.8991V16.0197H44.1992L42.6191 17.0597L42.8892 17.4997L44.2691 16.5997V21.0397H42.8792V21.5997H46.1891H46.1791ZM41.2491 21.6997C41.5591 21.6997 41.7191 21.5597 41.7191 21.2897V21.1597C41.7191 20.8997 41.5591 20.7497 41.2491 20.7497C40.9391 20.7497 40.7791 20.8897 40.7791 21.1597V21.2897C40.7791 21.5497 40.9391 21.6997 41.2491 21.6997ZM39.7791 21.0397H37.1491L38.5392 19.5797C39.3692 18.7097 39.5992 18.2497 39.5992 17.5197C39.5992 16.4797 39.1092 15.9297 38.0692 15.9297C37.2092 15.9297 36.6491 16.4497 36.4391 17.1297L36.9991 17.3497C37.1391 16.8097 37.4891 16.4897 38.0591 16.4897C38.6291 16.4897 38.9291 16.8097 38.9291 17.4897V17.6997C38.9291 18.1597 38.6991 18.6297 38.1591 19.1797L36.4591 20.9397V21.5997H39.7791V21.0397ZM33.5491 21.5997L35.4192 16.5797V16.0197H32.0992V17.6097H32.6692V16.5697H34.7691L32.8691 21.5997H33.5491ZM30.6191 21.6997C30.9291 21.6997 31.0891 21.5597 31.0891 21.2897V21.1597C31.0891 20.8997 30.9291 20.7497 30.6191 20.7497C30.3091 20.7497 30.1491 20.8897 30.1491 21.1597V21.2897C30.1491 21.5497 30.3091 21.6997 30.6191 21.6997ZM29.2592 21.5997V21.0397H27.9792V16.0197H27.2791L25.6992 17.0597L25.9691 17.4997L27.3492 16.5997V21.0397H25.9591V21.5997H29.2691H29.2592ZM24.9291 21.5997V21.0397H23.6491V16.0197H22.9492L21.3691 17.0597L21.6392 17.4997L23.0191 16.5997V21.0397H21.6292V21.5997H24.9391H24.9291Z" fill="#231F20"/>
<path d="M56.0994 47.1102L58.6194 38.2002H57.7494L55.2294 47.1102H56.0994ZM51.0394 44.6702V39.5502H52.2794C53.1894 39.5502 53.7494 40.1602 53.7494 41.3002V42.9202C53.7494 44.0602 53.1894 44.6702 52.2794 44.6702H51.0394ZM49.9794 45.6002H52.2794C53.9294 45.6002 54.8894 44.5702 54.8894 42.1102C54.8894 39.6502 53.9294 38.6202 52.2794 38.6202H49.9794V45.6002ZM48.6694 45.6002V44.6702H45.6794V42.5102H48.3794V41.5902H45.6794V39.5502H48.6694V38.6202H44.6194V45.6002H48.6694ZM39.7594 41.8702V39.5602H41.3694C41.8694 39.5602 42.1394 39.8102 42.1394 40.3902V41.0402C42.1394 41.6202 41.8694 41.8702 41.3694 41.8702H39.7594ZM39.7594 42.7602H41.0094L42.2194 45.6102H43.3994L42.0694 42.6802C42.8594 42.4602 43.2694 41.7802 43.2694 40.7002C43.2694 39.3702 42.6494 38.6302 41.4594 38.6302H38.6994V45.6102H39.7594V42.7602ZM37.4194 45.6002V44.7502H36.5694V39.4702H37.4194V38.6202H34.6594V39.4702H35.5094V44.7502H34.6594V45.6002H37.4194ZM30.3094 39.5702H31.9194C32.4194 39.5702 32.6894 39.8202 32.6894 40.3902V41.0302C32.6894 41.6002 32.4194 41.8502 31.9194 41.8502H30.3094V39.5702ZM30.3094 45.6002V42.7802H32.0094C33.1994 42.7802 33.8194 42.0402 33.8194 40.7002C33.8194 39.3602 33.1994 38.6202 32.0094 38.6202H29.2494V45.6002H30.3094ZM26.2594 42.0302L28.2194 38.6302H27.0694L25.6794 41.1802H25.5594L24.2094 38.6302H22.9694L24.9094 42.0502L22.8794 45.6102H24.0394L25.4894 42.8902H25.6094L27.0694 45.6102H28.2994L26.2594 42.0302ZM22.1594 45.6002V44.6702H19.1694V42.5102H21.8694V41.5902H19.1694V39.5502H22.1594V38.6202H18.1094V45.6002H22.1594Z" fill="#231F20"/>
<path d="M57.0992 53.87V51.56H58.7092C59.2092 51.56 59.4792 51.81 59.4792 52.39V53.04C59.4792 53.62 59.2092 53.87 58.7092 53.87H57.0992ZM57.0992 54.76H58.3492L59.5592 57.61H60.7392L59.4092 54.68C60.1992 54.46 60.6092 53.78 60.6092 52.7C60.6092 51.37 59.9892 50.63 58.7992 50.63H56.0392V57.61H57.0992V54.76ZM54.7292 57.6V56.67H51.7392V54.51H54.4392V53.59H51.7392V51.55H54.7292V50.62H50.6792V57.6H54.7292ZM46.0592 51.57H47.6692C48.1692 51.57 48.4392 51.82 48.4392 52.39V53.03C48.4392 53.6 48.1692 53.85 47.6692 53.85H46.0592V51.57ZM46.0592 57.6V54.78H47.7592C48.9492 54.78 49.5692 54.04 49.5692 52.7C49.5692 51.36 48.9492 50.62 47.7592 50.62H44.9992V57.6H46.0592ZM41.0292 56.78C40.0292 56.78 39.4592 56.09 39.4592 54.95V53.27C39.4592 52.13 40.0292 51.44 41.0292 51.44C42.0292 51.44 42.5992 52.13 42.5992 53.27V54.95C42.5992 56.09 42.0292 56.78 41.0292 56.78ZM41.0292 57.72C42.7092 57.72 43.7392 56.65 43.7392 54.11C43.7392 51.57 42.7092 50.5 41.0292 50.5C39.3492 50.5 38.3192 51.57 38.3192 54.11C38.3192 56.65 39.3492 57.72 41.0292 57.72ZM33.8292 53.87V51.56H35.4392C35.9392 51.56 36.2092 51.81 36.2092 52.39V53.04C36.2092 53.62 35.9392 53.87 35.4392 53.87H33.8292ZM33.8292 54.76H35.0792L36.2892 57.61H37.4692L36.1392 54.68C36.9292 54.46 37.3392 53.78 37.3392 52.7C37.3392 51.37 36.7192 50.63 35.5292 50.63H32.7692V57.61H33.8292V54.76ZM28.1492 51.57H29.7592C30.2592 51.57 30.5292 51.82 30.5292 52.39V53.03C30.5292 53.6 30.2592 53.85 29.7592 53.85H28.1492V51.57ZM28.1492 57.6V54.78H29.8492C31.0392 54.78 31.6592 54.04 31.6592 52.7C31.6592 51.36 31.0392 50.62 29.8492 50.62H27.0892V57.6H28.1492ZM24.5292 57.6H25.5492V50.62H24.3092L23.1892 53.06L22.6992 54.44H22.6092L22.1192 53.06L20.9892 50.62H19.7392V57.6H20.7592V53.3L20.6892 52.13H20.8092L21.2892 53.28L22.6392 56.12L23.9992 53.28L24.4792 52.11H24.5992L24.5292 53.3V57.6ZM18.4592 57.6V56.75H17.6092V51.47H18.4592V50.62H15.6992V51.47H16.5492V56.75H15.6992V57.6H18.4592Z" fill="#231F20"/>
<path d="M51.3297 69.72C52.7897 69.72 53.6398 68.97 53.6398 67.58C53.6398 66.42 53.1198 65.88 51.7898 65.58L51.2198 65.45C50.5498 65.29 50.2598 65.02 50.2598 64.44C50.2598 63.73 50.6397 63.43 51.3997 63.43C52.0697 63.43 52.4898 63.68 52.8498 64.19L53.5797 63.55C53.0797 62.83 52.4098 62.5 51.4198 62.5C50.0298 62.5 49.1998 63.18 49.1998 64.47C49.1998 65.58 49.7798 66.17 51.0298 66.45L51.5998 66.57C52.3098 66.74 52.5797 67.04 52.5797 67.65C52.5797 68.41 52.1498 68.79 51.3398 68.79C50.6598 68.79 50.1298 68.47 49.7198 67.9L48.9897 68.57C49.5297 69.31 50.2997 69.72 51.3297 69.72ZM48.1298 69.6V68.67H45.1398V66.51H47.8398V65.59H45.1398V63.55H48.1298V62.62H44.0797V69.6H48.1298ZM43.0898 63.56V62.63H38.3297V63.56H40.1797V69.61H41.2397V63.56H43.0898ZM36.6298 66.81H34.7898L35.4098 64.61L35.6298 63.59H35.7598L35.9798 64.61L36.6298 66.81ZM38.4897 69.6L36.3898 62.62H35.0398L32.9498 69.6H33.9897L34.5298 67.67H36.8798L37.4198 69.6H38.4897ZM32.2898 69.6V68.67H29.7498V62.62H28.6898V69.6H32.2898ZM24.0698 63.57H25.6797C26.1797 63.57 26.4498 63.82 26.4498 64.39V65.03C26.4498 65.6 26.1797 65.85 25.6797 65.85H24.0698V63.57ZM24.0698 69.6V66.78H25.7697C26.9597 66.78 27.5797 66.04 27.5797 64.7C27.5797 63.36 26.9597 62.62 25.7697 62.62H23.0098V69.6H24.0698Z" fill="#231F20"/>
<path d="M46.0492 93.5997L48.8392 85.5497V83.8297H42.5592V87.1897H44.2392V85.4397H46.8892L43.9492 93.6097H46.0492V93.5997ZM38.2992 85.8297H38.5192V90.1897H36.2092L38.2992 85.8297ZM40.4092 93.5997V91.7497H41.5292V90.1797H40.4092V83.8197H37.8592L34.6892 90.0397V91.7497H38.5092V93.5997H40.3992H40.4092ZM32.2092 90.7597C32.2092 91.4197 31.8892 91.7997 31.2992 91.9397V89.5597C31.8992 89.7597 32.2092 90.1497 32.2092 90.7597ZM29.2692 86.5397C29.2692 85.8697 29.5592 85.5597 30.1792 85.4597V87.6197C29.5792 87.4397 29.2692 87.0997 29.2692 86.5397ZM33.9892 90.5397C33.9892 89.0597 33.1892 88.3797 31.2992 87.9097V85.4697C31.8492 85.5497 32.3192 85.7797 32.6692 86.2097L33.8292 85.1597C33.2492 84.4597 32.4892 84.0797 31.4892 83.9697V82.6797H29.9792V83.9697C28.3292 84.1697 27.4592 85.0597 27.4592 86.6597C27.4592 88.0997 28.3692 88.8597 30.1792 89.2897V91.9797C29.4692 91.8997 28.8092 91.5897 28.3992 91.0297L27.1992 92.1097C27.8992 92.9797 28.8692 93.3797 29.9892 93.4797V94.7497H31.4992V93.4497C33.1192 93.1997 33.9892 92.2297 33.9892 90.5397Z" fill="#231F20"/>
<path d="M11.3203 30.2803H65.1403" stroke="#231F20" stroke-width="0.5" stroke-miterlimit="10" stroke-linecap="round"/>
</svg>
