<svg width="76" height="125" viewBox="0 0 76 125" fill="none" xmlns="http://www.w3.org/2000/svg">
<path d="M74.9297 0.53C74.6297 0.16 74.1497 0.16 73.8497 0.53L71.3398 3.66L68.8298 0.53C68.5298 0.16 68.0498 0.16 67.7498 0.53L65.2397 3.66L62.7297 0.53C62.4297 0.16 61.9498 0.16 61.6498 0.53L59.1398 3.66L56.7197 0.64L56.6597 0.53C56.5097 0.34 56.3097 0.25 56.1097 0.26C55.9097 0.26 55.7098 0.34 55.5598 0.53L53.0698 3.64L50.5798 0.53C50.4298 0.34 50.2298 0.25 50.0298 0.26C49.8298 0.26 49.6297 0.34 49.4797 0.53L46.9897 3.64L44.4998 0.53C44.3498 0.34 44.1498 0.25 43.9498 0.26C43.7498 0.26 43.5498 0.34 43.3998 0.53L43.3398 0.64L40.9197 3.66L38.4097 0.53C38.1097 0.16 37.6298 0.16 37.3298 0.53L34.8198 3.66L32.3098 0.53C32.1598 0.34 31.9598 0.25 31.7598 0.25C31.5598 0.25 31.3598 0.34 31.2098 0.53L28.7197 3.65L26.2297 0.53C26.0797 0.34 25.8797 0.25 25.6797 0.25C25.4797 0.25 25.2798 0.34 25.1298 0.53L22.6198 3.66L20.1097 0.53C19.8097 0.16 19.3298 0.16 19.0298 0.53L16.5198 3.66L14.0098 0.53C13.7098 0.16 13.2297 0.16 12.9297 0.53L10.4197 3.66L7.90973 0.53C7.60973 0.16 7.12977 0.16 6.82977 0.53L4.31976 3.66L1.80975 0.53C1.50975 0.16 1.02974 0.16 0.729736 0.53C0.579736 0.72 0.509766 0.96 0.509766 1.2V122.99C0.509766 123.23 0.579736 123.48 0.729736 123.66C1.02974 124.03 1.50975 124.03 1.80975 123.66L4.31976 120.53L6.82977 123.66C7.12977 124.03 7.60973 124.03 7.90973 123.66L10.4197 120.53L12.9297 123.66C13.2297 124.03 13.7098 124.03 14.0098 123.66L16.5198 120.53L19.0298 123.66C19.3298 124.03 19.8097 124.03 20.1097 123.66L22.6198 120.53L25.1298 123.66C25.2798 123.85 25.4797 123.94 25.6797 123.94C25.8797 123.94 26.0797 123.85 26.2297 123.66L28.7197 120.54L31.2098 123.66C31.3598 123.85 31.5598 123.94 31.7598 123.94C31.9598 123.94 32.1598 123.85 32.3098 123.66L34.8198 120.53L37.3298 123.66C37.6298 124.03 38.1097 124.03 38.4097 123.66L40.9197 120.53L43.3398 123.55L43.3998 123.66C43.5498 123.85 43.7498 123.94 43.9498 123.93C44.1498 123.93 44.3498 123.85 44.4998 123.66L46.9897 120.55L49.4797 123.66C49.6297 123.85 49.8298 123.94 50.0298 123.93C50.2298 123.93 50.4298 123.85 50.5798 123.66L53.0698 120.55L55.5598 123.66C55.7098 123.85 55.9097 123.94 56.1097 123.93C56.3097 123.93 56.5097 123.85 56.6597 123.66L56.7197 123.55L59.1398 120.53L61.6498 123.66C61.9498 124.03 62.4297 124.03 62.7297 123.66L65.2397 120.53L67.7498 123.66C68.0498 124.03 68.5298 124.03 68.8298 123.66L71.3398 120.53L73.8497 123.66C74.1497 124.03 74.6297 124.03 74.9297 123.66C75.0797 123.47 75.1498 123.23 75.1498 122.99V1.2C75.1498 0.96 75.0797 0.71 74.9297 0.53Z" fill="white" stroke="#231F20" stroke-width="0.5" stroke-miterlimit="10"/>
<path d="M52.6893 21.9995C51.9193 21.9995 51.6193 21.4195 51.6193 20.4295V18.8895C51.6193 17.9095 51.9193 17.3195 52.6893 17.3195C53.4593 17.3195 53.7593 17.8995 53.7593 18.8895V20.4295C53.7593 21.4095 53.4593 21.9995 52.6893 21.9995ZM52.6893 22.5495C53.8993 22.5495 54.4293 21.7295 54.4293 19.6595C54.4293 17.5895 53.8893 16.7695 52.6893 16.7695C51.4893 16.7695 50.9493 17.5895 50.9493 19.6595C50.9493 21.7295 51.4893 22.5495 52.6893 22.5495ZM48.1493 22.4495L50.0193 17.4295V16.8695H46.6993V18.4595H47.2693V17.4195H49.3693L47.4692 22.4495H48.1493ZM43.2292 19.2495V19.8095H43.8193C44.5093 19.8095 44.8793 20.1495 44.8793 20.8295V20.9595C44.8793 21.6495 44.5093 21.9795 43.8193 21.9795C43.2093 21.9795 42.9193 21.6895 42.6693 21.2595L42.1893 21.6195C42.4993 22.0895 42.9693 22.5495 43.8393 22.5495C44.9293 22.5495 45.5493 21.9195 45.5493 20.9295C45.5493 20.0595 45.0593 19.6195 44.4493 19.5495V19.4695C44.9993 19.3595 45.4493 18.9295 45.4493 18.1695C45.4493 17.1995 44.8393 16.7695 43.9293 16.7695C43.1193 16.7695 42.6593 17.2095 42.3993 17.6695L42.8593 18.0295C43.0693 17.5895 43.3693 17.3395 43.8793 17.3395C44.4193 17.3395 44.7693 17.5895 44.7693 18.2095V18.3295C44.7693 18.8895 44.4293 19.2395 43.7593 19.2395H43.2192L43.2292 19.2495ZM40.8993 22.5495C41.2093 22.5495 41.3693 22.4095 41.3693 22.1395V22.0095C41.3693 21.7495 41.2093 21.5995 40.8993 21.5995C40.5893 21.5995 40.4293 21.7395 40.4293 22.0095V22.1395C40.4293 22.3995 40.5893 22.5495 40.8993 22.5495ZM39.4293 21.8895H36.7993L38.1893 20.4295C39.0193 19.5595 39.2493 19.0995 39.2493 18.3695C39.2493 17.3295 38.7592 16.7795 37.7192 16.7795C36.8592 16.7795 36.2993 17.2995 36.0893 17.9795L36.6493 18.1995C36.7893 17.6595 37.1393 17.3395 37.7093 17.3395C38.2793 17.3395 38.5793 17.6595 38.5793 18.3395V18.5495C38.5793 19.0095 38.3493 19.4795 37.8093 20.0295L36.1193 21.7895V22.4495H39.4393V21.8895H39.4293ZM33.1993 22.4495L35.0693 17.4295V16.8695H31.7493V18.4595H32.3193V17.4195H34.4193L32.5193 22.4495H33.1993ZM30.2693 22.5495C30.5793 22.5495 30.7393 22.4095 30.7393 22.1395V22.0095C30.7393 21.7495 30.5793 21.5995 30.2693 21.5995C29.9593 21.5995 29.7993 21.7395 29.7993 22.0095V22.1395C29.7993 22.3995 29.9593 22.5495 30.2693 22.5495ZM28.8993 22.4495V21.8895H27.6193V16.8695H26.9193L25.3393 17.9095L25.6093 18.3495L26.9893 17.4495V21.8895H25.5992V22.4495H28.9092H28.8993ZM24.5893 22.4495V21.8895H23.3093V16.8695H22.6093L21.0293 17.9095L21.2993 18.3495L22.6793 17.4495V21.8895H21.2892V22.4495H24.5992H24.5893Z" fill="#231F20"/>
<path d="M45.1705 40.4196H46.7805C47.2805 40.4196 47.5505 40.6696 47.5505 41.2396V41.8796C47.5505 42.4496 47.2805 42.6996 46.7805 42.6996H45.1705V40.4196ZM45.1705 46.4496V43.6296H46.8705C48.0605 43.6296 48.6805 42.8896 48.6805 41.5496C48.6805 40.2096 48.0605 39.4696 46.8705 39.4696H44.1105V46.4496H45.1705ZM40.1405 45.6296C39.1405 45.6296 38.5705 44.9396 38.5705 43.7996V42.1196C38.5705 40.9796 39.1405 40.2896 40.1405 40.2896C41.1405 40.2896 41.7105 40.9796 41.7105 42.1196V43.7996C41.7105 44.9396 41.1405 45.6296 40.1405 45.6296ZM40.1405 46.5696C41.8205 46.5696 42.8505 45.4996 42.8505 42.9596C42.8505 40.4196 41.8205 39.3496 40.1405 39.3496C38.4605 39.3496 37.4305 40.4196 37.4305 42.9596C37.4305 45.4996 38.4605 46.5696 40.1405 46.5696ZM36.8805 40.4096V39.4796H32.1205V40.4096H33.9705V46.4596H35.0305V40.4096H36.8805ZM29.3205 46.5696C30.7805 46.5696 31.6305 45.8196 31.6305 44.4296C31.6305 43.2696 31.1105 42.7296 29.7805 42.4296L29.2105 42.2996C28.5405 42.1396 28.2505 41.8696 28.2505 41.2896C28.2505 40.5796 28.6305 40.2796 29.3905 40.2796C30.0605 40.2796 30.4805 40.5296 30.8405 41.0396L31.5705 40.3996C31.0705 39.6796 30.4005 39.3496 29.4105 39.3496C28.0205 39.3496 27.1905 40.0296 27.1905 41.3196C27.1905 42.4296 27.7705 43.0196 29.0205 43.2996L29.5905 43.4196C30.3005 43.5896 30.5705 43.8896 30.5705 44.4996C30.5705 45.2596 30.1405 45.6396 29.3305 45.6396C28.6505 45.6396 28.1205 45.3196 27.7105 44.7496L26.9805 45.4196C27.5205 46.1596 28.2905 46.5696 29.3205 46.5696Z" fill="#231F20"/>
<path d="M46.8097 58.4496H48.0397V51.4696H47.0197V55.6396L47.0997 56.9596H46.9697L46.4297 55.6596L44.3497 51.4696H43.1297V58.4496H44.1497V54.2796L44.0697 52.9596H44.1997L44.7297 54.2596L46.8097 58.4496ZM40.7997 58.4496H41.7397V54.7596H39.4197V55.6696H40.7097V56.2796C40.7097 57.1396 40.0497 57.6296 39.2197 57.6296C38.2297 57.6296 37.6397 56.9496 37.6397 55.8096V54.1096C37.6397 52.9696 38.2297 52.2896 39.2197 52.2896C40.0397 52.2896 40.5097 52.7196 40.7497 53.3996L41.6197 52.8896C41.1897 51.9096 40.4397 51.3496 39.2097 51.3496C37.5297 51.3496 36.4997 52.4196 36.4997 54.9696C36.4997 57.5196 37.5797 58.5696 39.0097 58.5696C39.9997 58.5696 40.5497 58.0796 40.6797 57.4196H40.7997V58.4496ZM35.4997 58.4496V57.5996H34.6497V52.3196H35.4997V51.4696H32.7397V52.3196H33.5897V57.5996H32.7397V58.4496H35.4997ZM29.5197 58.5696C30.9797 58.5696 31.8297 57.8196 31.8297 56.4296C31.8297 55.2696 31.3097 54.7296 29.9797 54.4296L29.4097 54.2996C28.7397 54.1396 28.4497 53.8696 28.4497 53.2896C28.4497 52.5796 28.8297 52.2796 29.5897 52.2796C30.2597 52.2796 30.6797 52.5296 31.0397 53.0396L31.7697 52.3996C31.2697 51.6796 30.5997 51.3496 29.6097 51.3496C28.2197 51.3496 27.3897 52.0296 27.3897 53.3196C27.3897 54.4296 27.9697 55.0196 29.2197 55.2996L29.7897 55.4196C30.4997 55.5896 30.7697 55.8896 30.7697 56.4996C30.7697 57.2596 30.3397 57.6396 29.5297 57.6396C28.8497 57.6396 28.3197 57.3196 27.9097 56.7496L27.1797 57.4196C27.7197 58.1596 28.4897 58.5696 29.5197 58.5696Z" fill="#231F20"/>
<path d="M59.6698 70.4496H60.7298V63.4696H59.6698V66.4396H56.8898V63.4696H55.8298V70.4496H56.8898V67.3596H59.6698V70.4496ZM52.4598 70.5696C53.6498 70.5696 54.3398 69.9996 54.7798 68.9796L53.8998 68.4596C53.6498 69.2796 53.1998 69.6396 52.4598 69.6396C51.5198 69.6396 50.9598 68.9396 50.9598 67.7996V66.1196C50.9598 64.9796 51.5198 64.2796 52.4598 64.2796C53.1898 64.2796 53.5998 64.6096 53.8398 65.3896L54.7398 64.8896C54.3098 63.8596 53.6498 63.3496 52.4598 63.3496C50.8398 63.3496 49.8198 64.4196 49.8198 66.9596C49.8198 69.4996 50.8398 70.5696 52.4598 70.5696ZM47.3798 67.6496H45.5398L46.1598 65.4496L46.3798 64.4296H46.5098L46.7298 65.4496L47.3798 67.6496ZM49.2298 70.4496L47.1298 63.4696H45.7798L43.6898 70.4496H44.7298L45.2698 68.5196H47.6198L48.1598 70.4496H49.2298ZM40.4898 69.6296C39.4898 69.6296 38.9198 68.9396 38.9198 67.7996V66.1196C38.9198 64.9796 39.4898 64.2896 40.4898 64.2896C41.4898 64.2896 42.0598 64.9796 42.0598 66.1196V67.7996C42.0598 68.9396 41.4898 69.6296 40.4898 69.6296ZM40.4898 70.5696C42.1698 70.5696 43.1998 69.4996 43.1998 66.9596C43.1998 64.4196 42.1698 63.3496 40.4898 63.3496C38.8098 63.3496 37.7798 64.4196 37.7798 66.9596C37.7798 69.4996 38.8098 70.5696 40.4898 70.5696ZM33.2898 66.7196V64.4096H34.8998C35.3998 64.4096 35.6698 64.6596 35.6698 65.2396V65.8896C35.6698 66.4696 35.3998 66.7196 34.8998 66.7196H33.2898ZM33.2898 67.5996H34.5398L35.7498 70.4496H36.9298L35.5998 67.5196C36.3898 67.2996 36.7998 66.6196 36.7998 65.5396C36.7998 64.2096 36.1798 63.4696 34.9898 63.4696H32.2298V70.4496H33.2898V67.5996ZM27.6098 64.4196H29.2198C29.7198 64.4196 29.9898 64.6696 29.9898 65.2396V65.8796C29.9898 66.4496 29.7198 66.6996 29.2198 66.6996H27.6098V64.4196ZM27.6098 70.4496V67.6296H29.3098C30.4998 67.6296 31.1198 66.8896 31.1198 65.5496C31.1198 64.2096 30.4998 63.4696 29.3098 63.4696H26.5498V70.4496H27.6098ZM21.9298 64.4196H23.5398C24.0398 64.4196 24.3098 64.6696 24.3098 65.2396V65.8796C24.3098 66.4496 24.0398 66.6996 23.5398 66.6996H21.9298V64.4196ZM21.9298 70.4496V67.6296H23.6298C24.8198 67.6296 25.4398 66.8896 25.4398 65.5496C25.4398 64.2096 24.8198 63.4696 23.6298 63.4696H20.8698V70.4496H21.9298ZM18.0298 67.6496H16.1898L16.8098 65.4496L17.0298 64.4296H17.1598L17.3798 65.4496L18.0298 67.6496ZM19.8798 70.4496L17.7798 63.4696H16.4298L14.3398 70.4496H15.3798L15.9198 68.5196H18.2698L18.8098 70.4496H19.8798Z" fill="#231F20"/>
<path d="M46.9003 79.3396C46.9003 77.2696 46.2103 75.7196 45.3003 74.8496H44.3303C45.3103 75.8496 45.9303 77.2896 45.9303 78.7696V79.9096C45.9303 81.3896 45.3103 82.8296 44.3303 83.8296H45.3003C46.2103 82.9596 46.9003 81.4096 46.9003 79.3396ZM43.7203 78.0096V75.0596H42.8003V78.0096H43.7203ZM39.4103 81.6596C38.5703 81.6596 38.2703 81.0896 38.2703 79.9296V77.9896C38.2703 76.8296 38.5703 76.2596 39.4103 76.2596C40.2503 76.2596 40.5503 76.8296 40.5503 77.9896V79.9296C40.5503 81.0896 40.2503 81.6596 39.4103 81.6596ZM39.4103 82.5696C40.9903 82.5696 41.6803 81.5296 41.6803 78.9596C41.6803 76.3896 40.9903 75.3496 39.4103 75.3496C37.8303 75.3496 37.1403 76.3896 37.1403 78.9596C37.1403 81.5296 37.8303 82.5696 39.4103 82.5696ZM33.0303 78.3796V79.2696H33.7403C34.4903 79.2696 34.9003 79.6396 34.9003 80.3496V80.5996C34.9003 81.3096 34.4903 81.6796 33.7403 81.6796C33.1203 81.6796 32.7103 81.3996 32.3603 80.7396L31.5703 81.3396C32.0703 82.1696 32.8003 82.5796 33.7603 82.5796C35.1703 82.5796 36.0203 81.7896 36.0203 80.4896C36.0203 79.5696 35.5403 78.9896 34.6703 78.8596V78.7396C35.4303 78.5896 35.8903 77.9796 35.8903 77.1396C35.8903 75.9896 35.1803 75.3596 33.8603 75.3596C32.9803 75.3596 32.2603 75.7596 31.8103 76.4996L32.5203 77.1096C32.8303 76.5396 33.2303 76.2796 33.8003 76.2796C34.4403 76.2796 34.7803 76.5896 34.7803 77.1796V77.3996C34.7803 78.0096 34.3503 78.3796 33.6603 78.3796H33.0303ZM28.8203 79.3396C28.8203 81.4096 29.5103 82.9596 30.4203 83.8296H31.3903C30.4103 82.8296 29.7903 81.3896 29.7903 79.9096V78.7696C29.7903 77.2896 30.4103 75.8496 31.3903 74.8496H30.4203C29.5103 75.7196 28.8203 77.2696 28.8203 79.3396Z" fill="#231F20"/>
<path d="M45.7097 106.45L48.4996 98.3995V96.6795H42.2196V100.04H43.8997V98.2895H46.5496L43.6096 106.46H45.7097V106.45ZM37.9496 98.6795H38.1696V103.04H35.8596L37.9496 98.6795ZM40.0596 106.45V104.6H41.1796V103.03H40.0596V96.6695H37.5096L34.3397 102.89V104.6H38.1596V106.45H40.0496H40.0596ZM31.8596 103.61C31.8596 104.27 31.5396 104.65 30.9496 104.79V102.41C31.5496 102.61 31.8596 103 31.8596 103.61ZM28.9196 99.3895C28.9196 98.7195 29.2097 98.4095 29.8297 98.3095V100.47C29.2297 100.29 28.9196 99.9495 28.9196 99.3895ZM33.6396 103.38C33.6396 101.9 32.8396 101.22 30.9496 100.75V98.3095C31.4996 98.3895 31.9696 98.6195 32.3196 99.0495L33.4796 97.9995C32.9096 97.2995 32.1396 96.9195 31.1396 96.8095V95.5195H29.6296V96.8095C27.9796 97.0095 27.1096 97.8995 27.1096 99.4995C27.1096 100.94 28.0197 101.7 29.8297 102.13V104.82C29.1197 104.74 28.4596 104.43 28.0496 103.87L26.8496 104.95C27.5496 105.82 28.5196 106.22 29.6396 106.32V107.59H31.1497V106.29C32.7697 106.04 33.6396 105.07 33.6396 103.38Z" fill="#231F20"/>
<path d="M10.9707 30.4102H64.7808" stroke="#231F20" stroke-width="0.5" stroke-miterlimit="10" stroke-linecap="round"/>
</svg>
