<svg width="76" height="126" viewBox="0 0 76 126" fill="none" xmlns="http://www.w3.org/2000/svg">
<path d="M74.5899 1.36984C74.2899 0.999843 73.8099 0.999843 73.5099 1.36984L70.9999 4.49985L68.4899 1.36984C68.1899 0.999843 67.7099 0.999843 67.4099 1.36984L64.8999 4.49985L62.3899 1.36984C62.0899 0.999843 61.6099 0.999843 61.3099 1.36984L58.7999 4.49985L56.3799 1.47984L56.3199 1.36984C56.1699 1.17984 55.9699 1.08985 55.7699 1.09985C55.5699 1.09985 55.3699 1.17984 55.2199 1.36984L52.7299 4.47984L50.2399 1.36984C50.0899 1.17984 49.8899 1.08985 49.6899 1.09985C49.4899 1.09985 49.2899 1.17984 49.1399 1.36984L46.6499 4.47984L44.1599 1.36984C44.0099 1.17984 43.8099 1.08985 43.6099 1.09985C43.4099 1.09985 43.2099 1.17984 43.0599 1.36984L42.9999 1.47984L40.5799 4.49985L38.0699 1.36984C37.7699 0.999843 37.2899 0.999843 36.9899 1.36984L34.4799 4.49985L31.9699 1.36984C31.8199 1.17984 31.6199 1.08984 31.4199 1.08984C31.2199 1.08984 31.0199 1.17984 30.8699 1.36984L28.3799 4.48985L25.8899 1.36984C25.7399 1.17984 25.5399 1.08984 25.3399 1.08984C25.1399 1.08984 24.9399 1.17984 24.7899 1.36984L22.2799 4.49985L19.7699 1.36984C19.4699 0.999843 18.9899 0.999843 18.6899 1.36984L16.1799 4.49985L13.6699 1.36984C13.3699 0.999843 12.8899 0.999843 12.5899 1.36984L10.0799 4.49985L7.56992 1.36984C7.26992 0.999843 6.78992 0.999843 6.48992 1.36984L3.97992 4.49985L1.46992 1.36984C1.16992 0.999843 0.689922 0.999843 0.389922 1.36984C0.239922 1.55984 0.169922 1.79984 0.169922 2.03984V123.83C0.169922 124.07 0.239922 124.32 0.389922 124.5C0.689922 124.87 1.16992 124.87 1.46992 124.5L3.97992 121.37L6.48992 124.5C6.78992 124.87 7.26992 124.87 7.56992 124.5L10.0799 121.37L12.5899 124.5C12.8899 124.87 13.3699 124.87 13.6699 124.5L16.1799 121.37L18.6899 124.5C18.9899 124.87 19.4699 124.87 19.7699 124.5L22.2799 121.37L24.7899 124.5C24.9399 124.69 25.1399 124.78 25.3399 124.78C25.5399 124.78 25.7399 124.69 25.8899 124.5L28.3799 121.38L30.8699 124.5C31.0199 124.69 31.2199 124.78 31.4199 124.78C31.6199 124.78 31.8199 124.69 31.9699 124.5L34.4799 121.37L36.9899 124.5C37.2899 124.87 37.7699 124.87 38.0699 124.5L40.5799 121.37L42.9999 124.39L43.0599 124.5C43.2099 124.69 43.4099 124.78 43.6099 124.77C43.8099 124.77 44.0099 124.69 44.1599 124.5L46.6499 121.39L49.1399 124.5C49.2899 124.69 49.4899 124.78 49.6899 124.77C49.8899 124.77 50.0899 124.69 50.2399 124.5L52.7299 121.39L55.2199 124.5C55.3699 124.69 55.5699 124.78 55.7699 124.77C55.9699 124.77 56.1699 124.69 56.3199 124.5L56.3799 124.39L58.7999 121.37L61.3099 124.5C61.6099 124.87 62.0899 124.87 62.3899 124.5L64.8999 121.37L67.4099 124.5C67.7099 124.87 68.1899 124.87 68.4899 124.5L70.9999 121.37L73.5099 124.5C73.8099 124.87 74.2899 124.87 74.5899 124.5C74.7399 124.31 74.8099 124.07 74.8099 123.83V2.03984C74.8099 1.79984 74.7399 1.54984 74.5899 1.36984Z" fill="white" stroke="#231F20" stroke-width="0.5" stroke-miterlimit="10"/>
<path d="M51.5197 20.3403V20.9003H52.1097C52.7997 20.9003 53.1697 21.2403 53.1697 21.9203V22.0504C53.1697 22.7404 52.7997 23.0704 52.1097 23.0704C51.4997 23.0704 51.2097 22.7804 50.9597 22.3504L50.4797 22.7104C50.7897 23.1804 51.2597 23.6404 52.1297 23.6404C53.2197 23.6404 53.8397 23.0104 53.8397 22.0204C53.8397 21.1504 53.3497 20.7104 52.7397 20.6404V20.5603C53.2897 20.4503 53.7397 20.0203 53.7397 19.2603C53.7397 18.2903 53.1297 17.8604 52.2197 17.8604C51.4097 17.8604 50.9497 18.3003 50.6897 18.7603L51.1497 19.1203C51.3597 18.6803 51.6597 18.4303 52.1697 18.4303C52.7097 18.4303 53.0597 18.6804 53.0597 19.3004V19.4203C53.0597 19.9803 52.7197 20.3304 52.0497 20.3304H51.5097L51.5197 20.3403ZM49.4597 17.9604H46.7397L46.5597 21.0204L47.0997 21.0903C47.2897 20.8303 47.5197 20.6203 47.9997 20.6203C48.6997 20.6203 49.0197 21.0104 49.0197 21.7504V21.9404C49.0197 22.6804 48.6897 23.0704 47.9997 23.0704C47.4797 23.0704 47.1297 22.8104 46.8697 22.3304L46.3897 22.6904C46.6697 23.2204 47.2497 23.6304 47.9997 23.6304C49.0697 23.6304 49.6997 22.9803 49.6997 21.7903C49.6997 20.6003 49.0997 20.0603 48.2197 20.0603C47.6597 20.0603 47.3297 20.3404 47.1897 20.7204H47.1097L47.2497 18.5103H49.4597V17.9503V17.9604ZM43.6997 23.0903C42.9297 23.0903 42.6297 22.5104 42.6297 21.5204V19.9803C42.6297 19.0003 42.9297 18.4104 43.6997 18.4104C44.4697 18.4104 44.7697 18.9903 44.7697 19.9803V21.5204C44.7697 22.5004 44.4697 23.0903 43.6997 23.0903ZM43.6997 23.6404C44.9097 23.6404 45.4397 22.8204 45.4397 20.7504C45.4397 18.6804 44.8997 17.8604 43.6997 17.8604C42.4997 17.8604 41.9597 18.6804 41.9597 20.7504C41.9597 22.8204 42.4997 23.6404 43.6997 23.6404ZM40.5497 23.6404C40.8597 23.6404 41.0197 23.5003 41.0197 23.2303V23.1004C41.0197 22.8404 40.8597 22.6904 40.5497 22.6904C40.2397 22.6904 40.0797 22.8304 40.0797 23.1004V23.2303C40.0797 23.4903 40.2397 23.6404 40.5497 23.6404ZM39.0897 22.9803H36.4597L37.8497 21.5204C38.6797 20.6504 38.9097 20.1904 38.9097 19.4604C38.9097 18.4204 38.4197 17.8703 37.3797 17.8703C36.5197 17.8703 35.9597 18.3904 35.7497 19.0704L36.3097 19.2903C36.4497 18.7503 36.7997 18.4303 37.3697 18.4303C37.9397 18.4303 38.2397 18.7503 38.2397 19.4303V19.6404C38.2397 20.1004 38.0097 20.5703 37.4697 21.1203L35.7797 22.8804V23.5403H39.0997V22.9803H39.0897ZM32.8597 23.5403L34.7297 18.5204V17.9604H31.4097V19.5504H31.9797V18.5103H34.0797L32.1797 23.5403H32.8597ZM29.9297 23.6404C30.2397 23.6404 30.3997 23.5003 30.3997 23.2303V23.1004C30.3997 22.8404 30.2397 22.6904 29.9297 22.6904C29.6197 22.6904 29.4597 22.8304 29.4597 23.1004V23.2303C29.4597 23.4903 29.6197 23.6404 29.9297 23.6404ZM28.5597 23.5403V22.9803H27.2797V17.9604H26.5797L24.9997 19.0004L25.2697 19.4404L26.6497 18.5403V22.9803H25.2597V23.5403H28.5697H28.5597ZM24.2397 23.5403V22.9803H22.9597V17.9604H22.2597L20.6797 19.0004L20.9497 19.4404L22.3297 18.5403V22.9803H20.9397V23.5403H24.2497H24.2397Z" fill="#231F20"/>
<path d="M57.5294 47.5404V46.6104H54.9894V40.5604H53.9294V47.5404H57.5294ZM49.9594 46.7204C48.9594 46.7204 48.3894 46.0304 48.3894 44.8904V43.2104C48.3894 42.0704 48.9594 41.3804 49.9594 41.3804C50.9594 41.3804 51.5294 42.0704 51.5294 43.2104V44.8904C51.5294 46.0304 50.9594 46.7204 49.9594 46.7204ZM49.9594 47.6604C51.6394 47.6604 52.6694 46.5904 52.6694 44.0504C52.6694 41.5104 51.6394 40.4404 49.9594 40.4404C48.2794 40.4404 47.2494 41.5104 47.2494 44.0504C47.2494 46.5904 48.2794 47.6604 49.9594 47.6604ZM43.5594 46.7204C42.5594 46.7204 41.9894 46.0304 41.9894 44.8904V43.2104C41.9894 42.0704 42.5594 41.3804 43.5594 41.3804C44.5594 41.3804 45.1294 42.0704 45.1294 43.2104V44.8904C45.1294 46.0304 44.5594 46.7204 43.5594 46.7204ZM43.5594 47.6604C45.2394 47.6604 46.2694 46.5904 46.2694 44.0504C46.2694 41.5104 45.2394 40.4404 43.5594 40.4404C41.8794 40.4404 40.8494 41.5104 40.8494 44.0504C40.8494 46.5904 41.8794 47.6604 43.5594 47.6604ZM36.5094 41.5104H38.1194C38.6194 41.5104 38.8894 41.7604 38.8894 42.3304V42.9704C38.8894 43.5404 38.6194 43.7904 38.1194 43.7904H36.5094V41.5104ZM36.5094 47.5404V44.7204H38.2094C39.3994 44.7204 40.0194 43.9804 40.0194 42.6404C40.0194 41.3004 39.3994 40.5604 38.2094 40.5604H35.4494V47.5404H36.5094ZM30.5894 43.8104V41.5004H32.1994C32.6994 41.5004 32.9694 41.7504 32.9694 42.3304V42.9804C32.9694 43.5604 32.6994 43.8104 32.1994 43.8104H30.5894ZM30.5894 44.7004H31.8394L33.0494 47.5504H34.2294L32.8994 44.6204C33.6894 44.4004 34.0994 43.7204 34.0994 42.6404C34.0994 41.3104 33.4794 40.5704 32.2894 40.5704H29.5294V47.5504H30.5894V44.7004ZM26.6894 44.7504H24.8494L25.4694 42.5504L25.6894 41.5304H25.8194L26.0394 42.5504L26.6894 44.7504ZM28.5494 47.5404L26.4494 40.5604H25.0994L23.0094 47.5404H24.0494L24.5894 45.6104H26.9394L27.4794 47.5404H28.5494ZM20.2494 47.6604C21.4394 47.6604 22.1294 47.0904 22.5694 46.0704L21.6894 45.5504C21.4394 46.3704 20.9894 46.7304 20.2494 46.7304C19.3094 46.7304 18.7494 46.0304 18.7494 44.8904V43.2104C18.7494 42.0704 19.3094 41.3704 20.2494 41.3704C20.9794 41.3704 21.3894 41.7004 21.6294 42.4804L22.5294 41.9804C22.0994 40.9504 21.4394 40.4404 20.2494 40.4404C18.6294 40.4404 17.6094 41.5104 17.6094 44.0504C17.6094 46.5904 18.6294 47.6604 20.2494 47.6604Z" fill="#231F20"/>
<path d="M55.6997 59.5404H56.6397V55.8504H54.3197V56.7604H55.6097V57.3704C55.6097 58.2304 54.9497 58.7204 54.1197 58.7204C53.1297 58.7204 52.5397 58.0404 52.5397 56.9004V55.2004C52.5397 54.0604 53.1297 53.3804 54.1197 53.3804C54.9397 53.3804 55.4097 53.8104 55.6497 54.4904L56.5197 53.9804C56.0897 53.0004 55.3397 52.4404 54.1097 52.4404C52.4297 52.4404 51.3997 53.5104 51.3997 56.0604C51.3997 58.6104 52.4797 59.6604 53.9097 59.6604C54.8997 59.6604 55.4497 59.1704 55.5797 58.5104H55.6997V59.5404ZM48.9097 59.5404H50.1397V52.5604H49.1197V56.7304L49.1997 58.0504H49.0697L48.5297 56.7504L46.4497 52.5604H45.2297V59.5404H46.2497V55.3704L46.1697 54.0504H46.2997L46.8297 55.3504L48.9097 59.5404ZM43.9497 59.5404V58.6904H43.0997V53.4104H43.9497V52.5604H41.1897V53.4104H42.0397V58.6904H41.1897V59.5404H43.9497ZM39.2697 59.5404H40.5197L38.1397 55.5204L40.3597 52.5604H39.1397L37.4997 54.8604L36.6097 56.1604H36.4797L36.5397 54.8604V52.5604H35.4797V59.5404H36.5397V57.3604L37.4097 56.2404L39.2697 59.5404ZM30.6197 55.8104V53.5004H32.2297C32.7297 53.5004 32.9997 53.7504 32.9997 54.3304V54.9804C32.9997 55.5604 32.7297 55.8104 32.2297 55.8104H30.6197ZM30.6197 56.7004H31.8697L33.0797 59.5504H34.2597L32.9297 56.6204C33.7197 56.4004 34.1297 55.7204 34.1297 54.6404C34.1297 53.3104 33.5097 52.5704 32.3197 52.5704H29.5597V59.5504H30.6197V56.7004ZM26.7197 56.7504H24.8797L25.4997 54.5504L25.7197 53.5304H25.8497L26.0697 54.5504L26.7197 56.7504ZM28.5797 59.5404L26.4797 52.5604H25.1297L23.0397 59.5404H24.0797L24.6197 57.6104H26.9697L27.5097 59.5404H28.5797ZM19.4897 53.5104H21.0997C21.5997 53.5104 21.8697 53.7604 21.8697 54.3304V54.9704C21.8697 55.5404 21.5997 55.7904 21.0997 55.7904H19.4897V53.5104ZM19.4897 59.5404V56.7204H21.1897C22.3797 56.7204 22.9997 55.9804 22.9997 54.6404C22.9997 53.3004 22.3797 52.5604 21.1897 52.5604H18.4297V59.5404H19.4897Z" fill="#231F20"/>
<path d="M60.6897 71.6504C61.1497 71.6504 61.3797 71.4304 61.3797 71.0504V70.8504C61.3797 70.4704 61.1497 70.2504 60.6897 70.2504C60.2297 70.2504 59.9997 70.4704 59.9997 70.8504V71.0504C59.9997 71.4304 60.2297 71.6504 60.6897 71.6504ZM55.2997 67.8104V65.5004H56.9097C57.4097 65.5004 57.6797 65.7504 57.6797 66.3304V66.9804C57.6797 67.5604 57.4097 67.8104 56.9097 67.8104H55.2997ZM55.2997 68.7004H56.5497L57.7597 71.5504H58.9397L57.6097 68.6204C58.3997 68.4004 58.8097 67.7204 58.8097 66.6404C58.8097 65.3104 58.1897 64.5704 56.9997 64.5704H54.2397V71.5504H55.2997V68.7004ZM50.2697 70.7204C49.2697 70.7204 48.6997 70.0304 48.6997 68.8904V67.2104C48.6997 66.0704 49.2697 65.3804 50.2697 65.3804C51.2697 65.3804 51.8397 66.0704 51.8397 67.2104V68.8904C51.8397 70.0304 51.2697 70.7204 50.2697 70.7204ZM50.2697 71.6604C51.9497 71.6604 52.9797 70.5904 52.9797 68.0504C52.9797 65.5104 51.9497 64.4404 50.2697 64.4404C48.5897 64.4404 47.5597 65.5104 47.5597 68.0504C47.5597 70.5904 48.5897 71.6604 50.2697 71.6604ZM45.2397 71.5404H46.2997V64.5604H45.2397V67.5304H42.4597V64.5604H41.3997V71.5404H42.4597V68.4504H45.2397V71.5404ZM40.4097 65.5004V64.5704H35.6497V65.5004H37.4997V71.5504H38.5597V65.5004H40.4097ZM29.9397 64.5704V68.9204C29.9397 70.8204 30.5597 71.6704 32.3197 71.6704C34.0797 71.6704 34.6997 70.8204 34.6997 68.9204V64.5704H33.6397V69.0904C33.6397 70.2004 33.2997 70.7304 32.3197 70.7304C31.3397 70.7304 30.9997 70.2004 30.9997 69.0904V64.5704H29.9397ZM27.2497 68.7504H25.4097L26.0297 66.5504L26.2497 65.5304H26.3797L26.5997 66.5504L27.2497 68.7504ZM29.1097 71.5404L27.0097 64.5604H25.6597L23.5697 71.5404H24.6097L25.1497 69.6104H27.4997L28.0397 71.5404H29.1097ZM21.3597 71.5404H22.5897V64.5604H21.5697V68.7304L21.6497 70.0504H21.5197L20.9797 68.7504L18.8997 64.5604H17.6797V71.5404H18.6997V67.3704L18.6197 66.0504H18.7497L19.2797 67.3504L21.3597 71.5404ZM11.4297 64.5704V68.9204C11.4297 70.8204 12.0497 71.6704 13.8097 71.6704C15.5697 71.6704 16.1897 70.8204 16.1897 68.9204V64.5704H15.1297V69.0904C15.1297 70.2004 14.7897 70.7304 13.8097 70.7304C12.8297 70.7304 12.4897 70.2004 12.4897 69.0904V64.5704H11.4297Z" fill="#231F20"/>
<path d="M55.4506 83.5404V82.6104H52.4606V80.4504H55.1606V79.5304H52.4606V77.4904H55.4506V76.5604H51.4006V83.5404H55.4506ZM50.3506 83.5404V82.6104H47.8106V76.5604H46.7506V83.5404H50.3506ZM43.3806 83.6604C44.5706 83.6604 45.2606 83.0904 45.7006 82.0704L44.8206 81.5504C44.5706 82.3704 44.1206 82.7304 43.3806 82.7304C42.4406 82.7304 41.8806 82.0304 41.8806 80.8904V79.2104C41.8806 78.0704 42.4406 77.3704 43.3806 77.3704C44.1106 77.3704 44.5206 77.7004 44.7606 78.4804L45.6606 77.9804C45.2306 76.9504 44.5706 76.4404 43.3806 76.4404C41.7606 76.4404 40.7406 77.5104 40.7406 80.0504C40.7406 82.5904 41.7606 83.6604 43.3806 83.6604ZM39.7406 83.5404V82.6904H38.8906V77.4104H39.7406V76.5604H36.9806V77.4104H37.8306V82.6904H36.9806V83.5404H39.7406ZM34.6506 83.5404H35.7106V76.5604H34.6506V79.5304H31.8706V76.5604H30.8106V83.5404H31.8706V80.4504H34.6506V83.5404ZM29.5006 83.5404V82.6104H26.5106V80.4504H29.2106V79.5304H26.5106V77.4904H29.5006V76.5604H25.4506V83.5404H29.5006ZM22.4806 83.5404L24.5206 76.5604H23.4306L22.2006 80.9504L21.9106 82.5804H21.7806L21.4906 80.9504L20.2506 76.5604H19.1406L21.1906 83.5404H22.4806Z" fill="#231F20"/>
<path d="M45.36 107.54L48.15 99.4901V97.7701H41.87V101.13H43.55V99.3801H46.2L43.26 107.55H45.36V107.54ZM37.6 99.7701H37.82V104.13H35.51L37.6 99.7701ZM39.72 107.54V105.69H40.84V104.12H39.72V97.7601H37.17L34 103.98V105.69H37.82V107.54H39.71H39.72ZM31.51 104.7C31.51 105.36 31.19 105.74 30.6 105.88V103.5C31.2 103.7 31.51 104.09 31.51 104.7ZM28.57 100.48C28.57 99.8101 28.86 99.5001 29.48 99.4001V101.56C28.88 101.38 28.57 101.04 28.57 100.48ZM33.29 104.48C33.29 103 32.49 102.32 30.6 101.85V99.4101C31.15 99.4901 31.62 99.7201 31.97 100.15L33.13 99.1001C32.56 98.4001 31.79 98.0201 30.79 97.9101V96.6201H29.28V97.9101C27.63 98.1101 26.76 99.0001 26.76 100.6C26.76 102.04 27.67 102.8 29.48 103.23V105.92C28.77 105.84 28.11 105.53 27.7 104.97L26.5 106.05C27.2 106.92 28.17 107.32 29.29 107.42V108.69H30.8V107.39C32.42 107.14 33.29 106.17 33.29 104.48Z" fill="#231F20"/>
<path d="M10.6191 31.5H64.4391" stroke="#231F20" stroke-width="0.5" stroke-miterlimit="10" stroke-linecap="round"/>
</svg>
