<svg width="76" height="101" viewBox="0 0 76 101" fill="none" xmlns="http://www.w3.org/2000/svg">
<path d="M74.7693 0.570435C74.4693 0.350435 74.0693 0.450437 73.8193 0.760437L71.3492 3.85043L68.8393 0.720428C68.5393 0.350428 68.0593 0.350428 67.7593 0.720428L65.2493 3.85043L62.7393 0.720428C62.4393 0.350428 61.9592 0.350428 61.6592 0.720428L59.1493 3.85043L56.7292 0.830414L56.6693 0.720428C56.5193 0.530428 56.3193 0.440439 56.1193 0.450439C55.9193 0.450439 55.7193 0.530428 55.5693 0.720428L53.0793 3.83041L50.5893 0.720428C50.4393 0.530428 50.2392 0.440439 50.0392 0.450439C49.8392 0.450439 49.6393 0.530428 49.4893 0.720428L46.9993 3.83041L44.5093 0.720428C44.3593 0.530428 44.1593 0.440439 43.9593 0.450439C43.7593 0.450439 43.5592 0.530428 43.4092 0.720428L43.3492 0.830414L40.9293 3.85043L38.4193 0.720428C38.1193 0.350428 37.6393 0.350428 37.3393 0.720428L34.8293 3.85043L32.3193 0.720428C32.1693 0.530428 31.9693 0.44043 31.7693 0.44043C31.5693 0.44043 31.3692 0.530428 31.2192 0.720428L28.7292 3.84042L26.2393 0.720428C26.0893 0.530428 25.8893 0.44043 25.6893 0.44043C25.4893 0.44043 25.2893 0.530428 25.1393 0.720428L22.6293 3.85043L20.1193 0.720428C19.8193 0.350428 19.3392 0.350428 19.0392 0.720428L16.5293 3.85043L14.0193 0.720428C13.7193 0.350428 13.2393 0.350428 12.9393 0.720428L10.4293 3.85043L7.91925 0.720428C7.61925 0.350428 7.13929 0.350428 6.83929 0.720428L4.32928 3.85043L1.85925 0.760437C1.60925 0.450437 1.21924 0.340435 0.909241 0.570435C0.649241 0.760435 0.529297 1.08042 0.529297 1.40042V99.1904C0.529297 99.4604 0.619255 99.7304 0.799255 99.9204C1.10926 100.25 1.57926 100.18 1.86926 99.8204L4.33929 96.7404L6.84924 99.8704C7.14924 100.24 7.62926 100.24 7.92926 99.8704L10.4393 96.7404L12.9493 99.8704C13.2493 100.24 13.7293 100.24 14.0293 99.8704L16.5392 96.7404L19.0493 99.8704C19.3493 100.24 19.8293 100.24 20.1293 99.8704L22.6393 96.7404L25.1493 99.8704C25.2993 100.06 25.4993 100.15 25.6993 100.15C25.8993 100.15 26.0993 100.06 26.2493 99.8704L28.7393 96.7504L31.2292 99.8704C31.3792 100.06 31.5793 100.15 31.7793 100.15C31.9793 100.15 32.1793 100.06 32.3293 99.8704L34.8393 96.7404L37.3492 99.8704C37.6492 100.24 38.1293 100.24 38.4293 99.8704L40.9393 96.7404L43.3593 99.7604L43.4193 99.8704C43.5693 100.06 43.7692 100.15 43.9692 100.15C44.1692 100.15 44.3693 100.07 44.5193 99.8704L47.0093 96.7604L49.4993 99.8704C49.6493 100.06 49.8493 100.15 50.0493 100.15C50.2493 100.15 50.4492 100.07 50.5992 99.8704L53.0893 96.7604L55.5793 99.8704C55.7293 100.06 55.9293 100.15 56.1293 100.15C56.3293 100.15 56.5293 100.07 56.6793 99.8704L56.7393 99.7604L59.1592 96.7404L61.6693 99.8704C61.9693 100.24 62.4493 100.24 62.7493 99.8704L65.2593 96.7404L67.7693 99.8704C68.0693 100.24 68.5492 100.24 68.8492 99.8704L71.3593 96.7404L73.8293 99.8204C74.1193 100.18 74.5893 100.25 74.8993 99.9204C75.0793 99.7304 75.1693 99.4604 75.1693 99.1904V1.40042C75.1693 1.08042 75.0392 0.760435 74.7892 0.570435H74.7693Z" fill="white" stroke="#231F20" stroke-width="0.5" stroke-miterlimit="10"/>
<path d="M10.9707 30.4805H64.7808" stroke="#231F20" stroke-width="0.5" stroke-miterlimit="10" stroke-linecap="round"/>
<path d="M55.0695 21.2401V16.7801H56.1794C56.9794 16.7801 57.5195 17.3601 57.5195 18.3901V19.6401C57.5195 20.6701 56.9794 21.2501 56.1794 21.2501H55.0695V21.2401ZM54.4294 21.8001H56.1794C57.4694 21.8001 58.1995 20.9501 58.1995 19.0101C58.1995 17.0701 57.4594 16.2201 56.1794 16.2201H54.4294V21.8001ZM51.5994 21.3501C50.8294 21.3501 50.5295 20.7701 50.5295 19.7801V18.2401C50.5295 17.2601 50.8294 16.6701 51.5994 16.6701C52.3694 16.6701 52.6694 17.2501 52.6694 18.2401V19.7801C52.6694 20.7601 52.3694 21.3501 51.5994 21.3501ZM51.5994 21.9001C52.8094 21.9001 53.3395 21.0801 53.3395 19.0101C53.3395 16.9401 52.7994 16.1201 51.5994 16.1201C50.3994 16.1201 49.8594 16.9401 49.8594 19.0101C49.8594 21.0801 50.3994 21.9001 51.5994 21.9001ZM47.2795 21.3501C46.5095 21.3501 46.2095 20.7701 46.2095 19.7801V18.2401C46.2095 17.2601 46.5095 16.6701 47.2795 16.6701C48.0495 16.6701 48.3494 17.2501 48.3494 18.2401V19.7801C48.3494 20.7601 48.0495 21.3501 47.2795 21.3501ZM47.2795 21.9001C48.4895 21.9001 49.0195 21.0801 49.0195 19.0101C49.0195 16.9401 48.4795 16.1201 47.2795 16.1201C46.0795 16.1201 45.5394 16.9401 45.5394 19.0101C45.5394 21.0801 46.0795 21.9001 47.2795 21.9001ZM43.3995 16.7301H43.4794V20.1701H41.6594L43.3995 16.7301ZM44.0895 21.8001V20.7001H44.8094V20.1601H44.0895V16.2101H43.1495L41.0695 20.1301V20.7001H43.4794V21.8001H44.0895ZM39.8094 21.9001C40.1194 21.9001 40.2795 21.7601 40.2795 21.4901V21.3601C40.2795 21.1001 40.1194 20.9501 39.8094 20.9501C39.4994 20.9501 39.3395 21.0901 39.3395 21.3601V21.4901C39.3395 21.7501 39.4994 21.9001 39.8094 21.9001ZM35.8295 18.6001V19.1601H36.4194C37.1094 19.1601 37.4794 19.5001 37.4794 20.1801V20.3101C37.4794 21.0001 37.1094 21.3301 36.4194 21.3301C35.8094 21.3301 35.5195 21.0401 35.2695 20.6101L34.7894 20.9701C35.0994 21.4401 35.5695 21.9001 36.4395 21.9001C37.5395 21.9001 38.1495 21.2701 38.1495 20.2801C38.1495 19.4101 37.6594 18.9701 37.0494 18.9001V18.8201C37.5994 18.7101 38.0494 18.2801 38.0494 17.5201C38.0494 16.5501 37.4395 16.1201 36.5295 16.1201C35.7195 16.1201 35.2595 16.5601 34.9995 17.0201L35.4595 17.3801C35.6695 16.9401 35.9694 16.6901 36.4794 16.6901C37.0194 16.6901 37.3694 16.9401 37.3694 17.5601V17.6801C37.3694 18.2401 37.0294 18.5901 36.3594 18.5901H35.8195L35.8295 18.6001ZM34.0195 21.2401H31.3895L32.7795 19.7801C33.6095 18.9101 33.8395 18.4501 33.8395 17.7201C33.8395 16.6801 33.3494 16.1301 32.3094 16.1301C31.4494 16.1301 30.8894 16.6501 30.6794 17.3301L31.2394 17.5501C31.3794 17.0101 31.7294 16.6901 32.2994 16.6901C32.8694 16.6901 33.1694 17.0101 33.1694 17.6901V17.9001C33.1694 18.3601 32.9395 18.8301 32.3995 19.3801L30.7095 21.1401V21.8001H34.0295V21.2401H34.0195ZM29.1895 21.9001C29.4995 21.9001 29.6594 21.7601 29.6594 21.4901V21.3601C29.6594 21.1001 29.4995 20.9501 29.1895 20.9501C28.8795 20.9501 28.7194 21.0901 28.7194 21.3601V21.4901C28.7194 21.7501 28.8795 21.9001 29.1895 21.9001ZM27.8195 21.8001V21.2401H26.5394V16.2201H25.8395L24.2595 17.2601L24.5295 17.7001L25.9094 16.8001V21.2401H24.5195V21.8001H27.8295H27.8195ZM23.4995 21.8001V21.2401H22.2194V16.2201H21.5195L19.9395 17.2601L20.2095 17.7001L21.5895 16.8001V21.2401H20.1995V21.8001H23.5095H23.4995Z" fill="#231F20"/>
<path d="M45.1804 45.9202C46.6404 45.9202 47.4904 45.1702 47.4904 43.7802C47.4904 42.6202 46.9704 42.0802 45.6404 41.7802L45.0704 41.6502C44.4004 41.4902 44.1104 41.2202 44.1104 40.6402C44.1104 39.9302 44.4904 39.6302 45.2504 39.6302C45.9204 39.6302 46.3404 39.8802 46.7004 40.3902L47.4304 39.7502C46.9304 39.0302 46.2604 38.7002 45.2704 38.7002C43.8804 38.7002 43.0504 39.3802 43.0504 40.6702C43.0504 41.7802 43.6304 42.3702 44.8804 42.6502L45.4504 42.7702C46.1604 42.9402 46.4304 43.2402 46.4304 43.8502C46.4304 44.6102 46.0004 44.9902 45.1904 44.9902C44.5104 44.9902 43.9804 44.6702 43.5704 44.1002L42.8404 44.7702C43.3804 45.5102 44.1504 45.9202 45.1804 45.9202ZM37.0403 38.8302V43.1802C37.0403 45.0802 37.6603 45.9302 39.4203 45.9302C41.1803 45.9302 41.8004 45.0802 41.8004 43.1802V38.8302H40.7404V43.3502C40.7404 44.4602 40.4003 44.9902 39.4203 44.9902C38.4403 44.9902 38.1003 44.4602 38.1003 43.3502V38.8302H37.0403ZM32.2104 39.7502H33.7804C34.2404 39.7502 34.5104 39.9902 34.5104 40.5402V40.9902C34.5104 41.5402 34.2404 41.7802 33.7804 41.7802H32.2104V39.7502ZM32.2104 42.6902H33.9504C34.4504 42.6902 34.7303 42.9502 34.7303 43.5502V44.0102C34.7303 44.6102 34.4504 44.8702 33.9504 44.8702H32.2104V42.6902ZM31.1504 45.8002H34.2604C35.2304 45.8002 35.8604 44.9902 35.8604 43.7902C35.8604 42.8702 35.3004 42.2202 34.5104 42.2202V42.1002C35.2304 42.0402 35.6304 41.5102 35.6304 40.6202C35.6304 39.4602 35.0603 38.8202 33.9803 38.8202H31.1504V45.8002Z" fill="#231F20"/>
<path d="M50.2997 57.8002V56.8702H47.3098V54.7102H50.0098V53.7902H47.3098V51.7502H50.2997V50.8202H46.2498V57.8002H50.2997ZM43.4797 57.8002H44.7098V50.8202H43.6898V54.9902L43.7698 56.3102H43.6398L43.0997 55.0102L41.0198 50.8202H39.7997V57.8002H40.8198V53.6302L40.7397 52.3102H40.8698L41.3998 53.6102L43.4797 57.8002ZM35.8298 56.9802C34.8298 56.9802 34.2598 56.2902 34.2598 55.1502V53.4702C34.2598 52.3302 34.8298 51.6402 35.8298 51.6402C36.8298 51.6402 37.3998 52.3302 37.3998 53.4702V55.1502C37.3998 56.2902 36.8298 56.9802 35.8298 56.9802ZM35.8298 57.9202C37.5098 57.9202 38.5397 56.8502 38.5397 54.3102C38.5397 51.7702 37.5098 50.7002 35.8298 50.7002C34.1498 50.7002 33.1198 51.7702 33.1198 54.3102C33.1198 56.8502 34.1498 57.9202 35.8298 57.9202ZM32.4197 56.8702H28.9598L32.3098 51.7702V50.8202H27.9197V51.7502H31.1097L27.7598 56.8502V57.8002H32.4197V56.8702Z" fill="#231F20"/>
<path d="M47.0394 81.8001L49.8295 73.7501V72.0301H43.5494V75.3901H45.2294V73.6401H47.8795L44.9395 81.8101H47.0394V81.8001ZM39.2894 74.0301H39.5095V78.3901H37.1995L39.2894 74.0301ZM41.3995 81.8001V79.9501H42.5195V78.3801H41.3995V72.0201H38.8494L35.6794 78.2401V79.9501H39.4995V81.8001H41.3895H41.3995ZM33.1995 78.9601C33.1995 79.6201 32.8794 80.0001 32.2894 80.1401V77.7601C32.8894 77.9601 33.1995 78.3501 33.1995 78.9601ZM30.2595 74.7401C30.2595 74.0701 30.5494 73.7601 31.1694 73.6601V75.8201C30.5694 75.6401 30.2595 75.3001 30.2595 74.7401ZM34.9794 78.7301C34.9794 77.2501 34.1794 76.5701 32.2894 76.1001V73.6601C32.8394 73.7401 33.3094 73.9701 33.6594 74.4001L34.8195 73.3501C34.2495 72.6501 33.4794 72.2701 32.4794 72.1601V70.8701H30.9694V72.1601C29.3194 72.3601 28.4495 73.2501 28.4495 74.8501C28.4495 76.2901 29.3594 77.0501 31.1694 77.4801V80.1701C30.4594 80.0901 29.7995 79.7801 29.3895 79.2201L28.1895 80.3001C28.8895 81.1701 29.8594 81.5701 30.9794 81.6701V82.9401H32.4894V81.6401C34.1094 81.3901 34.9794 80.4201 34.9794 78.7301Z" fill="#231F20"/>
</svg>
