<svg width="76" height="102" viewBox="0 0 76 102" fill="none" xmlns="http://www.w3.org/2000/svg">
<path d="M74.9197 1.21008C74.6197 0.990083 74.2197 1.09007 73.9697 1.40007L71.4997 4.49008L68.9897 1.36008C68.6897 0.990077 68.2097 0.990077 67.9097 1.36008L65.3997 4.49008L62.8897 1.36008C62.5897 0.990077 62.1097 0.990077 61.8097 1.36008L59.2997 4.49008L56.8797 1.47008L56.8197 1.36008C56.6697 1.17008 56.4697 1.08007 56.2697 1.09007C56.0697 1.09007 55.8697 1.17008 55.7197 1.36008L53.2297 4.47008L50.7397 1.36008C50.5897 1.17008 50.3897 1.08007 50.1897 1.09007C49.9897 1.09007 49.7897 1.17008 49.6397 1.36008L47.1497 4.47008L44.6597 1.36008C44.5097 1.17008 44.3097 1.08007 44.1097 1.09007C43.9097 1.09007 43.7097 1.17008 43.5597 1.36008L43.4997 1.47008L41.0797 4.49008L38.5697 1.36008C38.2697 0.990077 37.7897 0.990077 37.4897 1.36008L34.9797 4.49008L32.4697 1.36008C32.3197 1.17008 32.1197 1.08008 31.9197 1.08008C31.7197 1.08008 31.5197 1.17008 31.3697 1.36008L28.8797 4.48007L26.3897 1.36008C26.2397 1.17008 26.0397 1.08008 25.8397 1.08008C25.6397 1.08008 25.4397 1.17008 25.2897 1.36008L22.7797 4.49008L20.2697 1.36008C19.9697 0.990077 19.4897 0.990077 19.1897 1.36008L16.6797 4.49008L14.1697 1.36008C13.8697 0.990077 13.3897 0.990077 13.0897 1.36008L10.5797 4.49008L8.0697 1.36008C7.7697 0.990077 7.28969 0.990077 6.98969 1.36008L4.47971 4.49008L2.0097 1.40007C1.7597 1.09007 1.36969 0.980083 1.05969 1.21008C0.799692 1.40008 0.679688 1.72007 0.679688 2.04007V99.8301C0.679688 100.1 0.769707 100.37 0.949707 100.56C1.25971 100.89 1.72968 100.82 2.01968 100.46L4.48969 97.3801L6.99969 100.51C7.29969 100.88 7.77968 100.88 8.07968 100.51L10.5897 97.3801L13.0997 100.51C13.3997 100.88 13.8797 100.88 14.1797 100.51L16.6897 97.3801L19.1997 100.51C19.4997 100.88 19.9797 100.88 20.2797 100.51L22.7897 97.3801L25.2997 100.51C25.4497 100.7 25.6497 100.79 25.8497 100.79C26.0497 100.79 26.2497 100.7 26.3997 100.51L28.8897 97.3901L31.3797 100.51C31.5297 100.7 31.7297 100.79 31.9297 100.79C32.1297 100.79 32.3297 100.7 32.4797 100.51L34.9897 97.3801L37.4997 100.51C37.7997 100.88 38.2797 100.88 38.5797 100.51L41.0897 97.3801L43.5097 100.4L43.5697 100.51C43.7197 100.7 43.9197 100.79 44.1197 100.78C44.3197 100.78 44.5197 100.7 44.6697 100.51L47.1597 97.4001L49.6497 100.51C49.7997 100.7 49.9997 100.79 50.1997 100.78C50.3997 100.78 50.5997 100.7 50.7497 100.51L53.2397 97.4001L55.7297 100.51C55.8797 100.7 56.0797 100.79 56.2797 100.78C56.4797 100.78 56.6797 100.7 56.8297 100.51L56.8897 100.4L59.3097 97.3801L61.8197 100.51C62.1197 100.88 62.5997 100.88 62.8997 100.51L65.4097 97.3801L67.9197 100.51C68.2197 100.88 68.6997 100.88 68.9997 100.51L71.5097 97.3801L73.9797 100.46C74.2697 100.82 74.7397 100.89 75.0497 100.56C75.2297 100.37 75.3197 100.1 75.3197 99.8301V2.04007C75.3197 1.72007 75.1897 1.40008 74.9397 1.21008H74.9197Z" fill="white" stroke="#231F20" stroke-width="0.5" stroke-miterlimit="10"/>
<path d="M11.1191 31.1104H64.9291" stroke="#231F20" stroke-width="0.5" stroke-miterlimit="10" stroke-linecap="round"/>
<path d="M54.1797 21.9798C53.4097 21.9798 53.1097 21.3998 53.1097 20.4098V18.8698C53.1097 17.8898 53.4097 17.2998 54.1797 17.2998C54.9497 17.2998 55.2498 17.8798 55.2498 18.8698V20.4098C55.2498 21.3898 54.9497 21.9798 54.1797 21.9798ZM54.1797 22.5398C55.3897 22.5398 55.9197 21.7198 55.9197 19.6498C55.9197 17.5798 55.3797 16.7598 54.1797 16.7598C52.9797 16.7598 52.4398 17.5798 52.4398 19.6498C52.4398 21.7198 52.9797 22.5398 54.1797 22.5398ZM49.6298 22.4398L51.4998 17.4198V16.8598H48.1797V18.4498H48.7498V17.4098H50.8498L48.9498 22.4398H49.6298ZM47.2298 21.8798H44.5998L45.9897 20.4198C46.8197 19.5498 47.0497 19.0898 47.0497 18.3598C47.0497 17.3198 46.5597 16.7698 45.5197 16.7698C44.6597 16.7698 44.0998 17.2898 43.8898 17.9698L44.4498 18.1898C44.5898 17.6498 44.9398 17.3298 45.5098 17.3298C46.0798 17.3298 46.3798 17.6498 46.3798 18.3298V18.5398C46.3798 18.9998 46.1497 19.4698 45.6097 20.0198L43.9198 21.7798V22.4398H47.2397V21.8798H47.2298ZM42.3898 22.5398C42.6998 22.5398 42.8597 22.3998 42.8597 22.1298V21.9998C42.8597 21.7398 42.6998 21.5898 42.3898 21.5898C42.0798 21.5898 41.9198 21.7298 41.9198 21.9998V22.1298C41.9198 22.3898 42.0798 22.5398 42.3898 22.5398ZM40.9198 21.8798H38.2898L39.6797 20.4198C40.5097 19.5498 40.7397 19.0898 40.7397 18.3598C40.7397 17.3198 40.2497 16.7698 39.2097 16.7698C38.3497 16.7698 37.7897 17.2898 37.5797 17.9698L38.1398 18.1898C38.2798 17.6498 38.6298 17.3298 39.1998 17.3298C39.7698 17.3298 40.0698 17.6498 40.0698 18.3298V18.5398C40.0698 18.9998 39.8397 19.4698 39.2997 20.0198L37.6097 21.7798V22.4398H40.9297V21.8798H40.9198ZM34.6898 22.4398L36.5598 17.4198V16.8598H33.2397V18.4498H33.8098V17.4098H35.9098L34.0098 22.4398H34.6898ZM31.7598 22.5398C32.0698 22.5398 32.2298 22.3998 32.2298 22.1298V21.9998C32.2298 21.7398 32.0698 21.5898 31.7598 21.5898C31.4498 21.5898 31.2898 21.7298 31.2898 21.9998V22.1298C31.2898 22.3898 31.4498 22.5398 31.7598 22.5398ZM30.3898 22.4398V21.8798H29.1097V16.8598H28.4098L26.8297 17.8998L27.0998 18.3398L28.4798 17.4398V21.8798H27.0898V22.4398H30.3997H30.3898ZM26.0698 22.4398V21.8798H24.7898V16.8598H24.0898L22.5098 17.8998L22.7798 18.3398L24.1598 17.4398V21.8798H22.7697V22.4398H26.0797H26.0698Z" fill="#231F20"/>
<path d="M57.1499 45.5099V40.39H58.3899C59.2999 40.39 59.8598 41 59.8598 42.14V43.7599C59.8598 44.8999 59.2999 45.5099 58.3899 45.5099H57.1499ZM56.0899 46.44H58.3899C60.0399 46.44 60.9998 45.41 60.9998 42.95C60.9998 40.49 60.0399 39.46 58.3899 39.46H56.0899V46.44ZM54.7799 46.44V45.5099H51.7899V43.35H54.4898V42.4299H51.7899V40.39H54.7799V39.46H50.7299V46.44H54.7799ZM49.7398 40.39V39.46H44.9799V40.39H46.8298V46.44H47.8899V40.39H49.7398ZM43.2798 43.64H41.4398L42.0598 41.44L42.2798 40.42H42.4099L42.6299 41.44L43.2798 43.64ZM45.1399 46.44L43.0399 39.46H41.6898L39.5999 46.44H40.6399L41.1798 44.5099H43.5298L44.0699 46.44H45.1399ZM38.8499 46.44V45.5099H35.8598V43.35H38.5598V42.4299H35.8598V40.39H38.8499V39.46H34.7998V46.44H38.8499ZM30.1798 40.3999H31.7899C32.2899 40.3999 32.5598 40.65 32.5598 41.22V41.86C32.5598 42.43 32.2899 42.6799 31.7899 42.6799H30.1798V40.3999ZM30.1798 46.44V43.6199H31.8799C33.0699 43.6199 33.6898 42.8799 33.6898 41.5399C33.6898 40.1999 33.0699 39.46 31.8799 39.46H29.1198V46.44H30.1798ZM27.8098 46.44V45.5099H24.8199V43.35H27.5198V42.4299H24.8199V40.39H27.8098V39.46H23.7599V46.44H27.8098ZM18.8998 42.7V40.39H20.5099C21.0099 40.39 21.2798 40.64 21.2798 41.22V41.8699C21.2798 42.4499 21.0099 42.7 20.5099 42.7H18.8998ZM18.8998 43.59H20.1498L21.3598 46.44H22.5399L21.2098 43.5099C21.9998 43.2899 22.4099 42.61 22.4099 41.53C22.4099 40.2 21.7899 39.46 20.5999 39.46H17.8398V46.44H18.8998V43.59Z" fill="#231F20"/>
<path d="M61.091 58.4398V57.5098H58.1009V55.3499H60.8009V54.4298H58.1009V52.3898H61.091V51.4599H57.0409V58.4398H61.091ZM54.4809 58.4398H55.5009V51.4599H54.261L53.141 53.8998L52.6509 55.2798H52.5609L52.071 53.8998L50.9409 51.4599H49.6909V58.4398H50.7109V54.1398L50.641 52.9698H50.761L51.2409 54.1198L52.5909 56.9599L53.951 54.1198L54.4309 52.9498H54.5509L54.4809 54.1398V58.4398ZM48.4109 58.4398V57.5898H47.5609V52.3098H48.4109V51.4599H45.6509V52.3098H46.5009V57.5898H45.6509V58.4398H48.4109ZM44.9409 52.3898V51.4599H40.1809V52.3898H42.0309V58.4398H43.0909V52.3898H44.9409ZM36.0509 54.6998V52.3898H37.6609C38.1609 52.3898 38.4309 52.6398 38.4309 53.2198V53.8698C38.4309 54.4498 38.1609 54.6998 37.6609 54.6998H36.0509ZM36.0509 55.5898H37.3009L38.511 58.4398H39.6909L38.3609 55.5098C39.1509 55.2898 39.5609 54.6098 39.5609 53.5298C39.5609 52.1998 38.9409 51.4599 37.7509 51.4599H34.9909V58.4398H36.0509V55.5898ZM33.6809 58.4398V57.5098H30.6909V55.3499H33.391V54.4298H30.6909V52.3898H33.6809V51.4599H29.631V58.4398H33.6809ZM26.6609 58.4398L28.701 51.4599H27.6109L26.381 55.8499L26.0909 57.4798H25.9609L25.671 55.8499L24.4309 51.4599H23.321L25.3709 58.4398H26.6609ZM20.171 57.6198C19.171 57.6198 18.601 56.9298 18.601 55.7898V54.1098C18.601 52.9698 19.171 52.2798 20.171 52.2798C21.171 52.2798 21.7409 52.9698 21.7409 54.1098V55.7898C21.7409 56.9298 21.171 57.6198 20.171 57.6198ZM20.171 58.5598C21.851 58.5598 22.881 57.4898 22.881 54.9498C22.881 52.4098 21.851 51.3398 20.171 51.3398C18.491 51.3398 17.4609 52.4098 17.4609 54.9498C17.4609 57.4898 18.491 58.5598 20.171 58.5598Z" fill="#231F20"/>
<path d="M47.1898 82.4398L49.9799 74.3898V72.6698H43.6999V76.0298H45.3799V74.2798H48.0298L45.0898 82.4498H47.1898V82.4398ZM39.4398 74.6698H39.6599V79.0298H37.3499L39.4398 74.6698ZM41.5498 82.4398V80.5898H42.6699V79.0198H41.5498V72.6598H38.9998L35.8298 78.8798V80.5898H39.6498V82.4398H41.5399H41.5498ZM33.3499 79.5998C33.3499 80.2598 33.0298 80.6398 32.4398 80.7798V78.3998C33.0398 78.5998 33.3499 78.9898 33.3499 79.5998ZM30.4099 75.3798C30.4099 74.7098 30.6999 74.3998 31.3199 74.2998V76.4598C30.7199 76.2798 30.4099 75.9398 30.4099 75.3798ZM35.1299 79.3698C35.1299 77.8898 34.3298 77.2098 32.4398 76.7398V74.2998C32.9898 74.3798 33.4598 74.6098 33.8098 75.0398L34.9698 73.9898C34.3998 73.2898 33.6299 72.9098 32.6299 72.7998V71.5098H31.1198V72.7998C29.4698 72.9998 28.5999 73.8898 28.5999 75.4898C28.5999 76.9298 29.5099 77.6898 31.3199 78.1198V80.8098C30.6099 80.7298 29.9499 80.4198 29.5399 79.8598L28.3398 80.9398C29.0398 81.8098 30.0099 82.2098 31.1299 82.3098V83.5798H32.6399V82.2798C34.2599 82.0298 35.1299 81.0598 35.1299 79.3698Z" fill="#231F20"/>
</svg>
