<svg width="76" height="125" viewBox="0 0 76 125" fill="none" xmlns="http://www.w3.org/2000/svg">
<path d="M74.59 0.53C74.29 0.16 73.81 0.16 73.51 0.53L71 3.66L68.49 0.53C68.19 0.16 67.71 0.16 67.41 0.53L64.9 3.66L62.39 0.53C62.09 0.16 61.61 0.16 61.31 0.53L58.8 3.66L56.38 0.64L56.32 0.53C56.17 0.34 55.97 0.25 55.77 0.26C55.57 0.26 55.37 0.34 55.22 0.53L52.73 3.64L50.24 0.53C50.09 0.34 49.89 0.25 49.69 0.26C49.49 0.26 49.29 0.34 49.14 0.53L46.65 3.64L44.16 0.53C44.01 0.34 43.81 0.25 43.61 0.26C43.41 0.26 43.21 0.34 43.06 0.53L43 0.64L40.58 3.66L38.07 0.53C37.77 0.16 37.29 0.16 36.99 0.53L34.48 3.66L31.97 0.53C31.82 0.34 31.62 0.25 31.42 0.25C31.22 0.25 31.02 0.34 30.87 0.53L28.38 3.65L25.89 0.53C25.74 0.34 25.54 0.25 25.34 0.25C25.14 0.25 24.94 0.34 24.79 0.53L22.28 3.66L19.77 0.53C19.47 0.16 18.99 0.16 18.69 0.53L16.18 3.66L13.67 0.53C13.37 0.16 12.89 0.16 12.59 0.53L10.08 3.66L7.64 0.53C7.34 0.16 6.86 0.16 6.56 0.53L4.05 3.66L1.55 0.53C1.25 0.16 0.77 0.16 0.47 0.53C0.32 0.72 0.25 0.96 0.25 1.2V122.99C0.25 123.23 0.32 123.48 0.47 123.66C0.77 124.03 1.25 124.03 1.55 123.66L4.06 120.53L6.57 123.66C6.87 124.03 7.35 124.03 7.65 123.66L10.16 120.53L12.67 123.66C12.97 124.03 13.45 124.03 13.75 123.66L16.26 120.53L18.77 123.66C19.07 124.03 19.55 124.03 19.85 123.66L22.36 120.53L24.87 123.66C25.02 123.85 25.22 123.94 25.42 123.94C25.62 123.94 25.82 123.85 25.97 123.66L28.46 120.54L30.95 123.66C31.1 123.85 31.3 123.94 31.5 123.94C31.7 123.94 31.9 123.85 32.05 123.66L34.56 120.53L37.07 123.66C37.37 124.03 37.85 124.03 38.15 123.66L40.66 120.53L43.08 123.55L43.14 123.66C43.29 123.85 43.49 123.94 43.69 123.93C43.89 123.93 44.09 123.85 44.24 123.66L46.73 120.55L49.22 123.66C49.37 123.85 49.57 123.94 49.77 123.93C49.97 123.93 50.17 123.85 50.32 123.66L52.81 120.55L55.3 123.66C55.45 123.85 55.65 123.94 55.85 123.93C56.05 123.93 56.25 123.85 56.4 123.66L56.46 123.55L58.88 120.53L61.39 123.66C61.69 124.03 62.17 124.03 62.47 123.66L64.98 120.53L67.49 123.66C67.79 124.03 68.27 124.03 68.57 123.66L71.08 120.53L73.59 123.66C73.89 124.03 74.37 124.03 74.67 123.66C74.82 123.47 74.89 123.23 74.89 122.99V1.2C74.89 0.96 74.82 0.71 74.67 0.53H74.59Z" fill="white" stroke="#231F20" stroke-width="0.5" stroke-miterlimit="10"/>
<path d="M53.7797 16.8695H51.0597L50.8797 19.9295L51.4197 19.9995C51.6097 19.7395 51.8397 19.5295 52.3197 19.5295C53.0197 19.5295 53.3397 19.9195 53.3397 20.6595V20.8495C53.3397 21.5895 53.0097 21.9795 52.3197 21.9795C51.7997 21.9795 51.4497 21.7195 51.1897 21.2395L50.7097 21.5995C50.9897 22.1295 51.5697 22.5395 52.3197 22.5395C53.3897 22.5395 54.0197 21.8895 54.0197 20.6995C54.0197 19.5095 53.4197 18.9695 52.5397 18.9695C51.9797 18.9695 51.6497 19.2495 51.5097 19.6295H51.4297L51.5697 17.4195H53.7797V16.8595V16.8695ZM48.0197 21.9995C47.2497 21.9995 46.9497 21.4195 46.9497 20.4295V18.8895C46.9497 17.9095 47.2497 17.3195 48.0197 17.3195C48.7897 17.3195 49.0897 17.8995 49.0897 18.8895V20.4295C49.0897 21.4095 48.7897 21.9995 48.0197 21.9995ZM48.0197 22.5495C49.2297 22.5495 49.7597 21.7295 49.7597 19.6595C49.7597 17.5895 49.2197 16.7695 48.0197 16.7695C46.8197 16.7695 46.2797 17.5895 46.2797 19.6595C46.2797 21.7295 46.8197 22.5495 48.0197 22.5495ZM43.6997 21.9995C42.9297 21.9995 42.6297 21.4195 42.6297 20.4295V18.8895C42.6297 17.9095 42.9297 17.3195 43.6997 17.3195C44.4697 17.3195 44.7697 17.8995 44.7697 18.8895V20.4295C44.7697 21.4095 44.4697 21.9995 43.6997 21.9995ZM43.6997 22.5495C44.9097 22.5495 45.4397 21.7295 45.4397 19.6595C45.4397 17.5895 44.8997 16.7695 43.6997 16.7695C42.4997 16.7695 41.9597 17.5895 41.9597 19.6595C41.9597 21.7295 42.4997 22.5495 43.6997 22.5495ZM40.5497 22.5495C40.8597 22.5495 41.0197 22.4095 41.0197 22.1395V22.0095C41.0197 21.7495 40.8597 21.5995 40.5497 21.5995C40.2397 21.5995 40.0797 21.7395 40.0797 22.0095V22.1395C40.0797 22.3995 40.2397 22.5495 40.5497 22.5495ZM39.0897 21.8895H36.4597L37.8497 20.4295C38.6797 19.5595 38.9097 19.0995 38.9097 18.3695C38.9097 17.3295 38.4197 16.7795 37.3797 16.7795C36.5197 16.7795 35.9597 17.2995 35.7497 17.9795L36.3097 18.1995C36.4497 17.6595 36.7997 17.3395 37.3697 17.3395C37.9397 17.3395 38.2397 17.6595 38.2397 18.3395V18.5495C38.2397 19.0095 38.0097 19.4795 37.4697 20.0295L35.7797 21.7895V22.4495H39.0997V21.8895H39.0897ZM32.8597 22.4495L34.7297 17.4295V16.8695H31.4097V18.4595H31.9797V17.4195H34.0797L32.1797 22.4495H32.8597ZM29.9297 22.5495C30.2397 22.5495 30.3997 22.4095 30.3997 22.1395V22.0095C30.3997 21.7495 30.2397 21.5995 29.9297 21.5995C29.6197 21.5995 29.4597 21.7395 29.4597 22.0095V22.1395C29.4597 22.3995 29.6197 22.5495 29.9297 22.5495ZM28.5597 22.4495V21.8895H27.2797V16.8695H26.5797L24.9997 17.9095L25.2697 18.3495L26.6497 17.4495V21.8895H25.2597V22.4495H28.5697H28.5597ZM24.2397 22.4495V21.8895H22.9597V16.8695H22.2597L20.6797 17.9095L20.9497 18.3495L22.3297 17.4495V21.8895H20.9397V22.4495H24.2497H24.2397Z" fill="#231F20"/>
<path d="M56.4098 42.7196V40.4096H58.0198C58.5198 40.4096 58.7898 40.6596 58.7898 41.2396V41.8896C58.7898 42.4696 58.5198 42.7196 58.0198 42.7196H56.4098ZM56.4098 43.5996H57.6598L58.8698 46.4496H60.0498L58.7198 43.5196C59.5098 43.2996 59.9198 42.6196 59.9198 41.5396C59.9198 40.2096 59.2998 39.4696 58.1098 39.4696H55.3498V46.4496H56.4098V43.5996ZM54.0398 46.4496V45.5196H51.0498V43.3596H53.7498V42.4396H51.0498V40.3996H54.0398V39.4696H49.9898V46.4496H54.0398ZM45.3698 40.4196H46.9798C47.4798 40.4196 47.7498 40.6696 47.7498 41.2396V41.8796C47.7498 42.4496 47.4798 42.6996 46.9798 42.6996H45.3698V40.4196ZM45.3698 46.4496V43.6296H47.0698C48.2598 43.6296 48.8798 42.8896 48.8798 41.5496C48.8798 40.2096 48.2598 39.4696 47.0698 39.4696H44.3098V46.4496H45.3698ZM40.3398 45.6296C39.3398 45.6296 38.7698 44.9396 38.7698 43.7996V42.1196C38.7698 40.9796 39.3398 40.2896 40.3398 40.2896C41.3398 40.2896 41.9098 40.9796 41.9098 42.1196V43.7996C41.9098 44.9396 41.3398 45.6296 40.3398 45.6296ZM40.3398 46.5696C42.0198 46.5696 43.0498 45.4996 43.0498 42.9596C43.0498 40.4196 42.0198 39.3496 40.3398 39.3496C38.6598 39.3496 37.6298 40.4196 37.6298 42.9596C37.6298 45.4996 38.6598 46.5696 40.3398 46.5696ZM33.1398 42.7196V40.4096H34.7498C35.2498 40.4096 35.5198 40.6596 35.5198 41.2396V41.8896C35.5198 42.4696 35.2498 42.7196 34.7498 42.7196H33.1398ZM33.1398 43.5996H34.3898L35.5998 46.4496H36.7798L35.4498 43.5196C36.2398 43.2996 36.6498 42.6196 36.6498 41.5396C36.6498 40.2096 36.0298 39.4696 34.8398 39.4696H32.0798V46.4496H33.1398V43.5996ZM27.4598 40.4196H29.0698C29.5698 40.4196 29.8398 40.6696 29.8398 41.2396V41.8796C29.8398 42.4496 29.5698 42.6996 29.0698 42.6996H27.4598V40.4196ZM27.4598 46.4496V43.6296H29.1598C30.3498 43.6296 30.9698 42.8896 30.9698 41.5496C30.9698 40.2096 30.3498 39.4696 29.1598 39.4696H26.3998V46.4496H27.4598ZM23.8398 46.4496H24.8598V39.4696H23.6198L22.4998 41.9096L22.0098 43.2896H21.9198L21.4298 41.9096L20.2998 39.4696H19.0498V46.4496H20.0698V42.1496L19.9998 40.9796H20.1198L20.5998 42.1296L21.9498 44.9696L23.3098 42.1296L23.7898 40.9596H23.9098L23.8398 42.1496V46.4496ZM17.7698 46.4496V45.5996H16.9198V40.3196H17.7698V39.4696H15.0098V40.3196H15.8598V45.5996H15.0098V46.4496H17.7698Z" fill="#231F20"/>
<path d="M55.6997 58.4496H56.6397V54.7596H54.3197V55.6696H55.6097V56.2796C55.6097 57.1396 54.9497 57.6296 54.1197 57.6296C53.1297 57.6296 52.5397 56.9496 52.5397 55.8096V54.1096C52.5397 52.9696 53.1297 52.2896 54.1197 52.2896C54.9397 52.2896 55.4097 52.7196 55.6497 53.3996L56.5197 52.8896C56.0897 51.9096 55.3397 51.3496 54.1097 51.3496C52.4297 51.3496 51.3997 52.4196 51.3997 54.9696C51.3997 57.5196 52.4797 58.5696 53.9097 58.5696C54.8997 58.5696 55.4497 58.0796 55.5797 57.4196H55.6997V58.4496ZM48.9097 58.4496H50.1397V51.4696H49.1197V55.6396L49.1997 56.9596H49.0697L48.5297 55.6596L46.4497 51.4696H45.2297V58.4496H46.2497V54.2796L46.1697 52.9596H46.2997L46.8297 54.2596L48.9097 58.4496ZM43.9497 58.4496V57.5996H43.0997V52.3196H43.9497V51.4696H41.1897V52.3196H42.0397V57.5996H41.1897V58.4496H43.9497ZM39.2697 58.4496H40.5197L38.1397 54.4296L40.3597 51.4696H39.1397L37.4997 53.7696L36.6097 55.0696H36.4797L36.5397 53.7696V51.4696H35.4797V58.4496H36.5397V56.2696L37.4097 55.1496L39.2697 58.4496ZM30.6197 54.7196V52.4096H32.2297C32.7297 52.4096 32.9997 52.6596 32.9997 53.2396V53.8896C32.9997 54.4696 32.7297 54.7196 32.2297 54.7196H30.6197ZM30.6197 55.5996H31.8697L33.0797 58.4496H34.2597L32.9297 55.5196C33.7197 55.2996 34.1297 54.6196 34.1297 53.5396C34.1297 52.2096 33.5097 51.4696 32.3197 51.4696H29.5597V58.4496H30.6197V55.5996ZM26.7197 55.6496H24.8797L25.4997 53.4496L25.7197 52.4296H25.8497L26.0697 53.4496L26.7197 55.6496ZM28.5797 58.4496L26.4797 51.4696H25.1297L23.0397 58.4496H24.0797L24.6197 56.5196H26.9697L27.5097 58.4496H28.5797ZM19.4897 52.4196H21.0997C21.5997 52.4196 21.8697 52.6696 21.8697 53.2396V53.8796C21.8697 54.4496 21.5997 54.6996 21.0997 54.6996H19.4897V52.4196ZM19.4897 58.4496V55.6296H21.1897C22.3797 55.6296 22.9997 54.8896 22.9997 53.5496C22.9997 52.2096 22.3797 51.4696 21.1897 51.4696H18.4297V58.4496H19.4897Z" fill="#231F20"/>
<path d="M55.7409 64.4096V63.4796H50.9809V64.4096H52.8309V70.4596H53.8909V64.4096H55.7409ZM46.9109 64.4196H48.5209C49.0209 64.4196 49.2909 64.6696 49.2909 65.2396V65.8796C49.2909 66.4496 49.0209 66.6996 48.5209 66.6996H46.9109V64.4196ZM46.9109 70.4496V67.6296H48.6109C49.8009 67.6296 50.4209 66.8896 50.4209 65.5496C50.4209 64.2096 49.8009 63.4696 48.6109 63.4696H45.8509V70.4496H46.9109ZM44.5609 70.4496V69.5996H43.7109V64.3196H44.5609V63.4696H41.8009V64.3196H42.6509V69.5996H41.8009V70.4496H44.5609ZM40.7609 70.4496V69.5196H37.7709V67.3596H40.4709V66.4396H37.7709V64.3996H40.7609V63.4696H36.7109V70.4496H40.7609ZM33.3409 70.5696C34.5309 70.5696 35.2209 69.9996 35.6609 68.9796L34.7809 68.4596C34.5309 69.2796 34.0809 69.6396 33.3409 69.6396C32.4009 69.6396 31.8409 68.9396 31.8409 67.7996V66.1196C31.8409 64.9796 32.4009 64.2796 33.3409 64.2796C34.0709 64.2796 34.4809 64.6096 34.7209 65.3896L35.6209 64.8896C35.1909 63.8596 34.5309 63.3496 33.3409 63.3496C31.7209 63.3496 30.7009 64.4196 30.7009 66.9596C30.7009 69.4996 31.7209 70.5696 33.3409 70.5696ZM29.6709 70.4496V69.5196H26.6809V67.3596H29.3809V66.4396H26.6809V64.3996H29.6709V63.4696H25.6209V70.4496H29.6709ZM20.7709 66.7196V64.4096H22.3809C22.8809 64.4096 23.1509 64.6596 23.1509 65.2396V65.8896C23.1509 66.4696 22.8809 66.7196 22.3809 66.7196H20.7709ZM20.7709 67.5996H22.0209L23.2309 70.4496H24.4109L23.0809 67.5196C23.8709 67.2996 24.2809 66.6196 24.2809 65.5396C24.2809 64.2096 23.6609 63.4696 22.4709 63.4696H19.7109V70.4496H20.7709V67.5996Z" fill="#231F20"/>
<path d="M53.6205 82.4496V79.7496L55.7705 75.4696H54.6005L53.1705 78.5896H53.0406L51.5905 75.4696H50.4005L52.5605 79.7496V82.4496H53.6205ZM48.7505 79.6496H46.9105L47.5305 77.4496L47.7505 76.4296H47.8805L48.1005 77.4496L48.7505 79.6496ZM50.6105 82.4496L48.5105 75.4696H47.1605L45.0705 82.4496H46.1105L46.6505 80.5196H49.0005L49.5405 82.4496H50.6105ZM44.4105 82.4496V81.5196H41.8705V75.4696H40.8105V82.4496H44.4105ZM36.1905 76.4196H37.8005C38.3005 76.4196 38.5705 76.6696 38.5705 77.2396V77.8796C38.5705 78.4496 38.3005 78.6996 37.8005 78.6996H36.1905V76.4196ZM36.1905 82.4496V79.6296H37.8905C39.0805 79.6296 39.7005 78.8896 39.7005 77.5496C39.7005 76.2096 39.0805 75.4696 37.8905 75.4696H35.1305V82.4496H36.1905ZM31.6405 82.5696C33.1005 82.5696 33.9505 81.8196 33.9505 80.4296C33.9505 79.2696 33.4305 78.7296 32.1005 78.4296L31.5305 78.2996C30.8605 78.1396 30.5705 77.8696 30.5705 77.2896C30.5705 76.5796 30.9505 76.2796 31.7105 76.2796C32.3805 76.2796 32.8005 76.5296 33.1605 77.0396L33.8905 76.3996C33.3905 75.6796 32.7205 75.3496 31.7305 75.3496C30.3405 75.3496 29.5105 76.0296 29.5105 77.3196C29.5105 78.4296 30.0905 79.0196 31.3405 79.2996L31.9105 79.4196C32.6205 79.5896 32.8905 79.8896 32.8905 80.4996C32.8905 81.2596 32.4605 81.6396 31.6505 81.6396C30.9705 81.6396 30.4405 81.3196 30.0305 80.7496L29.3005 81.4196C29.8405 82.1596 30.6105 82.5696 31.6405 82.5696ZM28.4705 82.4496V81.5996H27.6205V76.3196H28.4705V75.4696H25.7105V76.3196H26.5605V81.5996H25.7105V82.4496H28.4705ZM20.8705 81.5196V76.3996H22.1105C23.0205 76.3996 23.5805 77.0096 23.5805 78.1496V79.7696C23.5805 80.9096 23.0205 81.5196 22.1105 81.5196H20.8705ZM19.8105 82.4496H22.1105C23.7605 82.4496 24.7205 81.4196 24.7205 78.9596C24.7205 76.4996 23.7605 75.4696 22.1105 75.4696H19.8105V82.4496Z" fill="#231F20"/>
<path d="M44.92 101.34C44.07 101.34 43.65 100.85 43.65 99.9495V99.4995C43.65 98.5995 44.07 98.1095 44.92 98.1095C45.77 98.1095 46.2 98.5995 46.2 99.4995V99.9495C46.2 100.85 45.78 101.34 44.92 101.34ZM48.3 100.37C48.3 97.8795 47.19 96.4995 44.92 96.4995C42.65 96.4995 41.54 97.7595 41.54 99.8795C41.54 101.86 42.52 102.95 44.08 102.95C45.14 102.95 45.72 102.32 45.97 101.55H46.19C45.85 103.5 44.55 104.81 42.35 106.45H45.11C46.62 105.37 48.29 103.2 48.29 100.37H48.3ZM40.62 104.77H36.49L38.35 102.99C39.99 101.42 40.45 100.65 40.45 99.3095C40.45 97.5695 39.62 96.5095 37.4 96.5095C35.35 96.5095 34.5 97.6295 34.12 98.9795L35.86 99.6395C36.01 98.8695 36.39 98.1995 37.22 98.1995C37.92 98.1995 38.35 98.6295 38.35 99.2595V99.7095C38.35 100.48 38 101.07 37.02 102.02L34.34 104.64V106.46H40.62V104.78V104.77ZM31.51 103.61C31.51 104.27 31.19 104.65 30.6 104.79V102.41C31.2 102.61 31.51 103 31.51 103.61ZM28.57 99.3895C28.57 98.7195 28.86 98.4095 29.48 98.3095V100.47C28.88 100.29 28.57 99.9495 28.57 99.3895ZM33.29 103.38C33.29 101.9 32.49 101.22 30.6 100.75V98.3095C31.15 98.3895 31.62 98.6195 31.97 99.0495L33.13 97.9995C32.56 97.2995 31.79 96.9195 30.79 96.8095V95.5195H29.28V96.8095C27.63 97.0095 26.76 97.8995 26.76 99.4995C26.76 100.94 27.67 101.7 29.48 102.13V104.82C28.77 104.74 28.11 104.43 27.7 103.87L26.5 104.95C27.2 105.82 28.17 106.22 29.29 106.32V107.59H30.8V106.29C32.42 106.04 33.29 105.07 33.29 103.38Z" fill="#231F20"/>
<path d="M10.6191 30.4102H64.4391" stroke="#231F20" stroke-width="0.5" stroke-miterlimit="10" stroke-linecap="round"/>
</svg>
