<svg width="100" height="186" viewBox="0 0 100 186" fill="none" xmlns="http://www.w3.org/2000/svg">
<path d="M100 0H0V23.75H100V0Z" fill="#7E0A14"/>
<path d="M100 77.9102H0V185.91H100V77.9102Z" fill="#231F20"/>
<path d="M100 23.9102H0V77.9102H100V23.9102Z" fill="#ED1C24"/>
<path d="M40.32 136.732C40.32 138.674 39.84 140.199 38.88 141.308C37.92 142.396 36.5013 143.09 34.624 143.388V146.364H31.168V143.452C29.888 143.346 28.704 143.047 27.616 142.556C26.5493 142.066 25.6107 141.319 24.8 140.316L27.552 137.852C28.0213 138.492 28.608 138.994 29.312 139.356C30.0373 139.698 30.8053 139.922 31.616 140.028V133.884C29.5467 133.394 27.9893 132.679 26.944 131.74C25.92 130.802 25.408 129.511 25.408 127.868C25.408 126.034 25.888 124.615 26.848 123.612C27.8293 122.588 29.2693 121.959 31.168 121.724V118.78H34.624V121.724C36.9067 121.98 38.688 122.887 39.968 124.444L37.312 126.844C36.9067 126.354 36.4373 125.98 35.904 125.724C35.3707 125.447 34.7947 125.255 34.176 125.148V130.716C35.264 130.994 36.192 131.303 36.96 131.644C37.728 131.986 38.3573 132.391 38.848 132.86C39.36 133.33 39.7333 133.884 39.968 134.524C40.2027 135.143 40.32 135.879 40.32 136.732ZM29.536 127.612C29.536 128.252 29.7067 128.775 30.048 129.18C30.4107 129.564 30.9333 129.863 31.616 130.076V125.148C30.912 125.255 30.3893 125.5 30.048 125.884C29.7067 126.268 29.536 126.844 29.536 127.612ZM36.256 137.244C36.256 135.858 35.5627 134.94 34.176 134.492V139.932C35.5627 139.612 36.256 138.716 36.256 137.244ZM56.229 125.404H47.205L46.725 132.636H47.237C47.4717 131.591 47.941 130.759 48.645 130.14C49.3703 129.522 50.309 129.212 51.461 129.212C53.317 129.212 54.789 129.778 55.877 130.908C56.965 132.039 57.509 133.82 57.509 136.252C57.509 138.77 56.8583 140.711 55.557 142.076C54.2557 143.442 52.293 144.124 49.669 144.124C48.6663 144.124 47.781 144.007 47.013 143.772C46.245 143.559 45.5623 143.26 44.965 142.876C44.3677 142.492 43.8557 142.044 43.429 141.532C43.0023 141.02 42.6397 140.476 42.341 139.9L45.637 137.34C46.0637 138.279 46.6077 139.036 47.269 139.612C47.9303 140.167 48.7303 140.444 49.669 140.444C51.6957 140.444 52.709 139.314 52.709 137.052V136.028C52.709 134.94 52.4423 134.151 51.909 133.66C51.3757 133.148 50.661 132.892 49.765 132.892C48.997 132.892 48.3677 133.074 47.877 133.436C47.3863 133.799 47.0237 134.162 46.789 134.524L42.917 134.012L43.685 121.404H56.229V125.404ZM67.0463 144.124C65.7023 144.124 64.5503 143.911 63.5903 143.484C62.6303 143.036 61.8303 142.354 61.1903 141.436C60.5716 140.498 60.1129 139.303 59.8143 137.852C59.5156 136.38 59.3663 134.62 59.3663 132.572C59.3663 130.524 59.5156 128.775 59.8143 127.324C60.1129 125.852 60.5716 124.658 61.1903 123.74C61.8303 122.802 62.6303 122.119 63.5903 121.692C64.5503 121.244 65.7023 121.02 67.0463 121.02C68.3903 121.02 69.5423 121.244 70.5023 121.692C71.4623 122.119 72.2516 122.802 72.8703 123.74C73.5103 124.658 73.9796 125.852 74.2783 127.324C74.5769 128.775 74.7263 130.524 74.7263 132.572C74.7263 134.62 74.5769 136.38 74.2783 137.852C73.9796 139.303 73.5103 140.498 72.8703 141.436C72.2516 142.354 71.4623 143.036 70.5023 143.484C69.5423 143.911 68.3903 144.124 67.0463 144.124ZM67.0463 140.284C67.5796 140.284 68.0276 140.21 68.3903 140.06C68.7529 139.89 69.0409 139.634 69.2543 139.292C69.4676 138.93 69.6169 138.46 69.7023 137.884C69.8089 137.308 69.8623 136.594 69.8623 135.74V129.404C69.8623 127.719 69.6596 126.546 69.2543 125.884C68.8489 125.202 68.1129 124.86 67.0463 124.86C65.9796 124.86 65.2436 125.202 64.8383 125.884C64.4329 126.546 64.2303 127.719 64.2303 129.404V135.74C64.2303 136.594 64.2729 137.308 64.3583 137.884C64.4649 138.46 64.6249 138.93 64.8383 139.292C65.0516 139.634 65.3396 139.89 65.7023 140.06C66.0649 140.21 66.5129 140.284 67.0463 140.284Z" fill="white"/>
<path d="M29.04 59.2502V55.3382H25.32V52.7222H29.04V48.8102H31.92V52.7222H35.64V55.3382H31.92V59.2502H29.04ZM49.2009 56.1542C49.2009 57.6102 48.8409 58.7542 48.1209 59.5862C47.4009 60.4022 46.3369 60.9222 44.9289 61.1462V63.3782H42.3369V61.1942C41.3769 61.1142 40.4889 60.8902 39.6729 60.5222C38.8729 60.1542 38.1689 59.5942 37.5609 58.8422L39.6249 56.9942C39.9769 57.4742 40.4169 57.8502 40.9449 58.1222C41.4889 58.3782 42.0649 58.5462 42.6729 58.6262V54.0182C41.1209 53.6502 39.9529 53.1142 39.1689 52.4102C38.4009 51.7062 38.0169 50.7382 38.0169 49.5062C38.0169 48.1302 38.3769 47.0662 39.0969 46.3142C39.8329 45.5462 40.9129 45.0742 42.3369 44.8982V42.6902H44.9289V44.8982C46.6409 45.0902 47.9769 45.7702 48.9369 46.9382L46.9449 48.7382C46.6409 48.3702 46.2889 48.0902 45.8889 47.8982C45.4889 47.6902 45.0569 47.5462 44.5929 47.4662V51.6422C45.4089 51.8502 46.1049 52.0822 46.6809 52.3382C47.2569 52.5942 47.7289 52.8982 48.0969 53.2502C48.4809 53.6022 48.7609 54.0182 48.9369 54.4982C49.1129 54.9622 49.2009 55.5142 49.2009 56.1542ZM41.1129 49.3142C41.1129 49.7942 41.2409 50.1862 41.4969 50.4902C41.7689 50.7782 42.1609 51.0022 42.6729 51.1622V47.4662C42.1449 47.5462 41.7529 47.7302 41.4969 48.0182C41.2409 48.3062 41.1129 48.7382 41.1129 49.3142ZM46.1529 56.5382C46.1529 55.4982 45.6329 54.8102 44.5929 54.4742V58.5542C45.6329 58.3142 46.1529 57.6422 46.1529 56.5382ZM61.7567 61.4102H51.0047V58.2902L55.5887 53.8022C56.4207 52.9862 57.0047 52.2902 57.3407 51.7142C57.6927 51.1222 57.8687 50.4982 57.8687 49.8422V49.0742C57.8687 48.5302 57.6927 48.0902 57.3407 47.7542C57.0047 47.4182 56.5327 47.2502 55.9247 47.2502C55.5727 47.2502 55.2607 47.3222 54.9887 47.4662C54.7327 47.5942 54.5087 47.7702 54.3167 47.9942C54.1407 48.2182 53.9887 48.4822 53.8607 48.7862C53.7487 49.0742 53.6607 49.3862 53.5967 49.7222L50.6207 48.5942C50.7807 48.0182 50.9967 47.4742 51.2687 46.9622C51.5567 46.4502 51.9167 46.0022 52.3487 45.6182C52.7967 45.2342 53.3327 44.9302 53.9567 44.7062C54.5967 44.4822 55.3567 44.3702 56.2367 44.3702C57.1967 44.3702 58.0047 44.4822 58.6607 44.7062C59.3327 44.9302 59.8767 45.2502 60.2927 45.6662C60.7087 46.0662 61.0047 46.5702 61.1807 47.1782C61.3727 47.7702 61.4687 48.4342 61.4687 49.1702C61.4687 49.7462 61.4127 50.2742 61.3007 50.7542C61.1887 51.2342 60.9967 51.7142 60.7247 52.1942C60.4527 52.6582 60.0847 53.1542 59.6207 53.6822C59.1567 54.2102 58.5727 54.8102 57.8687 55.4822L54.6767 58.5302H61.7567V61.4102ZM74.0936 47.6582H67.3256L66.9656 53.0822H67.3496C67.5256 52.2982 67.8776 51.6742 68.4056 51.2102C68.9496 50.7462 69.6536 50.5142 70.5176 50.5142C71.9096 50.5142 73.0136 50.9382 73.8296 51.7862C74.6456 52.6342 75.0536 53.9702 75.0536 55.7942C75.0536 57.6822 74.5656 59.1382 73.5896 60.1622C72.6136 61.1862 71.1416 61.6982 69.1736 61.6982C68.4216 61.6982 67.7576 61.6102 67.1816 61.4342C66.6056 61.2742 66.0936 61.0502 65.6456 60.7622C65.1976 60.4742 64.8136 60.1382 64.4936 59.7542C64.1736 59.3702 63.9016 58.9622 63.6776 58.5302L66.1496 56.6102C66.4696 57.3142 66.8776 57.8822 67.3736 58.3142C67.8696 58.7302 68.4696 58.9382 69.1736 58.9382C70.6936 58.9382 71.4536 58.0902 71.4536 56.3942V55.6262C71.4536 54.8102 71.2536 54.2182 70.8536 53.8502C70.4536 53.4662 69.9176 53.2742 69.2456 53.2742C68.6696 53.2742 68.1976 53.4102 67.8296 53.6822C67.4616 53.9542 67.1896 54.2262 67.0136 54.4982L64.1096 54.1142L64.6856 44.6582H74.0936V47.6582Z" fill="white"/>
<path d="M35.36 17.31V14.702H32.88V12.958H35.36V10.35H37.28V12.958H39.76V14.702H37.28V17.31H35.36ZM48.8006 15.246C48.8006 16.2167 48.5606 16.9793 48.0806 17.534C47.6006 18.078 46.8913 18.4247 45.9526 18.574V20.062H44.2246V18.606C43.5846 18.5527 42.9926 18.4033 42.4486 18.158C41.9153 17.9127 41.446 17.5393 41.0406 17.038L42.4166 15.806C42.6513 16.126 42.9446 16.3767 43.2966 16.558C43.6593 16.7287 44.0433 16.8407 44.4486 16.894V13.822C43.414 13.5767 42.6353 13.2193 42.1126 12.75C41.6006 12.2807 41.3446 11.6353 41.3446 10.814C41.3446 9.89667 41.5846 9.18733 42.0646 8.686C42.5553 8.174 43.2753 7.85933 44.2246 7.742V6.27H45.9526V7.742C47.094 7.87 47.9846 8.32333 48.6246 9.102L47.2966 10.302C47.094 10.0567 46.8593 9.87 46.5926 9.742C46.326 9.60333 46.038 9.50733 45.7286 9.454V12.238C46.2726 12.3767 46.7366 12.5313 47.1206 12.702C47.5046 12.8727 47.8193 13.0753 48.0646 13.31C48.3206 13.5447 48.5073 13.822 48.6246 14.142C48.742 14.4513 48.8006 14.8193 48.8006 15.246ZM43.4086 10.686C43.4086 11.006 43.494 11.2673 43.6646 11.47C43.846 11.662 44.1073 11.8113 44.4486 11.918V9.454C44.0966 9.50733 43.8353 9.63 43.6646 9.822C43.494 10.014 43.4086 10.302 43.4086 10.686ZM46.7686 15.502C46.7686 14.8087 46.422 14.35 45.7286 14.126V16.846C46.422 16.686 46.7686 16.238 46.7686 15.502ZM50.4511 18.75V16.83H52.9311V9.214H52.7871L51.2351 11.422L49.7151 10.398L51.6991 7.582H55.1711V16.83H57.3311V18.75H50.4511ZM59.0918 18.75V16.83H61.5718V9.214H61.4278L59.8758 11.422L58.3558 10.398L60.3398 7.582H63.8118V16.83H65.9718V18.75H59.0918Z" fill="white"/>
</svg>
