<svg width="76" height="101" viewBox="0 0 76 101" fill="none" xmlns="http://www.w3.org/2000/svg">
<path d="M75.2302 0.570435C74.9302 0.350435 74.5302 0.450437 74.2802 0.760437L71.8102 3.85043L69.3002 0.720428C69.0002 0.350428 68.5202 0.350428 68.2202 0.720428L65.7102 3.85043L63.2002 0.720428C62.9002 0.350428 62.4202 0.350428 62.1202 0.720428L59.6102 3.85043L57.1902 0.830414L57.1302 0.720428C56.9802 0.530428 56.7802 0.440439 56.5802 0.450439C56.3802 0.450439 56.1802 0.530428 56.0302 0.720428L53.5402 3.83041L51.0502 0.720428C50.9002 0.530428 50.7002 0.440439 50.5002 0.450439C50.3002 0.450439 50.1002 0.530428 49.9502 0.720428L47.4602 3.83041L44.9702 0.720428C44.8202 0.530428 44.6202 0.440439 44.4202 0.450439C44.2202 0.450439 44.0202 0.530428 43.8702 0.720428L43.8102 0.830414L41.3902 3.85043L38.8802 0.720428C38.5802 0.350428 38.1002 0.350428 37.8002 0.720428L35.2902 3.85043L32.7802 0.720428C32.6302 0.530428 32.4302 0.44043 32.2302 0.44043C32.0302 0.44043 31.8302 0.530428 31.6802 0.720428L29.1902 3.84042L26.7002 0.720428C26.5502 0.530428 26.3502 0.44043 26.1502 0.44043C25.9502 0.44043 25.7502 0.530428 25.6002 0.720428L23.0902 3.85043L20.5802 0.720428C20.2802 0.350428 19.8002 0.350428 19.5002 0.720428L16.9902 3.85043L14.4802 0.720428C14.1802 0.350428 13.7002 0.350428 13.4002 0.720428L10.8902 3.85043L8.38023 0.720428C8.08023 0.350428 7.60023 0.350428 7.30023 0.720428L4.79022 3.85043L2.32024 0.760437C2.07024 0.450437 1.68022 0.340435 1.37022 0.570435C1.11022 0.760435 0.990234 1.08042 0.990234 1.40042V99.1904C0.990234 99.4604 1.08022 99.7304 1.26022 99.9204C1.57022 100.25 2.04023 100.18 2.33023 99.8204L4.80023 96.7404L7.31023 99.8704C7.61023 100.24 8.09023 100.24 8.39023 99.8704L10.9002 96.7404L13.4102 99.8704C13.7102 100.24 14.1902 100.24 14.4902 99.8704L17.0002 96.7404L19.5102 99.8704C19.8102 100.24 20.2902 100.24 20.5902 99.8704L23.1002 96.7404L25.6102 99.8704C25.7602 100.06 25.9602 100.15 26.1602 100.15C26.3602 100.15 26.5602 100.06 26.7102 99.8704L29.2002 96.7504L31.6902 99.8704C31.8402 100.06 32.0402 100.15 32.2402 100.15C32.4402 100.15 32.6402 100.06 32.7902 99.8704L35.3002 96.7404L37.8102 99.8704C38.1102 100.24 38.5902 100.24 38.8902 99.8704L41.4002 96.7404L43.8202 99.7604L43.8802 99.8704C44.0302 100.06 44.2302 100.15 44.4302 100.15C44.6302 100.15 44.8302 100.07 44.9802 99.8704L47.4702 96.7604L49.9602 99.8704C50.1102 100.06 50.3102 100.15 50.5102 100.15C50.7102 100.15 50.9102 100.07 51.0602 99.8704L53.5502 96.7604L56.0402 99.8704C56.1902 100.06 56.3902 100.15 56.5902 100.15C56.7902 100.15 56.9902 100.07 57.1402 99.8704L57.2002 99.7604L59.6202 96.7404L62.1302 99.8704C62.4302 100.24 62.9102 100.24 63.2102 99.8704L65.7202 96.7404L68.2302 99.8704C68.5302 100.24 69.0102 100.24 69.3102 99.8704L71.8202 96.7404L74.2902 99.8204C74.5802 100.18 75.0502 100.25 75.3602 99.9204C75.5402 99.7304 75.6302 99.4604 75.6302 99.1904V1.40042C75.6302 1.08042 75.5002 0.760435 75.2502 0.570435H75.2302Z" fill="white" stroke="#231F20" stroke-width="0.5" stroke-miterlimit="10"/>
<path d="M11.4199 30.4805H65.2399" stroke="#231F20" stroke-width="0.5" stroke-miterlimit="10" stroke-linecap="round"/>
<path d="M54.4803 21.3501C53.7103 21.3501 53.4103 20.7701 53.4103 19.7801V18.2401C53.4103 17.2601 53.7103 16.6701 54.4803 16.6701C55.2503 16.6701 55.5503 17.2501 55.5503 18.2401V19.7801C55.5503 20.7601 55.2503 21.3501 54.4803 21.3501ZM54.4803 21.9001C55.6903 21.9001 56.2203 21.0801 56.2203 19.0101C56.2203 16.9401 55.6803 16.1201 54.4803 16.1201C53.2803 16.1201 52.7403 16.9401 52.7403 19.0101C52.7403 21.0801 53.2803 21.9001 54.4803 21.9001ZM50.1603 21.3501C49.3903 21.3501 49.0903 20.7701 49.0903 19.7801V18.2401C49.0903 17.2601 49.3903 16.6701 50.1603 16.6701C50.9303 16.6701 51.2303 17.2501 51.2303 18.2401V19.7801C51.2303 20.7601 50.9303 21.3501 50.1603 21.3501ZM50.1603 21.9001C51.3703 21.9001 51.9003 21.0801 51.9003 19.0101C51.9003 16.9401 51.3603 16.1201 50.1603 16.1201C48.9603 16.1201 48.4203 16.9401 48.4203 19.0101C48.4203 21.0801 48.9603 21.9001 50.1603 21.9001ZM45.0203 18.6001V19.1601H45.6103C46.3003 19.1601 46.6703 19.5001 46.6703 20.1801V20.3101C46.6703 21.0001 46.3003 21.3301 45.6103 21.3301C45.0003 21.3301 44.7103 21.0401 44.4603 20.6101L43.9803 20.9701C44.2903 21.4401 44.7603 21.9001 45.6303 21.9001C46.7303 21.9001 47.3403 21.2701 47.3403 20.2801C47.3403 19.4101 46.8503 18.9701 46.2403 18.9001V18.8201C46.7903 18.7101 47.2403 18.2801 47.2403 17.5201C47.2403 16.5501 46.6303 16.1201 45.7203 16.1201C44.9103 16.1201 44.4503 16.5601 44.1903 17.0201L44.6503 17.3801C44.8603 16.9401 45.1603 16.6901 45.6703 16.6901C46.2103 16.6901 46.5603 16.9401 46.5603 17.5601V17.6801C46.5603 18.2401 46.2203 18.5901 45.5503 18.5901H45.0103L45.0203 18.6001ZM42.6903 21.9001C43.0003 21.9001 43.1603 21.7601 43.1603 21.4901V21.3601C43.1603 21.1001 43.0003 20.9501 42.6903 20.9501C42.3803 20.9501 42.2203 21.0901 42.2203 21.3601V21.4901C42.2203 21.7501 42.3803 21.9001 42.6903 21.9001ZM41.2203 21.2401H38.5903L39.9803 19.7801C40.8103 18.9101 41.0403 18.4501 41.0403 17.7201C41.0403 16.6801 40.5503 16.1301 39.5103 16.1301C38.6503 16.1301 38.0903 16.6501 37.8803 17.3301L38.4403 17.5501C38.5803 17.0101 38.9303 16.6901 39.5003 16.6901C40.0703 16.6901 40.3703 17.0101 40.3703 17.6901V17.9001C40.3703 18.3601 40.1403 18.8301 39.6003 19.3801L37.9103 21.1401V21.8001H41.2303V21.2401H41.2203ZM34.9903 21.8001L36.8603 16.7801V16.2201H33.5403V17.8101H34.1103V16.7701H36.2103L34.3103 21.8001H34.9903ZM32.0703 21.9001C32.3803 21.9001 32.5403 21.7601 32.5403 21.4901V21.3601C32.5403 21.1001 32.3803 20.9501 32.0703 20.9501C31.7603 20.9501 31.6003 21.0901 31.6003 21.3601V21.4901C31.6003 21.7501 31.7603 21.9001 32.0703 21.9001ZM30.7003 21.8001V21.2401H29.4203V16.2201H28.7203L27.1403 17.2601L27.4103 17.7001L28.7903 16.8001V21.2401H27.4003V21.8001H30.7103H30.7003ZM26.3803 21.8001V21.2401H25.1003V16.2201H24.4003L22.8203 17.2601L23.0903 17.7001L24.4703 16.8001V21.2401H23.0803V21.8001H26.3903H26.3803Z" fill="#231F20"/>
<path d="M49.6591 45.8003H50.9091L48.5291 41.7803L50.7491 38.8203H49.5291L47.8891 41.1203L46.9991 42.4203H46.8691L46.9291 41.1203V38.8203H45.8691V45.8003H46.9291V43.6203L47.7991 42.5003L49.6591 45.8003ZM43.0291 43.0003H41.1891L41.8091 40.8003L42.0291 39.7803H42.1591L42.3792 40.8003L43.0291 43.0003ZM44.8891 45.8003L42.7891 38.8203H41.4391L39.3492 45.8003H40.3891L40.9291 43.8703H43.2791L43.8192 45.8003H44.8891ZM38.5992 45.8003V44.8703H35.6091V42.7103H38.3091V41.7903H35.6091V39.7503H38.5992V38.8203H34.5491V45.8003H38.5992ZM29.9291 39.7603H31.5391C32.0391 39.7603 32.3091 40.0103 32.3091 40.5803V41.2203C32.3091 41.7903 32.0391 42.0403 31.5391 42.0403H29.9291V39.7603ZM29.9291 45.8003V42.9803H31.6292C32.8192 42.9803 33.4391 42.2403 33.4391 40.9003C33.4391 39.5603 32.8192 38.8203 31.6292 38.8203H28.8691V45.8003H29.9291Z" fill="#231F20"/>
<path d="M47.9709 54.0602V51.7502H49.5809C50.0809 51.7502 50.3509 52.0002 50.3509 52.5802V53.2302C50.3509 53.8102 50.0809 54.0602 49.5809 54.0602H47.9709ZM47.9709 54.9502H49.2209L50.4308 57.8002H51.6109L50.2809 54.8702C51.0709 54.6502 51.4809 53.9702 51.4809 52.8902C51.4809 51.5602 50.8609 50.8202 49.6709 50.8202H46.9109V57.8002H47.9709V54.9502ZM40.6609 50.8302V55.1802C40.6609 57.0802 41.2808 57.9302 43.0408 57.9302C44.8008 57.9302 45.4209 57.0802 45.4209 55.1802V50.8302H44.3609V55.3502C44.3609 56.4602 44.0208 56.9902 43.0408 56.9902C42.0608 56.9902 41.7209 56.4602 41.7209 55.3502V50.8302H40.6609ZM36.7509 56.9802C35.7509 56.9802 35.1808 56.2902 35.1808 55.1502V53.4702C35.1808 52.3302 35.7509 51.6402 36.7509 51.6402C37.7509 51.6402 38.3209 52.3302 38.3209 53.4702V55.1502C38.3209 56.2902 37.7509 56.9802 36.7509 56.9802ZM36.7509 57.9202C38.4309 57.9202 39.4609 56.8502 39.4609 54.3102C39.4609 51.7702 38.4309 50.7002 36.7509 50.7002C35.0709 50.7002 34.0408 51.7702 34.0408 54.3102C34.0408 56.8502 35.0709 57.9202 36.7509 57.9202ZM31.7209 57.8002H32.7809V50.8202H31.7209V53.7902H28.9409V50.8202H27.8809V57.8002H28.9409V54.7102H31.7209V57.8002Z" fill="#231F20"/>
<path d="M47.5006 81.8001L50.2906 73.7501V72.0301H44.0106V75.3901H45.6906V73.6401H48.3406L45.4006 81.8101H47.5006V81.8001ZM39.7406 74.0301H39.9606V78.3901H37.6506L39.7406 74.0301ZM41.8606 81.8001V79.9501H42.9806V78.3801H41.8606V72.0201H39.3106L36.1406 78.2401V79.9501H39.9606V81.8001H41.8506H41.8606ZM33.6506 78.9601C33.6506 79.6201 33.3306 80.0001 32.7406 80.1401V77.7601C33.3406 77.9601 33.6506 78.3501 33.6506 78.9601ZM30.7106 74.7401C30.7106 74.0701 31.0006 73.7601 31.6206 73.6601V75.8201C31.0206 75.6401 30.7106 75.3001 30.7106 74.7401ZM35.4306 78.7301C35.4306 77.2501 34.6306 76.5701 32.7406 76.1001V73.6601C33.2906 73.7401 33.7606 73.9701 34.1106 74.4001L35.2706 73.3501C34.7006 72.6501 33.9306 72.2701 32.9306 72.1601V70.8701H31.4206V72.1601C29.7706 72.3601 28.9006 73.2501 28.9006 74.8501C28.9006 76.2901 29.8106 77.0501 31.6206 77.4801V80.1701C30.9106 80.0901 30.2506 79.7801 29.8406 79.2201L28.6406 80.3001C29.3406 81.1701 30.3106 81.5701 31.4306 81.6701V82.9401H32.9406V81.6401C34.5606 81.3901 35.4306 80.4201 35.4306 78.7301Z" fill="#231F20"/>
</svg>
