<svg width="100" height="108" viewBox="0 0 100 108" fill="none" xmlns="http://www.w3.org/2000/svg">
<path d="M100 0H0V108H100V0Z" fill="#231F20"/>
<path d="M40.32 57.4822C40.32 59.4236 39.84 60.9489 38.88 62.0582C37.92 63.1462 36.5013 63.8396 34.624 64.1382V67.1142H31.168V64.2022C29.888 64.0956 28.704 63.7969 27.616 63.3062C26.5493 62.8156 25.6107 62.0689 24.8 61.0662L27.552 58.6022C28.0213 59.2422 28.608 59.7436 29.312 60.1062C30.0373 60.4476 30.8053 60.6716 31.616 60.7782V54.6342C29.5467 54.1436 27.9893 53.4289 26.944 52.4902C25.92 51.5516 25.408 50.2609 25.408 48.6182C25.408 46.7836 25.888 45.3649 26.848 44.3622C27.8293 43.3382 29.2693 42.7089 31.168 42.4742V39.5302H34.624V42.4742C36.9067 42.7302 38.688 43.6369 39.968 45.1942L37.312 47.5942C36.9067 47.1036 36.4373 46.7302 35.904 46.4742C35.3707 46.1969 34.7947 46.0049 34.176 45.8982V51.4662C35.264 51.7436 36.192 52.0529 36.96 52.3942C37.728 52.7356 38.3573 53.1409 38.848 53.6102C39.36 54.0796 39.7333 54.6342 39.968 55.2742C40.2027 55.8929 40.32 56.6289 40.32 57.4822ZM29.536 48.3622C29.536 49.0022 29.7067 49.5249 30.048 49.9302C30.4107 50.3142 30.9333 50.6129 31.616 50.8262V45.8982C30.912 46.0049 30.3893 46.2502 30.048 46.6342C29.7067 47.0182 29.536 47.5942 29.536 48.3622ZM36.256 57.9942C36.256 56.6076 35.5627 55.6902 34.176 55.2422V60.6822C35.5627 60.3622 36.256 59.4662 36.256 57.9942ZM56.229 46.1542H47.205L46.725 53.3862H47.237C47.4717 52.3409 47.941 51.5089 48.645 50.8902C49.3703 50.2716 50.309 49.9622 51.461 49.9622C53.317 49.9622 54.789 50.5276 55.877 51.6582C56.965 52.7889 57.509 54.5702 57.509 57.0022C57.509 59.5196 56.8583 61.4609 55.557 62.8262C54.2557 64.1916 52.293 64.8742 49.669 64.8742C48.6663 64.8742 47.781 64.7569 47.013 64.5222C46.245 64.3089 45.5623 64.0102 44.965 63.6262C44.3677 63.2422 43.8557 62.7942 43.429 62.2822C43.0023 61.7702 42.6397 61.2262 42.341 60.6502L45.637 58.0902C46.0637 59.0289 46.6077 59.7862 47.269 60.3622C47.9303 60.9169 48.7303 61.1942 49.669 61.1942C51.6957 61.1942 52.709 60.0636 52.709 57.8022V56.7782C52.709 55.6902 52.4423 54.9009 51.909 54.4102C51.3757 53.8982 50.661 53.6422 49.765 53.6422C48.997 53.6422 48.3677 53.8236 47.877 54.1862C47.3863 54.5489 47.0237 54.9116 46.789 55.2742L42.917 54.7622L43.685 42.1542H56.229V46.1542ZM67.0463 64.8742C65.7023 64.8742 64.5503 64.6609 63.5903 64.2342C62.6303 63.7862 61.8303 63.1036 61.1903 62.1862C60.5716 61.2476 60.1129 60.0529 59.8143 58.6022C59.5156 57.1302 59.3663 55.3702 59.3663 53.3222C59.3663 51.2742 59.5156 49.5249 59.8143 48.0742C60.1129 46.6022 60.5716 45.4076 61.1903 44.4902C61.8303 43.5516 62.6303 42.8689 63.5903 42.4422C64.5503 41.9942 65.7023 41.7702 67.0463 41.7702C68.3903 41.7702 69.5423 41.9942 70.5023 42.4422C71.4623 42.8689 72.2516 43.5516 72.8703 44.4902C73.5103 45.4076 73.9796 46.6022 74.2783 48.0742C74.5769 49.5249 74.7263 51.2742 74.7263 53.3222C74.7263 55.3702 74.5769 57.1302 74.2783 58.6022C73.9796 60.0529 73.5103 61.2476 72.8703 62.1862C72.2516 63.1036 71.4623 63.7862 70.5023 64.2342C69.5423 64.6609 68.3903 64.8742 67.0463 64.8742ZM67.0463 61.0342C67.5796 61.0342 68.0276 60.9596 68.3903 60.8102C68.7529 60.6396 69.0409 60.3836 69.2543 60.0422C69.4676 59.6796 69.6169 59.2102 69.7023 58.6342C69.8089 58.0582 69.8623 57.3436 69.8623 56.4902V50.1542C69.8623 48.4689 69.6596 47.2956 69.2543 46.6342C68.8489 45.9516 68.1129 45.6102 67.0463 45.6102C65.9796 45.6102 65.2436 45.9516 64.8383 46.6342C64.4329 47.2956 64.2303 48.4689 64.2303 50.1542V56.4902C64.2303 57.3436 64.2729 58.0582 64.3583 58.6342C64.4649 59.2102 64.6249 59.6796 64.8383 60.0422C65.0516 60.3836 65.3396 60.6396 65.7023 60.8102C66.0649 60.9596 66.5129 61.0342 67.0463 61.0342Z" fill="white"/>
</svg>
