<svg width="76" height="111" viewBox="0 0 76 111" fill="none" xmlns="http://www.w3.org/2000/svg">
<path d="M75.0802 0.53C74.7802 0.16 74.3002 0.16 74.0002 0.53L71.4901 3.66L68.9801 0.53C68.6801 0.16 68.2002 0.16 67.9002 0.53L65.3902 3.66L62.8802 0.53C62.5802 0.16 62.1001 0.16 61.8001 0.53L59.2901 3.66L56.8701 0.64L56.8102 0.53C56.6602 0.34 56.4602 0.25 56.2602 0.26C56.0602 0.26 55.8602 0.34 55.7102 0.53L53.2201 3.64L50.7302 0.53C50.5802 0.34 50.3801 0.25 50.1801 0.26C49.9801 0.26 49.7802 0.34 49.6302 0.53L47.1402 3.64L44.6501 0.53C44.5001 0.34 44.3002 0.25 44.1002 0.26C43.9002 0.26 43.7001 0.34 43.5501 0.53L43.4901 0.64L41.0702 3.66L38.5602 0.53C38.2602 0.16 37.7802 0.16 37.4802 0.53L34.9702 3.66L32.4601 0.53C32.3101 0.34 32.1102 0.25 31.9102 0.25C31.7102 0.25 31.5101 0.34 31.3601 0.53L28.8701 3.65L26.3802 0.53C26.2302 0.34 26.0301 0.25 25.8301 0.25C25.6301 0.25 25.4302 0.34 25.2802 0.53L22.7701 3.66L20.2602 0.53C19.9602 0.16 19.4801 0.16 19.1801 0.53L16.6702 3.66L14.1602 0.53C13.8602 0.16 13.3801 0.16 13.0801 0.53L10.5702 3.66L8.06015 0.53C7.76015 0.16 7.28016 0.16 6.98016 0.53L4.47015 3.66L1.96014 0.53C1.66014 0.16 1.18016 0.16 0.880157 0.53C0.730157 0.72 0.660156 0.96 0.660156 1.2V108.99C0.660156 109.23 0.730157 109.48 0.880157 109.66C1.18016 110.03 1.66014 110.03 1.96014 109.66L4.47015 106.53L6.98016 109.66C7.28016 110.03 7.76015 110.03 8.06015 109.66L10.5702 106.53L13.0801 109.66C13.3801 110.03 13.8602 110.03 14.1602 109.66L16.6702 106.53L19.1801 109.66C19.4801 110.03 19.9602 110.03 20.2602 109.66L22.7701 106.53L25.2802 109.66C25.4302 109.85 25.6301 109.94 25.8301 109.94C26.0301 109.94 26.2302 109.85 26.3802 109.66L28.8701 106.54L31.3601 109.66C31.5101 109.85 31.7102 109.94 31.9102 109.94C32.1102 109.94 32.3101 109.85 32.4601 109.66L34.9702 106.53L37.4802 109.66C37.7802 110.03 38.2602 110.03 38.5602 109.66L41.0702 106.53L43.4901 109.55L43.5501 109.66C43.7001 109.85 43.9002 109.94 44.1002 109.93C44.3002 109.93 44.5001 109.85 44.6501 109.66L47.1402 106.55L49.6302 109.66C49.7802 109.85 49.9801 109.94 50.1801 109.93C50.3801 109.93 50.5802 109.85 50.7302 109.66L53.2201 106.55L55.7102 109.66C55.8602 109.85 56.0602 109.94 56.2602 109.93C56.4602 109.93 56.6602 109.85 56.8102 109.66L56.8701 109.55L59.2901 106.53L61.8001 109.66C62.1001 110.03 62.5802 110.03 62.8802 109.66L65.3902 106.53L67.9002 109.66C68.2002 110.03 68.6801 110.03 68.9801 109.66L71.4901 106.53L74.0002 109.66C74.3002 110.03 74.7802 110.03 75.0802 109.66C75.2302 109.47 75.3001 109.23 75.3001 108.99V1.2C75.3001 0.96 75.2302 0.71 75.0802 0.53Z" fill="white" stroke="#231F20" stroke-width="0.5" stroke-miterlimit="10"/>
<path d="M52.8399 21.1499C52.0699 21.1499 51.7699 20.5699 51.7699 19.5799V18.0399C51.7699 17.0599 52.0699 16.4699 52.8399 16.4699C53.6099 16.4699 53.9099 17.0499 53.9099 18.0399V19.5799C53.9099 20.5599 53.6099 21.1499 52.8399 21.1499ZM52.8399 21.6999C54.0499 21.6999 54.5799 20.8799 54.5799 18.8099C54.5799 16.7399 54.0399 15.9199 52.8399 15.9199C51.6399 15.9199 51.0999 16.7399 51.0999 18.8099C51.0999 20.8799 51.6399 21.6999 52.8399 21.6999ZM47.6899 18.3999V18.9599H48.2799C48.9699 18.9599 49.3399 19.2999 49.3399 19.9799V20.1099C49.3399 20.7999 48.9699 21.1299 48.2799 21.1299C47.6699 21.1299 47.3799 20.8399 47.1299 20.4099L46.6499 20.7699C46.9599 21.2399 47.4299 21.6999 48.2999 21.6999C49.3899 21.6999 50.0099 21.0699 50.0099 20.0799C50.0099 19.2099 49.5199 18.7699 48.9099 18.6999V18.6199C49.4599 18.5099 49.9099 18.0799 49.9099 17.3199C49.9099 16.3499 49.2999 15.9199 48.3899 15.9199C47.5799 15.9199 47.1199 16.3599 46.8599 16.8199L47.3199 17.1799C47.5299 16.7399 47.8299 16.4899 48.3399 16.4899C48.8799 16.4899 49.2299 16.7399 49.2299 17.3599V17.4799C49.2299 18.0399 48.8899 18.3899 48.2199 18.3899H47.6799L47.6899 18.3999ZM43.3699 18.3999V18.9599H43.9599C44.6499 18.9599 45.0199 19.2999 45.0199 19.9799V20.1099C45.0199 20.7999 44.6499 21.1299 43.9599 21.1299C43.3499 21.1299 43.0599 20.8399 42.8099 20.4099L42.3299 20.7699C42.6399 21.2399 43.1099 21.6999 43.9799 21.6999C45.0699 21.6999 45.6899 21.0699 45.6899 20.0799C45.6899 19.2099 45.1999 18.7699 44.5899 18.6999V18.6199C45.1399 18.5099 45.5899 18.0799 45.5899 17.3199C45.5899 16.3499 44.9799 15.9199 44.0699 15.9199C43.2599 15.9199 42.7999 16.3599 42.5399 16.8199L42.9999 17.1799C43.2099 16.7399 43.5099 16.4899 44.0199 16.4899C44.5599 16.4899 44.9099 16.7399 44.9099 17.3599V17.4799C44.9099 18.0399 44.5699 18.3899 43.8999 18.3899H43.3599L43.3699 18.3999ZM41.0499 21.6999C41.3599 21.6999 41.5199 21.5599 41.5199 21.2899V21.1599C41.5199 20.8999 41.3599 20.7499 41.0499 20.7499C40.7399 20.7499 40.5799 20.8899 40.5799 21.1599V21.2899C40.5799 21.5499 40.7399 21.6999 41.0499 21.6999ZM39.5799 21.0399H36.9499L38.3399 19.5799C39.1699 18.7099 39.3999 18.2499 39.3999 17.5199C39.3999 16.4799 38.9099 15.9299 37.8699 15.9299C37.0099 15.9299 36.4499 16.4499 36.2399 17.1299L36.7999 17.3499C36.9399 16.8099 37.2899 16.4899 37.8599 16.4899C38.4299 16.4899 38.7299 16.8099 38.7299 17.4899V17.6999C38.7299 18.1599 38.4999 18.6299 37.9599 19.1799L36.2699 20.9399V21.5999H39.5899V21.0399H39.5799ZM33.3499 21.5999L35.2199 16.5799V16.0199H31.8999V17.6099H32.4699V16.5699H34.5699L32.6699 21.5999H33.3499ZM30.4199 21.6999C30.7299 21.6999 30.8899 21.5599 30.8899 21.2899V21.1599C30.8899 20.8999 30.7299 20.7499 30.4199 20.7499C30.1099 20.7499 29.9499 20.8899 29.9499 21.1599V21.2899C29.9499 21.5499 30.1099 21.6999 30.4199 21.6999ZM29.0499 21.5999V21.0399H27.7699V16.0199H27.0699L25.4899 17.0599L25.7599 17.4999L27.1399 16.5999V21.0399H25.7499V21.5999H29.0599H29.0499ZM24.7299 21.5999V21.0399H23.4499V16.0199H22.7499L21.1699 17.0599L21.4399 17.4999L22.8199 16.5999V21.0399H21.4299V21.5999H24.7399H24.7299Z" fill="#231F20"/>
<path d="M46.9601 45.6H48.1901V38.62H47.1701V42.79L47.2501 44.11H47.1201L46.5801 42.81L44.5001 38.62H43.2801V45.6H44.3001V41.43L44.2201 40.11H44.3501L44.8801 41.41L46.9601 45.6ZM40.9501 45.6H41.8901V41.91H39.5701V42.82H40.8601V43.43C40.8601 44.29 40.2001 44.78 39.3701 44.78C38.3801 44.78 37.7901 44.1 37.7901 42.96V41.26C37.7901 40.12 38.3801 39.44 39.3701 39.44C40.1901 39.44 40.6601 39.87 40.9001 40.55L41.7701 40.04C41.3401 39.06 40.5901 38.5 39.3601 38.5C37.6801 38.5 36.6501 39.57 36.6501 42.12C36.6501 44.67 37.7301 45.72 39.1601 45.72C40.1501 45.72 40.7001 45.23 40.8301 44.57H40.9501V45.6ZM35.6501 45.6V44.75H34.8001V39.47H35.6501V38.62H32.8901V39.47H33.7401V44.75H32.8901V45.6H35.6501ZM29.6701 45.72C31.1301 45.72 31.9801 44.97 31.9801 43.58C31.9801 42.42 31.4601 41.88 30.1301 41.58L29.5601 41.45C28.8901 41.29 28.6001 41.02 28.6001 40.44C28.6001 39.73 28.9801 39.43 29.7401 39.43C30.4101 39.43 30.8301 39.68 31.1901 40.19L31.9201 39.55C31.4201 38.83 30.7501 38.5 29.7601 38.5C28.3701 38.5 27.5401 39.18 27.5401 40.47C27.5401 41.58 28.1201 42.17 29.3701 42.45L29.9401 42.57C30.6501 42.74 30.9201 43.04 30.9201 43.65C30.9201 44.41 30.4901 44.79 29.6801 44.79C29.0001 44.79 28.4701 44.47 28.0601 43.9L27.3301 44.57C27.8701 45.31 28.6401 45.72 29.6701 45.72Z" fill="#231F20"/>
<path d="M50.6499 56.67V51.55H51.8899C52.7999 51.55 53.3599 52.16 53.3599 53.3V54.92C53.3599 56.06 52.7999 56.67 51.8899 56.67H50.6499ZM49.5899 57.6H51.8899C53.5399 57.6 54.4999 56.57 54.4999 54.11C54.4999 51.65 53.5399 50.62 51.8899 50.62H49.5899V57.6ZM48.2799 57.6V56.67H45.2899V54.51H47.9899V53.59H45.2899V51.55H48.2799V50.62H44.2299V57.6H48.2799ZM43.2399 51.56V50.63H38.4799V51.56H40.3299V57.61H41.3899V51.56H43.2399ZM35.6699 57.72C37.1299 57.72 37.9799 56.97 37.9799 55.58C37.9799 54.42 37.4599 53.88 36.1299 53.58L35.5599 53.45C34.8899 53.29 34.5999 53.02 34.5999 52.44C34.5999 51.73 34.9799 51.43 35.7399 51.43C36.4099 51.43 36.8299 51.68 37.1899 52.19L37.9199 51.55C37.4199 50.83 36.7499 50.5 35.7599 50.5C34.3699 50.5 33.5399 51.18 33.5399 52.47C33.5399 53.58 34.1199 54.17 35.3699 54.45L35.9399 54.57C36.6499 54.74 36.9199 55.04 36.9199 55.65C36.9199 56.41 36.4899 56.79 35.6799 56.79C34.9999 56.79 34.4699 56.47 34.0599 55.9L33.3299 56.57C33.8699 57.31 34.6399 57.72 35.6699 57.72ZM29.7799 56.78C28.7799 56.78 28.2099 56.09 28.2099 54.95V53.27C28.2099 52.13 28.7799 51.44 29.7799 51.44C30.7799 51.44 31.3499 52.13 31.3499 53.27V54.95C31.3499 56.09 30.7799 56.78 29.7799 56.78ZM29.7799 57.72C31.4599 57.72 32.4899 56.65 32.4899 54.11C32.4899 51.57 31.4599 50.5 29.7799 50.5C28.0999 50.5 27.0699 51.57 27.0699 54.11C27.0699 56.65 28.0999 57.72 29.7799 57.72ZM22.7299 51.57H24.3399C24.8399 51.57 25.1099 51.82 25.1099 52.39V53.03C25.1099 53.6 24.8399 53.85 24.3399 53.85H22.7299V51.57ZM22.7299 57.6V54.78H24.4299C25.6199 54.78 26.2399 54.04 26.2399 52.7C26.2399 51.36 25.6199 50.62 24.4299 50.62H21.6699V57.6H22.7299Z" fill="#231F20"/>
<path d="M59.771 69.72C61.231 69.72 62.081 68.97 62.081 67.58C62.081 66.42 61.5609 65.88 60.2309 65.58L59.6609 65.45C58.9909 65.29 58.701 65.02 58.701 64.44C58.701 63.73 59.081 63.43 59.841 63.43C60.511 63.43 60.9309 63.68 61.2909 64.19L62.021 63.55C61.521 62.83 60.8509 62.5 59.8609 62.5C58.4709 62.5 57.641 63.18 57.641 64.47C57.641 65.58 58.2209 66.17 59.4709 66.45L60.0409 66.57C60.7509 66.74 61.021 67.04 61.021 67.65C61.021 68.41 60.591 68.79 59.781 68.79C59.101 68.79 58.5709 68.47 58.1609 67.9L57.4309 68.57C57.9709 69.31 58.741 69.72 59.771 69.72ZM55.1009 69.6H56.331V62.62H55.3109V66.79L55.391 68.11H55.261L54.7209 66.81L52.641 62.62H51.421V69.6H52.4409V65.43L52.3609 64.11H52.4909L53.021 65.41L55.1009 69.6ZM47.4609 68.78C46.4609 68.78 45.891 68.09 45.891 66.95V65.27C45.891 64.13 46.4609 63.44 47.4609 63.44C48.4609 63.44 49.0309 64.13 49.0309 65.27V66.95C49.0309 68.09 48.4609 68.78 47.4609 68.78ZM47.4609 69.72C49.1409 69.72 50.171 68.65 50.171 66.11C50.171 63.57 49.1409 62.5 47.4609 62.5C45.7809 62.5 44.7509 63.57 44.7509 66.11C44.7509 68.65 45.7809 69.72 47.4609 69.72ZM43.7509 69.6V68.75H42.9009V63.47H43.7509V62.62H40.9909V63.47H41.8409V68.75H40.9909V69.6H43.7509ZM40.2709 63.56V62.63H35.511V63.56H37.3609V69.61H38.421V63.56H40.2709ZM33.821 66.81H31.981L32.601 64.61L32.821 63.59H32.951L33.171 64.61L33.821 66.81ZM35.671 69.6L33.571 62.62H32.2209L30.131 69.6H31.171L31.7109 67.67H34.0609L34.601 69.6H35.671ZM27.381 69.72C28.571 69.72 29.261 69.15 29.701 68.13L28.821 67.61C28.571 68.43 28.121 68.79 27.381 68.79C26.441 68.79 25.881 68.09 25.881 66.95V65.27C25.881 64.13 26.441 63.43 27.381 63.43C28.111 63.43 28.521 63.76 28.761 64.54L29.6609 64.04C29.2309 63.01 28.571 62.5 27.381 62.5C25.761 62.5 24.7409 63.57 24.7409 66.11C24.7409 68.65 25.761 69.72 27.381 69.72ZM21.0509 68.78C20.0509 68.78 19.481 68.09 19.481 66.95V65.27C19.481 64.13 20.0509 63.44 21.0509 63.44C22.0509 63.44 22.6209 64.13 22.6209 65.27V66.95C22.6209 68.09 22.0509 68.78 21.0509 68.78ZM21.0509 69.72C22.7309 69.72 23.761 68.65 23.761 66.11C23.761 63.57 22.7309 62.5 21.0509 62.5C19.3709 62.5 18.3409 63.57 18.3409 66.11C18.3409 68.65 19.3709 69.72 21.0509 69.72ZM17.8109 69.6V68.67H15.2709V62.62H14.2109V69.6H17.8109Z" fill="#231F20"/>
<path d="M45.66 85.8297H45.88V90.1897H43.57L45.66 85.8297ZM47.77 93.5997V91.7497H48.89V90.1797H47.77V83.8197H45.22L42.05 90.0397V91.7497H45.87V93.5997H47.76H47.77ZM38.1 85.8297H38.32V90.1897H36.01L38.1 85.8297ZM40.21 93.5997V91.7497H41.33V90.1797H40.21V83.8197H37.66L34.49 90.0397V91.7497H38.31V93.5997H40.2H40.21ZM32.01 90.7597C32.01 91.4197 31.69 91.7997 31.1 91.9397V89.5597C31.7 89.7597 32.01 90.1497 32.01 90.7597ZM29.07 86.5397C29.07 85.8697 29.36 85.5597 29.98 85.4597V87.6197C29.38 87.4397 29.07 87.0997 29.07 86.5397ZM33.79 90.5397C33.79 89.0597 32.99 88.3797 31.1 87.9097V85.4697C31.65 85.5497 32.12 85.7797 32.47 86.2097L33.63 85.1597C33.06 84.4597 32.29 84.0797 31.29 83.9697V82.6797H29.78V83.9697C28.13 84.1697 27.26 85.0597 27.26 86.6597C27.26 88.0997 28.17 88.8597 29.98 89.2897V91.9797C29.27 91.8997 28.61 91.5897 28.2 91.0297L27 92.1097C27.7 92.9797 28.67 93.3797 29.79 93.4797V94.7497H31.3V93.4497C32.92 93.1997 33.79 92.2297 33.79 90.5397Z" fill="#231F20"/>
<path d="M11.1191 30.2803H64.9291" stroke="#231F20" stroke-width="0.5" stroke-miterlimit="10" stroke-linecap="round"/>
</svg>
