<svg width="52" height="64" viewBox="0 0 52 64" fill="none" xmlns="http://www.w3.org/2000/svg">
<g clip-path="url(#clip0_3233_633)">
<path d="M0 18.4904V61.5504C0 62.8104 1.02 63.8304 2.28 63.8304H49.1C50.36 63.8304 51.38 62.8104 51.38 61.5504V8.64035C51.38 7.38035 50.36 6.36035 49.1 6.36035H42.52V8.18035C43.57 8.91035 44.27 10.0904 44.38 11.4304C44.39 11.5604 44.42 11.6804 44.42 11.8104C44.42 14.2504 42.43 16.2404 39.99 16.2404C37.55 16.2404 35.56 14.2504 35.56 11.8104C35.56 11.6804 35.59 11.5604 35.6 11.4304C35.72 10.0904 36.42 8.91035 37.46 8.18035V6.36035H15.2V7.54035C16.35 8.34035 17.1 9.67035 17.1 11.1704C17.1 11.2604 17.08 11.3404 17.07 11.4204C16.94 13.7404 15.02 15.6004 12.66 15.6004C10.3 15.6004 8.39 13.7404 8.25 11.4204C8.25 11.3304 8.22 11.2504 8.22 11.1704C8.22 9.67035 8.97 8.34035 10.12 7.54035V6.36035H2.28C1.02 6.36035 0 7.38035 0 8.64035V18.4904Z" fill="#231F20"/>
<path d="M12.68 13.47C13.73 13.47 14.59 12.61 14.59 11.56V1.91C14.59 0.86 13.73 0 12.68 0C11.63 0 10.77 0.86 10.77 1.91V11.56C10.77 12.61 11.63 13.47 12.68 13.47Z" fill="#231F20"/>
<path d="M39.9901 13.47C41.0401 13.47 41.9001 12.61 41.9001 11.56V1.91C41.9001 0.86 41.0401 0 39.9901 0C38.9401 0 38.0801 0.86 38.0801 1.91V11.56C38.0801 12.61 38.9401 13.47 39.9901 13.47Z" fill="#231F20"/>
<path d="M48.7901 21.0303H2.6001V61.4203H48.7901V21.0303Z" fill="white"/>
</g>
<defs>
<clipPath id="clip0_3233_633">
<rect width="51.38" height="63.83" fill="white"/>
</clipPath>
</defs>
</svg>
