<svg width="78" height="65" viewBox="0 0 78 65" fill="none" xmlns="http://www.w3.org/2000/svg">
<g clip-path="url(#clip0_3198_379)">
<path d="M4.28043 18.0102L49.7804 42.3402L55.6704 56.8502L1.26043 26.7602L0.94043 20.4802C1.02043 19.2502 3.19043 17.4402 4.28043 18.0002V18.0102Z" fill="white"/>
<path d="M21.6999 42.6701C23.1199 47.2401 21.3799 51.4401 17.8199 52.0401C14.2499 52.6401 10.2099 49.4201 8.7899 44.8501C7.3699 40.2801 9.1099 36.0801 12.6699 35.4801C16.2399 34.8801 20.2799 38.1001 21.6999 42.6701Z" fill="#231F20" stroke="#231F20" stroke-width="1.87" stroke-linecap="round" stroke-linejoin="round"/>
<path d="M58.8896 59.3297C60.3796 61.2097 62.3797 62.3997 64.4097 62.3597C68.0197 62.2997 70.3596 58.4397 69.6696 53.7197L58.8997 59.3297H58.8896Z" fill="#231F20" stroke="#231F20" stroke-width="1.87" stroke-linecap="round" stroke-linejoin="round"/>
<path d="M55.6601 58.0698L55.6201 63.1898L60.4201 60.1298L60.6201 55.2598L55.6601 58.0698Z" fill="#F7941E"/>
<path d="M72.5397 48.1399L72.4297 53.5999L76.4197 51.1099L76.7397 45.6299L72.5397 48.1399Z" fill="#F7941E"/>
<path d="M61 54.1402L71.69 48.4902V53.7302L61.17 59.8002L61.04 54.1402" fill="white"/>
<path d="M50.2505 42.7204L22.7305 27.6604L23.1505 11.6504L41.6305 21.3604L50.2505 42.7204Z" fill="#231F20"/>
<path d="M1.43977 37.2398L43.7098 61.6198L55.6698 63.3398V56.8498L1.25977 26.7598" fill="#2B3990"/>
<path d="M1.43977 37.2398L43.7098 61.6198L55.6698 63.3398V56.8498L1.25977 26.7598" stroke="black" stroke-width="1.87" stroke-linecap="round" stroke-linejoin="round"/>
<path d="M49.7797 42.3401L5.06969 18.0901C3.22969 17.0301 0.929688 18.3601 0.929688 20.4801L1.13969 37.0201" stroke="black" stroke-width="1.87" stroke-linecap="round" stroke-linejoin="round"/>
<path d="M23.3301 26.4104V11.9404L41.9601 22.3404L63.1701 10.5704L42.8801 0.94043L23.4301 11.8504" stroke="black" stroke-width="1.87" stroke-linecap="round" stroke-linejoin="round"/>
<path d="M76.6996 45V51.07L55.8496 63.19V57.81" stroke="black" stroke-width="1.87" stroke-linecap="round" stroke-linejoin="round"/>
<path d="M63.2195 10.6797L76.6995 44.9997L55.8495 57.0497L42.2695 22.1097L63.2195 10.6797Z" fill="white" stroke="black" stroke-width="1.87" stroke-linecap="round" stroke-linejoin="round"/>
<path d="M50.25 42.7204L70.98 31.3604" stroke="black" stroke-width="1.87" stroke-linecap="round" stroke-linejoin="round"/>
<path d="M60.96 54.6396V59.5496" stroke="black" stroke-width="1.87" stroke-linecap="round" stroke-linejoin="round"/>
<path d="M46.4299 9.58953C46.5999 9.28953 46.6999 8.94953 46.6899 8.60953C46.6599 7.18953 44.9999 6.02953 42.9799 6.01953C40.9599 6.01953 39.3399 7.15953 39.3699 8.57953C39.3699 8.86953 39.4699 9.14953 39.5999 9.40953C39.0499 9.90953 38.7099 10.5395 38.7199 11.2295C38.7499 12.8695 40.6799 14.2195 43.0199 14.2295C45.3599 14.2395 47.2399 12.9195 47.1999 11.2695C47.1899 10.6495 46.8999 10.0695 46.4299 9.58953Z" fill="#ED1C24"/>
<path d="M47.7303 11.5699C47.7303 13.3999 45.6303 14.8499 43.0203 14.7899C40.4103 14.7299 38.2903 13.2099 38.2803 11.3799" stroke="black" stroke-width="1.87" stroke-linecap="round" stroke-linejoin="round"/>
<path d="M39.5598 7.49023L38.3398 11.1502" stroke="black" stroke-width="1.87" stroke-linecap="round" stroke-linejoin="round"/>
<path d="M46.7803 7.87012L47.7503 11.3801" stroke="black" stroke-width="1.87" stroke-linecap="round" stroke-linejoin="round"/>
<path d="M46.8298 8.02024C46.8598 9.44024 45.2398 10.5902 43.2198 10.5802C41.1998 10.5802 39.5298 9.41023 39.5098 7.99023" stroke="black" stroke-width="1.87" stroke-linecap="round" stroke-linejoin="round"/>
<path d="M39.5004 8.1001C39.4704 6.6801 41.0904 5.5301 43.1104 5.5401C45.1304 5.5401 46.8004 6.7101 46.8204 8.1301" stroke="black" stroke-width="1.87" stroke-linecap="round" stroke-linejoin="round"/>
<path d="M71.96 48.1201V53.6401" stroke="black" stroke-width="1.87" stroke-linecap="round" stroke-linejoin="round"/>
<path d="M29.4105 8.08956L26.8805 6.96956C24.9905 5.97956 23.4305 6.28956 21.2705 7.55956L2.48047 18.0096" stroke="black" stroke-width="1.87" stroke-linecap="round" stroke-linejoin="round"/>
</g>
<defs>
<clipPath id="clip0_3198_379">
<rect width="77.64" height="64.28" fill="white"/>
</clipPath>
</defs>
</svg>
