<svg width="417" height="498" viewBox="0 0 417 498" fill="none" xmlns="http://www.w3.org/2000/svg">
<g clip-path="url(#clip0_3330_433)">
<path d="M74.98 14.8201C75.74 14.8201 76.09 14.4401 76.09 13.8501V13.5001C76.09 12.9101 75.74 12.5301 74.98 12.5301C74.22 12.5301 73.87 12.9101 73.87 13.5001V13.8501C73.87 14.4401 74.22 14.8201 74.98 14.8201ZM69.9 14.6801H72.01V5.25008H70.2V10.2201L70.31 11.8001H70.09L69.5 10.3001L67.12 5.25008H65.01V14.6801H66.82V9.71008L66.71 8.13008H66.93L67.52 9.63008L69.9 14.6801ZM60.74 10.8201H58.8L59.35 8.65008L59.65 7.02008H59.87L60.17 8.65008L60.75 10.8201H60.74ZM63.69 14.6801L61.02 5.25008H58.56L55.89 14.6801H57.74L58.32 12.3701H61.21L61.79 14.6801H63.69ZM50.1 9.51007V6.94007H52C52.51 6.94007 52.84 7.17008 52.84 7.82008V8.63008C52.84 9.28008 52.52 9.51007 52 9.51007H50.1ZM50.1 11.1201H51.38L52.84 14.6901H54.93L53.28 10.9501C54.29 10.5701 54.83 9.57008 54.83 8.20008C54.83 6.42008 53.93 5.27008 52.24 5.27008H48.16V14.7001H50.09V11.1301L50.1 11.1201ZM42.84 14.6801V10.7501H46.01V9.08008H42.84V6.95008H46.58V5.26007H40.91V14.6901H42.84V14.6801ZM33.83 14.6801H35.94V5.25008H34.13V10.2201L34.24 11.8001H34.02L33.43 10.3001L31.05 5.25008H28.94V14.6801H30.75V9.71008L30.64 8.13008H30.86L31.45 9.63008L33.83 14.6801ZM24.67 10.8201H22.73L23.28 8.65008L23.58 7.02008H23.8L24.1 8.65008L24.68 10.8201H24.67ZM27.62 14.6801L24.95 5.25008H22.49L19.82 14.6801H21.67L22.25 12.3701H25.14L25.72 14.6801H27.62ZM15.58 14.8401C17.73 14.8401 18.9 13.7501 18.9 11.7501C18.9 10.1601 18.16 9.43008 16.31 9.05008L15.45 8.87008C14.79 8.74008 14.5 8.42008 14.5 7.80008C14.5 7.09008 14.88 6.77008 15.73 6.77008C16.51 6.77008 17.08 7.04008 17.55 7.62008L18.79 6.38008C18.09 5.50008 17.1 5.08008 15.75 5.08008C13.67 5.08008 12.56 6.07008 12.56 7.89008C12.56 9.46008 13.37 10.3301 15.1 10.6601L15.96 10.8201C16.65 10.9501 16.96 11.3101 16.96 11.9501C16.96 12.7501 16.5 13.1401 15.61 13.1401C14.72 13.1401 14.02 12.7801 13.49 12.1001L12.25 13.3401C13.06 14.3401 14.14 14.8301 15.57 14.8301L15.58 14.8401Z" fill="#231F20"/>
<path d="M74.0102 46.6796H76.1202V37.2496H74.3102V42.2196L74.4202 43.7996H74.2002L73.6102 42.2996L71.2302 37.2496H69.1202V46.6796H70.9302V41.7096L70.8202 40.1296H71.0402L71.6302 41.6296L74.0102 46.6796ZM63.7302 45.1396C62.6602 45.1396 62.0402 44.4796 62.0402 43.1896V40.7296C62.0402 39.4496 62.6602 38.7796 63.7302 38.7796C64.8002 38.7796 65.4202 39.4396 65.4202 40.7296V43.1896C65.4202 44.4696 64.8002 45.1396 63.7302 45.1396ZM63.7302 46.8396C65.9802 46.8396 67.4702 45.4896 67.4702 41.9596C67.4702 38.4296 65.9802 37.0796 63.7302 37.0796C61.4802 37.0796 59.9902 38.4296 59.9902 41.9596C59.9902 45.4896 61.4802 46.8396 63.7302 46.8396ZM59.2702 38.9396V37.2496H52.8302V38.9396H55.0802V46.6796H57.0102V38.9396H59.2702ZM48.6502 46.8396C50.8002 46.8396 51.9702 45.7496 51.9702 43.7496C51.9702 42.1596 51.2302 41.4296 49.3802 41.0496L48.5202 40.8696C47.8602 40.7396 47.5702 40.4196 47.5702 39.7996C47.5702 39.0896 47.9502 38.7696 48.8002 38.7696C49.5802 38.7696 50.1502 39.0396 50.6202 39.6196L51.8602 38.3796C51.1602 37.4996 50.1702 37.0796 48.8202 37.0796C46.7402 37.0796 45.6302 38.0696 45.6302 39.8896C45.6302 41.4596 46.4402 42.3296 48.1702 42.6596L49.0302 42.8196C49.7202 42.9496 50.0302 43.3096 50.0302 43.9496C50.0302 44.7496 49.5702 45.1396 48.6802 45.1396C47.7902 45.1396 47.0902 44.7796 46.5602 44.0996L45.3202 45.3396C46.1302 46.3396 47.2102 46.8296 48.6402 46.8296L48.6502 46.8396ZM37.2102 37.2496V43.1096C37.2102 45.7596 38.0902 46.8396 40.6002 46.8396C43.1102 46.8396 43.9902 45.7596 43.9902 43.1096V37.2496H42.0602V43.3696C42.0602 44.6096 41.7002 45.1296 40.6002 45.1296C39.5002 45.1296 39.1402 44.6196 39.1402 43.3696V37.2496H37.2102ZM31.8802 45.1396C30.8102 45.1396 30.1902 44.4796 30.1902 43.1896V40.7296C30.1902 39.4496 30.8102 38.7796 31.8802 38.7796C32.9502 38.7796 33.5702 39.4396 33.5702 40.7296V43.1896C33.5702 44.4696 32.9502 45.1396 31.8802 45.1396ZM31.8802 46.8396C34.1302 46.8396 35.6202 45.4896 35.6202 41.9596C35.6202 38.4296 34.1302 37.0796 31.8802 37.0796C29.6302 37.0796 28.1402 38.4296 28.1402 41.9596C28.1402 45.4896 29.6302 46.8396 31.8802 46.8396ZM24.5602 46.6796H26.4902V37.2496H24.5602V41.0696H21.4302V37.2496H19.5002V46.6796H21.4302V42.7496H24.5602V46.6796ZM17.3602 42.0896L15.5602 40.2796L15.6002 40.1196L18.1202 39.6996L17.5802 38.0696L15.3002 39.2296L15.1702 39.1396L15.5602 36.5996H13.8002L14.1902 39.1396L14.0602 39.2296L11.7802 38.0696L11.2402 39.6996L13.7702 40.1196L13.8102 40.2796L12.0102 42.0896L13.4302 43.1196L14.5902 40.8696H14.7802L15.9402 43.1196L17.3602 42.0896Z" fill="#231F20"/>
<path d="M74.5204 78.6796H76.7904L73.7004 73.1796L76.5504 69.2496H74.3604L72.3104 72.2996L71.3804 73.7996H71.1604L71.2404 72.2996V69.2496H69.3104V78.6796H71.2404V75.9896L72.3304 74.4996L74.5204 78.6696V78.6796ZM62.8704 73.5096V70.9396H64.7704C65.2804 70.9396 65.6104 71.1696 65.6104 71.8196V72.6296C65.6104 73.2796 65.2904 73.5096 64.7704 73.5096H62.8704ZM62.8704 75.1196H64.1504L65.6104 78.6896H67.7004L66.0504 74.9496C67.0604 74.5696 67.6004 73.5696 67.6004 72.1996C67.6004 70.4196 66.7004 69.2696 65.0104 69.2696H60.9304V78.6996H62.8604V75.1296L62.8704 75.1196ZM55.5504 77.1396C54.4804 77.1396 53.8604 76.4796 53.8604 75.1896V72.7296C53.8604 71.4496 54.4804 70.7796 55.5504 70.7796C56.6204 70.7796 57.2404 71.4396 57.2404 72.7296V75.1896C57.2404 76.4696 56.6204 77.1396 55.5504 77.1396ZM55.5504 78.8396C57.8004 78.8396 59.2904 77.4896 59.2904 73.9596C59.2904 70.4296 57.8004 69.0796 55.5504 69.0796C53.3004 69.0796 51.8104 70.4296 51.8104 73.9596C51.8104 77.4896 53.3004 78.8396 55.5504 78.8396ZM48.6804 78.6796V75.1296L51.5604 69.2596H49.4904L47.8704 73.1196H47.6504L45.9804 69.2596H43.8704L46.7504 75.1296V78.6796H48.6804ZM33.2404 78.6796L34.3504 73.2496L34.5904 71.3696H34.8104L35.0504 73.2496L36.1604 78.6796H38.3504L40.3204 69.2496H38.4804L37.6004 74.4596L37.3604 76.5496H37.1404L36.9004 74.5096L35.8104 69.2396H33.6904L32.6104 74.5096L32.3704 76.5496H32.1504L31.9104 74.4596L31.0204 69.2496H29.1204L31.0104 78.6796H33.2504H33.2404ZM27.9504 78.6796V76.9896H24.0504V74.7496H27.3604V73.0796H24.0504V70.9496H27.9504V69.2596H22.1204V78.6896H27.9504V78.6796ZM18.0404 78.6796H20.1504V69.2496H18.3404V74.2196L18.4504 75.7996H18.2304L17.6404 74.2996L15.2604 69.2496H13.1504V78.6796H14.9604V73.7096L14.8504 72.1296H15.0704L15.6604 73.6296L18.0404 78.6796ZM11.0204 74.0896L9.22039 72.2796L9.26039 72.1196L11.7804 71.6996L11.2404 70.0696L8.96039 71.2296L8.83039 71.1396L9.22039 68.5996H7.46039L7.85039 71.1396L7.72039 71.2296L5.44039 70.0696L4.90039 71.6996L7.43039 72.1196L7.47039 72.2796L5.67039 74.0896L7.09039 75.1196L8.25039 72.8696H8.44039L9.60039 75.1196L11.0204 74.0896Z" fill="#231F20"/>
<path d="M76.37 110.68V108.99H72.47V106.75H75.78V105.08H72.47V102.95H76.37V101.26H70.54V110.69H76.37V110.68ZM64.1 105.51V102.94H66C66.51 102.94 66.84 103.17 66.84 103.82V104.63C66.84 105.28 66.52 105.51 66 105.51H64.1ZM64.1 107.12H65.38L66.84 110.69H68.93L67.28 106.95C68.29 106.57 68.83 105.57 68.83 104.2C68.83 102.42 67.93 101.27 66.24 101.27H62.16V110.7H64.09V107.13L64.1 107.12ZM56.78 109.14C55.71 109.14 55.09 108.48 55.09 107.19V104.73C55.09 103.45 55.71 102.78 56.78 102.78C57.85 102.78 58.47 103.44 58.47 104.73V107.19C58.47 108.47 57.85 109.14 56.78 109.14ZM56.78 110.84C59.03 110.84 60.52 109.49 60.52 105.96C60.52 102.43 59.03 101.08 56.78 101.08C54.53 101.08 53.04 102.43 53.04 105.96C53.04 109.49 54.53 110.84 56.78 110.84ZM49.57 110.68H51.38V101.25H49.37L48.11 104.06L47.41 106.07H47.27L46.57 104.06L45.29 101.25H43.26V110.68H45.07V105.76L44.96 104.18H45.18L45.76 105.68L47.31 109.1L48.88 105.68L49.46 104.18H49.68L49.57 105.76V110.68ZM41.61 110.68V109.15H40.5V102.78H41.61V101.25H37.46V102.78H38.57V109.15H37.46V110.68H41.61ZM36.44 102.94V101.25H30V102.94H32.25V110.68H34.18V102.94H36.44ZM30.09 110.68V108.99H26.89V101.25H24.96V110.68H30.09ZM20.68 106.82H18.74L19.29 104.65L19.59 103.02H19.81L20.11 104.65L20.69 106.82H20.68ZM23.64 110.68L20.97 101.25H18.51L15.84 110.68H17.69L18.27 108.37H21.16L21.74 110.68H23.64ZM10.18 102.89H11.96C12.41 102.89 12.68 103.12 12.68 103.7V104.32C12.68 104.9 12.41 105.13 11.96 105.13H10.18V102.89ZM10.18 106.72H12.27C12.7 106.72 12.99 106.95 12.99 107.54V108.21C12.99 108.8 12.71 109.03 12.27 109.03H10.18V106.71V106.72ZM8.25 110.68H12.81C14.17 110.68 15 109.48 15 107.99C15 106.5 13.95 105.91 13.07 105.91V105.69C13.85 105.64 14.66 105.26 14.66 103.66C14.66 102.2 13.93 101.24 12.43 101.24H8.24V110.67L8.25 110.68ZM6.12 106.09L4.32 104.28L4.36 104.12L6.88 103.7L6.34 102.07L4.06 103.23L3.93 103.14L4.32 100.6H2.56L2.95 103.14L2.82 103.23L0.54 102.07L0 103.7L2.53 104.12L2.57 104.28L0.77 106.09L2.19 107.12L3.35 104.87H3.54L4.7 107.12L6.12 106.09Z" fill="#231F20"/>
<path d="M73.8096 138.82H71.8697L72.4196 136.65L72.7197 135.02H72.9397L73.2396 136.65L73.8196 138.82H73.8096ZM76.7597 142.68L74.0896 133.25H71.6296L68.9596 142.68H70.8096L71.3896 140.37H74.2796L74.8596 142.68H76.7597ZM68.0296 142.68V140.99H64.8297V133.25H62.8997V142.68H68.0296ZM60.7596 138.09L58.9596 136.28L58.9996 136.12L61.5196 135.7L60.9796 134.07L58.6996 135.23L58.5696 135.14L58.9596 132.6H57.1996L57.5896 135.14L57.4596 135.23L55.1796 134.07L54.6396 135.7L57.1696 136.12L57.2096 136.28L55.4096 138.09L56.8297 139.12L57.9897 136.87H58.1796L59.3396 139.12L60.7596 138.09Z" fill="#231F20"/>
<path d="M75.1203 174.82C75.8803 174.82 76.2303 174.44 76.2303 173.85V173.5C76.2303 172.91 75.8803 172.53 75.1203 172.53C74.3603 172.53 74.0103 172.91 74.0103 173.5V173.85C74.0103 174.44 74.3603 174.82 75.1203 174.82ZM69.5703 170.82H67.6303L68.1803 168.65L68.4803 167.02H68.7003L69.0003 168.65L69.5803 170.82H69.5703ZM72.5203 174.68L69.8503 165.25H67.3903L64.7203 174.68H66.5703L67.1503 172.37H70.0403L70.6203 174.68H72.5203ZM63.7903 174.68V172.99H60.5903V165.25H58.6603V174.68H63.7903ZM57.0003 174.68V173.15H55.8903V166.78H57.0003V165.25H52.8503V166.78H53.9603V173.15H52.8503V174.68H57.0003ZM49.2603 174.68H51.1903V165.25H49.2603V169.07H46.1303V165.25H44.2003V174.68H46.1303V170.75H49.2603V174.68ZM37.9603 166.94H39.8603C40.3703 166.94 40.7003 167.18 40.7003 167.82V168.63C40.7003 169.26 40.3803 169.51 39.8603 169.51H37.9603V166.94ZM37.9603 174.68V171.2H40.1103C41.8003 171.2 42.7003 170.03 42.7003 168.23C42.7003 166.43 41.8003 165.26 40.1103 165.26H36.0303V174.69H37.9603V174.68Z" fill="#231F20"/>
<path d="M76.3703 206.68V204.99H72.4703V202.75H75.7803V201.08H72.4703V198.95H76.3703V197.26H70.5403V206.69H76.3703V206.68ZM69.0503 206.68V204.99H65.8503V197.25H63.9203V206.68H69.0503ZM62.5303 198.94V197.25H56.0903V198.94H58.3403V206.68H60.2703V198.94H62.5303ZM55.0803 198.94V197.25H48.6403V198.94H50.8903V206.68H52.8203V198.94H55.0803ZM45.7103 202.82H43.7703L44.3203 200.65L44.6203 199.02H44.8403L45.1403 200.65L45.7203 202.82H45.7103ZM48.6703 206.68L46.0003 197.25H43.5403L40.8703 206.68H42.7203L43.3003 204.37H46.1903L46.7703 206.68H48.6703ZM39.8003 206.68V204.99H35.9003V202.75H39.2103V201.08H35.9003V198.95H39.8003V197.26H33.9703V206.69H39.8003V206.68ZM29.0803 206.84C31.2303 206.84 32.4003 205.75 32.4003 203.75C32.4003 202.16 31.6603 201.43 29.8103 201.05L28.9503 200.87C28.2903 200.74 28.0003 200.42 28.0003 199.8C28.0003 199.09 28.3803 198.77 29.2303 198.77C30.0103 198.77 30.5803 199.04 31.0503 199.62L32.2903 198.38C31.5903 197.5 30.6003 197.08 29.2503 197.08C27.1703 197.08 26.0603 198.07 26.0603 199.89C26.0603 201.46 26.8703 202.33 28.6003 202.66L29.4603 202.82C30.1503 202.95 30.4603 203.31 30.4603 203.95C30.4603 204.75 30.0003 205.14 29.1103 205.14C28.2203 205.14 27.5203 204.78 26.9903 204.1L25.7503 205.34C26.5603 206.34 27.6403 206.83 29.0703 206.83L29.0803 206.84ZM24.1903 202.09L22.3903 200.28L22.4303 200.12L24.9503 199.7L24.4103 198.07L22.1303 199.23L22.0003 199.14L22.3903 196.6H20.6303L21.0203 199.14L20.8903 199.23L18.6103 198.07L18.0703 199.7L20.6003 200.12L20.6403 200.28L18.8403 202.09L20.2603 203.12L21.4203 200.87H21.6103L22.7703 203.12L24.1903 202.09Z" fill="#231F20"/>
<path d="M73.8099 234.82H71.8699L72.4199 232.65L72.7199 231.02H72.9399L73.2399 232.65L73.8199 234.82H73.8099ZM76.7599 238.68L74.0899 229.25H71.6299L68.9599 238.68H70.8099L71.3899 236.37H74.2799L74.8599 238.68H76.7599ZM68.0299 238.68V236.99H64.8299V229.25H62.8999V238.68H68.0299ZM57.5099 237.14C56.4399 237.14 55.8199 236.48 55.8199 235.19V232.73C55.8199 231.45 56.4399 230.78 57.5099 230.78C58.5799 230.78 59.1999 231.44 59.1999 232.73V235.19C59.1999 236.47 58.5799 237.14 57.5099 237.14ZM57.5099 238.84C59.7599 238.84 61.2499 237.49 61.2499 233.96C61.2499 230.43 59.7599 229.08 57.5099 229.08C55.2599 229.08 53.7699 230.43 53.7699 233.96C53.7699 237.49 55.2599 238.84 57.5099 238.84ZM50.0199 238.68H52.1299V229.25H50.3199V234.22L50.4299 235.8H50.2099L49.6199 234.3L47.2399 229.25H45.1299V238.68H46.9399V233.71L46.8299 232.13H47.0499L47.6399 233.63L50.0199 238.68ZM42.9999 234.09L41.1999 232.28L41.2399 232.12L43.7599 231.7L43.2199 230.07L40.9399 231.23L40.8099 231.14L41.1999 228.6H39.4399L39.8299 231.14L39.6999 231.23L37.4199 230.07L36.8799 231.7L39.4099 232.12L39.4499 232.28L37.6499 234.09L39.0699 235.12L40.2299 232.87H40.4199L41.5799 235.12L42.9999 234.09Z" fill="#231F20"/>
<path d="M74.0099 270.68H76.1199V261.25H74.3099V266.22L74.4199 267.8H74.1999L73.6099 266.3L71.2299 261.25H69.1199V270.68H70.9299V265.71L70.8199 264.13H71.0399L71.6299 265.63L74.0099 270.68ZM63.7299 269.14C62.6599 269.14 62.0399 268.48 62.0399 267.19V264.73C62.0399 263.45 62.6599 262.78 63.7299 262.78C64.7999 262.78 65.4199 263.44 65.4199 264.73V267.19C65.4199 268.47 64.7999 269.14 63.7299 269.14ZM63.7299 270.84C65.9799 270.84 67.4699 269.49 67.4699 265.96C67.4699 262.43 65.9799 261.08 63.7299 261.08C61.4799 261.08 59.9899 262.43 59.9899 265.96C59.9899 269.49 61.4799 270.84 63.7299 270.84ZM59.2699 262.94V261.25H52.8299V262.94H55.0799V270.68H57.0099V262.94H59.2699ZM48.6499 270.84C50.7999 270.84 51.9699 269.75 51.9699 267.75C51.9699 266.16 51.2299 265.43 49.3799 265.05L48.5199 264.87C47.8599 264.74 47.5699 264.42 47.5699 263.8C47.5699 263.09 47.9499 262.77 48.7999 262.77C49.5799 262.77 50.1499 263.04 50.6199 263.62L51.8599 262.38C51.1599 261.5 50.1699 261.08 48.8199 261.08C46.7399 261.08 45.6299 262.07 45.6299 263.89C45.6299 265.46 46.4399 266.33 48.1699 266.66L49.0299 266.82C49.7199 266.95 50.0299 267.31 50.0299 267.95C50.0299 268.75 49.5699 269.14 48.6799 269.14C47.7899 269.14 47.0899 268.78 46.5599 268.1L45.3199 269.34C46.1299 270.34 47.2099 270.83 48.6399 270.83L48.6499 270.84ZM40.5699 269.14C39.4999 269.14 38.8799 268.48 38.8799 267.19V264.73C38.8799 263.45 39.4999 262.78 40.5699 262.78C41.6399 262.78 42.2599 263.44 42.2599 264.73V267.19C42.2599 268.47 41.6399 269.14 40.5699 269.14ZM40.5699 270.84C42.8199 270.84 44.3099 269.49 44.3099 265.96C44.3099 262.43 42.8199 261.08 40.5699 261.08C38.3199 261.08 36.8299 262.43 36.8299 265.96C36.8299 269.49 38.3199 270.84 40.5699 270.84ZM30.8199 262.89H32.5999C33.0499 262.89 33.3199 263.12 33.3199 263.7V264.32C33.3199 264.9 33.0499 265.13 32.5999 265.13H30.8199V262.89ZM30.8199 266.72H32.9099C33.3399 266.72 33.6299 266.95 33.6299 267.54V268.21C33.6299 268.8 33.3499 269.03 32.9099 269.03H30.8199V266.71V266.72ZM28.8899 270.68H33.4499C34.8099 270.68 35.6399 269.48 35.6399 267.99C35.6399 266.5 34.5899 265.91 33.7099 265.91V265.69C34.4899 265.64 35.2999 265.26 35.2999 263.66C35.2999 262.2 34.5699 261.24 33.0699 261.24H28.8799V270.67L28.8899 270.68Z" fill="#231F20"/>
<path d="M72.7001 301.14C71.6301 301.14 71.0101 300.48 71.0101 299.19V296.73C71.0101 295.45 71.6301 294.78 72.7001 294.78C73.7701 294.78 74.3901 295.44 74.3901 296.73V299.19C74.3901 300.47 73.7701 301.14 72.7001 301.14ZM72.7001 302.84C74.9501 302.84 76.4401 301.49 76.4401 297.96C76.4401 294.43 74.9501 293.08 72.7001 293.08C70.4501 293.08 68.9601 294.43 68.9601 297.96C68.9601 301.49 70.4501 302.84 72.7001 302.84ZM65.8001 302.68H67.4201V297.48H64.0201V299.1H65.5701V299.65C65.5701 300.62 64.8501 301.12 63.8801 301.12C62.8101 301.12 62.1501 300.47 62.1501 299.19V296.73C62.1501 295.45 62.8101 294.78 63.8201 294.78C64.8301 294.78 65.4101 295.32 65.6701 296.16L67.2501 295.25C66.6301 293.82 65.5101 293.08 63.8301 293.08C61.5801 293.08 60.0901 294.43 60.0901 298C60.0901 301.57 61.6701 302.83 63.4501 302.83C64.6901 302.83 65.4501 302.14 65.5701 301.18H65.7901V302.67L65.8001 302.68ZM56.4201 298.82H54.4801L55.0301 296.65L55.3301 295.02H55.5501L55.8501 296.65L56.4301 298.82H56.4201ZM59.3801 302.68L56.7101 293.25H54.2501L51.5801 302.68H53.4301L54.0101 300.37H56.9001L57.4801 302.68H59.3801ZM47.7001 302.84C49.4001 302.84 50.2901 302.02 50.9401 300.6L49.3501 299.68C49.1101 300.49 48.7301 301.14 47.7001 301.14C46.6701 301.14 45.9701 300.49 45.9701 299.19V296.73C45.9701 295.43 46.6301 294.78 47.7001 294.78C48.7701 294.78 49.0401 295.33 49.2401 296.14L50.9101 295.28C50.2801 293.79 49.4001 293.08 47.7001 293.08C45.4501 293.08 43.9201 294.5 43.9201 298.02C43.9201 301.54 45.4501 302.83 47.7001 302.83V302.84ZM42.5801 302.68V301.15H41.4701V294.78H42.5801V293.25H38.4301V294.78H39.5401V301.15H38.4301V302.68H42.5801ZM34.8501 302.68H36.7801V293.25H34.8501V297.07H31.7201V293.25H29.7901V302.68H31.7201V298.75H34.8501V302.68ZM25.1501 302.84C26.8501 302.84 27.7401 302.02 28.3901 300.6L26.8001 299.68C26.5601 300.49 26.1801 301.14 25.1501 301.14C24.1201 301.14 23.4201 300.49 23.4201 299.19V296.73C23.4201 295.43 24.0801 294.78 25.1501 294.78C26.2201 294.78 26.4901 295.33 26.6901 296.14L28.3601 295.28C27.7301 293.79 26.8501 293.08 25.1501 293.08C22.9001 293.08 21.3701 294.5 21.3701 298.02C21.3701 301.54 22.9001 302.83 25.1501 302.83V302.84Z" fill="#231F20"/>
<path d="M73.1995 334.84C75.3495 334.84 76.5195 333.75 76.5195 331.75C76.5195 330.16 75.7795 329.43 73.9295 329.05L73.0695 328.87C72.4095 328.74 72.1195 328.42 72.1195 327.8C72.1195 327.09 72.4995 326.77 73.3495 326.77C74.1295 326.77 74.6995 327.04 75.1695 327.62L76.4095 326.38C75.7095 325.5 74.7195 325.08 73.3695 325.08C71.2895 325.08 70.1795 326.07 70.1795 327.89C70.1795 329.46 70.9895 330.33 72.7195 330.66L73.5795 330.82C74.2695 330.95 74.5795 331.31 74.5795 331.95C74.5795 332.75 74.1195 333.14 73.2295 333.14C72.3395 333.14 71.6395 332.78 71.1095 332.1L69.8695 333.34C70.6795 334.34 71.7595 334.83 73.1895 334.83L73.1995 334.84ZM66.1695 330.82H64.2295L64.7795 328.65L65.0795 327.02H65.2995L65.5995 328.65L66.1795 330.82H66.1695ZM69.1195 334.68L66.4495 325.25H63.9895L61.3195 334.68H63.1695L63.7495 332.37H66.6395L67.2195 334.68H69.1195ZM60.3895 334.68V332.99H57.1895V325.25H55.2595V334.68H60.3895ZM53.7695 334.68V332.99H50.5695V325.25H48.6395V334.68H53.7695ZM44.3595 330.82H42.4195L42.9695 328.65L43.2695 327.02H43.4895L43.7895 328.65L44.3695 330.82H44.3595ZM47.3195 334.68L44.6495 325.25H42.1895L39.5195 334.68H41.3695L41.9495 332.37H44.8395L45.4195 334.68H47.3195ZM33.9495 332.99V326.94H35.3295C36.3995 326.94 36.9595 327.55 36.9595 328.83V331.1C36.9595 332.38 36.3895 332.99 35.3295 332.99H33.9495ZM32.0195 334.68H35.3295C37.6295 334.68 39.0195 333.34 39.0195 329.97C39.0195 326.6 37.6295 325.26 35.3295 325.26H32.0195V334.69V334.68Z" fill="#231F20"/>
<path d="M71.6496 361.51V358.94H73.5496C74.0596 358.94 74.3896 359.17 74.3896 359.82V360.63C74.3896 361.28 74.0696 361.51 73.5496 361.51H71.6496ZM71.6496 363.12H72.9296L74.3896 366.69H76.4796L74.8296 362.95C75.8396 362.57 76.3796 361.57 76.3796 360.2C76.3796 358.42 75.4796 357.27 73.7896 357.27H69.7096V366.7H71.6396V363.13L71.6496 363.12ZM67.9996 366.68V364.99H64.0996V362.75H67.4096V361.08H64.0996V358.95H67.9996V357.26H62.1696V366.69H67.9996V366.68ZM58.2396 366.68L60.9496 357.25H59.0096L57.5196 362.98L57.2196 364.92H56.9996L56.6996 362.98L55.1896 357.25H53.1896L55.9596 366.68H58.2296H58.2396ZM49.8796 366.68H51.9896V357.25H50.1796V362.22L50.2896 363.8H50.0696L49.4796 362.3L47.0996 357.25H44.9896V366.68H46.7996V361.71L46.6896 360.13H46.9096L47.4996 361.63L49.8796 366.68ZM43.2796 366.68V364.99H39.3796V362.75H42.6896V361.08H39.3796V358.95H43.2796V357.26H37.4496V366.69H43.2796V366.68ZM30.7396 364.99V358.94H32.1196C33.1896 358.94 33.7496 359.55 33.7496 360.83V363.1C33.7496 364.38 33.1796 364.99 32.1196 364.99H30.7396ZM28.8096 366.68H32.1196C34.4196 366.68 35.8096 365.34 35.8096 361.97C35.8096 358.6 34.4196 357.26 32.1196 357.26H28.8096V366.69V366.68ZM26.6796 362.09L24.8796 360.28L24.9196 360.12L27.4396 359.7L26.8996 358.07L24.6196 359.23L24.4896 359.14L24.8796 356.6H23.1196L23.5096 359.14L23.3796 359.23L21.0996 358.07L20.5596 359.7L23.0896 360.12L23.1296 360.28L21.3296 362.09L22.7496 363.12L23.9096 360.87H24.0996L25.2596 363.12L26.6796 362.09Z" fill="#231F20"/>
<path d="M73.4496 398.84C75.1496 398.84 76.0396 398.02 76.6896 396.6L75.0996 395.68C74.8596 396.49 74.4796 397.14 73.4496 397.14C72.4196 397.14 71.7196 396.49 71.7196 395.19V392.73C71.7196 391.43 72.3796 390.78 73.4496 390.78C74.5196 390.78 74.7896 391.33 74.9896 392.14L76.6596 391.28C76.0296 389.79 75.1496 389.08 73.4496 389.08C71.1996 389.08 69.6696 390.5 69.6696 394.02C69.6696 397.54 71.1996 398.83 73.4496 398.83V398.84ZM63.2896 396.99V390.94H64.6696C65.7396 390.94 66.2996 391.55 66.2996 392.83V395.1C66.2996 396.38 65.7296 396.99 64.6696 396.99H63.2896ZM61.3596 398.68H64.6696C66.9696 398.68 68.3596 397.34 68.3596 393.97C68.3596 390.6 66.9696 389.26 64.6696 389.26H61.3596V398.69V398.68ZM54.4596 398.68H56.3896V389.25H54.4596V393.07H51.3296V389.25H49.3996V398.68H51.3296V394.75H54.4596V398.68ZM44.5096 398.84C46.6596 398.84 47.8296 397.75 47.8296 395.75C47.8296 394.16 47.0896 393.43 45.2396 393.05L44.3796 392.87C43.7196 392.74 43.4296 392.42 43.4296 391.8C43.4296 391.09 43.8096 390.77 44.6596 390.77C45.4396 390.77 46.0096 391.04 46.4796 391.62L47.7196 390.38C47.0196 389.5 46.0296 389.08 44.6796 389.08C42.5996 389.08 41.4896 390.07 41.4896 391.89C41.4896 393.46 42.2996 394.33 44.0296 394.66L44.8896 394.82C45.5796 394.95 45.8896 395.31 45.8896 395.95C45.8896 396.75 45.4296 397.14 44.5396 397.14C43.6496 397.14 42.9496 396.78 42.4196 396.1L41.1796 397.34C41.9896 398.34 43.0696 398.83 44.4996 398.83L44.5096 398.84ZM37.4796 394.82H35.5396L36.0896 392.65L36.3896 391.02H36.6096L36.9096 392.65L37.4896 394.82H37.4796ZM40.4296 398.68L37.7596 389.25H35.2996L32.6296 398.68H34.4796L35.0596 396.37H37.9496L38.5296 398.68H40.4296ZM25.1796 398.68L26.2896 393.25L26.5296 391.37H26.7496L26.9896 393.25L28.0996 398.68H30.2896L32.2596 389.25H30.4196L29.5396 394.46L29.2996 396.55H29.0796L28.8396 394.51L27.7496 389.24H25.6296L24.5496 394.51L24.3096 396.55H24.0896L23.8496 394.46L22.9596 389.25H21.0596L22.9496 398.68H25.1896H25.1796Z" fill="#231F20"/>
<path d="M73.8101 426.82H71.8701L72.4201 424.65L72.7201 423.02H72.9401L73.2401 424.65L73.8201 426.82H73.8101ZM76.7601 430.68L74.0901 421.25H71.6301L68.9601 430.68H70.8101L71.3901 428.37H74.2801L74.8601 430.68H76.7601ZM68.9901 422.94V421.25H62.5501V422.94H64.8001V430.68H66.7301V422.94H68.9901ZM59.0501 430.68H61.1601V421.25H59.3501V426.22L59.4601 427.8H59.2401L58.6501 426.3L56.2701 421.25H54.1601V430.68H55.9701V425.71L55.8601 424.13H56.0801L56.6701 425.63L59.0501 430.68ZM49.8801 426.82H47.9401L48.4901 424.65L48.7901 423.02H49.0101L49.3101 424.65L49.8901 426.82H49.8801ZM52.8401 430.68L50.1701 421.25H47.7101L45.0401 430.68H46.8901L47.4701 428.37H50.3601L50.9401 430.68H52.8401ZM44.1101 430.68V428.99H40.9101V421.25H38.9801V430.68H44.1101ZM37.5901 422.94V421.25H31.1501V422.94H33.4001V430.68H35.3301V422.94H37.5901ZM28.2201 426.82H26.2801L26.8301 424.65L27.1301 423.02H27.3501L27.6501 424.65L28.2301 426.82H28.2201ZM31.1701 430.68L28.5001 421.25H26.0401L23.3701 430.68H25.2201L25.8001 428.37H28.6901L29.2701 430.68H31.1701Z" fill="#231F20"/>
<path d="M73.06 462.84C75.21 462.84 76.38 461.75 76.38 459.75C76.38 458.16 75.64 457.43 73.79 457.05L72.93 456.87C72.27 456.74 71.98 456.42 71.98 455.8C71.98 455.09 72.36 454.77 73.21 454.77C73.99 454.77 74.56 455.04 75.03 455.62L76.27 454.38C75.57 453.5 74.58 453.08 73.23 453.08C71.15 453.08 70.04 454.07 70.04 455.89C70.04 457.46 70.85 458.33 72.58 458.66L73.44 458.82C74.13 458.95 74.44 459.31 74.44 459.95C74.44 460.75 73.98 461.14 73.09 461.14C72.2 461.14 71.5 460.78 70.97 460.1L69.73 461.34C70.54 462.34 71.62 462.83 73.05 462.83L73.06 462.84ZM68.65 462.68V461.15H67.54V454.78H68.65V453.25H64.5V454.78H65.61V461.15H64.5V462.68H68.65ZM56.12 453.25V459.11C56.12 461.76 57 462.84 59.51 462.84C62.02 462.84 62.9 461.76 62.9 459.11V453.25H60.97V459.37C60.97 460.61 60.61 461.13 59.51 461.13C58.41 461.13 58.05 460.62 58.05 459.37V453.25H56.12ZM50.79 461.14C49.72 461.14 49.1 460.48 49.1 459.19V456.73C49.1 455.45 49.72 454.78 50.79 454.78C51.86 454.78 52.48 455.44 52.48 456.73V459.19C52.48 460.47 51.86 461.14 50.79 461.14ZM50.79 462.84C53.04 462.84 54.53 461.49 54.53 457.96C54.53 454.43 53.04 453.08 50.79 453.08C48.54 453.08 47.05 454.43 47.05 457.96C47.05 461.49 48.54 462.84 50.79 462.84ZM46.43 462.68V460.99H43.23V453.25H41.3V462.68H46.43ZM35.33 462.82C36.09 462.82 36.44 462.44 36.44 461.85V461.5C36.44 460.91 36.09 460.53 35.33 460.53C34.57 460.53 34.22 460.91 34.22 461.5V461.85C34.22 462.44 34.57 462.82 35.33 462.82ZM34.16 454.94V453.25H27.72V454.94H29.97V462.68H31.9V454.94H34.16ZM23.54 462.84C25.69 462.84 26.86 461.75 26.86 459.75C26.86 458.16 26.12 457.43 24.27 457.05L23.41 456.87C22.75 456.74 22.46 456.42 22.46 455.8C22.46 455.09 22.84 454.77 23.69 454.77C24.47 454.77 25.04 455.04 25.51 455.62L26.75 454.38C26.05 453.5 25.06 453.08 23.71 453.08C21.63 453.08 20.52 454.07 20.52 455.89C20.52 457.46 21.33 458.33 23.06 458.66L23.92 458.82C24.61 458.95 24.92 459.31 24.92 459.95C24.92 460.75 24.46 461.14 23.57 461.14C22.68 461.14 21.98 460.78 21.45 460.1L20.21 461.34C21.02 462.34 22.1 462.83 23.53 462.83L23.54 462.84Z" fill="#231F20"/>
<path d="M417.05 0.240234H87.0801V18.2402H417.05V0.240234Z" fill="#43512A"/>
<path d="M410.34 5.25953H405.64L405.35 9.98953L406.8 10.1795C406.98 9.89953 407.34 9.56953 407.92 9.56953C408.59 9.56953 409.02 9.92953 409.02 10.7395V11.1195C409.02 11.9795 408.64 12.3895 407.88 12.3895C407.18 12.3895 406.69 11.9195 406.37 11.2295L405.13 12.1895C405.57 13.0395 406.39 13.7695 407.88 13.7695C409.84 13.7695 410.82 12.6995 410.82 10.8195C410.82 8.93953 409.94 8.17953 408.55 8.17953C407.69 8.17953 407.15 8.67953 406.97 9.45953H406.78L406.96 6.74953H410.34V5.24953V5.25953ZM401.31 12.3295C400.51 12.3295 400.25 11.8995 400.25 10.6295V8.24953C400.25 6.97953 400.5 6.54953 401.31 6.54953C402.12 6.54953 402.37 6.97953 402.37 8.24953V10.6295C402.37 11.8995 402.12 12.3295 401.31 12.3295ZM401.31 13.7695C403.31 13.7695 404.19 12.5095 404.19 9.43953C404.19 6.36953 403.31 5.10953 401.31 5.10953C399.31 5.10953 398.43 6.36953 398.43 9.43953C398.43 12.5095 399.31 13.7695 401.31 13.7695ZM397.14 5.25953H392.44L392.15 9.98953L393.6 10.1795C393.78 9.89953 394.14 9.56953 394.72 9.56953C395.39 9.56953 395.82 9.92953 395.82 10.7395V11.1195C395.82 11.9795 395.44 12.3895 394.68 12.3895C393.98 12.3895 393.49 11.9195 393.17 11.2295L391.93 12.1895C392.37 13.0395 393.19 13.7695 394.68 13.7695C396.64 13.7695 397.62 12.6995 397.62 10.8195C397.62 8.93953 396.74 8.17953 395.35 8.17953C394.49 8.17953 393.95 8.67953 393.77 9.45953H393.58L393.76 6.74953H397.14V5.24953V5.25953ZM389.53 11.1895C389.53 11.7495 389.25 12.0795 388.75 12.1995V10.1595C389.27 10.3295 389.53 10.6595 389.53 11.1895ZM387.01 7.57953C387.01 6.99953 387.26 6.73953 387.79 6.65953V8.50953C387.27 8.34953 387.01 8.06953 387.01 7.58953V7.57953ZM391.05 10.9995C391.05 9.72953 390.37 9.14953 388.75 8.74953V6.65953C389.22 6.72953 389.63 6.91953 389.93 7.28953L390.93 6.38953C390.44 5.78953 389.78 5.46953 388.93 5.36953V4.26953H387.64V5.36953C386.22 5.53953 385.48 6.29953 385.48 7.66953C385.48 8.89953 386.26 9.54953 387.81 9.91953V12.2195C387.2 12.1495 386.63 11.8795 386.29 11.3995L385.26 12.3195C385.86 13.0595 386.69 13.4095 387.65 13.4895V14.5795H388.94V13.4595C390.33 13.2395 391.07 12.4195 391.07 10.9595L391.05 10.9995Z" fill="white"/>
<path d="M118 256H87V274H118V256Z" fill="#43512A"/>
<path d="M156 256H116V274H156V256Z" fill="#43512A"/>
<path d="M149.54 260.73H144.84L144.55 265.46L146 265.65C146.18 265.37 146.54 265.04 147.12 265.04C147.79 265.04 148.22 265.4 148.22 266.21V266.59C148.22 267.45 147.84 267.86 147.08 267.86C146.38 267.86 145.89 267.39 145.57 266.7L144.33 267.66C144.77 268.51 145.59 269.24 147.08 269.24C149.04 269.24 150.02 268.17 150.02 266.29C150.02 264.41 149.14 263.65 147.75 263.65C146.89 263.65 146.35 264.15 146.17 264.93H145.98L146.16 262.22H149.54V260.72V260.73ZM140.52 267.81C139.72 267.81 139.46 267.38 139.46 266.11V263.73C139.46 262.46 139.71 262.03 140.52 262.03C141.33 262.03 141.58 262.46 141.58 263.73V266.11C141.58 267.38 141.33 267.81 140.52 267.81ZM140.52 269.25C142.52 269.25 143.4 267.99 143.4 264.92C143.4 261.85 142.52 260.59 140.52 260.59C138.52 260.59 137.64 261.85 137.64 264.92C137.64 267.99 138.52 269.25 140.52 269.25ZM136.71 269.1V267.66H135.09V260.73H133.32L131.12 262.13L131.82 263.3L133.41 262.28V267.65H131.55V269.09H136.71V269.1ZM128.73 266.67C128.73 267.23 128.45 267.56 127.95 267.68V265.64C128.47 265.81 128.73 266.14 128.73 266.67ZM126.21 263.06C126.21 262.48 126.46 262.22 126.99 262.14V263.99C126.47 263.83 126.21 263.55 126.21 263.07V263.06ZM130.25 266.47C130.25 265.2 129.57 264.62 127.95 264.22V262.13C128.42 262.2 128.83 262.39 129.13 262.76L130.13 261.86C129.64 261.26 128.98 260.94 128.13 260.84V259.74H126.84V260.84C125.42 261.01 124.68 261.77 124.68 263.14C124.68 264.37 125.46 265.02 127.01 265.39V267.69C126.4 267.62 125.83 267.35 125.49 266.87L124.46 267.79C125.06 268.53 125.89 268.88 126.85 268.96V270.05H128.14V268.93C129.53 268.71 130.27 267.89 130.27 266.43L130.25 266.47Z" fill="white"/>
<path d="M369.32 265.37C369.32 262.86 368.52 261.03 367.44 259.98H365.87C367.02 261.18 367.74 262.75 367.74 264.69V266.03C367.74 267.97 367.02 269.54 365.87 270.74H367.44C368.52 269.7 369.32 267.86 369.32 265.36V265.37ZM362.49 269.25C364.4 269.25 365.44 268.28 365.44 266.5C365.44 265.08 364.78 264.44 363.14 264.1L362.37 263.94C361.78 263.82 361.53 263.54 361.53 262.99C361.53 262.35 361.87 262.08 362.62 262.08C363.32 262.08 363.82 262.32 364.24 262.84L365.34 261.74C364.72 260.96 363.84 260.59 362.64 260.59C360.79 260.59 359.81 261.47 359.81 263.09C359.81 264.48 360.53 265.26 362.06 265.55L362.83 265.69C363.44 265.81 363.72 266.12 363.72 266.7C363.72 267.41 363.31 267.76 362.52 267.76C361.73 267.76 361.1 267.44 360.64 266.84L359.54 267.94C360.26 268.83 361.22 269.26 362.49 269.26V269.25ZM357.02 269.1V265.95L359.57 260.73H357.74L356.3 264.16H356.11L354.62 260.73H352.75L355.3 265.95V269.1H357.02ZM350.54 265.67H348.81L349.3 263.74L349.56 262.29H349.75L350.01 263.74L350.53 265.67H350.54ZM353.16 269.1L350.78 260.73H348.6L346.23 269.1H347.87L348.39 267.05H350.96L351.48 269.1H353.17H353.16ZM341.29 267.6V262.23H342.51C343.46 262.23 343.96 262.77 343.96 263.91V265.92C343.96 267.06 343.46 267.6 342.51 267.6H341.29ZM339.57 269.1H342.51C344.55 269.1 345.78 267.91 345.78 264.91C345.78 261.91 344.54 260.72 342.51 260.72H339.57V269.09V269.1ZM335.38 269.1V267.6H331.91V265.61H334.85V264.12H331.91V262.23H335.38V260.73H330.2V269.1H335.38ZM328.67 269.1V267.6H325.2V265.61H328.14V264.12H325.2V262.23H328.67V260.73H323.49V269.1H328.67ZM317.77 264.51V262.23H319.46C319.92 262.23 320.2 262.43 320.2 263.01V263.73C320.2 264.31 319.91 264.51 319.46 264.51H317.77ZM317.77 265.94H318.91L320.2 269.11H322.06L320.6 265.79C321.5 265.45 321.98 264.57 321.98 263.34C321.98 261.76 321.18 260.74 319.68 260.74H316.06V269.11H317.77V265.94ZM312.58 269.1H314.29V260.73H312.58V264.12H309.8V260.73H308.09V269.1H309.8V265.61H312.58V269.1ZM306.84 262.23V260.73H301.12V262.23H303.12V269.1H304.83V262.23H306.83H306.84ZM294.19 267.73C293.24 267.73 292.69 267.14 292.69 266V263.82C292.69 262.68 293.24 262.09 294.19 262.09C295.14 262.09 295.69 262.68 295.69 263.82V266C295.69 267.14 295.14 267.73 294.19 267.73ZM294.19 269.25C296.19 269.25 297.51 268.05 297.51 264.92C297.51 261.79 296.19 260.59 294.19 260.59C292.19 260.59 290.87 261.79 290.87 264.92C290.87 268.05 292.19 269.25 294.19 269.25ZM290.21 262.23V260.73H284.49V262.23H286.49V269.1H288.2V262.23H290.2H290.21ZM276.8 262.23H278.49C278.95 262.23 279.23 262.45 279.23 263.01V263.73C279.23 264.29 278.94 264.51 278.49 264.51H276.8V262.23ZM276.8 269.1V266.01H278.71C280.21 266.01 281.01 264.97 281.01 263.37C281.01 261.77 280.21 260.73 278.71 260.73H275.09V269.1H276.8ZM267.36 260.73V265.94C267.36 268.29 268.14 269.25 270.37 269.25C272.6 269.25 273.38 268.29 273.38 265.94V260.73H271.67V266.16C271.67 267.26 271.35 267.72 270.38 267.72C269.41 267.72 269.08 267.26 269.08 266.16V260.73H267.37H267.36ZM259.01 264.51V262.23H260.7C261.16 262.23 261.44 262.43 261.44 263.01V263.73C261.44 264.31 261.15 264.51 260.7 264.51H259.01ZM259.01 265.94H260.15L261.44 269.11H263.3L261.84 265.79C262.74 265.45 263.22 264.57 263.22 263.34C263.22 261.76 262.42 260.74 260.92 260.74H257.3V269.11H259.01V265.94ZM252.51 267.73C251.56 267.73 251.01 267.14 251.01 266V263.82C251.01 262.68 251.56 262.09 252.51 262.09C253.46 262.09 254.01 262.68 254.01 263.82V266C254.01 267.14 253.46 267.73 252.51 267.73ZM252.51 269.25C254.51 269.25 255.83 268.05 255.83 264.92C255.83 261.79 254.51 260.59 252.51 260.59C250.51 260.59 249.19 261.79 249.19 264.92C249.19 268.05 250.51 269.25 252.51 269.25ZM245.09 269.1V265.61H247.91V264.12H245.09V262.23H248.41V260.73H243.37V269.1H245.08H245.09ZM237.16 269.1V265.95L239.71 260.73H237.88L236.44 264.16H236.25L234.76 260.73H232.89L235.44 265.95V269.1H237.16ZM230.68 265.67H228.95L229.44 263.74L229.7 262.29H229.89L230.15 263.74L230.67 265.67H230.68ZM233.31 269.1L230.94 260.73H228.76L226.39 269.1H228.03L228.55 267.05H231.12L231.64 269.1H233.33H233.31ZM221.43 267.6V262.23H222.65C223.6 262.23 224.1 262.77 224.1 263.91V265.92C224.1 267.06 223.6 267.6 222.65 267.6H221.43ZM219.72 269.1H222.66C224.7 269.1 225.93 267.91 225.93 264.91C225.93 261.91 224.69 260.72 222.66 260.72H219.72V269.09V269.1ZM215.13 270.91L218.39 260.22H217.01L213.75 270.91H215.13ZM210.35 267.81C209.55 267.81 209.29 267.38 209.29 266.11V263.73C209.29 262.46 209.54 262.03 210.35 262.03C211.16 262.03 211.41 262.46 211.41 263.73V266.11C211.41 267.38 211.16 267.81 210.35 267.81ZM210.35 269.25C212.35 269.25 213.23 267.99 213.23 264.92C213.23 261.85 212.35 260.59 210.35 260.59C208.35 260.59 207.47 261.85 207.47 264.92C207.47 267.99 208.35 269.25 210.35 269.25ZM206.49 267.66H202.95L204.54 266.14C205.94 264.8 206.34 264.14 206.34 262.99C206.34 261.5 205.63 260.59 203.72 260.59C201.97 260.59 201.24 261.55 200.91 262.7L202.4 263.26C202.53 262.6 202.86 262.02 203.56 262.02C204.16 262.02 204.53 262.39 204.53 262.93V263.31C204.53 263.97 204.23 264.47 203.39 265.29L201.1 267.53V269.09H206.47V267.65L206.49 267.66ZM198.57 266.67C198.57 267.23 198.29 267.56 197.79 267.68V265.64C198.31 265.81 198.57 266.14 198.57 266.67ZM196.05 263.06C196.05 262.48 196.3 262.22 196.83 262.14V263.99C196.31 263.83 196.05 263.55 196.05 263.07V263.06ZM200.09 266.47C200.09 265.2 199.41 264.62 197.79 264.22V262.13C198.26 262.2 198.67 262.39 198.97 262.76L199.97 261.86C199.48 261.26 198.82 260.94 197.97 260.84V259.74H196.68V260.84C195.26 261.01 194.52 261.77 194.52 263.14C194.52 264.37 195.3 265.02 196.85 265.39V267.69C196.24 267.62 195.67 267.35 195.33 266.87L194.3 267.79C194.9 268.53 195.73 268.88 196.69 268.96V270.05H197.98V268.93C199.37 268.71 200.11 267.89 200.11 266.43L200.09 266.47ZM191.33 268.02V266.06H193.19V264.75H191.33V262.79H189.89V264.75H188.03V266.06H189.89V268.02H191.33ZM183.77 260.73H179.07L178.78 265.46L180.23 265.65C180.41 265.37 180.77 265.04 181.35 265.04C182.02 265.04 182.45 265.4 182.45 266.21V266.59C182.45 267.45 182.07 267.86 181.31 267.86C180.61 267.86 180.12 267.39 179.8 266.7L178.56 267.66C179 268.51 179.82 269.24 181.31 269.24C183.27 269.24 184.25 268.17 184.25 266.29C184.25 264.41 183.37 263.65 181.98 263.65C181.12 263.65 180.58 264.15 180.4 264.93H180.21L180.39 262.22H183.77V260.72V260.73ZM174.91 262.45H175.1V266.18H173.12L174.91 262.45ZM176.72 269.1V267.52H177.68V266.18H176.72V260.74H174.54L171.83 266.07V267.53H175.1V269.11H176.72V269.1ZM169.57 266.67C169.57 267.23 169.29 267.56 168.79 267.68V265.64C169.31 265.81 169.57 266.14 169.57 266.67ZM167.05 263.06C167.05 262.48 167.3 262.22 167.83 262.14V263.99C167.31 263.83 167.05 263.55 167.05 263.07V263.06ZM171.09 266.47C171.09 265.2 170.41 264.62 168.79 264.22V262.13C169.26 262.2 169.67 262.39 169.97 262.76L170.97 261.86C170.48 261.26 169.82 260.94 168.97 260.84V259.74H167.68V260.84C166.26 261.01 165.52 261.77 165.52 263.14C165.52 264.37 166.3 265.02 167.85 265.39V267.69C167.24 267.62 166.67 267.35 166.33 266.87L165.3 267.79C165.9 268.53 166.73 268.88 167.69 268.96V270.05H168.98V268.93C170.37 268.71 171.11 267.89 171.11 266.43L171.09 266.47ZM161.55 265.37C161.55 267.88 162.35 269.71 163.43 270.75H165C163.85 269.55 163.13 267.98 163.13 266.04V264.7C163.13 262.76 163.85 261.19 165 259.99H163.43C162.35 261.03 161.55 262.87 161.55 265.38V265.37Z" fill="#231F20"/>
<path d="M177 64H87V82H177V64Z" fill="#43512A"/>
<path d="M228 64H175V82H228V64Z" fill="#43512A"/>
<path d="M219.61 76.0807C218.88 76.0807 218.52 75.6607 218.52 74.8907V74.5107C218.52 73.7407 218.88 73.3207 219.61 73.3207C220.34 73.3207 220.7 73.7407 220.7 74.5107V74.8907C220.7 75.6607 220.34 76.0807 219.61 76.0807ZM219.61 77.4607C221.48 77.4607 222.5 76.3807 222.5 74.5707C222.5 72.8807 221.66 71.9407 220.33 71.9407C219.42 71.9407 218.93 72.4807 218.71 73.1407H218.52C218.81 71.4707 219.92 70.3507 221.81 68.9407H219.45C218.16 69.8607 216.73 71.7207 216.73 74.1507C216.73 76.2807 217.68 77.4607 219.62 77.4607H219.61ZM215.76 77.3207V75.8807H214.14V68.9507H212.37L210.17 70.3507L210.87 71.5207L212.46 70.5007V75.8707H210.6V77.3107H215.76V77.3207ZM209.1 75.8807H205.56L207.16 74.3607C208.56 73.0207 208.96 72.3607 208.96 71.2107C208.96 69.7207 208.25 68.8107 206.34 68.8107C204.59 68.8107 203.86 69.7707 203.53 70.9207L205.02 71.4807C205.15 70.8207 205.48 70.2407 206.18 70.2407C206.78 70.2407 207.15 70.6107 207.15 71.1507V71.5307C207.15 72.1907 206.85 72.6907 206.01 73.5107L203.72 75.7507V77.3107H209.09V75.8707L209.1 75.8807ZM201.18 74.8807C201.18 75.4407 200.9 75.7707 200.4 75.8907V73.8507C200.92 74.0207 201.18 74.3507 201.18 74.8807ZM198.66 71.2707C198.66 70.6907 198.91 70.4307 199.44 70.3507V72.2007C198.92 72.0407 198.66 71.7607 198.66 71.2807V71.2707ZM202.7 74.6907C202.7 73.4207 202.02 72.8407 200.4 72.4407V70.3507C200.87 70.4207 201.28 70.6107 201.58 70.9907L202.58 70.0907C202.09 69.4907 201.43 69.1707 200.58 69.0707V67.9707H199.29V69.0707C197.88 69.2407 197.13 70.0107 197.13 71.3707C197.13 72.6107 197.91 73.2507 199.46 73.6207V75.9207C198.85 75.8507 198.29 75.5907 197.94 75.1007L196.91 76.0207C197.51 76.7607 198.34 77.1107 199.3 77.1907V78.2807H200.59V77.1607C201.98 76.9407 202.72 76.1207 202.72 74.6607L202.7 74.6907Z" fill="white"/>
<path d="M341.51 75.8191V70.4491H342.73C343.68 70.4491 344.18 70.9891 344.18 72.1291V74.1391C344.18 75.2791 343.68 75.8191 342.73 75.8191H341.51ZM339.79 77.3191H342.73C344.77 77.3191 346 76.1291 346 73.1291C346 70.1291 344.76 68.9391 342.73 68.9391H339.79V77.3091V77.3191ZM338.27 77.3191V75.8191H334.8V73.8291H337.74V72.3391H334.8V70.4491H338.27V68.9491H333.09V77.3191H338.27ZM325.54 77.3191L326.52 72.4991L326.74 70.8291H326.93L327.15 72.4991L328.13 77.3191H330.07L331.82 68.9491H330.19L329.41 73.5791L329.19 75.4391H329L328.78 73.6291L327.81 68.9491H325.93L324.97 73.6291L324.75 75.4391H324.56L324.34 73.5791L323.55 68.9491H321.86L323.54 77.3191H325.53H325.54ZM317.84 75.9491C316.89 75.9491 316.34 75.3591 316.34 74.2191V72.0391C316.34 70.8991 316.89 70.3091 317.84 70.3091C318.79 70.3091 319.34 70.8991 319.34 72.0391V74.2191C319.34 75.3591 318.79 75.9491 317.84 75.9491ZM317.84 77.4591C319.84 77.4591 321.16 76.2591 321.16 73.1291C321.16 69.9991 319.84 68.7991 317.84 68.7991C315.84 68.7991 314.52 69.9991 314.52 73.1291C314.52 76.2591 315.84 77.4591 317.84 77.4591ZM310.82 77.3191V75.8191H307.98V68.9491H306.27V77.3191H310.83H310.82ZM302.46 73.8891H300.73L301.22 71.9591L301.48 70.5091H301.67L301.93 71.9591L302.45 73.8891H302.46ZM305.09 77.3191L302.72 68.9491H300.54L298.17 77.3191H299.81L300.33 75.2691H302.9L303.42 77.3191H305.11H305.09ZM298.17 70.4391V68.9391H292.45V70.4391H294.45V77.3091H296.16V70.4391H298.16H298.17ZM288.48 75.9491C287.53 75.9491 286.98 75.3591 286.98 74.2191V72.0391C286.98 70.8991 287.53 70.3091 288.48 70.3091C289.43 70.3091 289.98 70.8991 289.98 72.0391V74.2191C289.98 75.3591 289.43 75.9491 288.48 75.9491ZM288.48 77.4591C290.48 77.4591 291.8 76.2591 291.8 73.1291C291.8 69.9991 290.48 68.7991 288.48 68.7991C286.48 68.7991 285.16 69.9991 285.16 73.1291C285.16 76.2591 286.48 77.4591 288.48 77.4591ZM284.51 70.4391V68.9391H278.79V70.4391H280.79V77.3091H282.5V70.4391H284.5H284.51ZM271.9 77.3191V73.8291H274.72V72.3391H271.9V70.4491H275.22V68.9491H270.18V77.3191H271.89H271.9ZM265.39 75.9491C264.44 75.9491 263.89 75.3591 263.89 74.2191V72.0391C263.89 70.8991 264.44 70.3091 265.39 70.3091C266.34 70.3091 266.89 70.8991 266.89 72.0391V74.2191C266.89 75.3591 266.34 75.9491 265.39 75.9491ZM265.39 77.4591C267.39 77.4591 268.71 76.2591 268.71 73.1291C268.71 69.9991 267.39 68.7991 265.39 68.7991C263.39 68.7991 262.07 69.9991 262.07 73.1291C262.07 76.2591 263.39 77.4591 265.39 77.4591ZM256.25 76.4991C255.88 76.4991 255.71 76.2591 255.71 75.7791V74.3891C255.71 73.9091 255.88 73.6691 256.25 73.6691C256.62 73.6691 256.79 73.9091 256.79 74.3891V75.7791C256.79 76.2591 256.62 76.4991 256.25 76.4991ZM256.25 77.4591C257.52 77.4591 258.22 76.7591 258.22 75.0891C258.22 73.4191 257.52 72.7091 256.25 72.7091C254.98 72.7091 254.28 73.4091 254.28 75.0891C254.28 76.7691 254.98 77.4591 256.25 77.4591ZM250.66 72.5891C250.29 72.5891 250.12 72.3491 250.12 71.8691V70.4791C250.12 69.9991 250.29 69.7591 250.66 69.7591C251.03 69.7591 251.2 69.9991 251.2 70.4791V71.8691C251.2 72.3491 251.03 72.5891 250.66 72.5891ZM250.66 73.5491C251.93 73.5491 252.63 72.8491 252.63 71.1691C252.63 69.4891 251.93 68.7891 250.66 68.7891C249.39 68.7891 248.69 69.4891 248.69 71.1691C248.69 72.8491 249.39 73.5491 250.66 73.5491ZM251.57 77.3191L256.78 68.9491H255.34L250.13 77.3191H251.57ZM247.21 68.9491H242.51L242.22 73.6691L243.67 73.8591C243.85 73.5791 244.21 73.2491 244.79 73.2491C245.46 73.2491 245.89 73.6091 245.89 74.4191V74.7991C245.89 75.6591 245.51 76.0691 244.75 76.0691C244.05 76.0691 243.56 75.5991 243.24 74.9091L242 75.8691C242.44 76.7191 243.26 77.4491 244.75 77.4491C246.71 77.4491 247.69 76.3791 247.69 74.4991C247.69 72.6191 246.81 71.8591 245.42 71.8591C244.56 71.8591 244.02 72.3591 243.84 73.1391H243.65L243.83 70.4291H247.21V68.9291V68.9491ZM238.91 76.2391V74.2791H240.77V72.9691H238.91V71.0091H237.47V72.9691H235.61V74.2791H237.47V76.2391H238.91Z" fill="#231F20"/>
<path d="M181.85 191.85H87.1104V209.85H181.85V191.85Z" fill="#43512A"/>
<path d="M176.7 196.861H172L171.71 201.591L173.16 201.781C173.34 201.501 173.7 201.171 174.28 201.171C174.95 201.171 175.38 201.531 175.38 202.341V202.721C175.38 203.581 175 203.991 174.24 203.991C173.54 203.991 173.05 203.521 172.73 202.831L171.49 203.791C171.93 204.641 172.75 205.371 174.24 205.371C176.2 205.371 177.18 204.301 177.18 202.421C177.18 200.541 176.3 199.781 174.91 199.781C174.05 199.781 173.51 200.281 173.33 201.061H173.14L173.32 198.351H176.7V196.851V196.861ZM167.83 198.581H168.02V202.311H166.04L167.83 198.581ZM169.64 205.231V203.651H170.6V202.311H169.64V196.871H167.46L164.75 202.201V203.661H168.02V205.241H169.64V205.231ZM163.87 205.231V203.791H162.25V196.861H160.47L158.27 198.261L158.97 199.431L160.56 198.411V203.781H158.7V205.221H163.86L163.87 205.231ZM155.89 202.801C155.89 203.361 155.61 203.691 155.11 203.811V201.771C155.63 201.941 155.89 202.271 155.89 202.801ZM153.37 199.191C153.37 198.611 153.62 198.351 154.15 198.271V200.121C153.63 199.961 153.37 199.681 153.37 199.201V199.191ZM157.41 202.611C157.41 201.341 156.73 200.761 155.11 200.361V198.271C155.58 198.341 155.99 198.531 156.29 198.901L157.29 198.001C156.8 197.401 156.14 197.081 155.29 196.981V195.881H154V196.981C152.58 197.151 151.84 197.911 151.84 199.281C151.84 200.511 152.62 201.161 154.17 201.531V203.831C153.56 203.761 152.99 203.491 152.65 203.011L151.62 203.931C152.22 204.671 153.05 205.021 154.01 205.101V206.191H155.3V205.071C156.69 204.851 157.43 204.031 157.43 202.571L157.41 202.611Z" fill="white"/>
<path d="M212 32H87V50H212V32Z" fill="#43512A"/>
<path d="M333 32H207V50H333V32Z" fill="#43512A"/>
<path d="M323.76 43.9498C323.03 43.9498 322.67 43.5298 322.67 42.7598V42.3798C322.67 41.6098 323.03 41.1898 323.76 41.1898C324.49 41.1898 324.85 41.6098 324.85 42.3798V42.7598C324.85 43.5298 324.49 43.9498 323.76 43.9498ZM323.76 45.3298C325.63 45.3298 326.65 44.2498 326.65 42.4398C326.65 40.7498 325.81 39.8098 324.48 39.8098C323.57 39.8098 323.08 40.3498 322.86 41.0098H322.67C322.96 39.3398 324.07 38.2198 325.96 36.8098H323.6C322.31 37.7298 320.88 39.5898 320.88 42.0198C320.88 44.1498 321.83 45.3298 323.77 45.3298H323.76ZM317.43 45.1898L319.82 38.2898V36.8198H314.45V39.6998H315.89V38.1998H318.16L315.64 45.1898H317.44H317.43ZM309.41 40.1898V41.5698H310.07C310.87 41.5698 311.35 41.9798 311.35 42.5398V42.9198C311.35 43.5198 310.93 43.9498 310.22 43.9498C309.44 43.9498 308.97 43.4598 308.66 42.7598L307.41 43.7198C307.88 44.5698 308.72 45.3298 310.23 45.3298C312.02 45.3298 313.12 44.3499 313.12 42.7299C313.12 41.5699 312.47 41.0898 311.56 40.9298V40.7398C312.33 40.5998 312.96 39.9999 312.96 38.8699C312.96 37.3799 311.96 36.6698 310.33 36.6698C309.19 36.6698 308.24 37.1498 307.64 38.0698L308.7 39.0398C309.11 38.3898 309.6 38.0398 310.24 38.0398C310.88 38.0398 311.21 38.4098 311.21 38.8798V39.2598C311.21 39.6798 310.87 40.1698 310.09 40.1698H309.39L309.41 40.1898ZM305.33 42.7498C305.33 43.3098 305.05 43.6398 304.55 43.7598V41.7198C305.07 41.8898 305.33 42.2198 305.33 42.7498ZM302.81 39.1398C302.81 38.5598 303.06 38.2998 303.59 38.2198V40.0698C303.07 39.9098 302.81 39.6298 302.81 39.1498V39.1398ZM306.85 42.5598C306.85 41.2898 306.17 40.7098 304.55 40.3098V38.2198C305.02 38.2898 305.43 38.4798 305.73 38.8598L306.73 37.9598C306.24 37.3598 305.58 37.0398 304.73 36.9398V35.8398H303.44V36.9398C302.02 37.1098 301.28 37.8798 301.28 39.2398C301.28 40.4798 302.06 41.1198 303.61 41.4898V43.7898C303 43.7198 302.43 43.4598 302.09 42.9698L301.06 43.8898C301.66 44.6298 302.49 44.9798 303.45 45.0598V46.1498H304.74V45.0298C306.13 44.8098 306.87 43.9898 306.87 42.5298L306.85 42.5598Z" fill="white"/>
<path d="M135 224H87V242H135V224Z" fill="#43512A"/>
<path d="M166 224H134V242H166V224Z" fill="#43512A"/>
<path d="M160.82 236.789V235.349H159.2V228.419H157.42L155.22 229.819L155.92 230.989L157.51 229.969V235.339H155.65V236.779H160.81L160.82 236.789ZM154.16 235.359H150.62L152.22 233.839C153.62 232.499 154.02 231.839 154.02 230.689C154.02 229.199 153.31 228.289 151.4 228.289C149.65 228.289 148.92 229.249 148.59 230.399L150.08 230.959C150.21 230.299 150.54 229.719 151.24 229.719C151.84 229.719 152.21 230.089 152.21 230.629V231.009C152.21 231.669 151.91 232.169 151.07 232.989L148.78 235.229V236.789H154.15V235.349L154.16 235.359ZM147.62 236.789V235.349H146V228.419H144.23L142.03 229.819L142.73 230.989L144.32 229.969V235.339H142.46V236.779H147.62V236.789ZM139.64 234.359C139.64 234.919 139.36 235.249 138.86 235.369V233.329C139.38 233.499 139.64 233.829 139.64 234.359ZM137.12 230.749C137.12 230.169 137.37 229.909 137.9 229.829V231.679C137.38 231.519 137.12 231.239 137.12 230.759V230.749ZM141.16 234.169C141.16 232.899 140.48 232.319 138.86 231.919V229.829C139.33 229.899 139.74 230.089 140.04 230.469L141.04 229.569C140.55 228.969 139.89 228.649 139.04 228.549V227.449H137.75V228.549C136.33 228.719 135.59 229.489 135.59 230.849C135.59 232.089 136.37 232.729 137.92 233.099V235.399C137.31 235.329 136.74 235.069 136.4 234.579L135.37 235.499C135.97 236.239 136.8 236.589 137.76 236.669V237.759H139.05V236.639C140.44 236.419 141.18 235.599 141.18 234.139L141.16 234.169Z" fill="white"/>
<path d="M185.12 96.0391H87.1104V114.039H185.12V96.0391Z" fill="#43512A"/>
<path d="M176.64 107.761C175.84 107.761 175.58 107.331 175.58 106.061V103.681C175.58 102.411 175.83 101.981 176.64 101.981C177.45 101.981 177.7 102.411 177.7 103.681V106.061C177.7 107.331 177.45 107.761 176.64 107.761ZM176.64 109.201C178.64 109.201 179.52 107.941 179.52 104.871C179.52 101.801 178.64 100.541 176.64 100.541C174.64 100.541 173.76 101.801 173.76 104.871C173.76 107.941 174.64 109.201 176.64 109.201ZM172.47 100.691H167.77L167.48 105.411L168.93 105.601C169.11 105.321 169.47 104.991 170.05 104.991C170.72 104.991 171.15 105.351 171.15 106.161V106.541C171.15 107.401 170.77 107.811 170.01 107.811C169.31 107.811 168.82 107.341 168.5 106.651L167.26 107.611C167.7 108.461 168.52 109.191 170.01 109.191C171.97 109.191 172.95 108.121 172.95 106.241C172.95 104.361 172.07 103.601 170.68 103.601C169.82 103.601 169.28 104.101 169.1 104.881H168.91L169.09 102.171H172.47V100.671V100.691ZM166.24 109.061V107.621H164.62V100.691H162.85L160.65 102.091L161.35 103.261L162.94 102.241V107.611H161.08V109.051H166.24V109.061ZM158.26 106.621C158.26 107.181 157.98 107.511 157.48 107.631V105.591C158 105.761 158.26 106.091 158.26 106.621ZM155.74 103.011C155.74 102.431 155.99 102.171 156.52 102.091V103.941C156 103.781 155.74 103.501 155.74 103.021V103.011ZM159.78 106.431C159.78 105.161 159.1 104.581 157.48 104.181V102.091C157.95 102.161 158.36 102.351 158.66 102.731L159.66 101.831C159.17 101.231 158.51 100.911 157.66 100.811V99.7109H156.37V100.811C154.95 100.981 154.21 101.751 154.21 103.111C154.21 104.351 154.99 104.991 156.54 105.361V107.661C155.93 107.591 155.36 107.331 155.02 106.841L153.99 107.761C154.59 108.501 155.42 108.851 156.38 108.931V110.021H157.67V108.901C159.06 108.681 159.8 107.861 159.8 106.401L159.78 106.431Z" fill="white"/>
<path d="M185.12 127.98H87.1104V145.98H185.12V127.98Z" fill="#43512A"/>
<path d="M176.64 139.701C175.84 139.701 175.58 139.271 175.58 138.001V135.621C175.58 134.351 175.83 133.921 176.64 133.921C177.45 133.921 177.7 134.351 177.7 135.621V138.001C177.7 139.271 177.45 139.701 176.64 139.701ZM176.64 141.131C178.64 141.131 179.52 139.871 179.52 136.801C179.52 133.731 178.64 132.471 176.64 132.471C174.64 132.471 173.76 133.731 173.76 136.801C173.76 139.871 174.64 141.131 176.64 141.131ZM172.47 132.621H167.77L167.48 137.341L168.93 137.531C169.11 137.251 169.47 136.921 170.05 136.921C170.72 136.921 171.15 137.281 171.15 138.091V138.471C171.15 139.331 170.77 139.741 170.01 139.741C169.31 139.741 168.82 139.271 168.5 138.581L167.26 139.541C167.7 140.391 168.52 141.121 170.01 141.121C171.97 141.121 172.95 140.051 172.95 138.171C172.95 136.291 172.07 135.531 170.68 135.531C169.82 135.531 169.28 136.031 169.1 136.811H168.91L169.09 134.101H172.47V132.601V132.621ZM166.24 140.991V139.551H164.62V132.621H162.85L160.65 134.021L161.35 135.191L162.94 134.171V139.541H161.08V140.981H166.24V140.991ZM158.26 138.561C158.26 139.121 157.98 139.451 157.48 139.571V137.531C158 137.701 158.26 138.031 158.26 138.561ZM155.74 134.951C155.74 134.371 155.99 134.111 156.52 134.031V135.881C156 135.721 155.74 135.441 155.74 134.961V134.951ZM159.78 138.361C159.78 137.091 159.1 136.511 157.48 136.111V134.021C157.95 134.091 158.36 134.281 158.66 134.661L159.66 133.761C159.17 133.161 158.51 132.841 157.66 132.741V131.641H156.37V132.741C154.95 132.911 154.21 133.681 154.21 135.041C154.21 136.281 154.99 136.921 156.54 137.291V139.591C155.93 139.521 155.36 139.261 155.02 138.771L153.99 139.691C154.59 140.431 155.42 140.781 156.38 140.861V141.951H157.67V140.831C159.06 140.611 159.8 139.791 159.8 138.331L159.78 138.361Z" fill="white"/>
<path d="M185.12 159.91H87.1104V177.91H185.12V159.91Z" fill="#43512A"/>
<path d="M176.08 172.191C175.28 172.191 175.02 171.761 175.02 170.491V168.111C175.02 166.841 175.27 166.411 176.08 166.411C176.89 166.411 177.14 166.841 177.14 168.111V170.491C177.14 171.761 176.89 172.191 176.08 172.191ZM176.08 173.631C178.08 173.631 178.96 172.371 178.96 169.301C178.96 166.231 178.08 164.971 176.08 164.971C174.08 164.971 173.2 166.231 173.2 169.301C173.2 172.371 174.08 173.631 176.08 173.631ZM171.91 165.121H167.21L166.92 169.841L168.37 170.031C168.55 169.751 168.91 169.421 169.49 169.421C170.16 169.421 170.59 169.781 170.59 170.591V170.971C170.59 171.831 170.21 172.241 169.45 172.241C168.75 172.241 168.26 171.771 167.94 171.081L166.7 172.041C167.14 172.891 167.96 173.621 169.45 173.621C171.41 173.621 172.39 172.551 172.39 170.671C172.39 168.791 171.51 168.031 170.12 168.031C169.26 168.031 168.72 168.531 168.54 169.311H168.35L168.53 166.601H171.91V165.101V165.121ZM165.68 173.491V172.051H164.06V165.121H162.29L160.09 166.521L160.79 167.691L162.38 166.671V172.041H160.52V173.481H165.68V173.491ZM157.7 171.051C157.7 171.611 157.42 171.941 156.92 172.061V170.021C157.44 170.191 157.7 170.521 157.7 171.051ZM155.18 167.441C155.18 166.861 155.43 166.601 155.96 166.521V168.371C155.44 168.211 155.18 167.931 155.18 167.451V167.441ZM159.22 170.861C159.22 169.591 158.54 169.011 156.92 168.611V166.521C157.39 166.591 157.8 166.781 158.1 167.161L159.1 166.261C158.61 165.661 157.95 165.341 157.1 165.241V164.141H155.81V165.241C154.39 165.411 153.65 166.181 153.65 167.541C153.65 168.781 154.43 169.421 155.98 169.791V172.091C155.37 172.021 154.8 171.761 154.46 171.271L153.43 172.191C154.03 172.931 154.86 173.281 155.82 173.361V174.451H157.11V173.331C158.5 173.111 159.24 172.291 159.24 170.831L159.22 170.861Z" fill="white"/>
<path d="M152.45 287.65H87.1104V305.65H152.45V287.65Z" fill="#43512A"/>
<path d="M144.02 300.121C143.22 300.121 142.96 299.691 142.96 298.421V296.041C142.96 294.771 143.21 294.341 144.02 294.341C144.83 294.341 145.08 294.771 145.08 296.041V298.421C145.08 299.691 144.83 300.121 144.02 300.121ZM144.02 301.551C146.02 301.551 146.9 300.291 146.9 297.221C146.9 294.151 146.02 292.891 144.02 292.891C142.02 292.891 141.14 294.151 141.14 297.221C141.14 300.291 142.02 301.551 144.02 301.551ZM137.42 300.121C136.62 300.121 136.36 299.691 136.36 298.421V296.041C136.36 294.771 136.61 294.341 137.42 294.341C138.23 294.341 138.48 294.771 138.48 296.041V298.421C138.48 299.691 138.23 300.121 137.42 300.121ZM137.42 301.551C139.42 301.551 140.3 300.291 140.3 297.221C140.3 294.151 139.42 292.891 137.42 292.891C135.42 292.891 134.54 294.151 134.54 297.221C134.54 300.291 135.42 301.551 137.42 301.551ZM133.61 301.411V299.971H131.99V293.041H130.22L128.02 294.441L128.72 295.611L130.31 294.591V299.961H128.45V301.401H133.61V301.411ZM125.63 298.981C125.63 299.541 125.35 299.871 124.85 299.991V297.951C125.37 298.121 125.63 298.451 125.63 298.981ZM123.12 295.371C123.12 294.791 123.37 294.531 123.9 294.451V296.301C123.38 296.141 123.12 295.861 123.12 295.381V295.371ZM127.16 298.781C127.16 297.511 126.48 296.931 124.86 296.531V294.441C125.33 294.511 125.74 294.701 126.04 295.081L127.04 294.181C126.55 293.581 125.89 293.261 125.04 293.161V292.061H123.75V293.161C122.33 293.331 121.59 294.101 121.59 295.461C121.59 296.701 122.37 297.341 123.92 297.711V300.011C123.31 299.941 122.74 299.681 122.4 299.191L121.37 300.111C121.97 300.851 122.8 301.201 123.76 301.281V302.371H125.05V301.251C126.44 301.031 127.18 300.211 127.18 298.751L127.16 298.781Z" fill="white"/>
<path d="M152.45 319.58H87.1104V337.58H152.45V319.58Z" fill="#43512A"/>
<path d="M144.39 331.679C143.59 331.679 143.33 331.249 143.33 329.979V327.599C143.33 326.329 143.58 325.899 144.39 325.899C145.2 325.899 145.45 326.329 145.45 327.599V329.979C145.45 331.249 145.2 331.679 144.39 331.679ZM144.39 333.109C146.39 333.109 147.27 331.849 147.27 328.779C147.27 325.709 146.39 324.449 144.39 324.449C142.39 324.449 141.51 325.709 141.51 328.779C141.51 331.849 142.39 333.109 144.39 333.109ZM137.79 331.679C136.99 331.679 136.73 331.249 136.73 329.979V327.599C136.73 326.329 136.98 325.899 137.79 325.899C138.6 325.899 138.85 326.329 138.85 327.599V329.979C138.85 331.249 138.6 331.679 137.79 331.679ZM137.79 333.109C139.79 333.109 140.67 331.849 140.67 328.779C140.67 325.709 139.79 324.449 137.79 324.449C135.79 324.449 134.91 325.709 134.91 328.779C134.91 331.849 135.79 333.109 137.79 333.109ZM133.99 332.969V331.529H132.37V324.599H130.6L128.4 325.999L129.1 327.169L130.69 326.149V331.519H128.83V332.959H133.99V332.969ZM126.01 330.539C126.01 331.099 125.73 331.429 125.23 331.549V329.509C125.75 329.679 126.01 330.009 126.01 330.539ZM123.49 326.929C123.49 326.349 123.74 326.089 124.27 326.009V327.859C123.75 327.699 123.49 327.419 123.49 326.939V326.929ZM127.53 330.339C127.53 329.069 126.85 328.489 125.23 328.089V325.999C125.7 326.069 126.11 326.259 126.41 326.639L127.41 325.739C126.92 325.139 126.26 324.819 125.41 324.719V323.619H124.12V324.719C122.7 324.889 121.96 325.659 121.96 327.019C121.96 328.259 122.74 328.899 124.29 329.269V331.569C123.68 331.499 123.11 331.239 122.77 330.749L121.74 331.669C122.34 332.409 123.17 332.759 124.13 332.839V333.929H125.42V332.809C126.81 332.589 127.55 331.769 127.55 330.309L127.53 330.339Z" fill="white"/>
<path d="M152.45 351.52H87.1104V369.52H152.45V351.52Z" fill="#43512A"/>
<path d="M144.02 363.98C143.22 363.98 142.96 363.55 142.96 362.28V359.9C142.96 358.63 143.21 358.2 144.02 358.2C144.83 358.2 145.08 358.63 145.08 359.9V362.28C145.08 363.55 144.83 363.98 144.02 363.98ZM144.02 365.42C146.02 365.42 146.9 364.16 146.9 361.09C146.9 358.02 146.02 356.76 144.02 356.76C142.02 356.76 141.14 358.02 141.14 361.09C141.14 364.16 142.02 365.42 144.02 365.42ZM137.42 363.98C136.62 363.98 136.36 363.55 136.36 362.28V359.9C136.36 358.63 136.61 358.2 137.42 358.2C138.23 358.2 138.48 358.63 138.48 359.9V362.28C138.48 363.55 138.23 363.98 137.42 363.98ZM137.42 365.42C139.42 365.42 140.3 364.16 140.3 361.09C140.3 358.02 139.42 356.76 137.42 356.76C135.42 356.76 134.54 358.02 134.54 361.09C134.54 364.16 135.42 365.42 137.42 365.42ZM133.61 365.28V363.84H131.99V356.91H130.22L128.02 358.31L128.72 359.48L130.31 358.46V363.83H128.45V365.27H133.61V365.28ZM125.63 362.84C125.63 363.4 125.35 363.73 124.85 363.85V361.81C125.37 361.98 125.63 362.31 125.63 362.84ZM123.12 359.23C123.12 358.65 123.37 358.39 123.9 358.31V360.16C123.38 360 123.12 359.72 123.12 359.24V359.23ZM127.16 362.65C127.16 361.38 126.48 360.8 124.86 360.4V358.31C125.33 358.38 125.74 358.57 126.04 358.95L127.04 358.05C126.55 357.45 125.89 357.13 125.04 357.03V355.93H123.75V357.03C122.33 357.2 121.59 357.97 121.59 359.33C121.59 360.57 122.37 361.21 123.92 361.58V363.88C123.31 363.81 122.74 363.55 122.4 363.06L121.37 363.98C121.97 364.72 122.8 365.07 123.76 365.15V366.24H125.05V365.12C126.44 364.9 127.18 364.08 127.18 362.62L127.16 362.65Z" fill="white"/>
<path d="M119.78 447.32H87.1104V465.32H119.78V447.32Z" fill="#43512A"/>
<path d="M111.81 459.79C111.01 459.79 110.75 459.36 110.75 458.09V455.71C110.75 454.44 111 454.01 111.81 454.01C112.62 454.01 112.87 454.44 112.87 455.71V458.09C112.87 459.36 112.62 459.79 111.81 459.79ZM111.81 461.22C113.81 461.22 114.69 459.96 114.69 456.89C114.69 453.82 113.81 452.56 111.81 452.56C109.81 452.56 108.93 453.82 108.93 456.89C108.93 459.96 109.81 461.22 111.81 461.22ZM107.63 452.71H102.93L102.64 457.43L104.09 457.62C104.27 457.34 104.63 457.01 105.21 457.01C105.88 457.01 106.31 457.37 106.31 458.18V458.56C106.31 459.42 105.93 459.83 105.17 459.83C104.47 459.83 103.98 459.36 103.66 458.67L102.42 459.63C102.86 460.48 103.68 461.21 105.17 461.21C107.13 461.21 108.11 460.14 108.11 458.26C108.11 456.38 107.23 455.62 105.84 455.62C104.98 455.62 104.44 456.12 104.26 456.9H104.07L104.25 454.19H107.63V452.69V452.71ZM100.02 458.65C100.02 459.21 99.74 459.54 99.24 459.66V457.62C99.76 457.79 100.02 458.12 100.02 458.65ZM97.5 455.04C97.5 454.46 97.75 454.2 98.28 454.12V455.97C97.76 455.81 97.5 455.53 97.5 455.05V455.04ZM101.54 458.45C101.54 457.18 100.86 456.6 99.24 456.2V454.11C99.71 454.18 100.12 454.37 100.42 454.75L101.42 453.85C100.93 453.25 100.27 452.93 99.42 452.83V451.73H98.13V452.83C96.71 453 95.97 453.77 95.97 455.13C95.97 456.37 96.75 457.01 98.3 457.38V459.68C97.69 459.61 97.12 459.35 96.78 458.86L95.75 459.78C96.35 460.52 97.18 460.87 98.14 460.95V462.04H99.43V460.92C100.82 460.7 101.56 459.88 101.56 458.42L101.54 458.45Z" fill="white"/>
<path d="M119.78 415.381H87.1104V433.381H119.78V415.381Z" fill="#43512A"/>
<path d="M111.81 427.47C111.01 427.47 110.75 427.04 110.75 425.77V423.39C110.75 422.12 111 421.69 111.81 421.69C112.62 421.69 112.87 422.12 112.87 423.39V425.77C112.87 427.04 112.62 427.47 111.81 427.47ZM111.81 428.91C113.81 428.91 114.69 427.65 114.69 424.58C114.69 421.51 113.81 420.25 111.81 420.25C109.81 420.25 108.93 421.51 108.93 424.58C108.93 427.65 109.81 428.91 111.81 428.91ZM107.63 420.4H102.93L102.64 425.12L104.09 425.31C104.27 425.03 104.63 424.7 105.21 424.7C105.88 424.7 106.31 425.06 106.31 425.87V426.25C106.31 427.11 105.93 427.52 105.17 427.52C104.47 427.52 103.98 427.05 103.66 426.36L102.42 427.32C102.86 428.17 103.68 428.9 105.17 428.9C107.13 428.9 108.11 427.83 108.11 425.95C108.11 424.07 107.23 423.31 105.84 423.31C104.98 423.31 104.44 423.81 104.26 424.59H104.07L104.25 421.88H107.63V420.38V420.4ZM100.02 426.33C100.02 426.89 99.74 427.22 99.24 427.34V425.3C99.76 425.47 100.02 425.8 100.02 426.33ZM97.5 422.72C97.5 422.14 97.75 421.88 98.28 421.8V423.65C97.76 423.49 97.5 423.21 97.5 422.73V422.72ZM101.54 426.14C101.54 424.87 100.86 424.29 99.24 423.89V421.8C99.71 421.87 100.12 422.06 100.42 422.44L101.42 421.54C100.93 420.94 100.27 420.62 99.42 420.52V419.42H98.13V420.52C96.71 420.69 95.97 421.46 95.97 422.82C95.97 424.06 96.75 424.7 98.3 425.07V427.37C97.69 427.3 97.12 427.04 96.78 426.55L95.75 427.47C96.35 428.21 97.18 428.56 98.14 428.64V429.73H99.43V428.61C100.82 428.39 101.56 427.57 101.56 426.11L101.54 426.14Z" fill="white"/>
<path d="M136.12 383.449H87.1104V401.449H136.12V383.449Z" fill="#43512A"/>
<path d="M130.34 388.839H125.64L125.35 393.559L126.8 393.749C126.98 393.469 127.34 393.139 127.92 393.139C128.59 393.139 129.02 393.499 129.02 394.309V394.689C129.02 395.549 128.64 395.959 127.88 395.959C127.18 395.959 126.69 395.489 126.37 394.799L125.13 395.759C125.57 396.609 126.39 397.339 127.88 397.339C129.84 397.339 130.82 396.269 130.82 394.389C130.82 392.509 129.94 391.749 128.55 391.749C127.69 391.749 127.15 392.249 126.97 393.029H126.78L126.96 390.319H130.34V388.819V388.839ZM121.64 397.209L124.03 390.309V388.839H118.66V391.719H120.1V390.219H122.37L119.85 397.209H121.65H121.64ZM116.13 394.769C116.13 395.329 115.85 395.659 115.35 395.779V393.739C115.87 393.909 116.13 394.239 116.13 394.769ZM113.61 391.159C113.61 390.579 113.86 390.319 114.39 390.239V392.089C113.87 391.929 113.61 391.649 113.61 391.169V391.159ZM117.65 394.579C117.65 393.309 116.97 392.729 115.35 392.329V390.239C115.82 390.309 116.23 390.499 116.53 390.879L117.53 389.979C117.04 389.379 116.38 389.059 115.53 388.959V387.859H114.24V388.959C112.82 389.129 112.08 389.899 112.08 391.259C112.08 392.499 112.86 393.139 114.41 393.509V395.809C113.8 395.739 113.23 395.479 112.89 394.989L111.86 395.909C112.46 396.649 113.29 396.999 114.25 397.079V398.169H115.54V397.049C116.93 396.829 117.67 396.009 117.67 394.549L117.65 394.579Z" fill="white"/>
<path d="M262.17 495.92C262.84 495.92 263.15 495.58 263.15 495.06V494.75C263.15 494.22 262.84 493.89 262.17 493.89C261.5 493.89 261.19 494.23 261.19 494.75V495.06C261.19 495.59 261.5 495.92 262.17 495.92ZM257.16 495.94C258.67 495.94 259.46 495.21 260.04 493.95L258.62 493.13C258.4 493.85 258.07 494.42 257.16 494.42C256.25 494.42 255.62 493.84 255.62 492.69V490.51C255.62 489.36 256.21 488.78 257.16 488.78C258.11 488.78 258.35 489.27 258.53 489.99L260.02 489.22C259.46 487.9 258.68 487.26 257.17 487.26C255.17 487.26 253.81 488.52 253.81 491.65C253.81 494.78 255.17 495.92 257.17 495.92L257.16 495.94ZM250.47 495.8H252.34V487.43H250.73V491.84L250.83 493.24H250.64L250.11 491.91L248 487.42H246.13V495.79H247.74V491.38L247.64 489.98H247.83L248.36 491.31L250.47 495.8ZM244.65 495.8V494.44H243.67V488.78H244.65V487.43H240.97V488.78H241.95V494.44H240.97V495.8H244.65ZM235.94 493.88C235.27 493.88 234.96 494.22 234.96 494.74V495.06C234.96 495.53 235.2 495.84 235.73 495.91C235.54 496.53 235.18 497.03 234.64 497.53H235.76C236.49 496.97 236.94 496.02 236.94 495.06V494.74C236.94 494.21 236.63 493.88 235.96 493.88H235.94ZM231.88 495.8H233.89L231.14 490.92L233.67 487.43H231.73L229.91 490.14L229.08 491.47H228.89L228.96 490.14V487.43H227.25V495.8H228.96V493.41L229.93 492.09L231.87 495.8H231.88ZM223.13 495.94C224.64 495.94 225.43 495.21 226.01 493.95L224.59 493.13C224.37 493.85 224.04 494.42 223.13 494.42C222.22 494.42 221.59 493.84 221.59 492.69V490.51C221.59 489.36 222.18 488.78 223.13 488.78C224.08 488.78 224.32 489.27 224.5 489.99L225.99 489.22C225.43 487.9 224.65 487.26 223.14 487.26C221.14 487.26 219.78 488.52 219.78 491.65C219.78 494.78 221.14 495.92 223.14 495.92L223.13 495.94ZM215.27 494.43C214.32 494.43 213.77 493.84 213.77 492.7V490.52C213.77 489.38 214.32 488.79 215.27 488.79C216.22 488.79 216.77 489.38 216.77 490.52V492.7C216.77 493.84 216.22 494.43 215.27 494.43ZM215.27 495.94C217.27 495.94 218.59 494.74 218.59 491.61C218.59 488.48 217.27 487.28 215.27 487.28C213.27 487.28 211.95 488.48 211.95 491.61C211.95 494.74 213.27 495.94 215.27 495.94ZM211.39 495.8V494.3H208.55V487.43H206.84V495.8H211.4H211.39ZM203.28 495.8V492.65L205.83 487.43H204L202.56 490.86H202.37L200.88 487.43H199.01L201.56 492.65V495.8H203.28ZM196.8 492.37H195.07L195.56 490.44L195.82 488.99H196.01L196.27 490.44L196.79 492.37H196.8ZM199.43 495.8L197.06 487.43H194.88L192.51 495.8H194.15L194.67 493.75H197.24L197.76 495.8H199.45H199.43ZM188.34 488.93H190.03C190.49 488.93 190.77 489.15 190.77 489.71V490.43C190.77 490.99 190.48 491.21 190.03 491.21H188.34V488.93ZM188.34 495.8V492.71H190.25C191.75 492.71 192.55 491.67 192.55 490.07C192.55 488.47 191.75 487.43 190.25 487.43H186.63V495.8H188.34ZM180.49 495.8H182.21V487.43H180.49V490.82H177.71V487.43H175.99V495.8H177.71V492.31H180.49V495.8ZM174.76 488.93V487.43H169.04V488.93H171.04V495.8H172.76V488.93H174.76ZM168.12 495.8V494.44H167.14V488.78H168.12V487.43H164.44V488.78H165.42V494.44H164.44V495.8H168.12ZM157.17 495.8L158.15 490.98L158.37 489.31H158.56L158.78 490.98L159.76 495.8H161.7L163.45 487.43H161.82L161.04 492.06L160.82 493.92H160.63L160.41 492.11L159.44 487.43H157.56L156.6 492.11L156.38 493.92H156.19L155.97 492.06L155.18 487.43H153.49L155.17 495.8H157.16H157.17ZM146.98 495.94C148.89 495.94 149.93 494.97 149.93 493.19C149.93 491.77 149.27 491.13 147.63 490.79L146.86 490.63C146.27 490.51 146.02 490.23 146.02 489.68C146.02 489.04 146.36 488.77 147.11 488.77C147.81 488.77 148.31 489.01 148.73 489.53L149.83 488.43C149.21 487.65 148.33 487.28 147.13 487.28C145.28 487.28 144.3 488.16 144.3 489.78C144.3 491.17 145.02 491.95 146.55 492.24L147.32 492.38C147.93 492.5 148.21 492.81 148.21 493.39C148.21 494.1 147.8 494.45 147.01 494.45C146.22 494.45 145.59 494.13 145.13 493.53L144.03 494.63C144.75 495.52 145.71 495.95 146.98 495.95V495.94ZM138.81 491.21V488.93H140.5C140.96 488.93 141.24 489.13 141.24 489.71V490.43C141.24 491.01 140.95 491.21 140.5 491.21H138.81ZM138.81 492.63H139.95L141.25 495.8H143.11L141.65 492.48C142.55 492.14 143.03 491.26 143.03 490.03C143.03 488.45 142.23 487.43 140.73 487.43H137.11V495.8H138.83V492.63H138.81ZM135.56 495.8V494.3H132.09V492.31H135.03V490.82H132.09V488.93H135.56V487.43H130.38V495.8H135.56ZM126.76 495.8H128.63V487.43H127.02V491.84L127.12 493.24H126.93L126.4 491.91L124.29 487.42H122.42V495.79H124.03V491.38L123.93 489.98H124.12L124.65 491.31L126.76 495.8ZM121.18 488.93V487.43H115.46V488.93H117.46V495.8H119.18V488.93H121.18ZM110.41 491.21V488.93H112.1C112.56 488.93 112.84 489.13 112.84 489.71V490.43C112.84 491.01 112.55 491.21 112.1 491.21H110.41ZM110.41 492.63H111.55L112.85 495.8H114.71L113.25 492.48C114.15 492.14 114.63 491.26 114.63 490.03C114.63 488.45 113.83 487.43 112.33 487.43H108.71V495.8H110.43V492.63H110.41ZM104.89 492.37H103.16L103.65 490.44L103.91 488.99H104.1L104.36 490.44L104.88 492.37H104.89ZM107.52 495.8L105.15 487.43H102.97L100.6 495.8H102.24L102.76 493.75H105.33L105.85 495.8H107.54H107.52ZM96.4299 488.93H98.1199C98.5799 488.93 98.8599 489.15 98.8599 489.71V490.43C98.8599 490.99 98.5699 491.21 98.1199 491.21H96.4299V488.93ZM96.4299 495.8V492.71H98.3399C99.8399 492.71 100.64 491.67 100.64 490.07C100.64 488.47 99.8399 487.43 98.3399 487.43H94.7199V495.8H96.4399H96.4299ZM92.8199 491.72L91.2199 490.11L91.2599 489.97L93.4999 489.6L93.0199 488.15L90.9899 489.18L90.8699 489.1L91.2199 486.85H89.6599L90.0099 489.1L89.8899 489.18L87.8599 488.15L87.3799 489.6L89.6199 489.97L89.6599 490.11L88.0599 491.72L89.3199 492.63L90.3499 490.63H90.5199L91.5499 492.63L92.8099 491.72H92.8199Z" fill="#231F20"/>
</g>
<defs>
<clipPath id="clip0_3330_433">
<rect width="417" height="498" fill="white"/>
</clipPath>
</defs>
</svg>
