<svg width="400" height="1157" viewBox="0 0 400 1157" fill="none" xmlns="http://www.w3.org/2000/svg">
<path d="M214.01 297H0V613.54H214.01V297Z" fill="url(#paint0_linear_3330_550)"/>
<path d="M314.79 300.76H217.15V714.88H314.79V300.76Z" fill="url(#paint1_linear_3330_550)"/>
<path d="M400 120.689H0V306.879H400V120.689Z" fill="#231F20"/>
<path d="M91.3297 149.339V153.019H93.1797C95.4197 153.019 96.7697 153.869 96.7697 155.549V155.729C96.7697 157.439 95.5897 158.519 93.5897 158.519C91.3797 158.519 90.1497 157.309 89.2697 155.639L85.9997 158.169C87.3197 160.259 89.4097 162.109 93.5897 162.109C98.2397 162.109 101.39 159.729 101.39 156.049C101.39 153.229 99.5697 151.549 97.1197 151.109V150.929C99.2397 150.549 101.03 148.929 101.03 146.309C101.03 143.019 98.1797 140.869 93.7597 140.869C90.2297 140.869 88.2297 142.279 86.6697 144.309L89.4397 146.899C90.4697 145.339 91.9697 144.459 93.6197 144.459C95.3597 144.459 96.3897 145.459 96.3897 146.929V147.139C96.3897 148.399 95.4197 149.349 93.2397 149.349H91.3297V149.339ZM73.6797 149.339V153.019H75.5297C77.7697 153.019 79.1197 153.869 79.1197 155.549V155.729C79.1197 157.439 77.9397 158.519 75.9397 158.519C73.7297 158.519 72.4997 157.309 71.6197 155.639L68.3497 158.169C69.6697 160.259 71.7597 162.109 75.9397 162.109C80.5897 162.109 83.7397 159.729 83.7397 156.049C83.7397 153.229 81.9197 151.549 79.4697 151.109V150.929C81.5897 150.549 83.3797 148.929 83.3797 146.309C83.3797 143.019 80.5297 140.869 76.1097 140.869C72.5797 140.869 70.5797 142.279 69.0197 144.309L71.7897 146.899C72.8197 145.339 74.3197 144.459 75.9697 144.459C77.7097 144.459 78.7397 145.459 78.7397 146.929V147.139C78.7397 148.399 77.7697 149.349 75.5897 149.349H73.6797V149.339ZM67.2997 161.749V158.189H62.9497V141.219H56.1797L51.2697 147.689L54.0897 149.899L58.2697 144.429H58.5397V158.199H53.0097V161.759H67.3097L67.2997 161.749ZM45.7297 156.779C43.9597 156.779 43.1397 157.779 43.1397 159.129V159.719C43.1397 160.869 43.7597 161.779 45.1097 162.009C44.6097 163.569 43.6097 164.779 42.2297 166.069H45.1697C47.0497 164.629 48.3197 162.099 48.3197 159.719V159.129C48.3197 157.779 47.4997 156.779 45.7297 156.779ZM29.2597 149.339V153.019H31.1097C33.3497 153.019 34.6997 153.869 34.6997 155.549V155.729C34.6997 157.439 33.5197 158.519 31.5197 158.519C29.3097 158.519 28.0797 157.309 27.1997 155.639L23.9297 158.169C25.2497 160.259 27.3397 162.109 31.5197 162.109C36.1697 162.109 39.3197 159.729 39.3197 156.049C39.3197 153.229 37.4997 151.549 35.0497 151.109V150.929C37.1697 150.549 38.9597 148.929 38.9597 146.309C38.9597 143.019 36.1097 140.869 31.6897 140.869C28.1597 140.869 26.1597 142.279 24.5997 144.309L27.3697 146.899C28.3997 145.339 29.8997 144.459 31.5497 144.459C33.2897 144.459 34.3197 145.459 34.3197 146.929V147.139C34.3197 148.399 33.3497 149.349 31.1697 149.349H29.2597V149.339Z" fill="white"/>
<path d="M399.54 293.66H318.39V959.56H399.54V293.66Z" fill="url(#paint2_linear_3330_550)"/>
<path d="M169.28 185.19C171.7 185.19 173.06 183.9 173.06 182.04C173.06 180.37 172.1 179.48 170.12 179.17L169.16 179.02C168.35 178.9 168.01 178.64 168.01 177.98C168.01 177.4 168.47 177.04 169.41 177.04C170.41 177.04 171.03 177.42 171.49 177.96L172.89 176.54C172.1 175.67 170.99 175.18 169.53 175.18C167.25 175.18 165.89 176.39 165.89 178.12C165.89 179.74 166.82 180.74 168.86 181.01L169.82 181.13C170.72 181.25 170.94 181.64 170.94 182.17C170.94 182.88 170.44 183.34 169.41 183.34C168.47 183.34 167.63 182.96 166.98 182.23L165.59 183.63C166.42 184.55 167.58 185.2 169.27 185.2L169.28 185.19ZM161.7 185.03H164.01V175.34H162.02V181.87H161.98L161.05 179.93L158.4 175.35H156.1V185.04H158.09V178.51H158.13L159.06 180.45L161.71 185.03H161.7ZM150.06 183.32C148.8 183.32 148.03 182.45 148.03 180.9V179.46C148.03 177.92 148.79 177.04 150.06 177.04C151.33 177.04 152.09 177.92 152.09 179.46V180.9C152.09 182.44 151.33 183.32 150.06 183.32ZM150.06 185.19C152.63 185.19 154.32 183.47 154.32 180.18C154.32 176.89 152.63 175.17 150.06 175.17C147.49 175.17 145.8 176.89 145.8 180.18C145.8 183.47 147.49 185.19 150.06 185.19ZM144.4 185.03V183.35H143.15V177.02H144.4V175.34H139.79V177.02H141.04V183.35H139.79V185.03H144.4ZM138.78 177.21V175.34H131.42V177.21H134.04V185.03H136.15V177.21H138.77H138.78ZM128.26 180.93H126.04L127.11 177.25H127.18L128.26 180.93ZM131.66 185.03L128.51 175.34H125.9L122.71 185.03H124.85L125.54 182.72H128.78L129.47 185.03H131.66ZM122.95 177.21V175.34H115.59V177.21H118.21V185.03H120.32V177.21H122.94H122.95ZM114.58 185.03V183.35H113.33V177.02H114.58V175.34H109.97V177.02H111.22V183.35H109.97V185.03H114.58ZM105.21 185.19C106.99 185.19 108.14 184.34 108.86 182.87L107.14 181.87C106.85 182.66 106.25 183.31 105.21 183.31C103.97 183.31 103.15 182.48 103.15 180.95V179.39C103.15 177.86 103.97 177.03 105.21 177.03C106.25 177.03 106.77 177.57 107.02 178.38L108.84 177.44C108.13 175.88 106.99 175.16 105.22 175.16C102.61 175.16 100.93 176.97 100.93 180.24C100.93 183.51 102.61 185.18 105.22 185.18L105.21 185.19ZM96.5698 177.21V175.34H89.2098V177.21H91.8298V185.03H93.9398V177.21H96.5598H96.5698ZM84.2198 183.32C82.9598 183.32 82.1898 182.45 82.1898 180.9V179.46C82.1898 177.92 82.9498 177.04 84.2198 177.04C85.4898 177.04 86.2498 177.92 86.2498 179.46V180.9C86.2498 182.44 85.4898 183.32 84.2198 183.32ZM84.2198 185.19C86.7898 185.19 88.4798 183.47 88.4798 180.18C88.4798 176.89 86.7898 175.17 84.2198 175.17C81.6498 175.17 79.9598 176.89 79.9598 180.18C79.9598 183.47 81.6498 185.19 84.2198 185.19ZM74.2998 183.32C73.0398 183.32 72.2698 182.45 72.2698 180.9V179.46C72.2698 177.92 73.0298 177.04 74.2998 177.04C75.5698 177.04 76.3298 177.92 76.3298 179.46V180.9C76.3298 182.44 75.5698 183.32 74.2998 183.32ZM74.2998 185.19C76.8698 185.19 78.5598 183.47 78.5598 180.18C78.5598 176.89 76.8698 175.17 74.2998 175.17C71.7298 175.17 70.0398 176.89 70.0398 180.18C70.0398 183.47 71.7298 185.19 74.2998 185.19ZM63.2598 177.11H65.3598C65.9198 177.11 66.2498 177.44 66.2498 178V178.42C66.2498 178.98 65.9198 179.31 65.3598 179.31H63.2598V177.12V177.11ZM63.2598 181.03H65.6898C66.2498 181.03 66.5898 181.35 66.5898 181.91V182.38C66.5898 182.94 66.2398 183.26 65.6898 183.26H63.2598V181.04V181.03ZM61.1498 185.03H66.2898C67.7198 185.03 68.7898 183.79 68.7898 182.27C68.7898 180.6 67.5298 179.99 66.6098 179.99V179.91C67.5998 179.87 68.4198 179.31 68.4198 177.83C68.4198 176.35 67.4598 175.34 65.8598 175.34H61.1498V185.03ZM52.6298 179.32C51.7598 179.32 51.2698 178.88 51.2698 178.15V177.93C51.2698 177.21 51.7598 176.76 52.6298 176.76C53.4998 176.76 53.9898 177.2 53.9898 177.93V178.15C53.9898 178.87 53.4998 179.32 52.6298 179.32ZM52.6298 183.6C51.7098 183.6 51.1998 183.13 51.1998 182.36V182.08C51.1998 181.32 51.7098 180.84 52.6298 180.84C53.5498 180.84 54.0598 181.31 54.0598 182.08V182.36C54.0598 183.12 53.5498 183.6 52.6298 183.6ZM52.6298 185.19C54.9198 185.19 56.2398 184 56.2398 182.37C56.2398 181.13 55.4898 180.34 54.3398 180.02V179.91C55.2798 179.56 55.9498 178.84 55.9498 177.72C55.9498 176.23 54.7698 175.16 52.6298 175.16C50.4898 175.16 49.3098 176.23 49.3098 177.72C49.3098 178.84 49.9798 179.57 50.9198 179.91V180.02C49.7698 180.34 49.0198 181.13 49.0198 182.37C49.0198 183.99 50.3398 185.19 52.6298 185.19ZM48.1898 185.03V183.35H46.1298V175.34H42.9398L40.6198 178.39L41.9498 179.43L43.9198 176.85H44.0398V183.35H41.4298V185.03H48.1798H48.1898ZM35.9598 183.43C34.8498 183.43 34.4898 182.57 34.4898 181.1V179.27C34.4898 177.8 34.8498 176.94 35.9598 176.94C37.0698 176.94 37.4298 177.8 37.4298 179.27V181.1C37.4298 182.57 37.0698 183.43 35.9598 183.43ZM35.9598 185.19C38.4998 185.19 39.6998 183.34 39.6998 180.18C39.6998 177.02 38.5098 175.17 35.9598 175.17C33.4098 175.17 32.2298 177.02 32.2298 180.18C32.2298 183.34 33.4198 185.19 35.9598 185.19ZM31.1098 183.28H26.5298L28.3398 181.86C29.7298 180.76 30.9198 179.75 30.9198 178.08C30.9198 176.41 29.7098 175.16 27.6198 175.16C25.5298 175.16 24.4798 176.28 24.0498 177.63L25.8698 178.32C26.0598 177.58 26.5098 176.96 27.4298 176.96C28.0498 176.96 28.7098 177.34 28.7098 178.07V178.26C28.7098 179.08 28.3298 179.62 27.2498 180.55L24.2598 183.1V185H31.1198V183.25L31.1098 183.28Z" fill="white"/>
<path d="M66.1701 328.909C64.8901 328.909 64.2701 328.029 64.2701 326.349V325.029C64.2701 323.349 64.8901 322.469 66.1701 322.469C67.4501 322.469 68.0701 323.349 68.0701 325.029V326.349C68.0701 328.029 67.4501 328.909 66.1701 328.909ZM66.1701 330.059C68.4001 330.059 69.6601 328.519 69.6601 325.689C69.6601 322.859 68.4001 321.319 66.1701 321.319C63.9401 321.319 62.6801 322.859 62.6801 325.689C62.6801 328.519 63.9401 330.059 66.1701 330.059ZM55.5501 321.719C54.2701 321.719 53.6501 320.839 53.6501 319.159V317.839C53.6501 316.159 54.2701 315.279 55.5501 315.279C56.8301 315.279 57.4501 316.159 57.4501 317.839V319.159C57.4501 320.839 56.8301 321.719 55.5501 321.719ZM55.5501 322.859C57.7801 322.859 59.0401 321.319 59.0401 318.489C59.0401 315.659 57.7801 314.119 55.5501 314.119C53.3201 314.119 52.0601 315.659 52.0601 318.489C52.0601 321.319 53.3201 322.859 55.5501 322.859ZM56.3701 329.789L67.0501 314.389H65.3501L54.6701 329.789H56.3701ZM45.5601 315.819H45.6701V325.219H39.9801L45.5601 315.819ZM47.4301 329.789V326.769H49.6601V325.229H47.4301V314.399H44.6701L38.2301 325.149V326.779H45.6701V329.799H47.4401L47.4301 329.789ZM35.1501 314.389H26.9001L26.3501 322.859L27.9201 323.079C28.5601 322.369 29.2701 321.779 30.6801 321.779C32.7801 321.779 33.9001 322.949 33.9001 324.979V325.199C33.9001 327.229 32.7701 328.399 30.6801 328.399C28.8301 328.399 28.0501 327.579 27.2601 326.369L25.8701 327.429C26.8001 328.749 28.1201 330.059 30.6801 330.059C33.9201 330.059 35.8701 327.959 35.8701 324.959C35.8701 321.959 33.9301 320.189 31.2801 320.189C29.6701 320.189 28.8501 320.849 28.1301 321.889H27.9801L28.4201 316.019H35.1701V314.389H35.1501Z" fill="white"/>
<path d="M56.5404 355.94V354.07H52.8504V346.25H50.7404V355.94H56.5404ZM49.0304 355.94V354.07H45.3404V346.25H43.2304V355.94H49.0304ZM33.4004 346.25V351.97C33.4004 354.83 34.4304 356.11 37.2004 356.11C39.9704 356.11 41.0004 354.83 41.0004 351.97V346.25H38.9404V352.19C38.9404 353.55 38.4404 354.23 37.1904 354.23C35.9404 354.23 35.4404 353.55 35.4404 352.19V346.25H33.3804H33.4004ZM27.3004 355.94V351.97H30.9804V350.11H27.3004V348.12H31.6204V346.25H25.1904V355.94H27.3004Z" fill="white"/>
<path d="M88.2104 366.101V364.231H80.8504V366.101H83.4704V373.921H85.5804V366.101H88.2004H88.2104ZM76.9604 373.921H79.2704V364.231H77.2804V370.761H77.2404L76.3104 368.821L73.6604 364.241H71.3604V373.931H73.3504V367.401H73.3904L74.3204 369.341L76.9704 373.921H76.9604ZM69.3704 373.921V372.051H64.8804V369.951H68.7304V368.091H64.8804V366.101H69.3704V364.231H62.7704V373.921H69.3704ZM58.5104 373.921H60.5004V364.231H58.2504L55.9004 368.771H55.8704L53.5004 364.231H51.2604V373.921H53.2504V367.461H53.2904L54.0304 368.991L55.8804 372.411L57.7704 368.981L58.4804 367.561H58.5204V373.921H58.5104ZM46.6004 373.921V370.121L49.9204 364.231H47.6304L45.6304 368.091H45.6004L43.5204 364.231H41.1604L44.4804 370.131V373.921H46.6004ZM38.1904 369.821H35.9704L37.0404 366.141H37.1104L38.1904 369.821ZM41.5904 373.921L38.4404 364.231H35.8304L32.6404 373.921H34.7804L35.4704 371.611H38.7104L39.4004 373.921H41.5904ZM27.3004 366.061H29.5204C30.1404 366.061 30.5304 366.391 30.5304 367.021V367.631C30.5304 368.251 30.1404 368.591 29.5204 368.591H27.3004V366.061ZM27.3004 373.921V370.421H29.7704C31.5804 370.421 32.7104 369.161 32.7104 367.321C32.7104 365.481 31.5704 364.221 29.7704 364.221H25.1904V373.911H27.3004V373.921Z" fill="white"/>
<path d="M27.4895 401.98V401.73H26.0495V389.76H27.4895V389.51H25.7695V401.98H27.4895Z" fill="white"/>
<path d="M59.8002 394.479V395.489H60.9402C62.3002 395.489 63.0202 396.139 63.0202 397.279V397.389C63.0202 398.529 62.3002 399.179 60.9402 399.179C59.7602 399.179 59.1902 398.669 58.6902 397.899L57.8102 398.569C58.4102 399.399 59.2702 400.219 60.9502 400.219C62.9202 400.219 64.2402 399.069 64.2402 397.399C64.2402 395.939 63.2402 395.159 62.2002 394.959V394.899C63.2302 394.639 64.0602 393.889 64.0602 392.639C64.0602 391.069 62.7502 390.199 61.1202 390.199C59.4902 390.199 58.7202 391.009 58.2302 391.779L59.0902 392.449C59.4902 391.709 60.0902 391.239 61.0902 391.239C62.0902 391.239 62.8302 391.749 62.8302 392.769V392.869C62.8302 393.799 62.1602 394.479 60.8602 394.479H59.8002ZM53.0702 399.219C51.5602 399.219 50.9602 397.889 50.9602 396.009V394.429C50.9602 392.559 51.5602 391.219 53.0702 391.219C54.5802 391.219 55.1802 392.549 55.1802 394.429V396.009C55.1802 397.879 54.5802 399.219 53.0702 399.219ZM53.0702 400.229C55.3902 400.229 56.4002 398.379 56.4002 395.219C56.4002 392.059 55.3902 390.209 53.0702 390.209C50.7502 390.209 49.7402 392.059 49.7402 395.219C49.7402 398.379 50.7502 400.229 53.0702 400.229ZM44.2402 400.069L47.8802 391.409V390.379H41.5202V393.179H42.5602V391.369H46.7002L42.9902 400.059H44.2402V400.069ZM38.6802 398.439C38.1002 398.439 37.8302 398.769 37.8302 399.259V399.449C37.8302 399.829 38.0002 400.099 38.3702 400.189C38.2202 400.839 37.8802 401.329 37.3302 401.909H38.2602C39.0502 401.229 39.5202 400.199 39.5202 399.449V399.259C39.5202 398.769 39.2602 398.439 38.6702 398.439H38.6802ZM36.0502 400.069V399.039H33.5502V390.379H31.7302L29.1602 392.779L29.8402 393.519L32.2802 391.239H32.3802V399.039H29.6702V400.069H36.0402H36.0502Z" fill="white"/>
<path d="M66.5303 389.51V389.76H67.9703V401.73H66.5303V401.98H68.2503V389.51H66.5303Z" fill="white"/>
<path d="M273.92 328.909C272.64 328.909 272.02 328.029 272.02 326.349V325.029C272.02 323.349 272.64 322.469 273.92 322.469C275.2 322.469 275.82 323.349 275.82 325.029V326.349C275.82 328.029 275.2 328.909 273.92 328.909ZM273.92 330.059C276.15 330.059 277.41 328.519 277.41 325.689C277.41 322.859 276.15 321.319 273.92 321.319C271.69 321.319 270.43 322.859 270.43 325.689C270.43 328.519 271.69 330.059 273.92 330.059ZM263.31 321.719C262.03 321.719 261.41 320.839 261.41 319.159V317.839C261.41 316.159 262.03 315.279 263.31 315.279C264.59 315.279 265.21 316.159 265.21 317.839V319.159C265.21 320.839 264.59 321.719 263.31 321.719ZM263.31 322.859C265.54 322.859 266.8 321.319 266.8 318.489C266.8 315.659 265.54 314.119 263.31 314.119C261.08 314.119 259.82 315.659 259.82 318.489C259.82 321.319 261.08 322.859 263.31 322.859ZM264.13 329.789L274.81 314.389H273.11L262.43 329.789H264.13ZM256.14 314.389H247.89L247.34 322.859L248.91 323.079C249.55 322.369 250.26 321.779 251.67 321.779C253.77 321.779 254.89 322.949 254.89 324.979V325.199C254.89 327.229 253.76 328.399 251.67 328.399C249.82 328.399 249.04 327.579 248.25 326.369L246.86 327.429C247.79 328.749 249.11 330.059 251.67 330.059C254.91 330.059 256.86 327.959 256.86 324.959C256.86 321.959 254.92 320.189 252.27 320.189C250.66 320.189 249.84 320.849 249.12 321.889H248.97L249.41 316.019H256.16V314.389H256.14ZM243.67 328.159H235.57L239.72 324.429C241.68 322.659 243.1 320.989 243.1 318.609C243.1 315.979 241.38 314.129 238.38 314.129C235.38 314.129 234.03 315.939 233.44 317.749L235.09 318.389C235.51 316.929 236.39 315.789 238.29 315.789C240.19 315.789 241.14 316.959 241.14 318.659V318.929C241.14 320.409 240.04 321.949 238.6 323.279L233.57 327.909V329.809H243.68V328.179L243.67 328.159Z" fill="white"/>
<path d="M290.16 355.94V354.07H286.47V346.25H284.36V355.94H290.16ZM279.47 351.84H277.25L278.32 348.16H278.39L279.47 351.84ZM282.87 355.94L279.72 346.25H277.11L273.92 355.94H276.06L276.75 353.63H279.99L280.68 355.94H282.87ZM272.8 355.94V354.26H271.55V347.93H272.8V346.25H268.19V347.93H269.44V354.26H268.19V355.94H272.8ZM267.03 348.12V346.25H259.67V348.12H262.29V355.94H264.4V348.12H267.02H267.03ZM253.31 350.61V348.08H255.53C256.15 348.08 256.54 348.41 256.54 349.04V349.65C256.54 350.27 256.15 350.61 255.53 350.61H253.31ZM253.31 352.39H254.82L256.51 355.94H258.86L256.96 352.14C258.14 351.7 258.72 350.65 258.72 349.35C258.72 347.5 257.58 346.25 255.79 346.25H251.19V355.94H253.3V352.39H253.31ZM246.31 351.84H244.09L245.16 348.16H245.23L246.31 351.84ZM249.71 355.94L246.56 346.25H243.95L240.76 355.94H242.9L243.59 353.63H246.83L247.52 355.94H249.71ZM235.42 348.08H237.64C238.26 348.08 238.65 348.41 238.65 349.04V349.65C238.65 350.27 238.26 350.61 237.64 350.61H235.42V348.08ZM235.42 355.94V352.44H237.89C239.7 352.44 240.83 351.18 240.83 349.34C240.83 347.5 239.69 346.24 237.89 346.24H233.31V355.93H235.42V355.94Z" fill="white"/>
<path d="M296.33 366.101V364.231H288.97V366.101H291.59V373.921H293.7V366.101H296.32H296.33ZM285.08 373.921H287.39V364.231H285.4V370.761H285.36L284.43 368.821L281.78 364.241H279.48V373.931H281.47V367.401H281.51L282.44 369.341L285.09 373.921H285.08ZM277.49 373.921V372.051H273.01V369.951H276.86V368.091H273.01V366.101H277.49V364.231H270.89V373.921H277.49ZM266.63 373.921H268.62V364.231H266.37L264.02 368.771H263.99L261.62 364.231H259.38V373.921H261.37V367.461H261.41L262.15 368.991L264 372.411L265.89 368.981L266.6 367.561H266.64V373.921H266.63ZM254.73 373.921V370.121L258.05 364.231H255.76L253.76 368.091H253.73L251.65 364.231H249.29L252.61 370.131V373.921H254.73ZM246.31 369.821H244.09L245.16 366.141H245.23L246.31 369.821ZM249.71 373.921L246.56 364.231H243.95L240.76 373.921H242.9L243.59 371.611H246.83L247.52 373.921H249.71ZM235.42 366.061H237.64C238.26 366.061 238.65 366.391 238.65 367.021V367.631C238.65 368.251 238.26 368.591 237.64 368.591H235.42V366.061ZM235.42 373.921V370.421H237.89C239.7 370.421 240.83 369.161 240.83 367.321C240.83 365.481 239.69 364.221 237.89 364.221H233.31V373.911H235.42V373.921Z" fill="white"/>
<path d="M235.61 401.98V401.73H234.17V389.76H235.61V389.51H233.89V401.98H235.61Z" fill="white"/>
<path d="M256.92 400.071L260.56 391.411V390.381H254.2V393.181H255.24V391.371H259.38L255.67 400.061H256.92V400.071ZM248.59 400.071L252.23 391.411V390.381H245.87V393.181H246.91V391.371H251.05L247.34 400.061H248.59V400.071ZM240.25 400.071L243.89 391.411V390.381H237.53V393.181H238.57V391.371H242.71L239 400.061H240.25V400.071Z" fill="white"/>
<path d="M262.54 389.51V389.76H263.98V401.73H262.54V401.98H264.26V389.51H262.54Z" fill="white"/>
<path d="M370.06 684.89C368.78 684.89 368.16 684.01 368.16 682.33V681.01C368.16 679.33 368.78 678.45 370.06 678.45C371.34 678.45 371.96 679.33 371.96 681.01V682.33C371.96 684.01 371.34 684.89 370.06 684.89ZM370.06 686.04C372.29 686.04 373.55 684.5 373.55 681.67C373.55 678.84 372.29 677.3 370.06 677.3C367.83 677.3 366.57 678.84 366.57 681.67C366.57 684.5 367.83 686.04 370.06 686.04ZM359.45 677.7C358.17 677.7 357.55 676.82 357.55 675.14V673.82C357.55 672.14 358.17 671.26 359.45 671.26C360.73 671.26 361.35 672.14 361.35 673.82V675.14C361.35 676.82 360.73 677.7 359.45 677.7ZM359.45 678.84C361.68 678.84 362.94 677.3 362.94 674.47C362.94 671.64 361.68 670.1 359.45 670.1C357.22 670.1 355.96 671.64 355.96 674.47C355.96 677.3 357.22 678.84 359.45 678.84ZM360.26 685.77L370.94 670.37H369.24L358.56 685.77H360.26ZM353.36 685.77V684.14H349.39V670.37H346.5L342.42 674.19L343.5 675.36L347.38 671.74H347.53V684.14H343.23V685.77H353.36ZM339.81 684.14H331.71L335.86 680.41C337.82 678.64 339.24 676.97 339.24 674.59C339.24 671.96 337.52 670.11 334.52 670.11C331.52 670.11 330.17 671.92 329.58 673.73L331.23 674.37C331.65 672.91 332.53 671.77 334.43 671.77C336.33 671.77 337.28 672.94 337.28 674.64V674.91C337.28 676.39 336.18 677.93 334.74 679.26L329.71 683.89V685.79H339.82V684.16L339.81 684.14Z" fill="white"/>
<path d="M343.49 710.21C342.23 710.21 341.46 709.34 341.46 707.79V706.35C341.46 704.81 342.22 703.93 343.49 703.93C344.76 703.93 345.52 704.81 345.52 706.35V707.79C345.52 709.33 344.76 710.21 343.49 710.21ZM343.49 712.09C346.06 712.09 347.75 710.37 347.75 707.08C347.75 703.79 346.06 702.07 343.49 702.07C340.92 702.07 339.23 703.79 339.23 707.08C339.23 710.37 340.92 712.09 343.49 712.09ZM335.01 711.92H337.32V702.23H335.33V708.76H335.29L334.36 706.82L331.71 702.24H329.41V711.93H331.4V705.4H331.44L332.37 707.34L335.02 711.92H335.01Z" fill="white"/>
<path d="M392.47 722.079V720.209H385.11V722.079H387.73V729.899H389.84V722.079H392.46H392.47ZM381.22 729.899H383.53V720.209H381.54V726.739H381.5L380.57 724.799L377.92 720.219H375.62V729.909H377.61V723.379H377.65L378.58 725.319L381.23 729.899H381.22ZM373.63 729.899V728.029H369.15V725.929H373V724.069H369.15V722.079H373.63V720.209H367.03V729.899H373.63ZM362.77 729.899H364.76V720.209H362.51L360.16 724.749H360.13L357.76 720.209H355.52V729.899H357.51V723.439H357.55L358.29 724.969L360.14 728.389L362.03 724.959L362.74 723.539H362.78V729.899H362.77ZM350.87 729.899V726.099L354.19 720.209H351.9L349.9 724.069H349.87L347.79 720.209H345.43L348.75 726.109V729.899H350.87ZM342.45 725.799H340.23L341.3 722.119H341.37L342.45 725.799ZM345.85 729.899L342.7 720.209H340.09L336.9 729.899H339.04L339.73 727.589H342.97L343.66 729.899H345.85ZM331.56 722.039H333.78C334.4 722.039 334.79 722.369 334.79 722.999V723.609C334.79 724.229 334.4 724.569 333.78 724.569H331.56V722.039ZM331.56 729.899V726.399H334.03C335.84 726.399 336.97 725.139 336.97 723.299C336.97 721.459 335.83 720.199 334.03 720.199H329.45V729.889H331.56V729.899Z" fill="white"/>
<path d="M331.75 757.97V757.72H330.31V745.75H331.75V745.5H330.03V757.97H331.75Z" fill="white"/>
<path d="M351.95 750.469V751.479H353.09C354.45 751.479 355.17 752.129 355.17 753.269V753.379C355.17 754.519 354.45 755.169 353.09 755.169C351.91 755.169 351.34 754.659 350.84 753.889L349.96 754.559C350.56 755.389 351.42 756.209 353.1 756.209C355.07 756.209 356.39 755.059 356.39 753.389C356.39 751.929 355.39 751.149 354.35 750.949V750.889C355.38 750.629 356.21 749.879 356.21 748.629C356.21 747.059 354.9 746.189 353.27 746.189C351.64 746.189 350.87 746.999 350.38 747.769L351.24 748.439C351.64 747.699 352.24 747.229 353.24 747.229C354.24 747.229 354.98 747.739 354.98 748.759V748.859C354.98 749.789 354.31 750.469 353.01 750.469H351.95ZM347.96 746.359H342.77L342.42 751.689L343.41 751.829C343.81 751.389 344.26 751.009 345.15 751.009C346.47 751.009 347.18 751.749 347.18 753.019V753.159C347.18 754.439 346.47 755.169 345.15 755.169C343.98 755.169 343.5 754.659 343 753.889L342.13 754.559C342.71 755.389 343.55 756.209 345.16 756.209C347.2 756.209 348.42 754.889 348.42 752.999C348.42 751.109 347.2 749.999 345.53 749.999C344.52 749.999 344 750.419 343.54 751.069H343.44L343.72 747.379H347.97V746.349L347.96 746.359ZM336.88 755.199C335.6 755.199 334.85 754.459 334.85 753.159V753.049C334.85 751.739 335.6 751.009 336.88 751.009C338.16 751.009 338.91 751.749 338.91 753.049V753.159C338.91 754.469 338.16 755.199 336.88 755.199ZM336.89 756.219C338.83 756.219 340.11 754.909 340.11 753.009C340.11 751.109 338.92 750.019 337.25 750.019C336.07 750.019 335.38 750.619 334.92 751.409L334.85 751.379C335.38 749.129 336.53 747.869 338.6 746.349H337.1C335.54 747.359 333.64 749.609 333.64 752.489C333.64 754.799 334.88 756.209 336.89 756.209V756.219Z" fill="white"/>
<path d="M358.68 745.5V745.75H360.12V757.72H358.68V757.97H360.4V745.5H358.68Z" fill="white"/>
<path d="M84.5904 523.171C83.9604 523.781 82.9804 523.641 82.3904 522.981L77.4404 517.481H77.4004L72.3704 523.061C71.7604 523.741 70.7604 523.741 70.1504 523.061L65.1204 517.481H65.0804L60.0504 523.061C59.4404 523.741 58.4404 523.741 57.8304 523.061L52.8004 517.481H52.7604L47.7304 523.061C47.1204 523.741 46.1204 523.741 45.5104 523.061L40.4804 517.481H40.4404L35.4104 523.061C34.8004 523.741 33.8004 523.741 33.1904 523.061L28.1604 517.481H28.1204L23.1704 522.981C22.5804 523.641 21.6004 523.781 20.9704 523.171C20.6204 522.831 20.4404 522.351 20.4404 521.881V423.651C20.4404 423.181 20.6204 422.701 20.9704 422.361C21.6004 421.751 22.5804 421.891 23.1704 422.551L28.1204 428.051H28.1604L33.1904 422.471C33.8004 421.791 34.8004 421.791 35.4104 422.471L40.4404 428.051H40.4804L45.5104 422.471C46.1204 421.791 47.1204 421.791 47.7304 422.471L52.7604 428.051H52.8004L57.8304 422.471C58.4404 421.791 59.4404 421.791 60.0504 422.471L65.0804 428.051H65.1204L70.1504 422.471C70.7604 421.791 71.7604 421.791 72.3704 422.471L77.4004 428.051H77.4404L82.3904 422.551C82.9804 421.891 83.9604 421.751 84.5904 422.361C84.9404 422.701 85.1204 423.181 85.1204 423.651V521.881C85.1204 522.351 84.9404 522.831 84.5904 523.171Z" fill="#43512A"/>
<path d="M84.5904 523.171C83.9604 523.781 82.9804 523.641 82.3904 522.981L77.4404 517.481H77.4004L72.3704 523.061C71.7604 523.741 70.7604 523.741 70.1504 523.061L65.1204 517.481H65.0804L60.0504 523.061C59.4404 523.741 58.4404 523.741 57.8304 523.061L52.8004 517.481H52.7604L47.7304 523.061C47.1204 523.741 46.1204 523.741 45.5104 523.061L40.4804 517.481H40.4404L35.4104 523.061C34.8004 523.741 33.8004 523.741 33.1904 523.061L28.1604 517.481H28.1204L23.1704 522.981C22.5804 523.641 21.6004 523.781 20.9704 523.171C20.6204 522.831 20.4404 522.351 20.4404 521.881V423.651C20.4404 423.181 20.6204 422.701 20.9704 422.361C21.6004 421.751 22.5804 421.891 23.1704 422.551L28.1204 428.051H28.1604L33.1904 422.471C33.8004 421.791 34.8004 421.791 35.4104 422.471L40.4404 428.051H40.4804L45.5104 422.471C46.1204 421.791 47.1204 421.791 47.7304 422.471L52.7604 428.051H52.8004L57.8304 422.471C58.4404 421.791 59.4404 421.791 60.0504 422.471L65.0804 428.051H65.1204L70.1504 422.471C70.7604 421.791 71.7604 421.791 72.3704 422.471L77.4004 428.051H77.4404L82.3904 422.551C82.9804 421.891 83.9604 421.751 84.5904 422.361C84.9404 422.701 85.1204 423.181 85.1204 423.651V521.881C85.1204 522.351 84.9404 522.831 84.5904 523.171Z" stroke="white" stroke-width="0.82" stroke-miterlimit="10"/>
<path d="M75.01 456.591V455.531H71.59V453.061H74.68V452.011H71.59V449.681H75.01V448.621H70.38V456.611H75.01V456.591ZM67.71 456.591H68.79V452.371H66.13V453.411H67.61V454.111C67.61 455.091 66.85 455.651 65.9 455.651C64.77 455.651 64.09 454.871 64.09 453.571V451.621C64.09 450.321 64.77 449.541 65.9 449.541C66.84 449.541 67.38 450.031 67.65 450.811L68.65 450.231C68.16 449.111 67.3 448.471 65.89 448.471C63.97 448.471 62.79 449.691 62.79 452.611C62.79 455.531 64.03 456.731 65.66 456.731C66.79 456.731 67.42 456.171 67.57 455.411H67.71V456.591ZM60 453.381H57.89L58.6 450.861L58.85 449.691H59L59.25 450.861L59.99 453.381H60ZM62.13 456.591L59.73 448.601H58.19L55.8 456.591H56.99L57.61 454.381H60.3L60.92 456.591H62.14H62.13ZM50.87 452.311V449.671H52.71C53.28 449.671 53.59 449.961 53.59 450.621V451.361C53.59 452.021 53.28 452.311 52.71 452.311H50.87ZM50.87 453.331H52.3L53.68 456.591H55.03L53.51 453.241C54.41 452.991 54.88 452.211 54.88 450.971C54.88 449.451 54.17 448.601 52.81 448.601H49.65V456.591H50.86V453.331H50.87ZM48.16 456.591V455.531H44.74V453.061H47.83V452.011H44.74V449.681H48.16V448.621H43.53V456.611H48.16V456.591ZM40.13 456.591L42.46 448.601H41.21L39.8 453.621L39.47 455.491H39.32L38.99 453.621L37.57 448.601H36.3L38.65 456.591H40.13ZM34.2 453.381H32.09L32.8 450.861L33.05 449.691H33.2L33.45 450.861L34.19 453.381H34.2ZM36.33 456.591L33.93 448.601H32.39L30 456.591H31.19L31.81 454.381H34.5L35.12 456.591H36.34H36.33Z" fill="white"/>
<path d="M64.9402 462.739V461.679H59.4902V462.739H61.6102V469.659H62.8202V462.739H64.9402ZM58.6102 469.659V468.599H55.1902V466.129H58.2802V465.079H55.1902V462.749H58.6102V461.689H53.9802V469.679H58.6102V469.659ZM51.4702 469.659H52.9002L50.1802 465.059L52.7202 461.669H51.3202L49.4402 464.299L48.4202 465.789H48.2702L48.3402 464.299V461.669H47.1302V469.659H48.3402V467.169L49.3402 465.889L51.4702 469.669V469.659ZM43.2802 469.799C44.6402 469.799 45.4302 469.149 45.9302 467.979L44.9202 467.379C44.6302 468.319 44.1202 468.729 43.2702 468.729C42.1902 468.729 41.5502 467.929 41.5502 466.619V464.699C41.5502 463.399 42.1902 462.589 43.2702 462.589C44.1102 462.589 44.5702 462.969 44.8502 463.859L45.8802 463.289C45.3902 462.109 44.6302 461.529 43.2702 461.529C41.4202 461.529 40.2502 462.749 40.2502 465.659C40.2502 468.569 41.4202 469.789 43.2702 469.789L43.2802 469.799ZM39.1202 469.659V468.689H38.1502V462.649H39.1202V461.679H35.9602V462.649H36.9302V468.689H35.9602V469.659H39.1202ZM35.1502 462.739V461.679H29.7002V462.739H31.8202V469.659H33.0302V462.739H35.1502Z" fill="white"/>
<path d="M63.3703 480.88V479.94H58.5203V480.88H63.3703ZM63.3703 478.53V477.59H58.5203V478.53H63.3703ZM55.1803 475.81V474.75H49.7303V475.81H51.8503V482.73H53.0603V475.81H55.1803ZM44.9803 475.81H46.7803C47.3103 475.81 47.6203 476.08 47.6203 476.71V477.23C47.6203 477.86 47.3103 478.13 46.7803 478.13H44.9803V475.81ZM44.9803 479.18H46.9703C47.5403 479.18 47.8603 479.48 47.8603 480.16V480.69C47.8603 481.38 47.5403 481.67 46.9703 481.67H44.9803V479.18ZM43.7603 482.74H47.3203C48.4303 482.74 49.1503 481.81 49.1503 480.44C49.1503 479.39 48.5103 478.64 47.6103 478.64V478.5C48.4303 478.43 48.8903 477.82 48.8903 476.81C48.8903 475.48 48.2403 474.75 47.0003 474.75H43.7603V482.74ZM42.2703 482.74V481.68H38.8503V479.21H41.9403V478.16H38.8503V475.83H42.2703V474.77H37.6403V482.76H42.2703V482.74ZM31.7803 481.67V475.81H33.2003C34.2403 475.81 34.8803 476.51 34.8803 477.81V479.66C34.8803 480.96 34.2403 481.66 33.2003 481.66H31.7803V481.67ZM30.5703 482.74H33.2003C35.0903 482.74 36.1903 481.56 36.1903 478.75C36.1903 475.94 35.0903 474.76 33.2003 474.76H30.5703V482.75V482.74Z" fill="white"/>
<path d="M57.5003 499.2C56.6003 499.2 56.1603 498.69 56.1603 497.74V497.27C56.1603 496.33 56.6003 495.81 57.5003 495.81C58.4003 495.81 58.8403 496.33 58.8403 497.27V497.74C58.8403 498.68 58.4003 499.2 57.5003 499.2ZM57.5003 500.89C59.7903 500.89 61.0403 499.57 61.0403 497.35C61.0403 495.28 60.0103 494.13 58.3803 494.13C57.2603 494.13 56.6603 494.79 56.3903 495.6H56.1503C56.5003 493.56 57.8703 492.17 60.1803 490.45H57.2803C55.6903 491.58 53.9403 493.86 53.9403 496.83C53.9403 499.45 55.1003 500.89 57.4803 500.89H57.5003ZM49.5003 499.13C48.5103 499.13 48.2103 498.6 48.2103 497.04V494.13C48.2103 492.57 48.5203 492.04 49.5003 492.04C50.4803 492.04 50.7903 492.57 50.7903 494.13V497.04C50.7903 498.6 50.4803 499.13 49.5003 499.13ZM49.5003 500.89C51.9603 500.89 53.0303 499.35 53.0303 495.58C53.0303 491.81 51.9603 490.27 49.5003 490.27C47.0403 490.27 45.9703 491.81 45.9703 495.58C45.9703 499.35 47.0403 500.89 49.5003 500.89ZM41.6103 499.2C40.7103 499.2 40.2703 498.69 40.2703 497.74V497.27C40.2703 496.33 40.7103 495.81 41.6103 495.81C42.5103 495.81 42.9503 496.33 42.9503 497.27V497.74C42.9503 498.68 42.5103 499.2 41.6103 499.2ZM41.6103 500.89C43.9003 500.89 45.1503 499.57 45.1503 497.35C45.1503 495.28 44.1203 494.13 42.4903 494.13C41.3703 494.13 40.7703 494.79 40.5003 495.6H40.2603C40.6103 493.56 41.9803 492.17 44.2903 490.45H41.3903C39.8003 491.58 38.0503 493.86 38.0503 496.83C38.0503 499.45 39.2103 500.89 41.5903 500.89H41.6103ZM35.3503 497.73C35.3503 498.42 35.0103 498.82 34.3903 498.97V496.47C35.0203 496.68 35.3503 497.09 35.3503 497.74V497.73ZM32.2603 493.3C32.2603 492.59 32.5703 492.27 33.2203 492.17V494.44C32.5903 494.25 32.2603 493.9 32.2603 493.31V493.3ZM37.2203 497.49C37.2203 495.93 36.3803 495.22 34.4003 494.72V492.16C34.9703 492.25 35.4703 492.48 35.8403 492.94L37.0603 491.84C36.4603 491.1 35.6503 490.71 34.6003 490.59V489.24H33.0103V490.59C31.2703 490.8 30.3603 491.74 30.3603 493.41C30.3603 494.93 31.3203 495.72 33.2103 496.18V499C32.4603 498.91 31.7703 498.59 31.3403 498L30.0703 499.13C30.8103 500.04 31.8203 500.47 33.0003 500.57V501.91H34.5903V500.54C36.3003 500.27 37.2103 499.26 37.2103 497.48L37.2203 497.49Z" fill="white"/>
<path d="M296.96 523.171C296.33 523.781 295.35 523.641 294.76 522.981L289.81 517.481H289.77L284.74 523.061C284.13 523.741 283.13 523.741 282.52 523.061L277.49 517.481H277.45L272.42 523.061C271.81 523.741 270.81 523.741 270.2 523.061L265.17 517.481H265.13L260.1 523.061C259.49 523.741 258.49 523.741 257.88 523.061L252.85 517.481H252.81L247.78 523.061C247.17 523.741 246.17 523.741 245.56 523.061L240.53 517.481H240.49L235.54 522.981C234.95 523.641 233.97 523.781 233.34 523.171C232.99 522.831 232.81 522.351 232.81 521.881V423.651C232.81 423.181 232.99 422.701 233.34 422.361C233.97 421.751 234.95 421.891 235.54 422.551L240.49 428.051H240.53L245.56 422.471C246.17 421.791 247.17 421.791 247.78 422.471L252.81 428.051H252.85L257.88 422.471C258.49 421.791 259.49 421.791 260.1 422.471L265.13 428.051H265.17L270.2 422.471C270.81 421.791 271.81 421.791 272.42 422.471L277.45 428.051H277.49L282.52 422.471C283.13 421.791 284.13 421.791 284.74 422.471L289.77 428.051H289.81L294.76 422.551C295.35 421.891 296.33 421.751 296.96 422.361C297.31 422.701 297.49 423.181 297.49 423.651V521.881C297.49 522.351 297.31 522.831 296.96 523.171Z" fill="#603913"/>
<path d="M296.96 523.171C296.33 523.781 295.35 523.641 294.76 522.981L289.81 517.481H289.77L284.74 523.061C284.13 523.741 283.13 523.741 282.52 523.061L277.49 517.481H277.45L272.42 523.061C271.81 523.741 270.81 523.741 270.2 523.061L265.17 517.481H265.13L260.1 523.061C259.49 523.741 258.49 523.741 257.88 523.061L252.85 517.481H252.81L247.78 523.061C247.17 523.741 246.17 523.741 245.56 523.061L240.53 517.481H240.49L235.54 522.981C234.95 523.641 233.97 523.781 233.34 523.171C232.99 522.831 232.81 522.351 232.81 521.881V423.651C232.81 423.181 232.99 422.701 233.34 422.361C233.97 421.751 234.95 421.891 235.54 422.551L240.49 428.051H240.53L245.56 422.471C246.17 421.791 247.17 421.791 247.78 422.471L252.81 428.051H252.85L257.88 422.471C258.49 421.791 259.49 421.791 260.1 422.471L265.13 428.051H265.17L270.2 422.471C270.81 421.791 271.81 421.791 272.42 422.471L277.45 428.051H277.49L282.52 422.471C283.13 421.791 284.13 421.791 284.74 422.471L289.77 428.051H289.81L294.76 422.551C295.35 421.891 296.33 421.751 296.96 422.361C297.31 422.701 297.49 423.181 297.49 423.651V521.881C297.49 522.351 297.31 522.831 296.96 523.171Z" stroke="white" stroke-width="0.82" stroke-miterlimit="10"/>
<path d="M285.75 456.591V455.531H282.33V453.061H285.42V452.011H282.33V449.681H285.75V448.621H281.12V456.611H285.75V456.591ZM278.45 456.591H279.53V452.371H276.87V453.411H278.35V454.111C278.35 455.091 277.59 455.651 276.64 455.651C275.51 455.651 274.83 454.871 274.83 453.571V451.621C274.83 450.321 275.51 449.541 276.64 449.541C277.58 449.541 278.12 450.031 278.39 450.811L279.39 450.231C278.9 449.111 278.04 448.471 276.63 448.471C274.71 448.471 273.53 449.691 273.53 452.611C273.53 455.531 274.77 456.731 276.4 456.731C277.53 456.731 278.16 456.171 278.31 455.411H278.45V456.591ZM270.74 453.381H268.63L269.34 450.861L269.59 449.691H269.74L269.99 450.861L270.73 453.381H270.74ZM272.87 456.591L270.47 448.601H268.93L266.54 456.591H267.73L268.35 454.381H271.04L271.66 456.591H272.88H272.87ZM261.61 452.311V449.671H263.45C264.02 449.671 264.33 449.961 264.33 450.621V451.361C264.33 452.021 264.02 452.311 263.45 452.311H261.61ZM261.61 453.331H263.04L264.42 456.591H265.77L264.25 453.241C265.15 452.991 265.62 452.211 265.62 450.971C265.62 449.451 264.91 448.601 263.55 448.601H260.39V456.591H261.6V453.331H261.61ZM258.9 456.591V455.531H255.48V453.061H258.57V452.011H255.48V449.681H258.9V448.621H254.27V456.611H258.9V456.591ZM250.87 456.591L253.2 448.601H251.95L250.54 453.621L250.21 455.491H250.06L249.73 453.621L248.31 448.601H247.04L249.39 456.591H250.87ZM244.94 453.381H242.83L243.54 450.861L243.79 449.691H243.94L244.19 450.861L244.93 453.381H244.94ZM247.07 456.591L244.67 448.601H243.13L240.74 456.591H241.93L242.55 454.381H245.24L245.86 456.591H247.08H247.07Z" fill="white"/>
<path d="M275.68 462.739V461.679H270.23V462.739H272.35V469.659H273.56V462.739H275.68ZM269.35 469.659V468.599H265.93V466.129H269.02V465.079H265.93V462.749H269.35V461.689H264.72V469.679H269.35V469.659ZM262.21 469.659H263.64L260.92 465.059L263.46 461.669H262.06L260.18 464.299L259.16 465.789H259.01L259.08 464.299V461.669H257.87V469.659H259.08V467.169L260.08 465.889L262.21 469.669V469.659ZM254.02 469.799C255.38 469.799 256.17 469.149 256.67 467.979L255.66 467.379C255.37 468.319 254.86 468.729 254.01 468.729C252.93 468.729 252.29 467.929 252.29 466.619V464.699C252.29 463.399 252.93 462.589 254.01 462.589C254.85 462.589 255.31 462.969 255.59 463.859L256.62 463.289C256.13 462.109 255.37 461.529 254.01 461.529C252.16 461.529 250.99 462.749 250.99 465.659C250.99 468.569 252.16 469.789 254.01 469.789L254.02 469.799ZM249.85 469.659V468.689H248.88V462.649H249.85V461.679H246.69V462.649H247.66V468.689H246.69V469.659H249.85ZM245.89 462.739V461.679H240.44V462.739H242.56V469.659H243.77V462.739H245.89Z" fill="white"/>
<path d="M274.11 480.88V479.94H269.26V480.88H274.11ZM274.11 478.53V477.59H269.26V478.53H274.11ZM265.92 475.81V474.75H260.47V475.81H262.59V482.73H263.8V475.81H265.92ZM255.71 475.81H257.51C258.04 475.81 258.35 476.08 258.35 476.71V477.23C258.35 477.86 258.04 478.13 257.51 478.13H255.71V475.81ZM255.71 479.18H257.7C258.27 479.18 258.59 479.48 258.59 480.16V480.69C258.59 481.38 258.27 481.67 257.7 481.67H255.71V479.18ZM254.5 482.74H258.06C259.17 482.74 259.89 481.81 259.89 480.44C259.89 479.39 259.25 478.64 258.35 478.64V478.5C259.17 478.43 259.63 477.82 259.63 476.81C259.63 475.48 258.98 474.75 257.74 474.75H254.5V482.74ZM253 482.74V481.68H249.58V479.21H252.67V478.16H249.58V475.83H253V474.77H248.37V482.76H253V482.74ZM242.52 481.67V475.81H243.94C244.98 475.81 245.62 476.51 245.62 477.81V479.66C245.62 480.96 244.98 481.66 243.94 481.66H242.52V481.67ZM241.31 482.74H243.94C245.83 482.74 246.93 481.56 246.93 478.75C246.93 475.94 245.83 474.76 243.94 474.76H241.31V482.75V482.74Z" fill="white"/>
<path d="M268.18 499.941C267.19 499.941 266.89 499.411 266.89 497.851V494.941C266.89 493.381 267.2 492.851 268.18 492.851C269.16 492.851 269.47 493.381 269.47 494.941V497.851C269.47 499.411 269.16 499.941 268.18 499.941ZM268.18 501.711C270.64 501.711 271.71 500.171 271.71 496.401C271.71 492.631 270.64 491.091 268.18 491.091C265.72 491.091 264.65 492.631 264.65 496.401C264.65 500.171 265.72 501.711 268.18 501.711ZM258.88 495.401V497.091H259.69C260.68 497.091 261.26 497.591 261.26 498.281V498.751C261.26 499.491 260.74 500.021 259.88 500.021C258.92 500.021 258.35 499.421 257.97 498.561L256.44 499.741C257.01 500.781 258.04 501.711 259.9 501.711C262.09 501.711 263.44 500.501 263.44 498.521C263.44 497.091 262.65 496.501 261.53 496.311V496.071C262.47 495.891 263.25 495.161 263.25 493.781C263.25 491.961 262.03 491.091 260.03 491.091C258.63 491.091 257.47 491.681 256.74 492.811L258.03 494.001C258.53 493.211 259.13 492.781 259.91 492.781C260.69 492.781 261.1 493.241 261.1 493.811V494.281C261.1 494.801 260.69 495.401 259.73 495.401H258.88ZM255.26 491.261H249.49L249.14 497.061L250.92 497.301C251.14 496.961 251.58 496.551 252.29 496.551C253.11 496.551 253.64 496.991 253.64 497.991V498.461C253.64 499.521 253.17 500.021 252.24 500.021C251.39 500.021 250.78 499.451 250.39 498.591L248.87 499.771C249.41 500.811 250.41 501.711 252.24 501.711C254.64 501.711 255.84 500.401 255.84 498.091C255.84 495.781 254.77 494.851 253.06 494.851C252 494.851 251.34 495.471 251.12 496.421H250.88L251.1 493.101H255.25V491.261H255.26ZM246.09 498.551C246.09 499.241 245.75 499.641 245.13 499.791V497.291C245.76 497.501 246.09 497.911 246.09 498.561V498.551ZM243 494.121C243 493.411 243.31 493.091 243.96 492.991V495.261C243.33 495.071 243 494.721 243 494.131V494.121ZM247.95 498.311C247.95 496.751 247.11 496.041 245.13 495.541V492.981C245.7 493.071 246.2 493.301 246.57 493.761L247.79 492.661C247.19 491.921 246.38 491.531 245.33 491.411V490.061H243.74V491.411C242 491.621 241.09 492.561 241.09 494.231C241.09 495.751 242.05 496.541 243.94 497.001V499.821C243.19 499.731 242.5 499.411 242.07 498.821L240.8 499.951C241.54 500.861 242.55 501.291 243.73 501.391V502.731H245.32V501.361C247.03 501.091 247.94 500.081 247.94 498.301L247.95 498.311Z" fill="white"/>
<path d="M390.65 877.909C390.02 878.519 389.04 878.379 388.45 877.719L383.5 872.219H383.46L378.43 877.799C377.82 878.479 376.82 878.479 376.21 877.799L371.18 872.219H371.14L366.11 877.799C365.5 878.479 364.5 878.479 363.89 877.799L358.86 872.219H358.82L353.79 877.799C353.18 878.479 352.18 878.479 351.57 877.799L346.54 872.219H346.5L341.47 877.799C340.86 878.479 339.86 878.479 339.25 877.799L334.22 872.219H334.18L329.23 877.719C328.64 878.379 327.66 878.519 327.03 877.909C326.68 877.569 326.5 877.089 326.5 876.619V778.389C326.5 777.919 326.68 777.439 327.03 777.099C327.66 776.489 328.64 776.629 329.23 777.289L334.18 782.789H334.22L339.25 777.209C339.86 776.529 340.86 776.529 341.47 777.209L346.5 782.789H346.54L351.57 777.209C352.18 776.529 353.18 776.529 353.79 777.209L358.82 782.789H358.86L363.89 777.209C364.5 776.529 365.5 776.529 366.11 777.209L371.14 782.789H371.18L376.21 777.209C376.82 776.529 377.82 776.529 378.43 777.209L383.46 782.789H383.5L388.45 777.289C389.04 776.629 390.02 776.489 390.65 777.099C391 777.439 391.18 777.919 391.18 778.389V876.619C391.18 877.089 391 877.569 390.65 877.909Z" fill="#EC1E2E"/>
<path d="M390.65 877.909C390.02 878.519 389.04 878.379 388.45 877.719L383.5 872.219H383.46L378.43 877.799C377.82 878.479 376.82 878.479 376.21 877.799L371.18 872.219H371.14L366.11 877.799C365.5 878.479 364.5 878.479 363.89 877.799L358.86 872.219H358.82L353.79 877.799C353.18 878.479 352.18 878.479 351.57 877.799L346.54 872.219H346.5L341.47 877.799C340.86 878.479 339.86 878.479 339.25 877.799L334.22 872.219H334.18L329.23 877.719C328.64 878.379 327.66 878.519 327.03 877.909C326.68 877.569 326.5 877.089 326.5 876.619V778.389C326.5 777.919 326.68 777.439 327.03 777.099C327.66 776.489 328.64 776.629 329.23 777.289L334.18 782.789H334.22L339.25 777.209C339.86 776.529 340.86 776.529 341.47 777.209L346.5 782.789H346.54L351.57 777.209C352.18 776.529 353.18 776.529 353.79 777.209L358.82 782.789H358.86L363.89 777.209C364.5 776.529 365.5 776.529 366.11 777.209L371.14 782.789H371.18L376.21 777.209C376.82 776.529 377.82 776.529 378.43 777.209L383.46 782.789H383.5L388.45 777.289C389.04 776.629 390.02 776.489 390.65 777.099C391 777.439 391.18 777.919 391.18 778.389V876.619C391.18 877.089 391 877.569 390.65 877.909Z" stroke="white" stroke-width="0.82" stroke-miterlimit="10"/>
<path d="M379.44 811.341V810.281H376.02V807.811H379.11V806.761H376.02V804.431H379.44V803.371H374.81V811.361H379.44V811.341ZM372.14 811.341H373.22V807.121H370.56V808.161H372.04V808.861C372.04 809.841 371.28 810.401 370.33 810.401C369.2 810.401 368.52 809.621 368.52 808.321V806.371C368.52 805.071 369.2 804.291 370.33 804.291C371.27 804.291 371.81 804.781 372.08 805.561L373.08 804.981C372.59 803.861 371.73 803.221 370.32 803.221C368.4 803.221 367.22 804.441 367.22 807.361C367.22 810.281 368.46 811.481 370.09 811.481C371.22 811.481 371.85 810.921 372 810.161H372.14V811.341ZM364.43 808.131H362.32L363.03 805.611L363.28 804.441H363.43L363.68 805.611L364.42 808.131H364.43ZM366.56 811.341L364.16 803.351H362.62L360.23 811.341H361.42L362.04 809.131H364.73L365.35 811.341H366.57H366.56ZM355.3 807.061V804.421H357.14C357.71 804.421 358.02 804.711 358.02 805.371V806.111C358.02 806.771 357.71 807.061 357.14 807.061H355.3ZM355.3 808.071H356.73L358.11 811.331H359.46L357.94 807.981C358.84 807.731 359.31 806.951 359.31 805.711C359.31 804.191 358.6 803.341 357.24 803.341H354.08V811.331H355.29V808.071H355.3ZM352.59 811.341V810.281H349.17V807.811H352.26V806.761H349.17V804.431H352.59V803.371H347.96V811.361H352.59V811.341ZM344.55 811.341L346.88 803.351H345.63L344.22 808.371L343.89 810.241H343.74L343.41 808.371L341.99 803.351H340.72L343.07 811.341H344.55ZM338.63 808.131H336.52L337.23 805.611L337.48 804.441H337.63L337.88 805.611L338.62 808.131H338.63ZM340.76 811.341L338.36 803.351H336.82L334.43 811.341H335.62L336.24 809.131H338.93L339.55 811.341H340.77H340.76Z" fill="white"/>
<path d="M369.36 817.489V816.429H363.91V817.489H366.03V824.409H367.24V817.489H369.36ZM363.04 824.409V823.349H359.62V820.879H362.71V819.829H359.62V817.499H363.04V816.439H358.41V824.429H363.04V824.409ZM355.9 824.409H357.33L354.61 819.809L357.15 816.419H355.75L353.87 819.049L352.85 820.539H352.7L352.77 819.049V816.419H351.56V824.409H352.77V821.919L353.77 820.639L355.9 824.419V824.409ZM347.71 824.549C349.07 824.549 349.86 823.899 350.36 822.729L349.35 822.129C349.06 823.069 348.55 823.479 347.7 823.479C346.62 823.479 345.98 822.679 345.98 821.369V819.449C345.98 818.149 346.62 817.339 347.7 817.339C348.54 817.339 349 817.719 349.28 818.609L350.31 818.039C349.82 816.859 349.06 816.279 347.7 816.279C345.85 816.279 344.68 817.499 344.68 820.409C344.68 823.319 345.85 824.539 347.7 824.539L347.71 824.549ZM343.54 824.409V823.439H342.57V817.399H343.54V816.429H340.38V817.399H341.35V823.439H340.38V824.409H343.54ZM339.57 817.489V816.429H334.12V817.489H336.24V824.409H337.45V817.489H339.57Z" fill="white"/>
<path d="M367.8 835.63V834.69H362.95V835.63H367.8ZM367.8 833.27V832.33H362.95V833.27H367.8ZM359.61 830.56V829.5H354.16V830.56H356.28V837.48H357.49V830.56H359.61ZM349.4 830.56H351.2C351.73 830.56 352.04 830.83 352.04 831.46V831.98C352.04 832.61 351.73 832.88 351.2 832.88H349.4V830.56ZM349.4 833.93H351.39C351.96 833.93 352.28 834.23 352.28 834.91V835.44C352.28 836.13 351.96 836.42 351.39 836.42H349.4V833.93ZM348.19 837.49H351.75C352.86 837.49 353.58 836.56 353.58 835.19C353.58 834.14 352.94 833.39 352.04 833.39V833.25C352.86 833.18 353.32 832.57 353.32 831.56C353.32 830.23 352.67 829.5 351.43 829.5H348.19V837.49ZM346.69 837.49V836.43H343.27V833.96H346.36V832.91H343.27V830.58H346.69V829.52H342.06V837.51H346.69V837.49ZM336.21 836.42V830.56H337.63C338.67 830.56 339.31 831.26 339.31 832.56V834.41C339.31 835.71 338.67 836.41 337.63 836.41H336.21V836.42ZM335 837.49H337.63C339.52 837.49 340.62 836.31 340.62 833.5C340.62 830.69 339.52 829.51 337.63 829.51H335V837.5V837.49Z" fill="white"/>
<path d="M364.84 845.2H359.07L358.72 851L360.5 851.24C360.72 850.9 361.16 850.49 361.87 850.49C362.69 850.49 363.22 850.93 363.22 851.93V852.4C363.22 853.46 362.75 853.96 361.82 853.96C360.97 853.96 360.36 853.39 359.97 852.53L358.45 853.71C358.99 854.75 359.99 855.65 361.82 855.65C364.22 855.65 365.42 854.34 365.42 852.03C365.42 849.72 364.35 848.79 362.64 848.79C361.58 848.79 360.92 849.41 360.7 850.36H360.46L360.68 847.04H364.83V845.2H364.84ZM356.9 845.2H351.13L350.78 851L352.56 851.24C352.78 850.9 353.22 850.49 353.93 850.49C354.75 850.49 355.28 850.93 355.28 851.93V852.4C355.28 853.46 354.81 853.96 353.88 853.96C353.03 853.96 352.42 853.39 352.03 852.53L350.51 853.71C351.05 854.75 352.05 855.65 353.88 855.65C356.28 855.65 357.48 854.34 357.48 852.03C357.48 849.72 356.41 848.79 354.7 848.79C353.64 848.79 352.98 849.41 352.76 850.36H352.52L352.74 847.04H356.89V845.2H356.9ZM345.98 849.43C345.16 849.43 344.73 848.93 344.73 848.22V847.82C344.73 847.11 345.16 846.61 345.98 846.61C346.8 846.61 347.23 847.11 347.23 847.82V848.22C347.23 848.93 346.8 849.43 345.98 849.43ZM345.98 854.04C345.13 854.04 344.69 853.57 344.69 852.75V852.28C344.69 851.46 345.13 850.99 345.98 850.99C346.83 850.99 347.27 851.46 347.27 852.28V852.75C347.27 853.57 346.83 854.04 345.98 854.04ZM345.98 855.64C348.29 855.64 349.45 854.49 349.45 852.65C349.45 851.3 348.73 850.47 347.64 850.24V850C348.54 849.73 349.17 848.93 349.17 847.71C349.17 846.02 348.15 845.02 345.98 845.02C343.81 845.02 342.79 846.02 342.79 847.71C342.79 848.93 343.42 849.74 344.32 850V850.24C343.23 850.48 342.51 851.3 342.51 852.65C342.51 854.49 343.67 855.64 345.98 855.64ZM339.77 852.48C339.77 853.17 339.43 853.57 338.81 853.72V851.22C339.44 851.43 339.77 851.84 339.77 852.49V852.48ZM336.69 848.05C336.69 847.34 337 847.02 337.65 846.92V849.19C337.02 849 336.69 848.65 336.69 848.06V848.05ZM341.64 852.24C341.64 850.68 340.8 849.97 338.82 849.47V846.91C339.39 847 339.89 847.23 340.26 847.69L341.48 846.59C340.88 845.85 340.07 845.46 339.02 845.34V843.99H337.43V845.34C335.69 845.55 334.78 846.49 334.78 848.16C334.78 849.68 335.74 850.47 337.63 850.93V853.75C336.88 853.66 336.19 853.34 335.76 852.75L334.49 853.88C335.23 854.79 336.24 855.22 337.42 855.32V856.66H339.01V855.29C340.72 855.02 341.63 854.01 341.63 852.23L341.64 852.24Z" fill="white"/>
<defs>
<linearGradient id="paint0_linear_3330_550" x1="112.559" y1="592.659" x2="112.559" y2="300.579" gradientUnits="userSpaceOnUse">
<stop stop-color="white"/>
<stop offset="0.03" stop-color="white"/>
<stop offset="0.07" stop-color="#F1F2EF"/>
<stop offset="0.33" stop-color="#949C86"/>
<stop offset="0.51" stop-color="#596643"/>
<stop offset="0.6" stop-color="#43512A"/>
<stop offset="0.7" stop-color="#384126"/>
<stop offset="0.89" stop-color="#282821"/>
<stop offset="1" stop-color="#231F20"/>
</linearGradient>
<linearGradient id="paint1_linear_3330_550" x1="254.23" y1="715.717" x2="254.23" y2="329.927" gradientUnits="userSpaceOnUse">
<stop stop-color="white"/>
<stop offset="0.43" stop-color="#7D5E3F"/>
<stop offset="0.53" stop-color="#603913"/>
<stop offset="0.71" stop-color="#472E18"/>
<stop offset="1" stop-color="#231F20"/>
</linearGradient>
<linearGradient id="paint2_linear_3330_550" x1="348.331" y1="956.519" x2="348.331" y2="344.889" gradientUnits="userSpaceOnUse">
<stop stop-color="white"/>
<stop offset="0.35" stop-color="#ED1C24"/>
<stop offset="0.42" stop-color="#E11C23"/>
<stop offset="0.54" stop-color="#C31C23"/>
<stop offset="0.69" stop-color="#931D22"/>
<stop offset="0.88" stop-color="#511E20"/>
<stop offset="1" stop-color="#231F20"/>
</linearGradient>
</defs>
</svg>
