<svg width="346" height="509" viewBox="0 0 346 509" fill="none" xmlns="http://www.w3.org/2000/svg">
<g clip-path="url(#clip0_3330_518)">
<path d="M253.85 230.239H255.53V224.849H252V226.529H253.61V227.099C253.61 228.109 252.87 228.629 251.86 228.629C250.75 228.629 250.07 227.959 250.07 226.629V224.079C250.07 222.749 250.76 222.059 251.81 222.059C252.86 222.059 253.46 222.619 253.73 223.489L255.37 222.549C254.73 221.069 253.56 220.299 251.83 220.299C249.49 220.299 247.95 221.699 247.95 225.399C247.95 229.099 249.59 230.409 251.44 230.409C252.73 230.409 253.51 229.699 253.64 228.699H253.86V230.239H253.85ZM244.05 230.239H246.24V220.459H244.36V225.619L244.47 227.259H244.25L243.63 225.709L241.16 220.469H238.97V230.249H240.85V225.099L240.74 223.459H240.96L241.58 225.009L244.05 230.249V230.239ZM237.26 230.239V228.659H236.11V222.049H237.26V220.469H232.96V222.049H234.11V228.659H232.96V230.239H237.26ZM224.47 230.239L225.62 224.609L225.87 222.659H226.09L226.34 224.609L227.49 230.239H229.76L231.8 220.459H229.89L228.98 225.869L228.73 228.039H228.51L228.26 225.919L227.13 220.459H224.93L223.81 225.919L223.56 228.039H223.34L223.09 225.869L222.17 220.459H220.19L222.15 230.239H224.48H224.47ZM215.5 228.649C214.39 228.649 213.75 227.959 213.75 226.629V224.079C213.75 222.749 214.39 222.059 215.5 222.059C216.61 222.059 217.25 222.749 217.25 224.079V226.629C217.25 227.959 216.61 228.649 215.5 228.649ZM215.5 230.409C217.84 230.409 219.38 229.009 219.38 225.349C219.38 221.689 217.84 220.289 215.5 220.289C213.16 220.289 211.62 221.689 211.62 225.349C211.62 229.009 213.16 230.409 215.5 230.409ZM210.87 222.219V220.469H204.19V222.219H206.53V230.249H208.53V222.219H210.87Z" fill="#231F20"/>
<path d="M193.11 356.82H139.16V426.93H193.11V356.82Z" fill="#ED1C24"/>
<path d="M174.77 398.52L177.75 389.9V388.06H171.03V391.66H172.83V389.78H175.66L172.51 398.53H174.76L174.77 398.52ZM169.15 388.05H163.27L162.91 393.96L164.72 394.2C164.95 393.85 165.4 393.43 166.12 393.43C166.96 393.43 167.5 393.88 167.5 394.9V395.38C167.5 396.46 167.02 396.97 166.08 396.97C165.21 396.97 164.6 396.39 164.19 395.51L162.65 396.71C163.2 397.77 164.22 398.69 166.08 398.69C168.52 398.69 169.75 397.36 169.75 395C169.75 392.64 168.66 391.7 166.92 391.7C165.84 391.7 165.17 392.33 164.94 393.3H164.7L164.92 389.91H169.15V388.03V388.05ZM159.64 395.48C159.64 396.19 159.29 396.59 158.66 396.74V394.19C159.31 394.4 159.64 394.82 159.64 395.48ZM156.49 390.96C156.49 390.24 156.8 389.91 157.46 389.8V392.11C156.81 391.91 156.49 391.55 156.49 390.95V390.96ZM161.54 395.24C161.54 393.65 160.69 392.93 158.66 392.42V389.81C159.24 389.9 159.75 390.14 160.13 390.6L161.37 389.48C160.76 388.73 159.93 388.33 158.87 388.21V386.83H157.25V388.21C155.48 388.42 154.55 389.38 154.55 391.09C154.55 392.63 155.53 393.44 157.46 393.91V396.79C156.7 396.7 155.99 396.37 155.56 395.77L154.27 396.93C155.02 397.86 156.05 398.29 157.25 398.4V399.76H158.87V398.37C160.61 398.1 161.54 397.07 161.54 395.25V395.24Z" fill="white"/>
<path d="M193.14 426.939H139.14V509.119H193.14V426.939Z" fill="#231F20"/>
<path d="M193.14 96.6504H139.14V357.03H193.14V96.6504Z" fill="#384621"/>
<path d="M181.99 230.309V228.509H179.97V219.839H177.75L175.01 221.589L175.88 223.059L177.87 221.789V228.509H175.55V230.309H182H181.99ZM173.74 230.309V228.509H171.72V219.839H169.5L166.76 221.589L167.63 223.059L169.62 221.789V228.509H167.3V230.309H173.75H173.74ZM165.41 228.509H160.99L162.98 226.599C164.73 224.919 165.23 224.099 165.23 222.659C165.23 220.799 164.34 219.659 161.96 219.659C159.77 219.659 158.86 220.859 158.45 222.299L160.31 223.009C160.48 222.179 160.88 221.469 161.77 221.469C162.52 221.469 162.98 221.929 162.98 222.609V223.089C162.98 223.919 162.6 224.549 161.55 225.559L158.69 228.359V230.309H165.41V228.509ZM155.51 227.259C155.51 227.969 155.16 228.369 154.53 228.519V225.969C155.18 226.179 155.51 226.599 155.51 227.259ZM152.36 222.749C152.36 222.029 152.67 221.699 153.33 221.589V223.899C152.68 223.699 152.36 223.339 152.36 222.739V222.749ZM157.42 227.019C157.42 225.429 156.57 224.709 154.54 224.199V221.589C155.12 221.679 155.63 221.919 156.01 222.379L157.25 221.259C156.64 220.509 155.81 220.109 154.75 219.989V218.609H153.13V219.989C151.36 220.199 150.43 221.159 150.43 222.869C150.43 224.409 151.41 225.219 153.34 225.689V228.569C152.58 228.479 151.87 228.149 151.44 227.549L150.15 228.709C150.9 229.639 151.93 230.069 153.13 230.179V231.539H154.75V230.149C156.49 229.879 157.42 228.849 157.42 227.029V227.019Z" fill="white"/>
<path d="M193.14 39.4805H139.14V97.2905H193.14V39.4805Z" fill="#F7941E"/>
<path d="M174.98 74.4298C174 74.4298 173.52 73.8699 173.52 72.8499V72.3398C173.52 71.3198 174 70.7598 174.98 70.7598C175.96 70.7598 176.44 71.3198 176.44 72.3398V72.8499C176.44 73.8699 175.96 74.4298 174.98 74.4298ZM174.98 76.2699C177.48 76.2699 178.84 74.8299 178.84 72.4099C178.84 70.1499 177.72 68.8998 175.94 68.8998C174.72 68.8998 174.07 69.6198 173.78 70.4998H173.52C173.9 68.2798 175.39 66.7698 177.91 64.8998H174.76C173.03 66.1298 171.13 68.6099 171.13 71.8499C171.13 74.6999 172.39 76.2699 174.99 76.2699H174.98ZM166.32 67.1998H166.58V72.1798H163.94L166.33 67.1998H166.32ZM168.74 76.0798V73.9698H170.02V72.1798H168.74V64.9099H165.83L162.21 72.0199V73.9698H166.58V76.0798H168.74ZM159.2 72.8298C159.2 73.5798 158.83 74.0098 158.16 74.1698V71.4498C158.85 71.6698 159.2 72.1198 159.2 72.8298ZM155.84 68.0098C155.84 67.2398 156.18 66.8898 156.88 66.7798V69.2399C156.19 69.0299 155.84 68.6498 155.84 68.0098ZM161.24 72.5699C161.24 70.8699 160.33 70.1098 158.17 69.5598V66.7699C158.79 66.8699 159.34 67.1198 159.74 67.6198L161.07 66.4198C160.41 65.6198 159.53 65.1898 158.4 65.0598V63.5898H156.67V65.0598C154.78 65.2798 153.79 66.3099 153.79 68.1299C153.79 69.7799 154.83 70.6398 156.9 71.1398V74.2099C156.08 74.1099 155.33 73.7598 154.87 73.1198L153.49 74.3499C154.29 75.3399 155.39 75.8098 156.68 75.9198V77.3799H158.41V75.8898C160.27 75.5998 161.26 74.4998 161.26 72.5598L161.24 72.5699Z" fill="#231F20"/>
<path d="M193.14 -0.0605469H139.14V39.2995H193.14V-0.0605469Z" fill="#2B3990"/>
<path d="M177.79 24.8199H173.37L175.36 22.9099C177.11 21.2299 177.61 20.4099 177.61 18.9699C177.61 17.1099 176.72 15.9699 174.34 15.9699C172.15 15.9699 171.24 17.1699 170.83 18.6099L172.69 19.3199C172.86 18.4899 173.26 17.7799 174.15 17.7799C174.9 17.7799 175.36 18.2399 175.36 18.9199V19.3999C175.36 20.2299 174.98 20.8599 173.93 21.8699L171.07 24.6699V26.6199H177.79V24.8199ZM164.74 20.3599V22.0799H165.56C166.56 22.0799 167.16 22.5899 167.16 23.2999V23.7799C167.16 24.5299 166.63 25.0699 165.75 25.0699C164.77 25.0699 164.19 24.4499 163.8 23.5799L162.24 24.7799C162.82 25.8499 163.88 26.7899 165.76 26.7899C167.99 26.7899 169.37 25.5599 169.37 23.5399C169.37 22.0799 168.56 21.4899 167.42 21.2899V21.0499C168.38 20.8699 169.17 20.1199 169.17 18.7099C169.17 16.8499 167.93 15.9599 165.89 15.9599C164.46 15.9599 163.28 16.5599 162.53 17.7099L163.85 18.9199C164.36 18.1099 164.97 17.6699 165.77 17.6699C166.57 17.6699 166.99 18.1299 166.99 18.7199V19.1999C166.99 19.7199 166.57 20.3399 165.59 20.3399H164.72L164.74 20.3599ZM159.64 23.5699C159.64 24.2799 159.29 24.6799 158.66 24.8299V22.2799C159.31 22.4899 159.64 22.9099 159.64 23.5699ZM156.49 19.0599C156.49 18.3399 156.8 18.0099 157.46 17.8999V20.2099C156.81 20.0099 156.49 19.6499 156.49 19.0499V19.0599ZM161.54 23.3299C161.54 21.7399 160.69 21.0199 158.66 20.5099V17.8999C159.24 17.9899 159.75 18.2299 160.13 18.6899L161.37 17.5699C160.76 16.8199 159.93 16.4199 158.87 16.2999V14.9199H157.25V16.2999C155.48 16.5099 154.55 17.4699 154.55 19.1799C154.55 20.7199 155.53 21.5299 157.46 21.9999V24.8799C156.7 24.7899 155.99 24.4599 155.56 23.8599L154.27 25.0199C155.02 25.9499 156.05 26.3799 157.25 26.4899V27.8499H158.87V26.4599C160.61 26.1899 161.54 25.1599 161.54 23.3399V23.3299Z" fill="white"/>
<path d="M174.77 471.229L177.75 462.609V460.769H171.03V464.369H172.83V462.489H175.66L172.51 471.239H174.76L174.77 471.229ZM166.18 469.689C165.26 469.689 164.82 469.159 164.82 468.199V467.719C164.82 466.759 165.27 466.229 166.18 466.229C167.09 466.229 167.54 466.759 167.54 467.719V468.199C167.54 469.159 167.09 469.689 166.18 469.689ZM166.18 471.409C168.52 471.409 169.79 470.059 169.79 467.799C169.79 465.679 168.74 464.509 167.08 464.509C165.94 464.509 165.33 465.179 165.06 466.009H164.82C165.18 463.929 166.57 462.509 168.93 460.759H165.98C164.36 461.919 162.57 464.239 162.57 467.269C162.57 469.939 163.76 471.409 166.18 471.409ZM159.64 468.189C159.64 468.899 159.29 469.299 158.66 469.449V466.899C159.31 467.109 159.64 467.529 159.64 468.189ZM156.49 463.669C156.49 462.949 156.8 462.619 157.46 462.509V464.819C156.81 464.619 156.49 464.259 156.49 463.659V463.669ZM161.54 467.939C161.54 466.349 160.69 465.629 158.66 465.119V462.509C159.24 462.599 159.75 462.839 160.13 463.299L161.37 462.179C160.76 461.429 159.93 461.029 158.87 460.909V459.529H157.25V460.909C155.48 461.119 154.55 462.079 154.55 463.789C154.55 465.329 155.53 466.139 157.46 466.609V469.489C156.7 469.399 155.99 469.069 155.56 468.469L154.27 469.629C155.02 470.559 156.05 470.989 157.25 471.099V472.459H158.87V471.069C160.61 470.799 161.54 469.769 161.54 467.949V467.939Z" fill="white"/>
<path d="M259.39 392.84V391.09H255.34V388.76H258.77V387.02H255.34V384.81H259.39V383.06H253.34V392.84H259.39ZM249.73 392.84H251.41V387.45H247.88V389.13H249.49V389.7C249.49 390.71 248.75 391.23 247.74 391.23C246.63 391.23 245.95 390.56 245.95 389.23V386.68C245.95 385.35 246.64 384.66 247.69 384.66C248.74 384.66 249.34 385.22 249.61 386.09L251.25 385.15C250.61 383.67 249.44 382.9 247.71 382.9C245.37 382.9 243.83 384.3 243.83 388C243.83 391.7 245.47 393.01 247.32 393.01C248.61 393.01 249.39 392.3 249.52 391.3H249.74V392.84H249.73ZM240 388.83H237.98L238.55 386.57L238.86 384.88H239.08L239.39 386.57L239.99 388.83H240ZM243.07 392.84L240.3 383.06H237.75L234.98 392.84H236.9L237.5 390.44H240.5L241.1 392.84H243.08H243.07ZM233.87 392.84V391.09H229.82V388.76H233.25V387.02H229.82V384.81H233.87V383.06H227.82V392.84H233.87ZM226.28 392.84V391.09H222.96V383.06H220.96V392.84H226.28ZM219.24 392.84V391.26H218.09V384.65H219.24V383.07H214.94V384.65H216.09V391.26H214.94V392.84H219.24ZM211.33 392.84H213.21V383.06H211.12L209.82 385.97L209.09 388.06H208.95L208.22 385.97L206.89 383.06H204.79V392.84H206.67V387.74L206.56 386.1H206.78L207.38 387.65L208.99 391.19L210.61 387.65L211.21 386.1H211.43L211.32 387.74V392.84H211.33Z" fill="#231F20"/>
<path d="M329.33 403.591C330.04 403.591 330.41 404.011 330.41 404.851V405.301H328.25V404.851C328.25 404.011 328.61 403.591 329.33 403.591ZM329.53 409.811C330.78 409.811 331.72 409.311 332.3 408.511L331.31 407.351C330.89 407.921 330.4 408.271 329.67 408.271C328.8 408.271 328.26 407.721 328.26 406.911V406.451H332.46V405.971C332.46 403.381 331.38 402.121 329.34 402.121C327.3 402.121 326.22 403.381 326.22 405.971C326.22 408.561 327.52 409.811 329.54 409.811H329.53ZM325.4 409.641V408.111H324.57V399.271H322.61V407.791C322.61 409.041 323.16 409.641 324.52 409.641H325.4ZM318.81 409.641H320.77V402.291H318.81V409.641ZM319.79 401.391C320.59 401.391 320.94 401.011 320.94 400.421V400.111C320.94 399.521 320.59 399.141 319.79 399.141C318.99 399.141 318.64 399.521 318.64 400.111V400.421C318.64 401.011 318.99 401.391 319.79 401.391ZM309.31 409.641V404.751C309.31 404.091 309.79 403.711 310.36 403.711C310.93 403.711 311.21 404.131 311.21 405.011V409.631H313.17V404.741C313.17 404.081 313.65 403.701 314.22 403.701C314.79 403.701 315.07 404.121 315.07 405.001V409.621H317.03V404.621C317.03 403.071 316.34 402.101 315.1 402.101C314.2 402.101 313.48 402.561 313.17 403.591H312.99C312.74 402.651 312.19 402.101 311.24 402.101C310.29 402.101 309.77 402.741 309.53 403.521H309.31V402.271H307.35V409.621H309.31V409.641ZM302.1 411.751L305.91 399.271H304.3L300.49 411.751H302.1ZM296.53 408.121C295.59 408.121 295.3 407.621 295.3 406.131V403.361C295.3 401.881 295.59 401.371 296.53 401.371C297.47 401.371 297.76 401.871 297.76 403.361V406.131C297.76 407.621 297.47 408.121 296.53 408.121ZM296.53 409.811C298.87 409.811 299.89 408.341 299.89 404.751C299.89 401.161 298.87 399.691 296.53 399.691C294.19 399.691 293.17 401.161 293.17 404.751C293.17 408.341 294.19 409.811 296.53 409.811ZM291.66 399.861H286.17L285.83 405.381L287.52 405.601C287.73 405.281 288.15 404.891 288.82 404.891C289.6 404.891 290.11 405.311 290.11 406.261V406.711C290.11 407.721 289.66 408.201 288.78 408.201C287.97 408.201 287.39 407.651 287.02 406.841L285.58 407.961C286.1 408.951 287.05 409.811 288.79 409.811C291.07 409.811 292.22 408.561 292.22 406.361C292.22 404.161 291.2 403.281 289.57 403.281C288.56 403.281 287.93 403.871 287.72 404.781H287.5L287.71 401.611H291.66V399.861ZM282.92 409.781C283.7 409.781 284.07 409.391 284.07 408.771V408.411C284.07 407.791 283.71 407.401 282.92 407.401C282.13 407.401 281.77 407.791 281.77 408.411V408.771C281.77 409.391 282.13 409.781 282.92 409.781ZM276.96 404.521C276.11 404.521 275.69 404.031 275.69 403.131V402.681C275.69 401.781 276.11 401.291 276.96 401.291C277.81 401.291 278.23 401.781 278.23 402.681V403.131C278.23 404.031 277.81 404.521 276.96 404.521ZM280.34 403.561C280.34 401.071 279.23 399.691 276.96 399.691C274.69 399.691 273.58 400.951 273.58 403.071C273.58 405.041 274.56 406.141 276.12 406.141C277.18 406.141 277.76 405.511 278.01 404.741H278.23C277.89 406.691 276.59 408.001 274.39 409.641H277.15C278.66 408.561 280.33 406.391 280.33 403.561H280.34ZM270.97 406.791C270.97 407.451 270.65 407.831 270.06 407.971V405.591C270.66 405.791 270.97 406.181 270.97 406.791ZM268.03 402.581C268.03 401.911 268.32 401.601 268.94 401.501V403.661C268.34 403.481 268.03 403.141 268.03 402.581ZM272.75 406.571C272.75 405.081 271.95 404.411 270.06 403.941V401.501C270.61 401.581 271.08 401.811 271.43 402.241L272.59 401.191C272.02 400.491 271.25 400.111 270.25 400.001V398.711H268.74V400.001C267.09 400.201 266.22 401.091 266.22 402.691C266.22 404.131 267.13 404.891 268.94 405.321V408.011C268.23 407.931 267.57 407.621 267.16 407.061L265.96 408.141C266.66 409.011 267.63 409.421 268.75 409.511V410.781H270.26V409.481C271.88 409.231 272.75 408.261 272.75 406.571ZM256.66 407.281C256.09 407.281 255.74 406.891 255.74 406.191V404.961C255.74 404.261 256.09 403.871 256.66 403.871C257.11 403.871 257.49 404.221 257.49 404.701V406.461C257.49 406.941 257.11 407.291 256.66 407.291V407.281ZM259.39 410.281H256.76C254.24 410.281 252.91 408.471 252.91 405.911V405.101C252.91 402.541 254.24 400.731 256.76 400.731C259.06 400.731 260.47 402.201 260.47 404.611V405.441C260.47 406.871 260.11 407.351 259.53 407.351C259.15 407.351 258.94 407.081 258.94 406.611V402.791H257.48V403.741H257.31C257.2 403.111 256.82 402.681 256.13 402.681C254.91 402.681 254.21 403.601 254.21 405.591C254.21 407.581 254.91 408.501 256.13 408.501C256.93 408.501 257.38 408.001 257.5 407.291H257.67C257.73 408.001 258.29 408.501 259.28 408.501C260.81 408.501 261.75 407.341 261.75 404.981C261.75 401.551 259.72 399.701 256.75 399.701C253.53 399.701 251.55 401.951 251.55 405.511C251.55 409.071 253.53 411.321 256.75 411.321H259.38V410.281H259.39ZM244.51 409.811C246.29 409.811 247.34 408.911 247.34 407.351C247.34 406.131 246.7 405.501 245.15 405.221L244.38 405.081C243.92 405.001 243.72 404.801 243.72 404.391C243.72 403.891 244.01 403.631 244.57 403.631C245.16 403.631 245.7 403.901 246.11 404.371L247.23 403.221C246.57 402.481 245.72 402.111 244.55 402.111C242.8 402.111 241.86 402.921 241.86 404.461C241.86 405.751 242.52 406.411 244.1 406.701L244.84 406.841C245.29 406.921 245.47 407.131 245.47 407.531C245.47 408.031 245.16 408.291 244.53 408.291C243.8 408.291 243.21 407.971 242.77 407.341L241.61 408.501C242.34 409.381 243.28 409.801 244.5 409.801L244.51 409.811ZM237.65 403.591C238.36 403.591 238.73 404.011 238.73 404.851V405.301H236.57V404.851C236.57 404.011 236.93 403.591 237.65 403.591ZM237.85 409.811C239.1 409.811 240.04 409.311 240.62 408.511L239.63 407.351C239.21 407.921 238.72 408.271 237.99 408.271C237.12 408.271 236.58 407.721 236.58 406.911V406.451H240.78V405.971C240.78 403.381 239.7 402.121 237.66 402.121C235.62 402.121 234.54 403.381 234.54 405.971C234.54 408.561 235.84 409.811 237.86 409.811H237.85ZM233.72 409.641V408.111H232.89V399.271H230.93V407.791C230.93 409.041 231.48 409.641 232.84 409.641H233.72ZM227.12 409.641H229.08V402.291H227.12V409.641ZM228.1 401.391C228.9 401.391 229.25 401.011 229.25 400.421V400.111C229.25 399.521 228.9 399.141 228.1 399.141C227.3 399.141 226.95 399.521 226.95 400.111V400.421C226.95 401.011 227.3 401.391 228.1 401.391ZM217.63 409.641V404.751C217.63 404.091 218.11 403.711 218.68 403.711C219.25 403.711 219.53 404.131 219.53 405.011V409.631H221.49V404.741C221.49 404.081 221.97 403.701 222.54 403.701C223.11 403.701 223.39 404.121 223.39 405.001V409.621H225.35V404.621C225.35 403.071 224.66 402.101 223.42 402.101C222.52 402.101 221.8 402.561 221.49 403.591H221.31C221.06 402.651 220.51 402.101 219.56 402.101C218.61 402.101 218.09 402.741 217.85 403.521H217.63V402.271H215.67V409.621H217.63V409.641ZM207.84 408.191C206.99 408.191 206.57 407.701 206.57 406.801V406.351C206.57 405.451 206.99 404.961 207.84 404.961C208.69 404.961 209.11 405.451 209.11 406.351V406.801C209.11 407.701 208.69 408.191 207.84 408.191ZM207.84 409.811C210.03 409.811 211.22 408.551 211.22 406.431C211.22 404.461 210.24 403.361 208.68 403.361C207.62 403.361 207.04 403.991 206.79 404.761H206.57C206.91 402.811 208.21 401.501 210.41 399.861H207.65C206.14 400.941 204.47 403.111 204.47 405.941C204.47 408.431 205.58 409.811 207.85 409.811H207.84Z" fill="#231F20"/>
<path d="M230.61 453.171V449.491L233.59 443.401H231.45L229.77 447.411H229.55L227.81 443.401H225.62L228.6 449.491V453.171H230.6H230.61ZM224.95 445.141V443.391H218.27V445.141H220.61V453.171H222.61V445.141H224.95ZM217.21 453.171V451.591H216.06V444.981H217.21V443.401H212.91V444.981H214.06V451.591H212.91V453.171H217.21ZM208.43 453.331C210.19 453.331 211.12 452.481 211.79 451.001L210.14 450.051C209.89 450.891 209.5 451.561 208.43 451.561C207.36 451.561 206.64 450.891 206.64 449.541V446.991C206.64 445.651 207.33 444.971 208.43 444.971C209.53 444.971 209.82 445.541 210.03 446.391L211.77 445.491C211.11 443.951 210.2 443.211 208.44 443.211C206.1 443.211 204.52 444.681 204.52 448.341C204.52 452.001 206.1 453.331 208.44 453.331H208.43Z" fill="#231F20"/>
<path d="M243.89 469.96H246.08V460.18H244.2V465.34L244.31 466.98H244.09L243.47 465.43L241 460.19H238.81V469.97H240.69V464.81L240.58 463.17H240.8L241.42 464.72L243.89 469.96ZM237.1 469.96V468.38H235.95V461.77H237.1V460.19H232.8V461.77H233.95V468.38H232.8V469.96H237.1ZM229.19 469.96H231.07V460.18H228.98L227.68 463.09L226.95 465.18H226.81L226.08 463.09L224.75 460.18H222.65V469.96H224.53V464.86L224.42 463.22H224.64L225.24 464.77L226.85 468.31L228.47 464.77L229.07 463.22H229.29L229.18 464.86V469.96H229.19ZM215.69 468.21V461.93H217.12C218.23 461.93 218.82 462.56 218.82 463.89V466.24C218.82 467.57 218.23 468.2 217.12 468.2H215.69V468.21ZM213.69 469.96H217.12C219.5 469.96 220.94 468.57 220.94 465.07C220.94 461.57 219.5 460.18 217.12 460.18H213.69V469.96ZM209.26 465.96H207.24L207.81 463.7L208.12 462.01H208.34L208.65 463.7L209.25 465.96H209.26ZM212.32 469.96L209.55 460.18H207L204.23 469.96H206.15L206.75 467.56H209.75L210.35 469.96H212.33H212.32Z" fill="#231F20"/>
<path d="M226.2 486.76V485.01H222.15V482.68H225.58V480.94H222.15V478.73H226.2V476.98H220.15V486.76H226.2ZM218.37 486.76V485.01H214.32V482.68H217.75V480.94H214.32V478.73H218.37V476.98H212.32V486.76H218.37ZM206.79 486.76V482.68H210.08V480.94H206.79V478.73H210.67V476.98H204.79V486.76H206.79Z" fill="#231F20"/>
<path d="M267.4 20.68L270.05 15.92H267.91L266.33 19.13H266.11L264.54 15.92H262.23L264.84 20.68L262.08 25.69H264.22L265.94 22.19H266.14L267.92 25.69H270.23L267.41 20.68H267.4ZM258.3 21.68H256.28L256.85 19.42L257.16 17.73H257.38L257.69 19.42L258.29 21.68H258.3ZM261.37 25.69L258.6 15.91H256.05L253.28 25.69H255.2L255.8 23.29H258.8L259.4 25.69H261.38H261.37ZM253.3 17.66V15.91H246.62V17.66H248.96V25.69H250.96V17.66H253.3ZM239.05 25.86C241.28 25.86 242.5 24.73 242.5 22.65C242.5 21 241.73 20.24 239.81 19.85L238.91 19.67C238.22 19.53 237.93 19.21 237.93 18.56C237.93 17.82 238.32 17.5 239.2 17.5C240.01 17.5 240.6 17.78 241.09 18.38L242.38 17.09C241.65 16.18 240.63 15.75 239.23 15.75C237.07 15.75 235.92 16.77 235.92 18.66C235.92 20.28 236.76 21.2 238.55 21.53L239.45 21.7C240.16 21.84 240.49 22.2 240.49 22.88C240.49 23.71 240.01 24.11 239.09 24.11C238.17 24.11 237.44 23.73 236.89 23.03L235.6 24.32C236.44 25.36 237.56 25.86 239.05 25.86ZM234.42 25.69V23.94H230.37V21.61H233.8V19.87H230.37V17.66H234.42V15.91H228.37V25.69H234.42ZM226.83 25.69V23.94H223.51V15.91H221.51V25.69H226.83ZM217.07 21.68H215.05L215.62 19.42L215.93 17.73H216.15L216.46 19.42L217.06 21.68H217.07ZM220.14 25.69L217.37 15.91H214.82L212.05 25.69H213.97L214.57 23.29H217.57L218.17 25.69H220.15H220.14ZM207.65 25.86C209.88 25.86 211.1 24.73 211.1 22.65C211.1 21 210.33 20.24 208.41 19.85L207.51 19.67C206.82 19.53 206.53 19.21 206.53 18.56C206.53 17.82 206.92 17.5 207.8 17.5C208.61 17.5 209.2 17.78 209.69 18.38L210.98 17.09C210.25 16.18 209.23 15.75 207.83 15.75C205.67 15.75 204.52 16.77 204.52 18.66C204.52 20.28 205.36 21.2 207.15 21.53L208.05 21.7C208.76 21.84 209.09 22.2 209.09 22.88C209.09 23.71 208.61 24.11 207.69 24.11C206.77 24.11 206.04 23.73 205.49 23.03L204.2 24.32C205.04 25.36 206.16 25.86 207.65 25.86Z" fill="#231F20"/>
<path d="M261.3 63.7098V61.9598H257.25V59.6298H260.68V57.8898H257.25V55.6798H261.3V53.9298H255.25V63.7098H261.3ZM251.64 63.7098H253.32V58.3198H249.79V59.9998H251.4V60.5698C251.4 61.5798 250.66 62.0998 249.65 62.0998C248.54 62.0998 247.86 61.4298 247.86 60.0998V57.5498C247.86 56.2198 248.55 55.5298 249.6 55.5298C250.65 55.5298 251.25 56.0898 251.52 56.9598L253.16 56.0198C252.52 54.5398 251.35 53.7698 249.62 53.7698C247.28 53.7698 245.74 55.1698 245.74 58.8698C245.74 62.5698 247.38 63.8798 249.23 63.8798C250.52 63.8798 251.3 63.1698 251.43 62.1698H251.65V63.7098H251.64ZM241.9 59.6998H239.88L240.45 57.4398L240.76 55.7498H240.98L241.29 57.4398L241.89 59.6998H241.9ZM244.97 63.7098L242.2 53.9298H239.65L236.88 63.7098H238.8L239.4 61.3098H242.4L243 63.7098H244.98H244.97ZM230.87 58.3398V55.6798H232.85C233.38 55.6798 233.72 55.9198 233.72 56.5898V57.4298C233.72 58.0998 233.38 58.3398 232.85 58.3398H230.87ZM230.87 60.0098H232.2L233.71 63.7098H235.88L234.17 59.8298C235.22 59.4398 235.78 58.3998 235.78 56.9698C235.78 55.1198 234.84 53.9298 233.09 53.9298H228.86V63.7098H230.86V60.0098H230.87ZM223.28 62.1098C222.17 62.1098 221.53 61.4198 221.53 60.0898V57.5398C221.53 56.2098 222.17 55.5198 223.28 55.5198C224.39 55.5198 225.03 56.2098 225.03 57.5398V60.0898C225.03 61.4198 224.39 62.1098 223.28 62.1098ZM223.28 63.8798C225.62 63.8798 227.16 62.4798 227.16 58.8198C227.16 55.1598 225.62 53.7598 223.28 53.7598C220.94 53.7598 219.4 55.1598 219.4 58.8198C219.4 62.4798 220.94 63.8798 223.28 63.8798ZM218.65 55.6798V53.9298H211.97V55.6798H214.31V63.7098H216.31V55.6798H218.65ZM207.65 63.8798C209.88 63.8798 211.1 62.7498 211.1 60.6698C211.1 59.0198 210.33 58.2598 208.41 57.8698L207.51 57.6898C206.82 57.5498 206.53 57.2298 206.53 56.5798C206.53 55.8398 206.92 55.5198 207.8 55.5198C208.61 55.5198 209.2 55.7998 209.69 56.3998L210.98 55.1098C210.25 54.1998 209.23 53.7698 207.83 53.7698C205.67 53.7698 204.52 54.7898 204.52 56.6798C204.52 58.2998 205.36 59.2198 207.15 59.5498L208.05 59.7198C208.76 59.8598 209.09 60.2198 209.09 60.8998C209.09 61.7298 208.61 62.1298 207.69 62.1298C206.77 62.1298 206.04 61.7498 205.49 61.0498L204.2 62.3398C205.04 63.3798 206.16 63.8798 207.65 63.8798Z" fill="#231F20"/>
<path d="M326.03 80.5101V76.2201C326.03 75.3901 326.52 75.1401 327.58 75.1401H328.08V73.1501H327.73C326.75 73.1501 326.34 73.8801 326.25 74.7201H326.03V73.1501H324.07V80.5001H326.03V80.5101ZM316.37 80.5101H318.33V75.6201C318.33 74.9601 318.83 74.5801 319.44 74.5801C320.05 74.5801 320.35 75.0001 320.35 75.8801V80.5001H322.31V75.5001C322.31 73.9301 321.6 72.9801 320.29 72.9801C319.3 72.9801 318.79 73.6201 318.55 74.4001H318.33V70.1401H316.37V80.5101ZM311.12 82.6201L314.93 70.1401H313.32L309.51 82.6201H311.12ZM305.49 75.4001C304.64 75.4001 304.22 74.9101 304.22 74.0101V73.5601C304.22 72.6601 304.64 72.1701 305.49 72.1701C306.34 72.1701 306.76 72.6601 306.76 73.5601V74.0101C306.76 74.9101 306.34 75.4001 305.49 75.4001ZM308.86 74.4301C308.86 71.9401 307.75 70.5601 305.48 70.5601C303.21 70.5601 302.1 71.8201 302.1 73.9401C302.1 75.9101 303.08 77.0101 304.64 77.0101C305.7 77.0101 306.28 76.3801 306.53 75.6101H306.75C306.41 77.5601 305.11 78.8701 302.91 80.5101H305.67C307.18 79.4301 308.85 77.2601 308.85 74.4301H308.86ZM301.04 78.8301H296.91L298.77 77.0501C300.41 75.4801 300.87 74.7101 300.87 73.3701C300.87 71.6301 300.04 70.5701 297.82 70.5701C295.78 70.5701 294.92 71.6901 294.54 73.0301L296.28 73.6901C296.43 72.9201 296.81 72.2501 297.64 72.2501C298.34 72.2501 298.77 72.6801 298.77 73.3101V73.7601C298.77 74.5301 298.42 75.1201 297.44 76.0701L294.76 78.6901V80.5101H301.04V78.8301ZM291.94 80.6501C292.72 80.6501 293.09 80.2601 293.09 79.6401V79.2801C293.09 78.6601 292.73 78.2701 291.94 78.2701C291.15 78.2701 290.79 78.6601 290.79 79.2801V79.6401C290.79 80.2601 291.15 80.6501 291.94 80.6501ZM289.29 80.5101V78.8301H287.4V70.7301H285.33L282.77 72.3701L283.58 73.7401L285.44 72.5501V78.8301H283.27V80.5101H289.29ZM279.98 77.6701C279.98 78.3301 279.66 78.7101 279.07 78.8501V76.4701C279.67 76.6701 279.98 77.0601 279.98 77.6701ZM277.04 73.4501C277.04 72.7801 277.33 72.4701 277.95 72.3701V74.5301C277.35 74.3501 277.04 74.0101 277.04 73.4501ZM281.76 77.4401C281.76 75.9501 280.96 75.2801 279.07 74.8101V72.3701C279.62 72.4501 280.09 72.6801 280.44 73.1101L281.6 72.0601C281.03 71.3601 280.26 70.9801 279.26 70.8701V69.5801H277.75V70.8701C276.1 71.0701 275.23 71.9601 275.23 73.5601C275.23 75.0001 276.14 75.7601 277.95 76.1901V78.8801C277.24 78.8001 276.58 78.4901 276.17 77.9301L274.97 79.0101C275.67 79.8801 276.64 80.2901 277.76 80.3801V81.6501H279.27V80.3501C280.89 80.1001 281.76 79.1301 281.76 77.4401ZM265.67 78.1601C265.1 78.1601 264.75 77.7701 264.75 77.0701V75.8401C264.75 75.1401 265.1 74.7501 265.67 74.7501C266.12 74.7501 266.5 75.1001 266.5 75.5801V77.3401C266.5 77.8201 266.12 78.1701 265.67 78.1701V78.1601ZM268.41 81.1501H265.78C263.26 81.1501 261.93 79.3401 261.93 76.7801V75.9701C261.93 73.4101 263.26 71.6001 265.78 71.6001C268.08 71.6001 269.49 73.0701 269.49 75.4801V76.3101C269.49 77.7401 269.13 78.2201 268.55 78.2201C268.17 78.2201 267.96 77.9501 267.96 77.4801V73.6601H266.5V74.6101H266.33C266.22 73.9801 265.84 73.5501 265.15 73.5501C263.93 73.5501 263.23 74.4701 263.23 76.4601C263.23 78.4501 263.93 79.3701 265.15 79.3701C265.95 79.3701 266.4 78.8701 266.52 78.1601H266.69C266.75 78.8701 267.31 79.3701 268.3 79.3701C269.83 79.3701 270.77 78.2101 270.77 75.8501C270.77 72.4201 268.74 70.5701 265.77 70.5701C262.55 70.5701 260.57 72.8201 260.57 76.3801C260.57 79.9401 262.55 82.1901 265.77 82.1901H268.4V81.1501H268.41ZM253.52 80.6801C255.3 80.6801 256.35 79.7801 256.35 78.2201C256.35 77.0001 255.71 76.3701 254.16 76.0901L253.39 75.9501C252.93 75.8701 252.73 75.6701 252.73 75.2601C252.73 74.7601 253.02 74.5001 253.58 74.5001C254.17 74.5001 254.71 74.7701 255.12 75.2401L256.24 74.0901C255.58 73.3501 254.73 72.9801 253.56 72.9801C251.81 72.9801 250.87 73.7901 250.87 75.3301C250.87 76.6201 251.53 77.2801 253.11 77.5701L253.85 77.7101C254.3 77.7901 254.48 78.0001 254.48 78.4001C254.48 78.9001 254.17 79.1601 253.54 79.1601C252.81 79.1601 252.22 78.8401 251.78 78.2101L250.62 79.3701C251.35 80.2501 252.29 80.6701 253.51 80.6701L253.52 80.6801ZM247.89 80.5101V76.2201C247.89 75.3901 248.38 75.1401 249.44 75.1401H249.94V73.1501H249.59C248.61 73.1501 248.2 73.8801 248.11 74.7201H247.89V73.1501H245.93V80.5001H247.89V80.5101ZM242.13 80.5101H244.09V73.1601H242.13V78.0501C242.13 78.7101 241.63 79.0901 241.02 79.0901C240.41 79.0901 240.11 78.6701 240.11 77.7901V73.1701H238.15V78.1701C238.15 79.7401 238.86 80.6901 240.17 80.6901C241.16 80.6901 241.67 80.0501 241.91 79.2701H242.13V80.5201V80.5101ZM233.68 79.1201C232.97 79.1201 232.6 78.7001 232.6 77.8601V75.8001C232.6 74.9601 232.96 74.5401 233.68 74.5401C234.4 74.5401 234.76 74.9601 234.76 75.8001V77.8601C234.76 78.7001 234.4 79.1201 233.68 79.1201ZM233.68 80.6801C235.73 80.6801 236.8 79.4301 236.8 76.8401C236.8 74.2501 235.72 72.9901 233.68 72.9901C231.64 72.9901 230.56 74.2501 230.56 76.8401C230.56 79.4301 231.64 80.6801 233.68 80.6801ZM223.28 80.5101H225.24V75.6201C225.24 74.9601 225.74 74.5801 226.35 74.5801C226.96 74.5801 227.26 75.0001 227.26 75.8801V80.5001H229.22V75.5001C229.22 73.9301 228.51 72.9801 227.2 72.9801C226.21 72.9801 225.7 73.6201 225.46 74.4001H225.24V70.1401H223.28V80.5101ZM215.46 79.0701C214.61 79.0701 214.19 78.5801 214.19 77.6801V77.2301C214.19 76.3301 214.61 75.8401 215.46 75.8401C216.31 75.8401 216.73 76.3301 216.73 77.2301V77.6801C216.73 78.5801 216.31 79.0701 215.46 79.0701ZM215.46 80.6801C217.65 80.6801 218.84 79.4201 218.84 77.3001C218.84 75.3301 217.86 74.2301 216.3 74.2301C215.24 74.2301 214.66 74.8601 214.41 75.6301H214.19C214.53 73.6801 215.83 72.3701 218.03 70.7301H215.27C213.76 71.8101 212.09 73.9801 212.09 76.8101C212.09 79.3001 213.2 80.6801 215.47 80.6801H215.46ZM206.41 74.6701V76.2801H207.18C208.12 76.2801 208.68 76.7601 208.68 77.4101V77.8601C208.68 78.5601 208.19 79.0701 207.36 79.0701C206.45 79.0701 205.9 78.5001 205.54 77.6801L204.08 78.8001C204.63 79.7901 205.61 80.6801 207.37 80.6801C209.46 80.6801 210.75 79.5301 210.75 77.6401C210.75 76.2801 209.99 75.7201 208.93 75.5401V75.3201C209.83 75.1501 210.57 74.4501 210.57 73.1401C210.57 71.4001 209.41 70.5801 207.5 70.5801C206.17 70.5801 205.06 71.1401 204.36 72.2201L205.59 73.3501C206.07 72.5901 206.64 72.1901 207.38 72.1901C208.12 72.1901 208.51 72.6201 208.51 73.1701V73.6201C208.51 74.1101 208.12 74.6801 207.21 74.6801H206.4L206.41 74.6701Z" fill="#231F20"/>
</g>
<defs>
<clipPath id="clip0_3330_518">
<rect width="346" height="509" fill="white"/>
</clipPath>
</defs>
</svg>
