<svg width="64" height="64" viewBox="0 0 64 64" fill="none" xmlns="http://www.w3.org/2000/svg">
<path d="M36.9598 63.3689C37.9519 64.4336 39.5184 64.0787 40.0196 62.7322L42.7244 55.3316C42.5782 55.6865 42.15 55.9057 41.795 55.7596L49.0529 58.6822C50.4105 59.2563 51.6845 58.2543 51.6114 56.8347L51.1102 48.9332C51.1102 49.3611 50.8282 49.716 50.4 49.716L58.2323 49.4342C59.6526 49.3611 60.5089 47.9416 59.7988 46.6577L56.1646 39.6851C56.3735 40.04 56.2377 40.468 55.8827 40.6767L62.9317 37.1905C64.2162 36.5538 64.352 34.915 63.2868 34.0591L57.0941 29.1532C57.376 29.4351 57.4491 29.863 57.2403 30.2179L62.2947 24.1743C63.2241 23.0366 62.7229 21.544 61.3026 21.1891L53.6896 19.2685C54.0447 19.3415 54.3266 19.7695 54.1909 20.1975L56.3317 12.5882C56.6868 11.2312 55.6216 9.95782 54.1909 10.2396L46.4317 11.4504C46.8598 11.3774 47.2149 11.6592 47.288 12.0872L46.1497 4.25869C45.9409 2.83913 44.4371 2.19197 43.2988 2.97482L36.751 7.39008C37.106 7.18132 37.5342 7.24395 37.743 7.59884L33.618 0.908103C32.8348 -0.302701 31.1952 -0.302701 30.4851 0.908103L26.287 7.59884C26.4959 7.24395 26.924 7.17088 27.2791 7.39008L20.7313 2.97482C19.5199 2.19197 18.0265 2.82869 17.8803 4.25869L16.742 12.0872C16.8151 11.6592 17.1702 11.3774 17.5984 11.4504L9.83918 10.0935C8.41892 9.88475 7.34329 11.0851 7.69835 12.4421L9.83918 20.0513C9.69297 19.6964 9.98538 19.2685 10.3404 19.1224L2.72745 21.116C1.30719 21.4709 0.805925 23.0366 1.73536 24.1013L6.7898 30.1448C6.50784 29.863 6.58094 29.362 6.93601 29.0802L0.743267 33.986C-0.395027 34.915 -0.186166 36.4807 1.09833 37.1174L8.1474 40.6037C7.79234 40.3949 7.64613 39.967 7.86544 39.6121L4.23125 46.5846C3.44802 47.9416 4.30435 49.3611 5.72461 49.4342L13.5569 49.716C13.1287 49.716 12.8468 49.3611 12.8468 48.9332L12.3455 56.8347C12.2724 58.2543 13.5569 59.2563 14.9041 58.6822L22.162 55.7596C21.8069 55.9057 21.3788 55.6865 21.2326 55.3316L23.9373 62.7322C24.4386 64.0891 26.005 64.444 26.9971 63.3689L32.4797 57.7428C32.1978 58.0246 31.6965 58.0246 31.4146 57.7428L36.9703 63.3689H36.9598Z" fill="#F9ED32"/>
</svg>
