<svg width="33" height="27" viewBox="0 0 33 27" fill="none" xmlns="http://www.w3.org/2000/svg">
<g clip-path="url(#clip0_3295_373)">
<path fill-rule="evenodd" clip-rule="evenodd" d="M32.47 7.98C32.47 7.29 31.91 6.72 31.21 6.72H28.98C28.93 6.63 28.88 6.54 28.83 6.46C26.23 2.1 24.82 0 21.42 0H11.03C7.63 0 6.23 2.1 3.62 6.46C3.57 6.55 3.52 6.63 3.47 6.72H1.26C0.57 6.72 0 7.28 0 7.98C0 8.68 0.56 9.24 1.26 9.24H2.23C1.27 11.49 0.83 13.53 0.83 14.82V24.99C0.83 25.23 0.89 25.46 1 25.65C1.27 26.41 2 26.96 2.85 26.96C3.94 26.96 4.82 26.08 4.82 24.99V23.02H27.67V24.99C27.67 26.08 28.55 26.96 29.64 26.96C30.49 26.96 31.22 26.41 31.49 25.65C31.6 25.45 31.66 25.23 31.66 24.99V14.82C31.66 13.53 31.22 11.49 30.26 9.24H31.23C31.92 9.24 32.49 8.68 32.49 7.98H32.47ZM5.98 7.86C8.58 3.5 9.34 2.73 11.04 2.73H21.43C23.13 2.73 23.89 3.5 26.49 7.86C27.19 9.03 27.71 10.18 28.09 11.2H4.38C4.76 10.17 5.28 9.03 5.98 7.86ZM5.47 17.84C4.54 17.84 3.79 17.09 3.79 16.16C3.79 15.23 4.54 14.48 5.47 14.48C6.4 14.48 7.15 15.23 7.15 16.16C7.15 17.09 6.4 17.84 5.47 17.84ZM21.68 17.18H10.78C10.18 17.18 9.69 16.69 9.69 16.09C9.69 15.49 10.18 15 10.78 15H21.68C22.28 15 22.77 15.49 22.77 16.09C22.77 16.69 22.28 17.18 21.68 17.18ZM27.01 17.84C26.08 17.84 25.33 17.09 25.33 16.16C25.33 15.23 26.08 14.48 27.01 14.48C27.94 14.48 28.69 15.23 28.69 16.16C28.69 17.09 27.94 17.84 27.01 17.84Z" fill="white"/>
</g>
<defs>
<clipPath id="clip0_3295_373">
<rect width="32.47" height="26.95" fill="white"/>
</clipPath>
</defs>
</svg>
