<svg width="25" height="33" viewBox="0 0 25 33" fill="none" xmlns="http://www.w3.org/2000/svg">
<path d="M24.28 1.21C24.1 0.93 23.8 0.93 23.62 1.21L22.08 3.59L20.54 1.21C20.45 1.07 20.32 1 20.2 1C20.08 1 19.95 1.06 19.86 1.21L18.33 3.58L16.8 1.21C16.71 1.07 16.58 1 16.46 1C16.34 1 16.21 1.06 16.12 1.21L14.58 3.59L13.04 1.21C12.86 0.93 12.56 0.93 12.38 1.21L10.84 3.59L9.3 1.21C9.12 0.93 8.82 0.93 8.64 1.21L7.1 3.59L5.54 1.21C5.36 0.93 5.06 0.93 4.88 1.21L3.34 3.59L1.8 1.21C1.62 0.93 1.32 0.93 1.14 1.21C1.05 1.35 1 1.54 1 1.72V31.71C1 31.89 1.05 32.08 1.14 32.22C1.32 32.5 1.62 32.5 1.8 32.22L3.34 29.84L4.88 32.22C5.06 32.5 5.36 32.5 5.54 32.22L7.08 29.84L8.62 32.22C8.8 32.5 9.1 32.5 9.28 32.22L10.82 29.84L12.36 32.22C12.54 32.5 12.84 32.5 13.02 32.22L14.56 29.84L16.1 32.22C16.19 32.36 16.32 32.43 16.44 32.43C16.56 32.43 16.69 32.37 16.78 32.22L18.31 29.85L19.84 32.22C19.93 32.36 20.06 32.43 20.18 32.43C20.3 32.43 20.43 32.37 20.52 32.22L22.06 29.84L23.6 32.22C23.78 32.5 24.08 32.5 24.26 32.22V1.21H24.28Z" fill="#43512A" stroke="white" stroke-width="0.5" stroke-miterlimit="10"/>
</svg>
