<svg width="34" height="28" viewBox="0 0 34 28" fill="none" xmlns="http://www.w3.org/2000/svg">
<path fill-rule="evenodd" clip-rule="evenodd" d="M31.88 12.71V26.57C31.88 27.06 31.48 27.5 30.95 27.5H29.13C28.6 27.5 28.2 27.06 28.2 26.57V24.36H5.58V26.57C5.58 27.06 5.14 27.5 4.65 27.5H2.83C2.3 27.5 1.86 27.06 1.86 26.57V12.71L2.44 11.16H0.93C0.44 11.16 0 10.76 0 10.23V9.52C0 8.99 0.44 8.59 0.93 8.59H3.41L6.6 0H27.63L30.51 8.59H32.86C33.35 8.59 33.75 8.99 33.75 9.52V10.23C33.75 10.76 33.35 11.16 32.86 11.16H31.4L31.89 12.71H31.88ZM6.42 8.59L8.9 1.95H25.1L27.31 8.59H6.42ZM11.78 19.75H22.23V22.23H11.78V19.75ZM8.01 14.96V17.4H4.25L2.83 16.12V13.55L8.01 14.97V14.96ZM25.72 14.96V17.4H29.48L30.9 16.12V13.55L25.72 14.97V14.96Z" fill="white"/>
</svg>
